<svg width="23" height="23" viewBox="0 0 23 23" fill="none" xmlns="http://www.w3.org/2000/svg">
<path d="M15.2149 7.05078C14.6953 6.53125 14.0274 6.08594 13.3594 5.78906C12.6172 5.56641 11.875 5.41797 11.1328 5.41797C10.3906 5.41797 9.64844 5.56641 8.90626 5.86328C8.23829 6.16016 7.57032 6.60547 7.05078 7.125C6.01172 8.16407 5.41797 9.64844 5.41797 11.1328C5.41797 12.6172 6.01172 14.1016 7.125 15.2149C8.16407 16.2539 9.64844 16.9219 11.207 16.9219C12.7656 16.9219 14.1758 16.3281 15.2891 15.2149C15.8086 14.6953 16.2539 14.0274 16.5508 13.3594C16.8477 12.6914 16.9961 11.9492 16.9961 11.1328C16.9961 10.3164 16.8477 9.64844 16.5508 8.90626C16.1055 8.23829 15.7344 7.64453 15.2149 7.05078ZM14.25 13.2109C13.8047 13.9531 13.0625 14.4727 12.2461 14.6953C11.4297 14.918 10.5391 14.918 9.72266 14.5469C9.20313 14.3242 8.75782 14.0274 8.38672 13.582C8.01563 13.2109 7.71875 12.6914 7.57032 12.1719C7.42188 11.6524 7.34766 11.0586 7.42188 10.5391C7.4961 10.0195 7.71875 9.50001 8.01563 9.05469C8.3125 8.60938 8.75782 8.23829 9.20313 7.94141C9.64844 7.64453 10.168 7.4961 10.7617 7.42188C11.2813 7.34766 11.875 7.42188 12.3945 7.64453C12.9141 7.79297 13.3594 8.08985 13.8047 8.53516C14.3985 9.12891 14.7695 9.94532 14.8438 10.7617C14.918 11.6524 14.6953 12.4688 14.25 13.2109Z" fill="white"/>
<path d="M22.1914 6.53126C22.1172 5.34376 21.9688 4.52735 21.6719 3.85938C21.375 3.11719 20.9297 2.44922 20.4102 1.85547C19.8164 1.26172 19.1485 0.816408 18.4063 0.593751C17.6641 0.296875 16.9219 0.148438 15.7344 0.0742189C14.5469 0 14.1758 0 11.1328 0C8.08986 0 7.71876 0 6.53126 0.0742189C5.34376 0.148438 4.52735 0.296875 3.85938 0.593751C3.11719 0.890626 2.44922 1.33594 1.85547 1.85547C1.33594 2.44922 0.890626 3.11719 0.593751 3.85938C0.296875 4.60157 0.148438 5.34376 0.0742189 6.53126C0 7.71876 0 8.08986 0 11.1328C0 14.1758 0 14.5469 0.0742189 15.7344C0.148438 16.9219 0.296875 17.7383 0.593751 18.4063C0.890626 19.1485 1.33594 19.8164 1.85547 20.4102C2.375 21.0039 3.11719 21.4493 3.85938 21.6719C4.60157 21.9688 5.34376 22.1172 6.53126 22.1914C7.71876 22.2657 8.08986 22.2657 11.1328 22.2657C14.1758 22.2657 14.5469 22.2657 15.7344 22.1914C16.9219 22.1172 17.7383 21.9688 18.4063 21.6719C19.1485 21.375 19.8164 20.9297 20.4102 20.4102C21.0039 19.8907 21.4493 19.1485 21.6719 18.4063C21.9688 17.6641 22.1172 16.9219 22.1914 15.7344C22.2657 14.5469 22.2657 14.1758 22.2657 11.1328C22.2657 8.08986 22.2657 7.71876 22.1914 6.53126ZM20.1875 15.6602C20.1133 16.7735 19.9649 17.3672 19.8164 17.7383C19.668 18.2578 19.3711 18.6289 19 19C18.6289 19.3711 18.2578 19.5938 17.7383 19.8164C17.3672 19.9649 16.7735 20.1875 15.6602 20.1875C14.4727 20.2618 14.1016 20.2617 11.1328 20.2617C8.16407 20.2617 7.79298 20.2618 6.60548 20.1875C5.4922 20.1133 4.89844 19.9649 4.52735 19.8164C4.00782 19.668 3.63672 19.3711 3.26563 19C2.89454 18.6289 2.59766 18.1836 2.44922 17.7383C2.30078 17.3672 2.07813 16.7735 2.07813 15.6602C2.00391 14.4727 2.00391 14.1016 2.00391 11.1328C2.00391 8.16407 2.00391 7.79298 2.07813 6.60548C2.15235 5.4922 2.30078 4.89844 2.44922 4.52735C2.59766 4.00782 2.89454 3.63672 3.26563 3.26563C3.63672 2.89454 4.00782 2.67188 4.52735 2.44922C4.89844 2.30078 5.4922 2.07813 6.60548 2.07813C7.79298 2.00391 8.16407 2.00391 11.1328 2.00391C14.1016 2.00391 14.4727 2.00391 15.6602 2.07813C16.7735 2.15235 17.3672 2.30078 17.7383 2.44922C18.2578 2.59766 18.6289 2.89454 19 3.26563C19.3711 3.63672 19.5938 4.00782 19.8164 4.52735C19.9649 4.89844 20.1875 5.4922 20.1875 6.60548C20.2618 7.79298 20.2617 8.16407 20.2617 11.1328C20.2617 14.1016 20.2618 14.4727 20.1875 15.6602Z" fill="white"/>
<path d="M18.1836 4.30469C18.0352 4.15625 17.8867 4.08203 17.7383 4.00781C17.5898 3.93359 17.3672 3.93359 17.2188 3.93359C17.0703 3.93359 16.8477 4.00781 16.6992 4.08203C16.5508 4.15625 16.4023 4.23047 16.2539 4.37891C16.0313 4.60156 15.8828 4.97266 15.8828 5.34375C15.8828 5.71485 16.0313 6.01172 16.2539 6.3086C16.4766 6.53125 16.8477 6.67969 17.2188 6.67969C17.5898 6.67969 17.8867 6.53125 18.1836 6.3086C18.332 6.16016 18.4063 6.01172 18.4805 5.86328C18.4805 5.64063 18.5547 5.49219 18.5547 5.26953C18.5547 5.1211 18.5547 4.89844 18.4805 4.75C18.4063 4.60156 18.2578 4.45313 18.1836 4.30469Z" fill="white"/>
</svg>
