<svg width="49" height="58" viewBox="0 0 49 58" fill="currentColor" xmlns="http://www.w3.org/2000/svg">
<path d="M22.5626 16.9287C22.5865 16.9048 22.6064 16.8809 22.6303 16.861C22.6742 16.8411 22.7221 16.8212 22.7659 16.8013C22.6981 16.8451 22.6303 16.8849 22.5626 16.9287Z" fill="currentColor"/>
<path d="M18.029 17.2791C16.5696 17.3627 15.1023 17.4504 13.6469 17.5141C12.2354 17.5818 10.776 17.8088 10.0383 18.7367C9.85094 18.9676 9.72335 19.2265 9.59575 19.5252C9.46018 19.8637 9.32461 20.2022 9.20499 20.5248C9.08936 20.8473 9.00562 21.15 8.92587 21.4965L8.69859 22.5518C8.69062 22.5956 8.67467 22.6394 8.65872 22.6792C8.5072 23.0297 8.10049 23.189 7.7496 23.0416L7.72967 23.0337C6.93219 22.6912 5.9513 22.7151 5.0701 23.0098C4.19288 23.3084 3.37547 23.85 2.87306 24.5709C2.39857 25.2319 2.30287 26.1598 2.55806 26.9882C2.81325 27.8125 3.39541 28.5015 4.13307 28.6727C4.42813 28.7404 4.66737 28.9794 4.72718 29.294C4.80294 29.7201 4.52383 30.1263 4.09718 30.202C3.45522 30.3174 2.82521 30.652 2.3547 31.1219C1.88021 31.5918 1.56919 32.1932 1.50938 32.8104C1.44957 33.3958 1.68483 34.0489 2.11148 34.5348C2.53414 35.0246 3.13623 35.3233 3.71838 35.2835L3.75826 35.2835C3.97756 35.2676 4.20085 35.3631 4.34041 35.5543C4.55174 35.849 4.48395 36.2632 4.1849 36.4742C3.33559 37.0795 2.90097 38.2305 2.98072 39.3933C3.01661 39.9708 3.1442 40.5522 3.38743 41.0898C3.51503 41.3487 3.65857 41.6234 3.83003 41.8345L3.95762 41.9938C4.00547 42.0456 4.05731 42.0894 4.10914 42.1372C4.20484 42.2367 4.32446 42.3164 4.44408 42.404C4.92655 42.7345 5.52864 42.9854 6.12276 43.2682C6.72086 43.5469 7.32295 43.8576 7.86922 44.2478C8.24404 44.5107 8.58695 44.8014 8.90992 45.116C8.03669 43.3916 7.15947 41.6314 6.47763 39.7398C5.76788 37.7287 5.417 35.5184 5.56054 33.364C5.7001 31.2015 6.29023 29.071 7.29106 27.1395C8.32378 25.2359 9.78714 23.5195 11.5775 22.3208C13.3399 21.0903 15.2538 20.254 17.1079 19.3579C18.6152 18.657 20.1264 17.9561 21.6495 17.2831C21.6376 17.295 21.6256 17.311 21.6097 17.3229C21.4262 17.4703 21.2628 17.6256 21.0953 17.745C20.7524 17.9561 20.4773 18.1473 20.2619 18.2229C20.0546 18.3145 19.939 18.3663 19.939 18.3663C19.6878 18.4858 19.6917 18.4619 19.9469 18.3942C19.9469 18.3942 20.0666 18.3583 20.2859 18.2946C20.3337 18.2867 20.3855 18.2667 20.4414 18.2508C19.4525 18.8561 18.4597 19.4535 17.4668 20.0469C15.6884 21.1062 13.8782 22.0938 12.3072 23.3164C9.16113 25.7218 7.35884 29.5568 7.14352 33.4635C6.992 35.4229 7.28308 37.3703 7.90112 39.2619C8.49524 41.1695 9.39239 43.0093 10.1939 44.9209C11.0192 46.8205 11.7649 48.8236 12.0879 50.9144C12.2394 51.9617 12.3072 53.025 12.2035 54.0724C12.1158 54.9366 11.9164 55.7848 11.5974 56.5773C11.5496 56.6331 11.5057 56.6809 11.4698 56.7286C11.6851 55.8446 11.7808 54.9485 11.7609 54.0565C11.733 53.0449 11.5735 52.0454 11.3183 51.0697C10.8677 49.2617 10.1021 47.5612 9.26879 45.8647C8.75043 45.3988 8.19619 44.9846 7.59011 44.654C7.03586 44.3394 6.44972 44.1005 5.84364 43.8815C5.23757 43.6584 4.59959 43.4753 3.97357 43.1129C3.81807 43.0173 3.66256 42.9297 3.51901 42.8022C3.44724 42.7425 3.37148 42.6867 3.3037 42.623L3.10832 42.4159C2.85312 42.1372 2.66971 41.8385 2.48629 41.5279C2.14337 40.8987 1.92407 40.2017 1.84831 39.4809C1.77255 38.7641 1.8204 38.0154 2.06761 37.2986C2.1673 36.9999 2.31483 36.7092 2.4823 36.4304C2.41452 36.4065 2.34673 36.3866 2.28293 36.3587C1.80844 36.1516 1.39375 35.849 1.05084 35.4826C0.372987 34.7538 -0.057648 33.7622 0.00614977 32.6949C0.0619729 31.6635 0.568368 30.7197 1.25021 30.0307C1.52533 29.7519 1.83236 29.513 2.16331 29.3059C2.10749 29.2502 2.04369 29.2024 1.99186 29.1466C1.52932 28.6528 1.21432 28.0555 1.0309 27.4342C0.847483 26.8129 0.79166 26.1559 0.879382 25.5067C0.963117 24.8616 1.21033 24.2045 1.60109 23.6669C2.35869 22.6275 3.44325 21.9226 4.61554 21.5721C5.53263 21.3013 6.54542 21.2336 7.51435 21.4805L7.5941 21.158C7.68581 20.7916 7.81739 20.3973 7.96891 20.0389C8.12043 19.6845 8.27594 19.3539 8.42745 19.0194C8.6029 18.653 8.8222 18.2628 9.11727 17.9442C9.71138 17.2911 10.5368 16.9008 11.3143 16.7495C12.0998 16.5862 12.8654 16.5782 13.611 16.5902C15.0784 16.622 16.5377 16.6818 18.0011 16.7335C19.3209 16.7893 20.6407 16.853 21.9606 16.9326C21.9406 16.9526 21.9247 16.9725 21.9047 16.9924C20.6049 17.0959 19.305 17.1875 18.0051 17.2672L18.029 17.2791Z" fill="currentColor"/>
<path d="M36.024 54.0763C35.9203 53.025 35.9881 51.9617 36.1396 50.9183C36.4666 48.8275 37.2083 46.8204 38.0336 44.9248C38.8351 43.0093 39.7323 41.1694 40.3264 39.2658C40.9444 37.3742 41.2355 35.4268 41.084 33.4675C40.8687 29.5607 39.0664 25.7257 35.9203 23.3203C34.3493 22.0977 32.5391 21.1061 30.7607 20.0508C29.7678 19.4534 28.775 18.8601 27.7861 18.2547C27.842 18.2747 27.8938 18.2906 27.9416 18.2985C28.1609 18.3623 28.2806 18.3981 28.2806 18.3981C28.5477 18.4698 28.5318 18.4857 28.2885 18.3702C28.2885 18.3702 28.1769 18.3185 27.9656 18.2269C27.7502 18.1512 27.4791 17.96 27.1322 17.749C26.9647 17.6335 26.8013 17.4782 26.6178 17.3268C26.6059 17.3149 26.5939 17.299 26.578 17.287C28.1011 17.96 29.6123 18.6609 31.1196 19.3618C32.9737 20.2539 34.8876 21.0942 36.65 22.3247C38.4364 23.5234 39.9037 25.2398 40.9364 27.1434C41.9373 29.0709 42.5274 31.2055 42.667 33.3679C42.8105 35.5264 42.4596 37.7366 41.7499 39.7437C41.068 41.6353 40.1908 43.3956 39.3176 45.1199C39.6405 44.8053 39.9875 44.5146 40.3583 44.2518C40.9045 43.8615 41.5066 43.5509 42.1047 43.2721C42.6989 42.9894 43.3009 42.7385 43.7834 42.4079C43.899 42.3243 44.0227 42.2407 44.1184 42.1411C44.1662 42.0933 44.222 42.0495 44.2699 41.9977L44.3975 41.8384C44.5689 41.6274 44.7125 41.3526 44.8401 41.0937C45.0833 40.5601 45.2109 39.9747 45.2468 39.3972C45.3265 38.2384 44.8879 37.0835 44.0426 36.4782C43.8632 36.3507 43.7515 36.1317 43.7675 35.8967C43.7914 35.5343 44.1064 35.2595 44.4692 35.2834L44.5091 35.2834C45.0913 35.3272 45.6934 35.0286 46.116 34.5387C46.5427 34.0569 46.7779 33.3998 46.7181 32.8144C46.6583 32.1971 46.3473 31.5957 45.8728 31.1258C45.3983 30.6559 44.7723 30.3214 44.1303 30.2059C43.8313 30.1501 43.5801 29.9271 43.5083 29.6125C43.4086 29.1904 43.6718 28.7722 44.0944 28.6727C44.8361 28.5014 45.4182 27.8125 45.6694 26.9881C45.9246 26.1598 45.8289 25.2319 45.3544 24.5708C44.856 23.85 44.0386 23.3084 43.1574 23.0097C42.2762 22.715 41.2993 22.6871 40.4978 23.0336L40.4779 23.0416C40.438 23.0575 40.3981 23.0734 40.3543 23.0814C39.9795 23.161 39.6126 22.9221 39.5329 22.5517L39.3056 21.4964C39.2259 21.1499 39.1421 20.8513 39.0265 20.5247C38.9109 20.2021 38.7713 19.8636 38.6357 19.5251C38.5081 19.2264 38.3805 18.9676 38.1931 18.7366C37.4595 17.8087 35.9961 17.5817 34.5846 17.514C33.1292 17.4503 31.6618 17.3627 30.2025 17.2791C28.9026 17.1994 27.6027 17.1078 26.3028 17.0043C26.2869 16.9844 26.2669 16.9644 26.247 16.9445C27.5668 16.8649 28.8866 16.8012 30.2065 16.7454C31.6698 16.6936 33.1292 16.6339 34.5965 16.602C35.3422 16.5901 36.1077 16.602 36.8933 16.7613C37.6708 16.9127 38.4962 17.299 39.0903 17.9561C39.3854 18.2786 39.6087 18.6689 39.7801 19.0313C39.9316 19.3618 40.0871 19.6964 40.2387 20.0508C40.3902 20.4052 40.5218 20.8035 40.6135 21.1698L40.6932 21.4924C41.6621 21.2455 42.6749 21.3092 43.592 21.584C44.7683 21.9345 45.8489 22.6354 46.6065 23.6788C46.9972 24.2164 47.2444 24.8735 47.3282 25.5186C47.4159 26.1677 47.3561 26.8248 47.1767 27.4461C46.9932 28.0673 46.6822 28.6607 46.2157 29.1585C46.1639 29.2143 46.1001 29.266 46.0443 29.3178C46.3752 29.5249 46.6822 29.7678 46.9574 30.0426C47.6432 30.7316 48.1456 31.6754 48.2014 32.7068C48.2652 33.7741 47.8346 34.7657 47.1567 35.4945C46.8138 35.8609 46.3991 36.1635 45.9246 36.3706C45.8608 36.3985 45.793 36.4184 45.7253 36.4423C45.8967 36.7211 46.0403 37.0078 46.1399 37.3105C46.3872 38.0233 46.435 38.772 46.3593 39.4928C46.2835 40.2136 46.0602 40.9066 45.7213 41.5398C45.5379 41.8544 45.3544 42.1491 45.0992 42.4278L44.9039 42.6349C44.8361 42.6986 44.7603 42.7544 44.6885 42.8141C44.545 42.9376 44.3895 43.0292 44.234 43.1248C43.608 43.4871 42.97 43.6703 42.3639 43.8934C41.7578 44.1084 41.1717 44.3513 40.6175 44.6659C40.0154 44.9965 39.4571 45.4067 38.9388 45.8766C38.1054 47.5691 37.3438 49.2696 36.8893 51.0816C36.6341 52.0573 36.4786 53.0568 36.4467 54.0684C36.4228 55.052 36.5384 56.0436 36.8055 57.0113C36.7976 56.9994 36.7856 56.9874 36.7736 56.9675C36.359 56.0675 36.1077 55.0839 36.0081 54.0843L36.024 54.0763Z" fill="currentColor"/>
<path d="M25.613 16.861C25.6369 16.8849 25.6569 16.9088 25.6808 16.9287C25.613 16.8849 25.5452 16.8451 25.4774 16.8013C25.5213 16.8212 25.5691 16.8411 25.613 16.861Z" fill="currentColor"/>
<path d="M26.5899 17.2871C26.5899 17.2871 26.6138 17.315 26.6297 17.3269C26.8131 17.4743 26.9766 17.6296 27.1441 17.749C27.487 17.9601 27.7621 18.1513 27.9775 18.2269C28.1848 18.3185 28.3004 18.3703 28.3004 18.3703C28.5397 18.4858 28.5596 18.4659 28.2925 18.3982C28.2925 18.3982 28.1728 18.3623 27.9535 18.2986C27.9057 18.2906 27.8538 18.2707 27.798 18.2548C27.5947 18.1871 27.3475 18.0636 27.0404 17.9282C26.853 17.8327 26.6616 17.6973 26.4463 17.5658C26.231 17.4344 26.0356 17.2393 25.8083 17.0561C25.7685 17.0163 25.7286 16.9725 25.6887 16.9326C25.6648 16.9088 25.6448 16.8849 25.6209 16.8649C25.4774 16.7136 25.3298 16.5583 25.1903 16.3831C25.0069 16.1202 24.7955 15.8534 24.644 15.5388C24.4287 15.1605 24.2612 14.7384 24.1257 14.2923C23.9941 14.7384 23.8226 15.1605 23.6073 15.5388C23.4558 15.8534 23.2445 16.1202 23.061 16.3831C22.9215 16.5583 22.7779 16.7136 22.6304 16.8649C22.6065 16.8888 22.5865 16.9127 22.5626 16.9326C22.5227 16.9725 22.4829 17.0203 22.443 17.0561C22.2157 17.2393 22.0243 17.4304 21.805 17.5658C21.5897 17.6973 21.3983 17.8327 21.2109 17.9282C20.9039 18.0636 20.6567 18.1831 20.4533 18.2548C20.3975 18.2747 20.3456 18.2906 20.2978 18.2986C20.0785 18.3623 19.9589 18.3982 19.9589 18.3982C19.6997 18.4659 19.6997 18.4898 19.9509 18.3703C19.9509 18.3703 20.0625 18.3185 20.2739 18.2269C20.4892 18.1513 20.7603 17.9601 21.1072 17.749C21.2747 17.6335 21.4382 17.4782 21.6216 17.3269C21.6336 17.315 21.6455 17.299 21.6615 17.2871C21.7572 17.2034 21.8449 17.1079 21.9366 17.0043C21.9526 16.9844 21.9725 16.9645 21.9924 16.9446C22.0443 16.8849 22.0921 16.8291 22.1479 16.7734C22.3114 16.5583 22.4749 16.3273 22.6224 16.0764C22.754 15.8136 22.9095 15.5547 23.0052 15.2561C23.2365 14.6786 23.3681 14.0255 23.4 13.3565C23.4319 13.0219 23.4 12.6834 23.384 12.3489C23.3322 12.0144 23.2923 11.6799 23.2006 11.3573C23.0291 10.7122 22.758 10.1108 22.4031 9.617C22.0522 9.15902 21.5738 8.76079 21.0913 8.46609C20.6128 8.16741 20.0506 7.91652 19.4684 7.81696C18.8863 7.71342 18.2922 7.75324 17.8137 8.05192C17.3551 8.32671 16.8647 8.9161 16.5776 9.45372C16.2825 10.0033 16.1709 10.6166 16.3583 11.1383C16.5337 11.6639 16.9723 12.0662 17.4428 12.2494C17.9134 12.4405 18.4038 12.4007 18.7587 12.2494C19.1215 12.094 19.3408 11.8432 19.4764 11.6679C19.5362 11.5724 19.5841 11.5007 19.616 11.4489C19.6439 11.3971 19.6558 11.3693 19.6558 11.3693C19.7794 11.1303 19.7595 11.1184 19.6837 11.3812C19.6837 11.3812 19.6718 11.4091 19.6558 11.4688C19.6319 11.5246 19.592 11.6042 19.5442 11.7117C19.4325 11.9109 19.2372 12.2095 18.8584 12.4405C18.4835 12.6635 17.9213 12.7989 17.3232 12.6476C16.7331 12.5122 16.0951 12.102 15.7442 11.4051C15.5688 11.0626 15.4811 10.6604 15.4851 10.2542C15.4851 9.84798 15.5808 9.44974 15.7243 9.07141C15.8639 8.6891 16.0712 8.34263 16.2905 8.0121C16.4101 7.8528 16.5058 7.68952 16.6693 7.53023L16.8966 7.2873C16.9803 7.21164 17.072 7.14792 17.1637 7.08022C17.5226 6.80145 17.9572 6.63419 18.3918 6.53861C18.6072 6.50675 18.8305 6.46295 19.0418 6.47091C19.1494 6.47091 19.2571 6.47091 19.3608 6.47091L19.6718 6.50277C20.4932 6.60631 21.2189 6.91296 21.8289 7.2873C22.3114 7.58996 22.7779 7.97227 23.1886 8.45812C23.0571 7.90457 22.8976 7.36297 22.7301 6.97269C22.6982 6.88906 22.6583 6.82534 22.6264 6.7457C22.5865 6.68596 22.5626 6.62224 22.5028 6.55056C22.3991 6.41118 22.2636 6.26383 22.1041 6.11648C21.7811 5.82577 21.3784 5.49124 21.0634 5.23239C20.7404 4.96955 20.4493 4.77043 20.23 4.65096C20.0147 4.52751 19.8751 4.47574 19.8751 4.47574C19.8472 4.44388 19.8592 4.30051 19.8951 4.14918C19.8791 3.95006 19.8871 3.7151 19.919 3.70315C19.919 3.70315 20.3456 3.61554 20.8321 3.36067C21.3225 3.11376 21.825 2.68764 22.1639 2.31728C22.5188 1.96683 22.9414 1.44116 23.1966 0.939375C23.4598 0.445559 23.5794 0.0194431 23.5794 0.0194431C23.6073 -0.00843359 23.7867 -0.00445119 23.9582 0.0194431C24.1257 -0.000468786 24.3011 -0.00445117 24.341 0.0194432C24.341 0.0194432 24.4606 0.449541 24.7238 0.939375C24.979 1.43717 25.4016 1.96285 25.7565 2.31728C26.0954 2.68764 26.5978 3.11376 27.0883 3.36067C27.5707 3.61554 28.0014 3.70315 28.0014 3.70315C28.0333 3.71908 28.0413 3.95404 28.0253 4.15316C28.0572 4.29653 28.0692 4.43591 28.0452 4.47574C28.0452 4.47574 27.9057 4.52751 27.6904 4.65096C27.4711 4.77043 27.184 4.96955 26.857 5.23239C26.546 5.49124 26.1393 5.82577 25.8163 6.11648C25.6568 6.26383 25.5212 6.40719 25.4176 6.55056C25.3617 6.62224 25.3378 6.68596 25.294 6.7457C25.2621 6.82534 25.2222 6.88906 25.1903 6.97269C24.9391 7.54616 24.7158 8.44219 24.5683 9.21876C24.6321 9.09929 24.6959 8.97982 24.7676 8.86433C25.2421 8.17139 25.8362 7.66961 26.4423 7.2873C27.0524 6.91296 27.7741 6.60631 28.5995 6.50277L28.9105 6.47091C29.0182 6.47091 29.1258 6.47091 29.2295 6.47091C29.4408 6.46295 29.6641 6.50675 29.8794 6.53861C30.3101 6.63817 30.7487 6.80145 31.1075 7.08022C31.1953 7.14792 31.291 7.21164 31.3747 7.2873L31.602 7.53023C31.7654 7.69351 31.8611 7.8528 31.9808 8.0121C32.2041 8.34263 32.4074 8.6891 32.547 9.07141C32.6905 9.44974 32.7822 9.84798 32.7862 10.2542C32.7902 10.6564 32.7025 11.0586 32.527 11.4051C32.1761 12.098 31.5382 12.5122 30.948 12.6476C30.3499 12.7949 29.7837 12.6635 29.4129 12.4405C29.0341 12.2095 28.8387 11.9109 28.7271 11.7117C28.6792 11.6082 28.6433 11.5246 28.6154 11.4688C28.5955 11.4131 28.5875 11.3812 28.5875 11.3812C28.5118 11.1223 28.4878 11.1263 28.6154 11.3693C28.6154 11.3693 28.6274 11.3971 28.6553 11.4489C28.6872 11.4967 28.7351 11.5724 28.7949 11.6679C28.9304 11.8432 29.1537 12.094 29.5126 12.2494C29.8675 12.4007 30.3579 12.4365 30.8284 12.2494C31.2949 12.0662 31.7375 11.6639 31.913 11.1383C32.1004 10.6126 31.9887 10.0033 31.6937 9.45372C31.4066 8.9161 30.9161 8.32671 30.4576 8.05192C29.9791 7.74926 29.381 7.70944 28.8028 7.81696C28.2207 7.9205 27.6585 8.16741 27.18 8.46609C26.7015 8.76079 26.223 9.15504 25.8681 9.617C25.5133 10.1108 25.2421 10.7161 25.0707 11.3573C24.975 11.6799 24.9351 12.0144 24.8873 12.3489C24.8713 12.6834 24.8394 13.0219 24.8713 13.3565C24.9032 14.0255 25.0348 14.6786 25.266 15.2561C25.3617 15.5547 25.5173 15.8136 25.6488 16.0764C25.8004 16.3273 25.9638 16.5583 26.1233 16.7734C26.1792 16.8291 26.227 16.8888 26.2788 16.9446C26.2988 16.9645 26.3147 16.9844 26.3347 17.0043C26.4224 17.1079 26.5141 17.1995 26.6098 17.2871L26.5899 17.2871ZM24.0898 6.06471C24.1735 5.93727 24.2652 5.79789 24.3649 5.69036C24.5603 5.46735 24.7876 5.28018 25.0069 5.12486C25.4574 4.81822 25.8562 4.59123 26.2709 4.36025C26.3267 4.33237 26.3785 4.30449 26.4343 4.27662C25.8203 4.09343 25.1584 3.72306 24.7477 3.28102C24.4207 2.95048 24.1416 2.48056 23.9462 2.00665C23.7548 2.48056 23.4717 2.95048 23.1448 3.28102C22.7341 3.72306 22.0722 4.09343 21.4581 4.27662C21.5139 4.30449 21.5658 4.32839 21.6216 4.36025C22.0363 4.58724 22.439 4.81424 22.8856 5.12486C23.1089 5.28018 23.3322 5.46735 23.5276 5.69036C23.6272 5.79391 23.715 5.93727 23.8027 6.06471C23.8505 6.16029 23.9024 6.25188 23.9462 6.34348C23.9901 6.25188 24.0419 6.1563 24.0898 6.06471Z" fill="currentColor"/>
<path d="M36.3111 57.5092C36.3111 57.5092 36.2273 57.4176 36.0758 57.2544C35.9203 57.0911 35.685 56.8601 35.378 56.5933C34.756 56.0596 33.803 55.3826 32.559 54.9008C31.9369 54.6618 31.2511 54.4587 30.5294 54.3432C30.1665 54.2835 29.7997 54.2476 29.4289 54.2357C29.2455 54.2357 29.062 54.2357 28.8786 54.2516C28.6952 54.2556 28.5118 54.2835 28.3324 54.3114C27.6066 54.4189 26.9089 54.6857 26.3147 55.072C26.0237 55.2711 25.7446 55.4862 25.5213 55.741C25.4056 55.8645 25.298 55.9959 25.2102 56.1313L25.0906 56.3105C25.0468 56.4061 24.987 56.4658 24.9551 56.5933C24.8793 56.8243 24.8075 57.0512 24.7318 57.2782C24.5922 57.2782 24.3171 57.2822 24.0459 57.2862C23.7788 57.2862 23.4997 57.2782 23.3601 57.2782C23.2883 57.0512 23.2126 56.8243 23.1368 56.5933C23.1049 56.4658 23.0451 56.4061 23.0013 56.3105L22.8816 56.1313C22.7899 55.9959 22.6823 55.8685 22.5706 55.741C22.3473 55.4862 22.0682 55.2711 21.7771 55.072C21.183 54.6857 20.4852 54.4149 19.7595 54.3114C19.5801 54.2835 19.3967 54.2556 19.2133 54.2516C19.0298 54.2357 18.8464 54.2317 18.663 54.2357C18.2962 54.2476 17.9253 54.2835 17.5625 54.3432C16.8408 54.4587 16.151 54.6618 15.5329 54.9008C14.2889 55.3826 13.3319 56.0596 12.7139 56.5933C12.4028 56.8641 12.1676 57.0911 12.0161 57.2544C11.8646 57.4216 11.7808 57.5092 11.7808 57.5092C11.5535 57.7083 11.0711 57.3539 11.2306 57.0552C11.2306 57.0552 11.3103 56.9517 11.4618 56.7645C11.4698 56.7566 11.4778 56.7446 11.4858 56.7366C11.5256 56.6889 11.5655 56.6411 11.6134 56.5853C11.7569 56.422 11.9403 56.2229 12.1676 55.9999C12.8016 55.3786 13.7984 54.5742 15.1382 53.9689C15.8081 53.6662 16.5497 53.4034 17.3551 53.2361C17.6781 53.1684 18.0131 53.1206 18.352 53.0848C18.2244 52.7622 18.029 52.2565 17.7898 51.5994C17.3591 50.4246 16.8129 48.7599 16.127 46.9161C15.9556 46.4501 15.7722 46.0041 15.5608 45.5183C15.3535 45.0284 15.1342 44.4788 15.0505 43.8536C14.9667 43.2324 15.0186 42.639 15.0505 42.0934C15.0903 41.5438 15.1262 40.9903 15.1661 40.4367C15.2458 39.3296 15.3256 38.2305 15.4053 37.1632C15.4253 36.8924 15.4532 36.5897 15.5329 36.2672C15.6047 35.9486 15.7722 35.5941 15.9556 35.3353C16.2307 34.9609 16.4819 34.6981 16.7251 34.4432C16.7172 34.4273 16.7052 34.4114 16.7052 34.3915C16.7052 34.3915 16.5896 32.4481 16.4381 29.8794C16.3862 28.5931 16.3384 27.1156 16.5537 25.6262C16.6574 24.8815 16.8328 24.1408 17.096 23.4439C17.2196 23.0974 17.3791 22.735 17.6024 22.3925C17.8257 22.054 18.1407 21.7155 18.5633 21.5045C18.978 21.2894 19.5203 21.2336 19.9748 21.3571C20.4374 21.4686 20.8321 21.7115 21.1591 22.0222C21.8449 22.6832 22.0682 23.5633 22.1639 24.324C22.2516 25.0966 22.2676 25.7895 22.3035 26.5023C22.3314 27.2072 22.3473 27.8922 22.3513 28.5373C22.3633 30.1741 22.3114 31.552 22.2716 32.3485C22.3992 32.5914 22.5148 32.8423 22.6065 33.0972C22.754 33.5034 22.8497 33.9176 22.9095 34.3277C22.9574 34.2282 23.0132 34.1286 23.081 34.0291C23.3801 33.591 23.9104 33.0932 24.6919 32.9618C25.4535 32.8304 26.3347 33.0574 27.0006 33.6866C27.3275 33.9932 27.5987 34.4512 27.7103 34.9012C27.7861 35.1959 27.826 35.4787 27.8499 35.7534C27.8579 35.7495 27.8618 35.7455 27.8698 35.7375C28.0971 35.5623 28.4639 35.3433 28.9703 35.2278C29.4727 35.1123 30.1227 35.1003 30.7965 35.3831C31.1315 35.5225 31.4664 35.7534 31.7336 36.0601C31.8691 36.2154 31.9967 36.4065 32.0845 36.6296C32.1722 36.8446 32.2121 37.0557 32.2479 37.2429C32.3077 37.5933 32.3715 37.9557 32.4274 38.33C32.6586 38.2424 32.9617 38.1907 33.3205 38.2584C33.7871 38.35 34.2297 38.6486 34.6085 38.9792C34.7959 39.1464 34.9912 39.3017 35.2066 39.5287C35.4139 39.7438 35.6452 40.0664 35.7449 40.4327C35.8485 40.7912 35.8605 41.1217 35.8884 41.4124C35.9123 41.7151 35.9362 42.0337 35.9362 42.3682C35.9362 42.7027 35.9203 43.0532 35.8525 43.4156C35.7887 43.774 35.6611 44.1523 35.5056 44.4709C35.378 44.7297 35.2464 44.9647 35.1149 45.1877C35.1507 45.2475 35.2345 45.3948 35.3581 45.6218C35.5096 45.9205 35.7369 46.3546 35.8565 46.9479C35.9761 47.5373 35.9283 48.2342 35.7369 48.8555C35.5535 49.4807 35.2584 50.0343 34.9673 50.4803C34.3772 51.3763 33.4641 52.3082 32.7105 53.0211C32.4712 53.2441 32.2519 53.4472 32.0605 53.6184C32.3715 53.7299 32.6746 53.8494 32.9617 53.9768C34.3014 54.5822 35.2983 55.3866 35.9323 56.0079C36.2473 56.3185 36.4825 56.5853 36.638 56.7725C36.7058 56.8601 36.7576 56.9238 36.7975 56.9756C36.8095 56.9915 36.8214 57.0074 36.8294 57.0194C36.8533 57.0473 36.8693 57.0672 36.8693 57.0672C37.0607 57.33 36.5304 57.7442 36.319 57.5212L36.3111 57.5092ZM21.3066 28.5732C21.2588 27.936 21.203 27.263 21.1392 26.574C21.0674 25.893 21.0076 25.1523 20.9039 24.5072C20.8002 23.866 20.5769 23.2965 20.23 23.0018C20.0546 22.8425 19.8433 22.727 19.6559 22.6872C19.4645 22.6474 19.3249 22.6673 19.1814 22.735C18.8943 22.8624 18.5793 23.3244 18.356 23.9218C18.1167 24.5151 17.9373 25.1603 17.8097 25.8293C17.5545 27.1674 17.5067 28.5851 17.4788 29.8595C17.4548 31.5122 17.4349 32.902 17.4269 33.6826C17.7778 33.3122 18.1327 32.9339 18.4955 32.5476C18.7547 32.2768 19.0139 32.002 19.2771 31.7272C19.4007 31.5998 19.5562 31.4286 19.7675 31.2693C19.8193 31.2294 19.8752 31.1896 19.939 31.1498C20.0028 31.11 20.0985 31.0622 20.1782 31.0263C20.3497 30.9547 20.5331 30.9188 20.7165 30.9228C20.9836 30.9228 21.2428 31.0383 21.4542 31.2016C21.4223 30.4688 21.3744 29.5688 21.3026 28.5692L21.3066 28.5732ZM26.2589 34.4154C25.8761 34.0012 25.294 33.81 24.8275 33.8658C24.357 33.9096 23.9742 34.2043 23.7429 34.499C23.5076 34.8016 23.412 35.1043 23.3761 35.3074C23.3482 35.4707 23.3482 35.5742 23.3482 35.6101C23.3721 35.626 23.4 35.6459 23.4199 35.6738C23.4199 35.6738 23.4837 35.8132 23.5714 36.076C23.6592 36.3388 23.7589 36.7331 23.7987 37.2269C23.8426 37.7207 23.8306 38.3101 23.7389 38.9553C23.6552 39.6004 23.4797 40.2973 23.3242 40.9982C23.1687 41.6991 23.0451 42.4239 23.1328 43.1009C23.2126 43.77 23.5435 44.3873 24.0499 44.8293C24.1735 44.9408 24.3091 45.0404 24.4487 45.124C24.5164 45.1678 24.5922 45.2036 24.664 45.2395C24.7158 45.2634 24.7039 45.2554 24.7078 45.2594L24.7158 45.2594C24.7158 45.2594 24.7318 45.2514 24.7358 45.2435C24.7358 45.2435 24.7358 45.2355 24.7358 45.2315L24.8315 44.9966C25.1385 44.2678 25.4335 43.5629 25.7087 42.9018C25.9918 42.2407 26.2988 41.5637 26.4942 40.8748C26.6935 40.1978 26.7334 39.461 26.7374 38.6486C26.7294 37.8362 26.7175 37.0238 26.7095 36.2313C26.7055 35.8291 26.6935 35.4627 26.6297 35.1601C26.566 34.8534 26.4463 34.6304 26.2549 34.4193L26.2589 34.4154ZM30.972 36.6774C30.8165 36.4742 30.6211 36.3189 30.4058 36.2114C29.9712 35.9964 29.4967 35.9605 29.1258 36.0203C28.751 36.08 28.4719 36.2154 28.3044 36.3309C28.133 36.4464 28.0532 36.526 28.0532 36.526C28.0174 36.5579 27.9655 36.5619 27.9057 36.5539C27.9057 36.5619 27.9057 36.5738 27.9057 36.5818C27.9735 36.6096 28.0293 36.6614 28.0572 36.7291C28.0572 36.7291 28.1449 37.2628 28.2327 38.1707C28.2725 38.6247 28.3084 39.1783 28.2845 39.8115C28.2566 40.4407 28.1808 41.1615 27.9177 41.8983C27.798 42.2686 27.6146 42.639 27.4033 42.9974C27.192 43.3359 27.0085 43.6187 26.9767 43.8377C26.9368 44.0488 26.9926 44.3116 27.1322 44.6182C27.2677 44.9169 27.4791 45.2634 27.6744 45.6138C27.8658 45.9523 28.0572 46.2908 28.2486 46.6293C28.3324 46.7687 28.4161 46.8683 28.4679 46.9041C28.5118 46.936 28.5317 46.932 28.5477 46.932C28.5596 46.932 28.6075 46.9201 28.6912 46.8563C28.771 46.7966 28.8587 46.697 28.9424 46.5855C29.0262 46.474 29.1059 46.3466 29.1737 46.2152C29.2494 46.0599 29.3252 45.9085 29.397 45.7572C29.4688 45.6138 29.5445 45.4625 29.6163 45.3152C29.6681 45.0165 29.7678 44.7457 29.8834 44.5147C30.035 44.208 30.2064 43.9492 30.3619 43.7142C30.4257 43.6187 30.4895 43.5231 30.5453 43.4355C30.7686 42.9775 30.972 42.5195 31.1155 42.0615C31.1594 41.7629 31.1753 41.4522 31.1873 41.1615C31.1993 40.7434 31.2192 40.3491 31.267 40.0146C31.2989 39.7836 31.3468 39.5845 31.3946 39.4252C31.3627 38.7323 31.283 38.0433 31.2112 37.3902C31.1714 37.0437 31.1275 36.8805 30.972 36.6774ZM34.3652 43.8895C34.5008 43.6465 34.5885 43.4156 34.6523 43.1567C34.7161 42.8978 34.748 42.6191 34.764 42.3323C34.7799 42.0456 34.7799 41.7509 34.7759 41.4522C34.7759 41.1456 34.7759 40.8867 34.7281 40.6916C34.6762 40.3372 34.3174 39.9947 33.9745 39.6482C33.6555 39.3217 33.3644 39.1146 33.1291 39.0429C32.8939 38.9752 32.6786 39.019 32.5749 39.0668C32.555 39.0747 32.539 39.0867 32.5231 39.0947C32.539 39.2301 32.555 39.3655 32.5669 39.5088C32.6347 40.3133 32.6347 41.1814 32.4513 42.0416C32.2679 42.9138 31.913 43.6824 31.59 44.3753C31.3348 44.905 31.0916 45.4147 30.8564 45.9125C30.9401 46.1714 31.1315 46.4063 31.4265 46.6293C31.6219 46.7767 31.8452 46.9081 32.0845 47.0316C32.2041 47.0913 32.3277 47.151 32.4513 47.2108C32.5151 47.2386 32.5111 47.2347 32.5111 47.2307L32.5111 47.2227C32.5111 47.2227 32.543 47.1909 32.559 47.167C32.5988 47.1232 32.6347 47.0714 32.6746 47.0156C32.9138 46.6771 33.0893 46.1395 33.3843 45.5222C33.6954 44.889 34.1021 44.3793 34.3652 43.8934L34.3652 43.8895ZM31.929 52.3122C32.547 51.5038 33.3006 50.4923 33.807 49.7117C34.0662 49.3254 34.3373 48.8834 34.5327 48.4254C34.7321 47.9674 34.8317 47.4935 34.8198 47.0674C34.8078 46.6891 34.7201 46.3346 34.6404 46.0479C34.6324 46.0638 34.6204 46.0838 34.6124 46.0997C34.3852 46.5895 34.2177 47.2068 33.8269 47.7922C33.7631 47.8878 33.6914 47.9794 33.6116 48.071C33.5717 48.1188 33.5398 48.1506 33.484 48.2103C33.4242 48.2741 33.3604 48.3219 33.2966 48.3736C33.0574 48.5966 32.7902 48.6604 32.6188 48.6643C32.4832 48.6683 32.3476 48.6444 32.216 48.5927L31.8731 48.4373C31.7336 48.3696 31.594 48.298 31.4545 48.2183C31.1714 48.063 30.8882 47.8798 30.6131 47.6568C30.4616 47.5333 30.3141 47.39 30.1785 47.2307C30.1346 47.2944 30.0908 47.3621 30.0429 47.4258C29.9034 47.605 29.7399 47.7882 29.5166 47.9555C29.3013 48.1188 28.9863 48.278 28.6115 48.29C28.2406 48.3099 27.8738 48.1586 27.6226 47.9435C27.3714 47.7285 27.2318 47.5015 27.1162 47.3024C26.9089 46.9161 26.7454 46.5895 26.558 46.2271C26.4264 45.9603 26.2828 45.7014 26.1433 45.4028C26.1234 45.4466 26.1074 45.4864 26.0875 45.5302L25.9479 45.8408C25.8642 46.0161 25.7605 46.1873 25.6249 46.3187C25.3618 46.5895 24.959 46.705 24.5882 46.6094C24.4965 46.5895 24.4008 46.5577 24.3091 46.5178C24.2214 46.482 24.1177 46.4262 24.0778 46.4063C23.9702 46.3466 23.8625 46.2869 23.7588 46.2192C23.5515 46.0838 23.3601 45.9324 23.1847 45.7652C22.4789 45.1041 22.0363 44.1483 21.9725 43.2204C21.9047 42.2925 22.1121 41.4682 22.3075 40.7474C22.5148 40.0226 22.7142 39.3894 22.8258 38.8079C22.9454 38.2265 22.9893 37.7048 22.9813 37.2787C22.9733 36.8526 22.9135 36.5181 22.8577 36.295C22.6344 37.438 22.1041 38.3778 21.5738 38.9951C21.2468 39.3854 20.9238 39.6761 20.6567 39.8752C20.557 39.9389 20.4812 39.9748 20.4294 39.9947C20.4852 40.0863 20.545 40.1619 20.6607 40.369C20.7962 40.608 20.9159 40.8389 21.0195 41.062C21.2229 41.512 21.3704 41.9261 21.4701 42.3005C21.6774 43.0492 21.7293 43.6306 21.7572 44.0567C21.7811 44.4828 21.7652 44.7616 21.7572 44.9328C21.7492 45.1041 21.7412 45.1638 21.7412 45.1638C21.6575 45.5899 21.0634 45.5023 21.0275 45.112C21.0275 45.112 21.0315 45.0563 21.0355 44.901C21.0355 44.7457 21.0435 44.4948 21.0116 44.1045C20.9757 43.7182 20.9159 43.1886 20.7125 42.5155C20.6128 42.177 20.4773 41.8067 20.2819 41.4044C20.1862 41.2053 20.0745 40.9982 19.9469 40.7832C19.7994 40.5403 19.5322 40.1619 19.2611 39.7836C19.3847 39.6801 19.6798 39.477 20.0666 39.1584C20.2739 38.9712 20.5291 38.7084 20.7803 38.3659C21.2867 37.6889 21.7771 36.6335 21.7771 35.403C21.7771 34.7897 21.6615 34.1446 21.4223 33.5313C21.3026 33.2246 21.1471 32.9299 20.9677 32.6512C20.88 32.5197 20.7683 32.3565 20.6966 32.2848C20.6726 32.2649 20.6726 32.2728 20.6607 32.2688C20.6567 32.2688 20.6527 32.2688 20.6487 32.2728L20.5769 32.3286C20.4852 32.4003 20.3816 32.5118 20.246 32.6591C19.9908 32.9379 19.7356 33.2127 19.4844 33.4875C18.978 34.033 18.4876 34.5627 18.0171 35.0724C17.7021 35.4149 17.2993 35.8092 17.076 36.1198C16.9604 36.2791 16.9046 36.4026 16.8488 36.5937C16.7969 36.7809 16.769 37.0119 16.7451 37.2707C16.6414 38.334 16.5338 39.4332 16.4301 40.5363C16.3743 41.0859 16.3184 41.6394 16.2626 42.189C16.2068 42.7385 16.155 43.2483 16.1988 43.7063C16.2427 44.1563 16.3982 44.6222 16.5776 45.1001C16.765 45.582 16.9484 46.0917 17.1039 46.5656C17.722 48.4772 18.1885 50.1498 18.5553 51.3405C18.8105 52.1848 19.0099 52.7702 19.1056 53.045C19.1534 53.045 19.2013 53.045 19.2491 53.045C19.4685 53.045 19.6917 53.0649 19.915 53.0888C20.8042 53.1843 21.6934 53.483 22.4749 53.9609C22.8577 54.2078 23.2325 54.4826 23.5435 54.8171C23.703 54.9804 23.8506 55.1556 23.9861 55.3428L24.03 55.4065L24.034 55.4065L24.034 55.3986C24.034 55.3986 24.034 55.4025 24.034 55.4065L24.038 55.4065L24.0818 55.3428C24.2134 55.1556 24.3649 54.9804 24.5244 54.8171C24.8354 54.4786 25.2063 54.2078 25.593 53.9609C26.3746 53.483 27.2637 53.1843 28.1529 53.0888C28.3762 53.0609 28.5955 53.041 28.8188 53.045C29.0381 53.037 29.2574 53.045 29.4767 53.0569C29.9074 53.0928 30.322 53.1525 30.7248 53.2361C30.8603 53.264 30.9919 53.2998 31.1235 53.3317C31.3229 53.0768 31.598 52.7224 31.917 52.3122L31.929 52.3122Z" fill="currentColor"/>
</svg>
