<svg width="30" height="30" viewBox="0 0 261 261" fill="none" xmlns="http://www.w3.org/2000/svg">
<g clip-path="url(#clip0_3211_6447)">
<path d="M130.5 261C202.573 261 261 202.573 261 130.5C261 58.4268 202.573 0 130.5 0C58.4268 0 0 58.4268 0 130.5C0 202.573 58.4268 261 130.5 261Z" fill="white"/>
<path d="M214.175 78.5893C208.019 81.3207 201.408 83.1672 194.457 83.9972C201.551 79.749 206.986 73.017 209.552 65.0049C202.813 69.0075 195.437 71.8254 187.746 73.3361C181.487 66.6644 172.562 62.499 162.687 62.499C143.733 62.499 128.362 77.8643 128.362 96.8292C128.362 99.5163 128.665 102.138 129.246 104.655C100.714 103.221 75.4183 89.5535 58.4866 68.7861C55.53 73.8581 53.8378 79.7552 53.8378 86.0471C53.8378 97.956 59.8992 108.463 69.1096 114.618C63.6572 114.449 58.3245 112.978 53.5573 110.326V110.76C53.5573 127.395 65.3891 141.266 81.0952 144.42C78.21 145.211 75.1821 145.624 72.0497 145.624C69.835 145.624 67.6863 145.414 65.5872 145.019C69.9559 158.654 82.6346 168.578 97.653 168.859C85.9035 178.069 71.0988 183.56 55.0191 183.56C52.2496 183.56 49.5124 183.394 46.8253 183.07C62.0205 192.814 80.0623 198.502 99.4503 198.502C162.594 198.502 197.127 146.19 197.127 100.825C197.127 99.3355 197.094 97.8572 197.023 96.3843C203.751 91.5177 209.559 85.492 214.175 78.5893Z" fill="black"/>
</g>
<defs>
<clipPath id="clip0_3211_6447">
<rect width="261" height="261" fill="white"/>
</clipPath>
</defs>
</svg>
