<svg width="248" height="47" viewBox="0 0 248 47" fill="none" xmlns="http://www.w3.org/2000/svg">
<g clip-path="url(#clip0_848_5403)">
<path d="M85.78 22.7187C82.3202 21.0948 78.6743 19.8387 74.9508 18.9961L73.7407 18.751C66.0145 17.2037 57.9779 17.4029 50.3913 19.808C50.2206 19.8387 50.05 19.9152 49.8638 20.0225C49.6621 20.145 49.4604 20.2829 49.2587 20.4055C48.9485 20.4667 48.6382 20.6506 48.4054 20.957C44.9147 23.1783 41.1291 25.369 36.9402 25.5988C33.1546 25.8132 29.4622 24.22 26.8868 21.5085C24.42 18.9042 22.0462 13.619 25.9404 11.1525C27.709 10.0342 30.1293 10.2334 31.8669 11.3364C33.2943 12.2402 34.6285 14.5841 32.5496 15.6105C30.7654 16.499 32.3324 19.134 34.1166 18.2608C35.9473 17.3569 36.9092 15.3347 36.692 13.3432C36.4748 11.3057 35.0164 9.60528 33.2633 8.59419C29.4156 6.35756 23.8925 7.21544 21.6739 11.2904C19.6725 14.9518 21.2705 19.3791 23.7063 22.5196C19.0364 20.1144 14.4286 17.3416 8.93645 17.8624C4.01834 18.322 -2.18748 22.9332 0.760281 28.4175C1.7377 30.2252 4.63892 32.1248 6.40757 30.0873C7.7108 28.5707 6.76441 26.3341 5.80251 24.4345C5.19744 23.2549 5.78699 21.8149 7.04367 21.3859C7.86594 21.0948 8.75027 20.9417 9.55703 20.8957C14.8475 20.5587 19.4553 23.883 23.9856 26.089C28.8416 28.4635 33.5891 29.2448 38.9726 28.5248C40.3999 28.3409 41.8273 28.0805 43.2236 27.7128C42.7271 28.5707 42.3393 29.5052 42.06 30.4857C41.1136 33.9019 41.7652 37.7777 44.4958 40.2288C47.1333 42.6033 50.9343 43.3387 54.301 42.1897C57.559 41.102 61.0653 38.1454 60.4913 34.3921C59.8707 30.3937 55.3249 29.0609 51.8652 30.1333C49.9724 30.7308 50.7792 33.6874 52.6875 33.09C54.0217 32.6763 55.5576 32.5691 56.6747 33.5649C57.5901 34.3768 57.6211 35.5257 57.0315 36.5368C54.5802 40.7344 47.5056 40.6731 45.3181 36.307C44.2165 34.101 44.713 31.3435 45.8766 29.2601C47.1177 27.0388 48.6227 25.1698 50.6551 23.6532C51.0584 23.3468 51.2291 23.1323 51.8186 22.5961C58.6761 20.5433 65.5025 20.3289 72.0341 21.5544C73.2908 21.7842 74.4699 22.3204 75.5249 23.0557C76.8436 23.9596 78.1313 24.9553 79.3259 26.0277C80.4585 27.0541 81.1411 28.5094 81.2032 30.0261C81.3118 32.7682 80.986 35.4492 80.5981 38.222C80.3809 39.8152 80.5826 41.531 81.8238 42.6952C83.0029 43.7829 84.8646 43.8902 86.2144 43.0323C88.8829 41.3318 88.6502 37.3488 88.1072 34.6525C87.4711 31.4508 85.7955 28.5248 83.67 26.0583C83.2821 25.5988 82.8322 25.1698 82.4133 24.7409C92.8081 29.2141 101.962 37.0883 108.571 46.3106C109.719 47.9038 112.403 46.3719 111.255 44.7634C104.677 35.587 96.1592 27.575 85.7955 22.7187H85.78Z" fill="white"/>
<path d="M239.064 17.8471C233.571 17.3263 228.979 20.0991 224.294 22.5042C226.73 19.3637 228.328 14.9364 226.326 11.2751C224.108 7.20012 218.584 6.35755 214.737 8.57887C212.984 9.58995 211.541 11.2904 211.308 13.3279C211.091 15.3041 212.053 17.3263 213.883 18.2454C215.668 19.134 217.235 16.4837 215.45 15.5952C213.372 14.5688 214.706 12.2249 216.133 11.321C217.871 10.218 220.291 10.0189 222.06 11.1372C225.954 13.5883 223.58 18.8888 221.113 21.4931C218.538 24.22 214.845 25.7979 211.06 25.5834C206.871 25.3536 203.085 23.163 199.595 20.9416C199.346 20.6353 199.052 20.4514 198.741 20.3901C198.54 20.2676 198.338 20.1297 198.136 20.0072C197.95 19.8999 197.779 19.8233 197.609 19.7927C190.022 17.3875 181.97 17.1884 174.259 18.7356L173.049 18.9808C169.326 19.8233 165.68 21.0795 162.22 22.7034C151.856 27.575 143.339 35.5717 136.761 44.748C135.597 46.3566 138.297 47.8885 139.445 46.2953C146.054 37.073 155.207 29.1988 165.602 24.7255C165.168 25.1545 164.733 25.5834 164.346 26.043C162.236 28.5094 160.56 31.4355 159.908 34.6372C159.365 37.3181 159.133 41.3165 161.801 43.0169C163.151 43.8748 165.013 43.7829 166.192 42.6799C167.448 41.5156 167.65 39.7999 167.417 38.2066C167.03 35.4338 166.719 32.7529 166.812 30.0107C166.874 28.4941 167.557 27.0388 168.69 26.0124C169.884 24.9247 171.187 23.9443 172.491 23.0404C173.546 22.3204 174.725 21.7842 175.981 21.5391C182.513 20.3135 189.339 20.528 196.197 22.5808C196.786 23.1017 196.957 23.3315 197.361 23.6379C199.393 25.1392 200.898 27.0235 202.139 29.2448C203.303 31.3282 203.799 34.0857 202.697 36.2917C200.51 40.6577 193.451 40.719 190.984 36.5215C190.394 35.5104 190.426 34.3615 191.341 33.5495C192.458 32.5691 193.994 32.661 195.328 33.0746C197.236 33.6721 198.059 30.7154 196.15 30.118C192.691 29.0303 188.145 30.3631 187.524 34.3768C186.95 38.13 190.457 41.0714 193.715 42.1744C197.097 43.308 200.882 42.588 203.52 40.2135C206.25 37.7624 206.902 33.8866 205.956 30.4703C205.676 29.4899 205.288 28.5707 204.792 27.6975C206.173 28.0652 207.616 28.3256 209.043 28.5094C214.427 29.2295 219.174 28.4482 224.03 26.0737C228.545 23.8677 233.153 20.5433 238.459 20.8804C239.281 20.9263 240.15 21.0948 240.972 21.3706C242.244 21.7995 242.818 23.2396 242.213 24.4192C241.236 26.3034 240.289 28.5554 241.608 30.072C243.377 32.1248 246.278 30.2252 247.255 28.4022C250.203 22.9179 243.997 18.3067 239.079 17.8471H239.064Z" fill="white"/>
<path d="M147.248 3.10983C150.413 3.30898 153.47 4.87156 155.269 7.49118C157.379 10.5704 156.976 14.3083 155.611 17.602C154.401 20.528 152.461 23.5613 149.638 25.2004C146.845 26.809 142.749 26.9315 140.748 24.0515C139.041 21.5851 139.677 18.3067 141.756 16.2692C144.052 14.0326 148.536 12.9755 150.367 16.2999C151.313 18.031 153.997 16.4837 153.051 14.7526C150.739 10.5551 145.263 10.264 141.477 12.6079C137.816 14.8598 135.752 19.2412 137.055 23.4081C138.266 27.2839 141.958 29.5971 146.007 29.3826C150.367 29.1529 153.842 26.426 156.2 22.9638C158.698 19.3178 160.482 14.6147 159.676 10.1721C158.977 6.35755 156.216 3.07919 152.71 1.40937C144.394 -2.57368 135.318 2.31322 130.446 9.161C127.204 13.7262 125.187 19.2259 124.008 24.8941C122.813 19.2259 120.812 13.7262 117.569 9.161C112.698 2.31322 103.622 -2.55836 95.3058 1.40937C91.815 3.07919 89.0379 6.35755 88.3397 10.1721C87.533 14.6147 89.3171 19.3178 91.815 22.9638C94.1887 26.426 97.6484 29.1529 102.008 29.3826C106.057 29.5971 109.75 27.2839 110.96 23.4081C112.263 19.2412 110.2 14.8598 106.538 12.6079C102.737 10.264 97.2606 10.5551 94.9644 14.7526C94.018 16.4837 96.6865 18.031 97.6484 16.2999C99.4792 12.9755 103.963 14.0326 106.259 16.2692C108.338 18.2914 108.974 21.5851 107.267 24.0515C105.266 26.9469 101.155 26.8243 98.3776 25.2004C95.554 23.5613 93.6147 20.528 92.4045 17.602C91.0393 14.3083 90.6514 10.5704 92.7459 7.49118C94.53 4.87156 97.6019 3.30898 100.767 3.10983C107.841 2.65025 113.504 7.76694 116.638 13.5577C120.625 20.865 122.115 29.735 122.394 37.9462C122.425 38.942 123.232 39.4322 124.008 39.4169C124.783 39.4169 125.59 38.9266 125.621 37.9462C125.9 29.735 127.39 20.865 131.377 13.5577C134.527 7.78225 140.189 2.66557 147.248 3.10983V3.10983Z" fill="white"/>
</g>
<defs>
<clipPath id="clip0_848_5403">
<rect width="248" height="47" fill="white"/>
</clipPath>
</defs>
</svg>
