<?xml version="1.0" encoding="UTF-8"?>
<svg xmlns="http://www.w3.org/2000/svg" xmlns:xlink="http://www.w3.org/1999/xlink" version="1.2" >
<font id="Belizarius">
<font-face  font-family="Belizarius" units-per-em="1024" ascent="1257" descent="-93" font-style="normal" font-weight="400" font-stretch="normal" cap-height="768" x-height="512" underline-position="0" underline-thickness="0" />
<missing-glyph  horiz-adv-x="512" d="M64 0 L64 1257 L448 1257 L448 0 L64 0 Z M128 64 L384 64 L384 1193 L128 1193 L128 64 Z " />
<glyph glyph-name="space" unicode="&#x20;" horiz-adv-x="311" d="" />
<glyph glyph-name="exclam" unicode="&#x21;" horiz-adv-x="284" d="M82 510 L69 517 L63 527 L63 539 L66 558 L61 583 L111 899 L136 1004 L142 1019 L150 1029 L163 1035 L176 1035 L187 1029 L194 1019 L197 1006 L197 988 L178 873 L153 759 L96 519 L82 510 Z M37 265 L23 268 L15 277 L11 290 L6 325 L9 359 L19 393 L27 411 L39 428 L50 442 L63 448 L76 446 L88 438 L95 424 L100 404 L105 375 L103 344 L93 307 L86 295 L74 289 L61 288 L52 286 L48 277 L37 265 Z " />
<glyph glyph-name="quotedbl" unicode="&#x22;" horiz-adv-x="271" d="M152 743 L139 753 L135 769 L127 802 L122 834 L118 898 L121 944 L127 990 L130 1004 L138 1016 L152 1025 L175 1038 L189 1043 L200 1043 L207 1035 L205 1024 L192 987 L182 950 L175 913 L172 876 L174 772 L171 760 L165 749 L152 743 Z M34 743 L21 753 L17 769 L9 802 L4 834 L0 898 L3 944 L9 990 L12 1004 L20 1016 L34 1025 L57 1038 L71 1043 L82 1043 L89 1035 L87 1024 L74 987 L64 950 L57 913 L54 876 L56 772 L53 760 L47 749 L34 743 Z " />
<glyph glyph-name="numbersign" unicode="&#x23;" horiz-adv-x="410" d="M135 582 L149 584 L174 595 L200 605 L211 610 L218 619 L219 631 L229 768 L227 774 L218 775 L207 771 L184 763 L162 753 L150 748 L143 739 L142 727 L138 663 L132 598 L132 589 L135 582 Z M211 532 L201 534 L190 532 L169 526 L149 516 L136 510 L128 500 L125 488 L118 295 L115 284 L105 276 L93 274 L80 279 L70 290 L68 303 L63 448 L61 457 L55 461 L44 462 L28 466 L14 473 L4 485 L2 497 L8 504 L18 510 L33 517 L49 526 L58 537 L60 549 L65 703 L60 710 L39 717 L27 731 L18 749 L16 761 L23 769 L34 774 L51 780 L63 785 L70 795 L73 808 L76 882 L85 956 L89 967 L97 973 L107 977 L117 988 L128 994 L141 994 L152 990 L159 981 L159 970 L154 939 L150 909 L147 836 L150 827 L157 824 L167 827 L191 834 L216 839 L227 842 L234 850 L235 861 L242 973 L247 995 L254 1011 L258 1022 L266 1030 L279 1031 L289 1027 L296 1017 L297 1006 L287 933 L282 861 L283 850 L289 844 L300 842 L315 839 L326 832 L334 822 L334 810 L325 801 L313 796 L294 793 L283 790 L276 782 L275 771 L270 644 L274 638 L283 634 L295 631 L308 628 L315 620 L321 608 L326 594 L325 583 L315 573 L304 566 L273 555 L268 546 L268 534 L269 447 L275 345 L271 334 L263 325 L258 313 L256 304 L251 303 L245 302 L239 300 L231 302 L226 311 L223 325 L214 422 L213 518 L211 532 Z " />
<glyph glyph-name="dollar" unicode="&#x24;" horiz-adv-x="372" d="M-2 290 L0 298 L7 303 L18 304 L117 308 L135 311 L155 324 L175 350 L184 368 L190 386 L211 587 L216 687 L214 800 L207 809 L195 815 L177 819 L132 819 L112 827 L92 843 L76 867 L67 903 L67 931 L72 960 L81 993 L97 1025 L109 1041 L126 1053 L138 1057 L145 1064 L148 1076 L155 1107 L160 1124 L171 1135 L184 1140 L198 1137 L210 1127 L217 1112 L223 1075 L229 1068 L240 1064 L254 1058 L270 1046 L279 1038 L282 1028 L279 1016 L271 1009 L258 1007 L230 1006 L203 1002 L168 991 L151 981 L133 968 L117 955 L109 939 L107 925 L107 908 L117 890 L133 874 L148 865 L163 865 L195 867 L228 874 L242 874 L254 866 L261 854 L272 827 L284 800 L289 769 L284 746 L272 718 L255 561 L247 402 L244 377 L238 351 L230 325 L221 299 L214 283 L200 271 L176 251 L162 235 L149 228 L143 220 L141 207 L145 144 L142 131 L133 120 L122 116 L110 120 L100 131 L96 145 L91 216 L88 229 L82 239 L68 247 L44 261 L20 269 L5 277 L-2 290 Z " />
<glyph glyph-name="percent" unicode="&#x25;" horiz-adv-x="448" d="M255 517 L258 509 L258 500 L253 461 L237 427 L227 413 L218 408 L211 408 L208 415 L209 425 L212 440 L221 466 L233 491 L245 508 L255 517 Z M177 967 L165 961 L155 946 L138 919 L128 891 L117 852 L116 843 L118 835 L125 833 L135 838 L152 849 L162 864 L185 935 L187 949 L184 961 L177 967 Z M295 931 L297 932 L303 943 L313 969 L324 995 L337 1021 L352 1044 L366 1073 L369 1089 L373 1098 L383 1102 L393 1099 L400 1089 L401 1078 L398 1063 L215 652 L47 217 L36 213 L23 217 L12 228 L7 241 L9 255 L325 1068 L332 1064 L335 1054 L333 1043 L313 994 L297 944 L295 931 Z M131 985 L160 989 L175 997 L189 997 L201 989 L211 975 L218 957 L221 924 L216 892 L206 859 L190 834 L166 812 L138 794 L115 790 L101 793 L90 802 L83 814 L77 832 L76 859 L98 915 L121 971 L131 985 Z M254 568 L238 562 L216 542 L199 518 L182 490 L170 462 L165 424 L169 392 L176 377 L187 364 L203 357 L225 356 L242 361 L257 374 L266 389 L279 427 L288 465 L293 510 L287 534 L279 550 L267 562 L254 568 Z " />
<glyph glyph-name="ampersand" unicode="&#x26;" horiz-adv-x="322" d="M113 133 L106 132 L95 137 L88 148 L85 161 L83 206 L83 253 L82 265 L74 274 L60 284 L46 295 L30 309 L19 324 L9 339 L1 362 L8 518 L12 552 L23 620 L59 756 L61 779 L56 801 L53 831 L52 862 L56 924 L61 948 L74 973 L88 995 L105 1008 L126 1016 L138 1021 L145 1030 L147 1041 L147 1102 L150 1114 L160 1121 L172 1121 L182 1115 L187 1104 L189 1092 L185 1032 L188 1020 L197 1012 L210 997 L215 986 L213 978 L203 974 L192 975 L172 978 L156 977 L144 971 L133 957 L125 938 L114 895 L109 851 L109 838 L113 828 L122 822 L134 822 L176 827 L194 827 L207 822 L216 811 L218 801 L213 792 L203 787 L192 783 L183 773 L173 764 L161 761 L140 757 L126 754 L116 748 L109 736 L103 719 L75 390 L79 361 L92 336 L101 325 L114 321 L129 321 L147 331 L163 338 L179 336 L197 326 L208 316 L212 304 L207 293 L196 284 L180 275 L145 265 L136 263 L132 256 L131 245 L121 159 L121 145 L113 133 Z " />
<glyph glyph-name="quotesingle" unicode="&#x27;" horiz-adv-x="208" d="M-2 743 L-13 749 L-16 760 L-15 772 L18 876 L26 913 L31 950 L32 987 L31 1024 L33 1035 L41 1043 L53 1043 L65 1038 L84 1025 L95 1016 L99 1004 L99 990 L91 944 L79 898 L55 834 L40 802 L23 769 L13 753 L-2 743 Z " />
<glyph glyph-name="parenleft" unicode="&#x28;" horiz-adv-x="335" d="M182 204 L179 196 L170 192 L159 194 L149 202 L126 220 L111 231 L97 246 L77 271 L60 298 L40 342 L32 364 L26 388 L14 460 L8 532 L6 568 L7 604 L13 677 L23 738 L38 799 L57 859 L79 920 L94 947 L111 974 L153 1028 L170 1046 L185 1057 L209 1069 L224 1080 L238 1083 L249 1076 L256 1065 L257 1053 L252 1040 L240 1031 L225 1020 L209 1008 L188 984 L127 860 L102 806 L81 752 L72 725 L65 698 L60 671 L56 645 L52 579 L54 514 L60 449 L72 384 L79 358 L88 333 L99 308 L114 283 L124 267 L136 251 L157 233 L174 219 L182 204 Z " />
<glyph glyph-name="parenright" unicode="&#x29;" horiz-adv-x="303" d="M-2 214 L-1 225 L5 235 L17 247 L33 264 L45 281 L57 304 L67 327 L84 373 L107 466 L129 566 L142 666 L148 766 L149 816 L148 867 L146 892 L141 918 L133 943 L122 969 L110 995 L92 1020 L81 1037 L79 1049 L82 1059 L92 1063 L103 1067 L115 1075 L129 1076 L146 1069 L160 1058 L167 1043 L176 1008 L186 974 L194 929 L199 883 L202 793 L197 702 L187 612 L166 484 L150 420 L129 357 L116 329 L101 302 L66 247 L54 231 L39 219 L21 208 L10 205 L-2 214 Z " />
<glyph glyph-name="asterisk" unicode="&#x2a;" horiz-adv-x="309" d="M105 953 L114 957 L121 968 L140 1004 L153 1021 L164 1031 L176 1031 L186 1024 L190 1012 L186 1000 L178 982 L172 970 L170 960 L175 956 L186 955 L197 953 L210 947 L219 935 L220 924 L213 915 L204 911 L171 898 L160 895 L154 890 L155 882 L163 872 L184 843 L202 814 L207 800 L204 788 L195 780 L182 776 L168 776 L157 783 L149 795 L140 813 L130 831 L123 842 L116 847 L108 842 L103 831 L90 799 L85 785 L76 775 L53 752 L41 747 L30 750 L24 760 L22 771 L26 791 L40 812 L50 835 L55 845 L53 851 L47 851 L37 848 L25 846 L14 847 L6 855 L1 867 L3 880 L10 889 L22 895 L45 905 L56 911 L63 917 L63 926 L56 937 L45 950 L30 965 L23 979 L24 990 L32 1000 L43 1005 L56 1005 L66 999 L74 988 L92 964 L105 953 Z " />
<glyph glyph-name="plus" unicode="&#x2b;" horiz-adv-x="353" d="M140 728 L145 733 L148 744 L156 762 L164 772 L173 775 L185 772 L194 764 L198 752 L195 740 L187 720 L181 700 L174 660 L174 648 L177 639 L185 636 L195 635 L231 639 L245 638 L258 629 L265 617 L263 605 L253 595 L240 590 L187 574 L174 569 L166 561 L163 548 L155 454 L148 443 L135 435 L123 433 L113 440 L106 452 L104 467 L104 498 L105 530 L105 543 L101 550 L93 553 L83 553 L39 547 L25 547 L14 551 L7 562 L5 575 L11 586 L22 595 L36 601 L67 608 L96 618 L106 624 L112 634 L113 646 L112 679 L109 713 L109 724 L116 731 L126 731 L140 728 Z " />
<glyph glyph-name="comma" unicode="&#x2c;" horiz-adv-x="208" d="M-2 145 L-13 151 L-16 162 L-15 174 L18 278 L26 315 L31 352 L32 389 L31 426 L33 438 L41 445 L53 446 L65 440 L84 428 L95 418 L99 406 L99 392 L91 347 L79 300 L55 237 L40 204 L23 172 L13 155 L-2 145 Z " />
<glyph glyph-name="&amp;#x2d;" unicode="&#x2d;" horiz-adv-x="353" d="M10 602 L27 609 L159 629 L192 636 L215 631 L235 627 L252 624 L263 616 L268 604 L266 593 L258 583 L246 578 L220 570 L126 561 L79 559 L32 561 L18 564 L9 572 L5 585 L10 602 Z " />
<glyph glyph-name="&amp;#x2010;" unicode="&#x2010;" horiz-adv-x="353" d="M10 602 L27 609 L159 629 L192 636 L215 631 L235 627 L252 624 L263 616 L268 604 L266 593 L258 583 L246 578 L220 570 L126 561 L79 559 L32 561 L18 564 L9 572 L5 585 L10 602 Z " />
<glyph glyph-name="period" unicode="&#x2e;" horiz-adv-x="227" d="M54 432 L65 428 L74 421 L85 409 L91 392 L95 361 L88 332 L80 303 L72 282 L61 269 L45 262 L30 264 L17 274 L8 287 L4 303 L7 343 L18 376 L34 409 L39 421 L54 432 Z " />
<glyph glyph-name="slash" unicode="&#x2f;" horiz-adv-x="448" d="M261 912 L267 915 L272 925 L285 957 L302 988 L343 1063 L353 1070 L363 1069 L370 1064 L370 1053 L366 1043 L346 1006 L326 967 L238 780 L162 592 L97 405 L44 218 L37 205 L28 197 L17 195 L8 200 L3 211 L1 223 L1 248 L131 654 L288 1083 L297 1085 L306 1080 L309 1071 L306 1060 L261 912 Z " />
<glyph glyph-name="zero" unicode="0" horiz-adv-x="297" d="M101 272 L110 284 L118 316 L143 492 L157 667 L159 843 L148 1019 L140 1048 L136 1059 L129 1065 L121 1061 L114 1051 L103 1040 L96 1028 L93 1012 L69 852 L54 692 L51 612 L51 572 L52 532 L57 452 L66 372 L74 332 L85 292 L90 281 L101 272 Z M136 196 L126 190 L113 189 L88 193 L74 198 L61 209 L53 224 L37 260 L29 295 L11 446 L2 597 L4 748 L20 898 L30 972 L38 1009 L50 1046 L63 1073 L75 1087 L88 1100 L110 1114 L129 1121 L144 1120 L159 1109 L170 1095 L181 1064 L191 1013 L196 961 L199 857 L199 696 L189 535 L171 375 L143 214 L136 196 Z " />
<glyph glyph-name="one" unicode="1" horiz-adv-x="214" d="M65 904 L59 902 L52 893 L44 882 L36 869 L26 862 L15 864 L7 873 L4 886 L7 902 L38 956 L52 983 L65 1010 L70 1022 L78 1029 L88 1027 L99 1022 L109 1011 L112 998 L99 276 L91 271 L80 270 L71 276 L65 287 L62 300 L57 448 L57 595 L65 904 Z " />
<glyph glyph-name="two" unicode="2" horiz-adv-x="322" d="M202 254 L199 248 L190 239 L177 233 L153 227 L128 222 L87 220 L45 225 L27 230 L14 239 L7 254 L4 269 L16 545 L50 843 L60 861 L72 875 L84 888 L100 901 L121 910 L140 922 L161 937 L182 957 L196 975 L202 993 L199 1005 L191 1013 L180 1016 L162 1019 L129 1017 L97 1011 L81 1006 L68 1009 L56 1020 L51 1033 L52 1044 L59 1052 L70 1055 L102 1058 L133 1065 L168 1070 L204 1058 L223 1046 L237 1029 L246 1005 L248 972 L246 939 L236 910 L225 895 L211 880 L193 867 L155 851 L135 841 L116 834 L102 827 L92 817 L88 803 L63 554 L49 290 L55 278 L66 269 L81 263 L112 259 L138 264 L164 273 L180 275 L191 271 L202 254 Z " />
<glyph glyph-name="three" unicode="3" horiz-adv-x="335" d="M216 877 L220 867 L227 855 L239 821 L247 724 L246 675 L243 626 L227 457 L213 372 L194 288 L181 260 L170 246 L152 231 L135 220 L118 216 L87 216 L58 229 L41 242 L24 258 L6 281 L0 304 L1 337 L5 348 L12 355 L23 355 L33 348 L41 336 L46 303 L58 284 L71 273 L87 270 L104 273 L119 280 L134 294 L154 321 L167 353 L191 554 L196 655 L197 706 L196 756 L194 782 L190 808 L183 823 L171 833 L157 838 L135 841 L116 838 L101 842 L89 854 L86 867 L91 879 L100 894 L109 902 L122 903 L139 903 L158 907 L177 921 L192 939 L197 957 L194 982 L189 996 L178 1007 L165 1014 L144 1015 L94 1003 L69 1003 L58 1007 L50 1015 L50 1026 L57 1035 L69 1040 L128 1057 L150 1062 L173 1066 L191 1060 L215 1044 L231 1022 L242 990 L243 962 L241 935 L236 915 L225 895 L216 877 Z " />
<glyph glyph-name="four" unicode="4" horiz-adv-x="328" d="M19 1039 L27 1036 L33 1026 L36 1014 L44 991 L49 968 L52 922 L55 911 L64 901 L76 898 L89 896 L99 899 L105 909 L107 920 L110 964 L109 1009 L114 1022 L124 1031 L129 1040 L131 1051 L138 1059 L147 1060 L156 1053 L164 1043 L167 1028 L165 920 L167 911 L173 907 L183 909 L217 915 L250 919 L263 919 L272 911 L275 899 L270 887 L258 876 L243 870 L214 863 L185 858 L172 853 L164 843 L161 830 L109 221 L99 214 L87 214 L70 217 L60 222 L53 232 L53 244 L92 843 L84 846 L73 846 L39 845 L21 850 L8 860 L0 876 L-2 895 L5 953 L2 992 L2 1018 L7 1029 L19 1039 Z " />
<glyph glyph-name="five" unicode="5" horiz-adv-x="360" d="M82 895 L88 893 L98 894 L130 900 L161 905 L186 905 L210 902 L233 894 L252 879 L265 859 L270 835 L236 582 L194 329 L183 279 L176 254 L168 229 L158 213 L142 200 L119 190 L93 185 L66 185 L35 187 L18 195 L7 208 L2 222 L2 246 L0 271 L0 283 L4 293 L13 297 L23 295 L32 286 L35 273 L38 248 L43 237 L53 231 L64 232 L79 236 L98 249 L110 266 L123 295 L171 529 L205 764 L205 811 L201 824 L191 833 L178 837 L154 840 L129 845 L49 828 L38 831 L30 840 L27 852 L35 889 L39 927 L40 965 L36 1020 L38 1030 L46 1036 L56 1038 L246 1061 L259 1058 L267 1047 L270 1034 L267 1023 L257 1015 L245 1012 L214 1007 L182 1004 L118 1001 L106 999 L98 992 L95 981 L91 945 L82 910 L82 895 Z " />
<glyph glyph-name="six" unicode="6" horiz-adv-x="322" d="M190 885 L173 890 L138 888 L126 886 L117 878 L107 860 L101 836 L40 226 L50 211 L66 197 L81 192 L97 195 L112 203 L122 218 L134 250 L149 336 L158 421 L152 451 L152 468 L160 482 L167 505 L191 682 L200 858 L198 872 L190 885 Z M132 943 L138 940 L148 940 L183 936 L203 933 L218 925 L229 912 L236 894 L242 870 L246 847 L246 800 L209 488 L161 178 L155 161 L147 149 L134 144 L121 143 L95 144 L68 151 L45 162 L21 176 L9 186 L4 200 L2 215 L27 622 L71 1031 L84 1062 L99 1080 L118 1091 L190 1107 L215 1107 L231 1100 L241 1090 L244 1078 L241 1064 L236 1054 L226 1048 L214 1046 L186 1048 L173 1047 L162 1039 L154 1026 L144 1002 L137 980 L132 957 L132 943 Z " />
<glyph glyph-name="seven" unicode="7" horiz-adv-x="309" d="M197 996 L191 999 L180 997 L150 991 L119 989 L104 989 L94 993 L88 1004 L82 1017 L78 1031 L80 1043 L89 1050 L101 1053 L234 1061 L245 1059 L255 1050 L260 1038 L261 1024 L35 227 L24 221 L13 224 L6 232 L4 243 L6 255 L197 996 Z " />
<glyph glyph-name="eight" unicode="8" horiz-adv-x="284" d="M106 1066 L90 1056 L82 1042 L66 1009 L64 969 L67 860 L69 848 L76 840 L87 836 L103 835 L117 839 L129 848 L134 861 L139 886 L140 911 L138 974 L136 1006 L131 1037 L126 1050 L118 1061 L106 1066 Z M106 213 L116 225 L123 248 L132 325 L136 401 L133 555 L128 635 L123 675 L117 714 L114 727 L106 736 L95 739 L87 732 L82 722 L71 682 L66 643 L57 555 L53 467 L57 379 L62 335 L70 290 L76 263 L87 235 L93 223 L106 213 Z M125 147 L106 151 L88 165 L71 182 L56 200 L37 230 L23 259 L9 289 L3 319 L0 429 L3 538 L14 648 L33 756 L35 777 L28 797 L22 816 L15 853 L12 902 L15 950 L22 998 L35 1047 L42 1071 L53 1087 L70 1098 L90 1105 L135 1104 L148 1100 L158 1092 L165 1079 L170 1058 L176 1037 L180 994 L181 951 L174 864 L168 830 L157 795 L149 778 L148 761 L155 745 L168 725 L175 706 L193 391 L192 341 L189 291 L181 241 L172 208 L156 176 L144 158 L125 147 Z " />
<glyph glyph-name="nine" unicode="9" horiz-adv-x="271" d="M134 1055 L118 1049 L107 1036 L92 1009 L86 986 L81 962 L77 915 L79 872 L83 856 L90 844 L100 840 L109 846 L119 858 L135 885 L140 910 L141 936 L146 1041 L141 1051 L134 1055 Z M118 780 L103 776 L92 771 L76 769 L60 773 L45 784 L33 801 L21 822 L5 870 L2 897 L5 937 L11 976 L19 1016 L32 1055 L36 1071 L44 1083 L56 1091 L74 1098 L92 1106 L116 1111 L139 1103 L159 1095 L175 1094 L188 1090 L198 1079 L199 1065 L174 622 L168 401 L171 169 L163 158 L150 149 L138 143 L127 145 L121 155 L118 167 L125 769 L118 780 Z " />
<glyph glyph-name="colon" unicode="&#x3a;" horiz-adv-x="208" d="M54 762 L65 758 L74 751 L85 740 L91 722 L95 691 L88 662 L80 634 L72 613 L61 600 L45 592 L30 595 L17 604 L8 618 L4 634 L7 673 L18 707 L34 739 L39 751 L54 762 Z M54 428 L65 424 L74 417 L85 406 L91 388 L95 357 L88 328 L80 299 L72 278 L61 265 L45 258 L30 260 L17 270 L8 283 L4 299 L7 339 L18 372 L34 405 L39 417 L54 428 Z " />
<glyph glyph-name="semicolon" unicode="&#x3b;" horiz-adv-x="208" d="M-2 145 L-13 151 L-16 162 L-15 174 L18 278 L26 315 L31 352 L32 389 L31 426 L33 438 L41 445 L53 446 L65 440 L84 428 L95 418 L99 406 L99 392 L91 347 L79 300 L55 237 L40 204 L23 172 L13 155 L-2 145 Z M54 762 L65 758 L74 751 L85 740 L91 722 L95 691 L88 662 L80 634 L72 613 L61 600 L45 592 L30 595 L17 604 L8 618 L4 634 L7 673 L18 707 L34 739 L39 751 L54 762 Z " />
<glyph glyph-name="less" unicode="&#x3c;" horiz-adv-x="417" d="M265 1072 L269 1067 L269 1058 L266 1046 L264 1036 L265 1031 L269 1033 L274 1043 L284 1064 L290 1078 L298 1087 L308 1087 L316 1080 L318 1069 L314 1056 L86 606 L90 596 L99 589 L119 576 L138 563 L159 546 L175 526 L244 420 L308 313 L322 279 L325 243 L329 229 L327 218 L318 209 L307 207 L295 213 L283 224 L256 261 L254 276 L249 287 L239 298 L226 321 L211 345 L175 393 L145 429 L112 462 L79 494 L21 542 L12 555 L9 570 L13 581 L16 593 L14 606 L17 618 L26 625 L37 631 L45 644 L265 1072 Z " />
<glyph glyph-name="equal" unicode="&#x3d;" horiz-adv-x="353" d="M17 527 L27 534 L38 536 L82 549 L124 559 L223 576 L236 570 L246 559 L246 548 L238 538 L226 534 L182 529 L138 521 L93 510 L49 495 L35 494 L24 500 L16 510 L17 527 Z M230 663 L232 653 L238 643 L238 632 L230 623 L217 619 L149 604 L80 593 L24 596 L14 599 L6 610 L5 622 L12 632 L24 639 L121 679 L155 690 L190 700 L225 708 L238 708 L251 700 L259 689 L259 679 L253 671 L243 666 L230 663 Z " />
<glyph glyph-name="greater" unicode="&#x3e;" horiz-adv-x="417" d="M73 1072 L84 1059 L302 631 L312 625 L321 618 L324 606 L322 593 L325 581 L329 570 L326 555 L317 542 L259 494 L226 462 L193 429 L163 393 L128 345 L112 321 L99 298 L89 287 L84 276 L82 261 L70 243 L55 224 L44 213 L31 207 L20 209 L11 218 L9 229 L13 243 L16 279 L31 313 L94 420 L164 526 L180 546 L200 563 L219 576 L239 589 L248 596 L253 606 L248 618 L21 1069 L23 1080 L30 1087 L40 1087 L48 1078 L55 1064 L64 1043 L70 1033 L73 1031 L74 1036 L72 1046 L69 1058 L69 1067 L73 1072 Z " />
<glyph glyph-name="question" unicode="&#x3f;" horiz-adv-x="366" d="M76 964 L77 975 L85 986 L99 996 L117 1007 L136 1015 L174 1023 L213 1027 L240 1027 L260 1019 L273 1008 L280 994 L283 977 L256 760 L244 683 L235 644 L224 605 L217 590 L207 581 L196 579 L185 584 L173 592 L159 592 L143 589 L132 586 L124 576 L121 563 L116 538 L114 513 L112 496 L105 483 L93 474 L82 472 L71 479 L64 490 L61 504 L67 596 L74 613 L88 626 L103 636 L137 636 L152 646 L162 660 L175 688 L194 771 L202 813 L209 854 L211 892 L209 930 L205 947 L196 959 L183 966 L162 973 L146 972 L128 963 L101 955 L88 955 L76 964 Z M119 376 L118 360 L102 324 L92 276 L84 267 L72 263 L60 263 L50 269 L44 280 L37 291 L15 302 L8 314 L6 327 L13 345 L24 367 L37 388 L49 402 L63 410 L79 411 L91 408 L100 400 L108 391 L119 376 Z " />
<glyph glyph-name="at" unicode="&#x40;" horiz-adv-x="372" d="M225 498 L227 508 L253 732 L263 845 L266 958 L258 985 L252 997 L242 1006 L231 1009 L198 1008 L164 1005 L144 1000 L125 993 L110 986 L100 972 L93 948 L77 795 L78 789 L82 791 L89 799 L105 828 L116 842 L131 851 L149 851 L175 841 L198 826 L214 808 L224 786 L229 760 L229 732 L217 624 L216 596 L216 569 L218 541 L222 514 L223 503 L225 498 Z M137 511 L147 521 L158 544 L167 566 L172 591 L175 614 L179 765 L177 776 L170 787 L160 791 L148 787 L139 778 L135 765 L128 713 L124 662 L122 559 L126 528 L130 517 L137 511 Z M182 494 L176 491 L169 481 L157 468 L142 460 L124 460 L109 466 L99 479 L90 495 L81 519 L74 541 L65 588 L62 600 L60 606 L59 602 L59 591 L56 554 L55 517 L58 407 L65 295 L70 280 L81 269 L96 262 L117 252 L128 242 L133 231 L130 220 L120 212 L107 207 L81 204 L56 210 L37 223 L23 242 L18 264 L3 394 L-2 523 L-1 653 L10 781 L20 834 L32 885 L58 987 L68 1008 L82 1027 L94 1042 L109 1050 L130 1057 L151 1062 L193 1060 L236 1054 L273 1041 L288 1029 L298 1013 L307 984 L308 917 L306 851 L298 718 L269 453 L260 420 L253 408 L242 400 L229 400 L216 408 L206 421 L189 452 L185 481 L182 494 Z " />
<glyph glyph-name="A" unicode="A" horiz-adv-x="404" d="M20 313 L8 319 L4 329 L5 342 L21 413 L35 483 L167 1018 L177 1025 L188 1022 L195 1013 L198 1001 L199 972 L223 873 L254 772 L262 742 L268 711 L278 650 L292 526 L308 416 L331 304 L337 288 L336 275 L328 267 L317 261 L304 256 L292 259 L283 269 L279 281 L216 709 L210 717 L199 721 L186 721 L134 709 L126 703 L124 691 L37 322 L20 313 Z M166 897 L160 886 L156 867 L142 787 L145 780 L154 778 L170 776 L192 776 L198 781 L199 791 L196 803 L186 842 L171 892 L166 897 Z " />
<glyph glyph-name="B" unicode="B" horiz-adv-x="316" d="M178 773 L181 769 L191 764 L210 751 L222 737 L229 718 L232 682 L232 646 L209 492 L175 338 L167 320 L153 306 L130 291 L108 281 L87 272 L43 257 L24 257 L9 264 L1 274 L0 288 L21 1029 L29 1037 L38 1035 L48 1027 L63 1017 L107 1003 L150 985 L176 971 L198 948 L207 928 L210 899 L207 855 L204 834 L199 812 L185 787 L178 773 Z M56 315 L69 315 L95 325 L110 336 L123 349 L131 367 L164 523 L176 601 L183 679 L182 703 L179 715 L171 724 L160 729 L108 740 L97 741 L89 738 L86 729 L87 719 L84 558 L77 397 L73 382 L61 368 L54 353 L52 332 L52 322 L56 315 Z M79 962 L77 948 L86 797 L90 791 L100 790 L112 793 L127 798 L141 806 L151 821 L163 854 L165 882 L165 909 L163 922 L157 933 L145 941 L123 951 L101 960 L90 963 L79 962 Z " />
<glyph glyph-name="C" unicode="C" horiz-adv-x="303" d="M196 910 L183 918 L174 929 L168 944 L160 957 L147 963 L131 966 L118 965 L106 957 L99 944 L93 928 L82 829 L77 729 L77 680 L78 630 L84 519 L78 511 L68 506 L57 505 L51 500 L49 490 L54 481 L61 470 L61 425 L62 393 L66 372 L80 353 L111 323 L125 312 L139 308 L152 314 L165 326 L173 344 L176 357 L184 367 L197 372 L209 370 L217 362 L222 351 L221 339 L214 312 L203 295 L191 281 L182 269 L169 259 L154 255 L120 257 L89 260 L60 276 L37 293 L21 315 L11 334 L6 353 L15 934 L22 960 L40 989 L58 1005 L78 1013 L101 1017 L125 1018 L168 1012 L189 1003 L202 989 L211 972 L217 938 L217 925 L212 915 L196 910 Z " />
<glyph glyph-name="D" unicode="D" horiz-adv-x="297" d="M84 997 L89 1006 L94 1014 L103 1016 L114 1012 L125 1002 L134 987 L143 971 L174 931 L181 908 L196 705 L199 603 L194 501 L189 475 L181 449 L160 397 L144 365 L124 332 L111 315 L96 301 L71 283 L47 270 L31 264 L18 267 L8 275 L4 288 L7 299 L19 633 L19 979 L25 991 L37 998 L50 1000 L70 997 L84 997 Z M66 355 L79 368 L92 385 L103 403 L121 437 L133 469 L141 501 L143 545 L144 590 L139 755 L121 919 L117 933 L107 944 L92 951 L82 956 L74 957 L71 951 L72 940 L84 869 L91 797 L92 761 L92 725 L89 689 L84 653 L64 514 L58 410 L59 374 L60 364 L61 356 L66 355 Z " />
<glyph glyph-name="E" unicode="E" horiz-adv-x="316" d="M235 946 L230 936 L219 928 L207 924 L153 920 L100 919 L76 917 L67 913 L63 906 L63 895 L67 872 L70 834 L73 825 L79 821 L90 823 L137 829 L165 831 L194 829 L208 824 L217 817 L220 806 L220 794 L216 781 L206 771 L192 767 L143 764 L118 763 L94 760 L82 756 L76 749 L76 627 L74 516 L64 281 L71 271 L83 263 L101 258 L144 258 L177 255 L189 250 L197 240 L198 228 L204 216 L211 206 L211 194 L204 183 L191 177 L177 174 L127 174 L103 175 L78 178 L50 187 L25 208 L11 223 L5 239 L27 568 L28 733 L21 898 L23 927 L32 944 L45 957 L63 963 L127 969 L191 972 L215 967 L226 962 L235 946 Z " />
<glyph glyph-name="F" unicode="F" horiz-adv-x="297" d="M210 819 L198 806 L187 801 L162 798 L130 795 L97 789 L86 785 L80 775 L78 764 L63 295 L57 281 L42 266 L29 261 L16 263 L6 274 L2 288 L3 313 L3 388 L21 961 L28 983 L32 1001 L38 1012 L48 1018 L60 1020 L82 1016 L104 1013 L149 1012 L190 1012 L206 1007 L217 995 L222 983 L218 972 L208 966 L196 965 L135 968 L112 963 L97 954 L87 939 L81 921 L78 885 L81 849 L83 840 L89 836 L100 837 L139 844 L178 845 L193 843 L203 836 L210 819 Z " />
<glyph glyph-name="G" unicode="G" horiz-adv-x="316" d="M101 857 L107 865 L118 870 L131 873 L164 876 L197 875 L220 873 L233 865 L243 853 L244 839 L234 711 L232 583 L234 326 L231 284 L211 234 L205 225 L195 220 L183 219 L155 218 L126 219 L90 221 L58 236 L35 257 L22 279 L9 306 L4 333 L5 648 L11 806 L25 964 L32 989 L42 1011 L49 1023 L61 1031 L76 1038 L99 1048 L123 1052 L166 1047 L194 1032 L217 1009 L228 988 L228 967 L224 956 L215 949 L203 949 L194 956 L187 969 L179 991 L173 1001 L161 1008 L147 1011 L132 1008 L121 997 L111 982 L81 909 L71 871 L66 834 L62 331 L71 307 L84 290 L103 279 L139 269 L155 269 L168 276 L178 289 L184 307 L169 828 L160 834 L149 834 L134 833 L118 835 L107 842 L101 857 Z " />
<glyph glyph-name="H" unicode="H" horiz-adv-x="385" d="M57 996 L58 1003 L57 1013 L60 1024 L69 1031 L81 1031 L90 1024 L94 1013 L95 999 L94 953 L91 929 L85 893 L86 884 L92 880 L103 880 L129 887 L155 891 L182 892 L209 891 L220 893 L227 902 L228 914 L231 1031 L235 1044 L243 1053 L254 1058 L264 1052 L269 1042 L275 1037 L286 1037 L296 1033 L302 1024 L303 1013 L220 254 L211 249 L201 249 L189 255 L183 267 L181 280 L191 544 L225 821 L222 830 L212 834 L200 834 L165 827 L131 821 L91 816 L80 812 L74 802 L72 791 L61 443 L64 327 L64 279 L60 267 L51 260 L39 257 L26 255 L14 262 L6 273 L4 287 L14 826 L24 980 L27 991 L35 998 L57 996 Z " />
<glyph glyph-name="I" unicode="I" horiz-adv-x="176" d="M47 1010 L51 1025 L55 1038 L62 1048 L74 1051 L86 1047 L93 1038 L93 1026 L42 259 L32 253 L20 253 L8 261 L0 274 L-2 287 L14 629 L16 799 L15 970 L18 990 L23 1002 L33 1007 L47 1010 Z " />
<glyph glyph-name="J" unicode="J" horiz-adv-x="335" d="M64 511 L69 502 L68 491 L55 413 L54 387 L57 365 L69 345 L88 328 L105 318 L118 315 L132 322 L148 335 L163 355 L171 376 L190 482 L200 589 L201 696 L197 803 L187 916 L179 972 L166 1030 L166 1043 L174 1055 L185 1060 L199 1058 L210 1049 L216 1037 L217 1024 L223 1012 L233 996 L237 979 L252 731 L241 437 L230 390 L216 343 L199 297 L182 268 L166 253 L148 244 L122 242 L97 244 L72 250 L54 261 L41 275 L17 326 L8 362 L6 386 L6 410 L8 459 L12 480 L20 494 L36 508 L48 515 L64 511 Z " />
<glyph glyph-name="K" unicode="K" horiz-adv-x="391" d="M75 889 L85 892 L93 902 L155 971 L214 1042 L228 1056 L241 1063 L254 1062 L265 1056 L270 1044 L268 1032 L258 1017 L230 986 L200 956 L189 943 L185 928 L185 884 L237 550 L309 204 L304 193 L294 188 L282 188 L268 193 L257 205 L251 219 L174 519 L114 829 L108 834 L100 831 L91 822 L78 808 L69 795 L67 780 L69 255 L62 245 L51 242 L40 246 L26 254 L13 263 L4 276 L2 291 L6 368 L43 997 L52 1022 L60 1031 L70 1035 L80 1033 L87 1024 L86 1013 L77 957 L74 929 L74 902 L75 889 Z " />
<glyph glyph-name="L" unicode="L" horiz-adv-x="303" d="M69 314 L84 315 L123 325 L161 333 L178 339 L191 336 L201 329 L206 317 L204 304 L194 292 L181 285 L121 261 L61 241 L42 232 L25 233 L13 241 L4 253 L1 267 L29 1005 L38 1042 L41 1052 L48 1059 L58 1059 L69 1054 L81 1042 L84 1027 L62 326 L69 314 Z " />
<glyph glyph-name="M" unicode="M" horiz-adv-x="404" d="M164 642 L168 646 L172 657 L227 904 L291 1164 L298 1172 L309 1172 L319 1167 L328 1155 L332 1140 L316 802 L318 450 L314 438 L304 430 L297 421 L296 408 L298 374 L302 341 L304 329 L298 318 L286 313 L275 314 L264 321 L256 332 L254 346 L249 542 L251 607 L264 882 L260 871 L204 571 L194 488 L191 405 L192 363 L196 322 L199 299 L194 283 L185 272 L173 267 L161 272 L150 281 L143 296 L133 332 L70 983 L48 320 L38 312 L26 311 L14 319 L5 332 L2 346 L35 1150 L45 1169 L51 1177 L61 1180 L72 1175 L81 1164 L87 1149 L113 1015 L131 882 L144 767 L160 654 L164 642 Z " />
<glyph glyph-name="N" unicode="N" horiz-adv-x="391" d="M219 397 L221 402 L222 412 L271 1055 L280 1066 L292 1070 L305 1069 L316 1065 L322 1055 L321 1043 L287 643 L266 216 L258 197 L248 186 L236 181 L222 181 L209 186 L198 198 L193 212 L144 567 L99 919 L83 605 L78 277 L67 265 L57 258 L52 246 L44 234 L32 228 L20 228 L8 238 L0 251 L0 265 L17 652 L70 1064 L79 1069 L90 1068 L104 1065 L116 1060 L123 1050 L127 1039 L167 811 L201 496 L214 408 L219 397 Z " />
<glyph glyph-name="O" unicode="O" horiz-adv-x="341" d="M115 387 L130 383 L163 386 L170 393 L174 404 L193 586 L204 769 L216 1095 L213 1113 L203 1130 L184 1145 L163 1151 L144 1149 L125 1137 L110 1124 L100 1106 L88 1036 L80 967 L60 737 L59 622 L65 508 L71 483 L80 459 L94 438 L108 421 L114 404 L113 394 L115 387 Z M12 345 L5 367 L0 422 L0 477 L4 586 L23 855 L58 1126 L67 1145 L85 1163 L103 1174 L121 1183 L146 1188 L174 1184 L204 1175 L229 1155 L247 1131 L256 1100 L247 789 L220 420 L214 391 L206 363 L197 345 L184 331 L166 322 L130 315 L93 313 L56 318 L31 327 L12 345 Z " />
<glyph glyph-name="P" unicode="P" horiz-adv-x="372" d="M106 767 L101 760 L100 749 L86 562 L80 359 L75 347 L64 340 L57 334 L55 321 L54 241 L55 220 L52 208 L43 199 L31 199 L20 204 L8 217 L6 232 L59 950 L69 976 L78 998 L80 1010 L86 1019 L96 1023 L107 1021 L126 1024 L144 1033 L166 1034 L200 1026 L232 1016 L252 1008 L266 994 L279 974 L284 950 L281 896 L277 869 L272 843 L259 807 L249 791 L234 780 L212 771 L167 767 L122 768 L106 767 Z M114 862 L127 857 L174 858 L195 865 L212 880 L229 906 L232 924 L229 939 L218 954 L196 973 L173 982 L148 979 L133 974 L121 968 L114 956 L112 942 L111 909 L111 877 L112 867 L114 862 Z " />
<glyph glyph-name="Q" unicode="Q" horiz-adv-x="372" d="M142 243 L140 236 L138 224 L135 185 L135 146 L138 107 L145 69 L142 52 L131 38 L118 30 L104 31 L89 40 L79 53 L77 67 L79 151 L84 235 L83 247 L77 257 L65 262 L45 272 L29 287 L20 304 L15 332 L5 361 L2 385 L2 452 L4 520 L14 654 L54 947 L62 970 L72 993 L84 1017 L105 1044 L128 1064 L150 1072 L195 1073 L217 1070 L239 1065 L257 1052 L277 1032 L290 1010 L297 987 L300 965 L284 768 L238 432 L211 294 L203 279 L190 268 L142 243 Z M146 308 L159 312 L169 323 L174 338 L225 637 L258 936 L255 972 L247 992 L233 1008 L217 1017 L200 1018 L180 1010 L157 1002 L138 989 L123 969 L114 948 L108 929 L89 783 L78 637 L69 330 L72 319 L78 312 L85 313 L88 322 L90 335 L134 759 L141 768 L153 771 L166 766 L177 755 L182 739 L180 719 L157 522 L143 316 L146 308 Z " />
<glyph glyph-name="R" unicode="R" horiz-adv-x="372" d="M220 300 L218 295 L219 285 L219 274 L217 269 L211 269 L204 275 L199 287 L162 487 L140 587 L105 699 L101 702 L99 697 L98 686 L82 478 L46 240 L36 233 L23 233 L13 240 L5 253 L3 268 L47 982 L60 1013 L68 1024 L83 1031 L112 1036 L146 1033 L181 1027 L206 1020 L231 1010 L250 997 L269 980 L290 953 L300 926 L298 894 L292 874 L273 840 L257 828 L237 817 L206 806 L175 801 L163 800 L156 797 L153 789 L156 778 L224 477 L304 163 L299 152 L289 144 L276 145 L265 155 L258 167 L225 288 L220 300 Z M123 973 L120 958 L111 874 L111 861 L117 852 L128 845 L150 843 L174 843 L198 849 L219 859 L236 876 L247 897 L252 913 L250 929 L239 945 L216 963 L195 977 L172 981 L129 976 L123 973 Z " />
<glyph glyph-name="S" unicode="S" horiz-adv-x="379" d="M12 377 L25 379 L35 374 L42 366 L44 354 L51 290 L58 279 L69 273 L82 271 L105 274 L127 280 L145 291 L158 308 L171 340 L208 583 L232 828 L229 848 L224 859 L214 866 L202 867 L172 868 L141 867 L105 875 L88 884 L75 900 L67 920 L63 943 L61 966 L64 995 L72 1024 L80 1041 L93 1054 L108 1061 L132 1068 L156 1072 L182 1073 L207 1072 L233 1068 L272 1060 L282 1052 L286 1041 L283 1030 L272 1022 L260 1021 L218 1027 L176 1029 L158 1025 L142 1016 L132 1000 L127 980 L127 954 L133 937 L142 926 L154 921 L168 920 L201 921 L232 927 L262 930 L274 927 L283 918 L284 906 L286 891 L302 857 L311 833 L312 808 L204 266 L191 242 L176 228 L160 223 L132 218 L102 218 L67 226 L33 239 L19 246 L9 259 L6 273 L6 362 L12 377 Z " />
<glyph glyph-name="T" unicode="T" horiz-adv-x="379" d="M109 208 L101 209 L91 215 L81 228 L80 241 L116 981 L108 985 L97 985 L55 981 L32 980 L20 984 L10 995 L0 1008 L-6 1020 L-2 1032 L7 1039 L18 1040 L126 1049 L234 1055 L271 1059 L283 1056 L292 1049 L296 1039 L292 1027 L283 1018 L271 1012 L258 1000 L243 995 L205 987 L193 985 L186 979 L184 967 L147 600 L119 219 L109 208 Z " />
<glyph glyph-name="U" unicode="U" horiz-adv-x="328" d="M135 310 L150 316 L163 329 L174 349 L185 380 L191 411 L200 538 L200 601 L198 664 L198 686 L214 856 L236 1026 L241 1040 L250 1051 L262 1053 L272 1048 L278 1038 L282 1024 L266 936 L255 848 L247 650 L249 635 L247 616 L235 303 L229 291 L217 282 L201 274 L170 261 L137 255 L112 257 L91 268 L72 287 L48 318 L30 350 L11 406 L4 435 L3 464 L40 959 L46 967 L56 968 L66 964 L72 954 L74 941 L77 916 L83 896 L66 417 L72 390 L79 363 L84 349 L96 336 L117 319 L135 310 Z " />
<glyph glyph-name="V" unicode="V" horiz-adv-x="366" d="M81 415 L85 420 L88 431 L101 472 L140 633 L135 659 L130 688 L138 718 L148 736 L161 753 L172 772 L179 792 L182 816 L182 840 L201 929 L223 1020 L235 1041 L240 1057 L242 1074 L248 1089 L257 1101 L269 1105 L281 1102 L290 1093 L292 1082 L289 1070 L289 1049 L264 990 L244 930 L235 898 L229 867 L227 835 L227 804 L224 772 L208 742 L196 711 L154 474 L101 225 L94 214 L81 207 L69 210 L59 220 L50 232 L43 257 L16 587 L3 946 L10 951 L21 949 L27 939 L30 928 L81 415 Z " />
<glyph glyph-name="W" unicode="W" horiz-adv-x="448" d="M61 462 L65 466 L69 476 L156 715 L169 740 L174 760 L177 769 L185 773 L195 772 L207 767 L214 756 L216 744 L236 587 L242 509 L246 420 L248 416 L252 420 L253 431 L297 731 L333 1046 L340 1054 L348 1062 L352 1074 L356 1094 L361 1104 L370 1110 L381 1109 L392 1104 L398 1094 L399 1081 L391 1038 L269 233 L259 225 L247 225 L230 229 L219 233 L210 242 L208 254 L210 342 L207 430 L191 617 L187 622 L183 617 L180 606 L126 435 L70 253 L60 245 L49 243 L36 241 L23 237 L12 239 L3 248 L0 259 L2 273 L11 304 L21 335 L20 360 L10 822 L20 976 L23 989 L29 998 L39 1000 L49 995 L56 986 L57 974 L53 724 L61 462 Z " />
<glyph glyph-name="X" unicode="X" horiz-adv-x="385" d="M163 872 L168 875 L172 885 L202 970 L220 1013 L240 1055 L247 1066 L257 1070 L269 1069 L283 1063 L294 1055 L299 1043 L296 1030 L267 958 L242 885 L196 741 L193 710 L236 485 L296 249 L291 240 L280 236 L268 238 L257 248 L252 262 L199 469 L192 472 L182 471 L169 475 L160 485 L156 499 L152 523 L150 533 L147 538 L143 533 L140 523 L101 376 L62 217 L53 207 L40 204 L27 207 L11 212 L0 222 L-4 235 L0 247 L53 402 L92 556 L103 616 L109 677 L110 737 L107 797 L94 918 L72 1057 L75 1068 L82 1073 L92 1073 L102 1069 L115 1059 L124 1042 L142 963 L158 883 L163 872 Z " />
<glyph glyph-name="Y" unicode="Y" horiz-adv-x="391" d="M178 932 L184 936 L188 947 L210 1024 L221 1043 L234 1063 L242 1076 L252 1084 L263 1083 L275 1075 L282 1063 L281 1049 L200 786 L139 523 L114 386 L108 317 L107 283 L107 249 L106 237 L99 227 L87 221 L74 220 L58 215 L46 216 L35 226 L28 239 L28 254 L80 544 L162 848 L156 859 L144 872 L82 928 L4 1005 L-2 1017 L-2 1029 L2 1037 L11 1038 L22 1035 L55 1020 L87 1007 L106 998 L124 985 L146 965 L165 943 L178 932 Z " />
<glyph glyph-name="Z" unicode="Z" horiz-adv-x="429" d="M95 280 L100 278 L110 280 L230 280 L269 284 L285 283 L295 278 L302 269 L299 259 L290 252 L279 250 L264 245 L252 236 L237 232 L196 234 L153 232 L69 222 L27 227 L15 233 L6 244 L2 257 L3 274 L56 445 L120 616 L277 981 L272 984 L262 984 L237 979 L212 978 L187 979 L137 983 L113 988 L100 994 L92 1005 L89 1017 L94 1027 L103 1031 L110 1036 L113 1046 L116 1057 L123 1063 L133 1063 L170 1059 L207 1057 L279 1060 L302 1056 L317 1048 L328 1034 L337 1016 L342 1002 L339 989 L129 447 L116 395 L96 291 L95 280 Z " />
<glyph glyph-name="bracketleft" unicode="&#x5b;" horiz-adv-x="328" d="M56 1047 L69 1049 L80 1048 L90 1054 L99 1061 L114 1063 L148 1061 L183 1061 L222 1058 L234 1053 L243 1042 L244 1030 L238 1020 L226 1013 L212 1009 L105 1008 L96 1006 L92 999 L91 989 L52 297 L60 294 L71 296 L112 302 L152 312 L168 314 L179 310 L188 301 L192 289 L191 277 L184 268 L173 264 L163 258 L156 247 L145 238 L130 235 L105 234 L87 228 L69 220 L31 204 L19 202 L9 207 L4 216 L4 227 L30 947 L50 1033 L56 1047 Z " />
<glyph glyph-name="bracketright" unicode="&#x5d;" horiz-adv-x="328" d="M19 249 L30 263 L44 274 L60 280 L103 284 L115 287 L121 295 L122 308 L124 347 L124 388 L132 540 L148 693 L204 1009 L202 1019 L197 1022 L186 1022 L142 1020 L98 1022 L79 1027 L69 1033 L62 1045 L63 1056 L70 1062 L82 1064 L200 1075 L215 1074 L230 1066 L240 1053 L242 1038 L202 631 L173 211 L166 203 L157 201 L147 206 L142 217 L138 227 L129 232 L117 234 L86 234 L54 232 L38 230 L27 234 L19 249 Z " />
<glyph glyph-name="a" unicode="a" horiz-adv-x="404" d="M20 313 L8 319 L4 329 L5 342 L21 413 L35 483 L167 1018 L177 1025 L188 1022 L195 1013 L198 1001 L199 972 L223 873 L254 772 L262 742 L268 711 L278 650 L292 526 L308 416 L331 304 L337 288 L336 275 L328 267 L317 261 L304 256 L292 259 L283 269 L279 281 L216 709 L210 717 L199 721 L186 721 L134 709 L126 703 L124 691 L37 322 L20 313 Z M166 897 L160 886 L156 867 L142 787 L145 780 L154 778 L170 776 L192 776 L198 781 L199 791 L196 803 L186 842 L171 892 L166 897 Z " />
<glyph glyph-name="b" unicode="b" horiz-adv-x="316" d="M178 773 L181 769 L191 764 L210 751 L222 737 L229 718 L232 682 L232 646 L209 492 L175 338 L167 320 L153 306 L130 291 L108 281 L87 272 L43 257 L24 257 L9 264 L1 274 L0 288 L21 1029 L29 1037 L38 1035 L48 1027 L63 1017 L107 1003 L150 985 L176 971 L198 948 L207 928 L210 899 L207 855 L204 834 L199 812 L185 787 L178 773 Z M56 315 L69 315 L95 325 L110 336 L123 349 L131 367 L164 523 L176 601 L183 679 L182 703 L179 715 L171 724 L160 729 L108 740 L97 741 L89 738 L86 729 L87 719 L84 558 L77 397 L73 382 L61 368 L54 353 L52 332 L52 322 L56 315 Z M79 962 L77 948 L86 797 L90 791 L100 790 L112 793 L127 798 L141 806 L151 821 L163 854 L165 882 L165 909 L163 922 L157 933 L145 941 L123 951 L101 960 L90 963 L79 962 Z " />
<glyph glyph-name="c" unicode="c" horiz-adv-x="303" d="M196 910 L183 918 L174 929 L168 944 L160 957 L147 963 L131 966 L118 965 L106 957 L99 944 L93 928 L82 829 L77 729 L77 680 L78 630 L84 519 L78 511 L68 506 L57 505 L51 500 L49 490 L54 481 L61 470 L61 425 L62 393 L66 372 L80 353 L111 323 L125 312 L139 308 L152 314 L165 326 L173 344 L176 357 L184 367 L197 372 L209 370 L217 362 L222 351 L221 339 L214 312 L203 295 L191 281 L182 269 L169 259 L154 255 L120 257 L89 260 L60 276 L37 293 L21 315 L11 334 L6 353 L15 934 L22 960 L40 989 L58 1005 L78 1013 L101 1017 L125 1018 L168 1012 L189 1003 L202 989 L211 972 L217 938 L217 925 L212 915 L196 910 Z " />
<glyph glyph-name="d" unicode="d" horiz-adv-x="297" d="M84 997 L89 1006 L94 1014 L103 1016 L114 1012 L125 1002 L134 987 L143 971 L174 931 L181 908 L196 705 L199 603 L194 501 L189 475 L181 449 L160 397 L144 365 L124 332 L111 315 L96 301 L71 283 L47 270 L31 264 L18 267 L8 275 L4 288 L7 299 L19 633 L19 979 L25 991 L37 998 L50 1000 L70 997 L84 997 Z M66 355 L79 368 L92 385 L103 403 L121 437 L133 469 L141 501 L143 545 L144 590 L139 755 L121 919 L117 933 L107 944 L92 951 L82 956 L74 957 L71 951 L72 940 L84 869 L91 797 L92 761 L92 725 L89 689 L84 653 L64 514 L58 410 L59 374 L60 364 L61 356 L66 355 Z " />
<glyph glyph-name="e" unicode="e" horiz-adv-x="316" d="M235 946 L230 936 L219 928 L207 924 L153 920 L100 919 L76 917 L67 913 L63 906 L63 895 L67 872 L70 834 L73 825 L79 821 L90 823 L137 829 L165 831 L194 829 L208 824 L217 817 L220 806 L220 794 L216 781 L206 771 L192 767 L143 764 L118 763 L94 760 L82 756 L76 749 L76 627 L74 516 L64 281 L71 271 L83 263 L101 258 L144 258 L177 255 L189 250 L197 240 L198 228 L204 216 L211 206 L211 194 L204 183 L191 177 L177 174 L127 174 L103 175 L78 178 L50 187 L25 208 L11 223 L5 239 L27 568 L28 733 L21 898 L23 927 L32 944 L45 957 L63 963 L127 969 L191 972 L215 967 L226 962 L235 946 Z " />
<glyph glyph-name="f" unicode="f" horiz-adv-x="297" d="M210 819 L198 806 L187 801 L162 798 L130 795 L97 789 L86 785 L80 775 L78 764 L63 295 L57 281 L42 266 L29 261 L16 263 L6 274 L2 288 L3 313 L3 388 L21 961 L28 983 L32 1001 L38 1012 L48 1018 L60 1020 L82 1016 L104 1013 L149 1012 L190 1012 L206 1007 L217 995 L222 983 L218 972 L208 966 L196 965 L135 968 L112 963 L97 954 L87 939 L81 921 L78 885 L81 849 L83 840 L89 836 L100 837 L139 844 L178 845 L193 843 L203 836 L210 819 Z " />
<glyph glyph-name="g" unicode="g" horiz-adv-x="316" d="M101 857 L107 865 L118 870 L131 873 L164 876 L197 875 L220 873 L233 865 L243 853 L244 839 L234 711 L232 583 L234 326 L231 284 L211 234 L205 225 L195 220 L183 219 L155 218 L126 219 L90 221 L58 236 L35 257 L22 279 L9 306 L4 333 L5 648 L11 806 L25 964 L32 989 L42 1011 L49 1023 L61 1031 L76 1038 L99 1048 L123 1052 L166 1047 L194 1032 L217 1009 L228 988 L228 967 L224 956 L215 949 L203 949 L194 956 L187 969 L179 991 L173 1001 L161 1008 L147 1011 L132 1008 L121 997 L111 982 L81 909 L71 871 L66 834 L62 331 L71 307 L84 290 L103 279 L139 269 L155 269 L168 276 L178 289 L184 307 L169 828 L160 834 L149 834 L134 833 L118 835 L107 842 L101 857 Z " />
<glyph glyph-name="h" unicode="h" horiz-adv-x="385" d="M57 996 L58 1003 L57 1013 L60 1024 L69 1031 L81 1031 L90 1024 L94 1013 L95 999 L94 953 L91 929 L85 893 L86 884 L92 880 L103 880 L129 887 L155 891 L182 892 L209 891 L220 893 L227 902 L228 914 L231 1031 L235 1044 L243 1053 L254 1058 L264 1052 L269 1042 L275 1037 L286 1037 L296 1033 L302 1024 L303 1013 L220 254 L211 249 L201 249 L189 255 L183 267 L181 280 L191 544 L225 821 L222 830 L212 834 L200 834 L165 827 L131 821 L91 816 L80 812 L74 802 L72 791 L61 443 L64 327 L64 279 L60 267 L51 260 L39 257 L26 255 L14 262 L6 273 L4 287 L14 826 L24 980 L27 991 L35 998 L57 996 Z " />
<glyph glyph-name="i" unicode="i" horiz-adv-x="176" d="M47 1010 L51 1025 L55 1038 L62 1048 L74 1051 L86 1047 L93 1038 L93 1026 L42 259 L32 253 L20 253 L8 261 L0 274 L-2 287 L14 629 L16 799 L15 970 L18 990 L23 1002 L33 1007 L47 1010 Z " />
<glyph glyph-name="j" unicode="j" horiz-adv-x="335" d="M64 511 L69 502 L68 491 L55 413 L54 387 L57 365 L69 345 L88 328 L105 318 L118 315 L132 322 L148 335 L163 355 L171 376 L190 482 L200 589 L201 696 L197 803 L187 916 L179 972 L166 1030 L166 1043 L174 1055 L185 1060 L199 1058 L210 1049 L216 1037 L217 1024 L223 1012 L233 996 L237 979 L252 731 L241 437 L230 390 L216 343 L199 297 L182 268 L166 253 L148 244 L122 242 L97 244 L72 250 L54 261 L41 275 L17 326 L8 362 L6 386 L6 410 L8 459 L12 480 L20 494 L36 508 L48 515 L64 511 Z " />
<glyph glyph-name="k" unicode="k" horiz-adv-x="391" d="M75 889 L85 892 L93 902 L155 971 L214 1042 L228 1056 L241 1063 L254 1062 L265 1056 L270 1044 L268 1032 L258 1017 L230 986 L200 956 L189 943 L185 928 L185 884 L237 550 L309 204 L304 193 L294 188 L282 188 L268 193 L257 205 L251 219 L174 519 L114 829 L108 834 L100 831 L91 822 L78 808 L69 795 L67 780 L69 255 L62 245 L51 242 L40 246 L26 254 L13 263 L4 276 L2 291 L6 368 L43 997 L52 1022 L60 1031 L70 1035 L80 1033 L87 1024 L86 1013 L77 957 L74 929 L74 902 L75 889 Z " />
<glyph glyph-name="l" unicode="l" horiz-adv-x="303" d="M69 314 L84 315 L123 325 L161 333 L178 339 L191 336 L201 329 L206 317 L204 304 L194 292 L181 285 L121 261 L61 241 L42 232 L25 233 L13 241 L4 253 L1 267 L29 1005 L38 1042 L41 1052 L48 1059 L58 1059 L69 1054 L81 1042 L84 1027 L62 326 L69 314 Z " />
<glyph glyph-name="m" unicode="m" horiz-adv-x="404" d="M164 642 L168 646 L172 657 L227 904 L291 1164 L298 1172 L309 1172 L319 1167 L328 1155 L332 1140 L316 802 L318 450 L314 438 L304 430 L297 421 L296 408 L298 374 L302 341 L304 329 L298 318 L286 313 L275 314 L264 321 L256 332 L254 346 L249 542 L251 607 L264 882 L260 871 L204 571 L194 488 L191 405 L192 363 L196 322 L199 299 L194 283 L185 272 L173 267 L161 272 L150 281 L143 296 L133 332 L70 983 L48 320 L38 312 L26 311 L14 319 L5 332 L2 346 L35 1150 L45 1169 L51 1177 L61 1180 L72 1175 L81 1164 L87 1149 L113 1015 L131 882 L144 767 L160 654 L164 642 Z " />
<glyph glyph-name="n" unicode="n" horiz-adv-x="391" d="M219 397 L221 402 L222 412 L271 1055 L280 1066 L292 1070 L305 1069 L316 1065 L322 1055 L321 1043 L287 643 L266 216 L258 197 L248 186 L236 181 L222 181 L209 186 L198 198 L193 212 L144 567 L99 919 L83 605 L78 277 L67 265 L57 258 L52 246 L44 234 L32 228 L20 228 L8 238 L0 251 L0 265 L17 652 L70 1064 L79 1069 L90 1068 L104 1065 L116 1060 L123 1050 L127 1039 L167 811 L201 496 L214 408 L219 397 Z " />
<glyph glyph-name="o" unicode="o" horiz-adv-x="341" d="M115 387 L130 383 L163 386 L170 393 L174 404 L193 586 L204 769 L216 1095 L213 1113 L203 1130 L184 1145 L163 1151 L144 1149 L125 1137 L110 1124 L100 1106 L88 1036 L80 967 L60 737 L59 622 L65 508 L71 483 L80 459 L94 438 L108 421 L114 404 L113 394 L115 387 Z M12 345 L5 367 L0 422 L0 477 L4 586 L23 855 L58 1126 L67 1145 L85 1163 L103 1174 L121 1183 L146 1188 L174 1184 L204 1175 L229 1155 L247 1131 L256 1100 L247 789 L220 420 L214 391 L206 363 L197 345 L184 331 L166 322 L130 315 L93 313 L56 318 L31 327 L12 345 Z " />
<glyph glyph-name="p" unicode="p" horiz-adv-x="372" d="M106 767 L101 760 L100 749 L86 562 L80 359 L75 347 L64 340 L57 334 L55 321 L54 241 L55 220 L52 208 L43 199 L31 199 L20 204 L8 217 L6 232 L59 950 L69 976 L78 998 L80 1010 L86 1019 L96 1023 L107 1021 L126 1024 L144 1033 L166 1034 L200 1026 L232 1016 L252 1008 L266 994 L279 974 L284 950 L281 896 L277 869 L272 843 L259 807 L249 791 L234 780 L212 771 L167 767 L122 768 L106 767 Z M114 862 L127 857 L174 858 L195 865 L212 880 L229 906 L232 924 L229 939 L218 954 L196 973 L173 982 L148 979 L133 974 L121 968 L114 956 L112 942 L111 909 L111 877 L112 867 L114 862 Z " />
<glyph glyph-name="q" unicode="q" horiz-adv-x="372" d="M142 243 L140 236 L138 224 L135 185 L135 146 L138 107 L145 69 L142 52 L131 38 L118 30 L104 31 L89 40 L79 53 L77 67 L79 151 L84 235 L83 247 L77 257 L65 262 L45 272 L29 287 L20 304 L15 332 L5 361 L2 385 L2 452 L4 520 L14 654 L54 947 L62 970 L72 993 L84 1017 L105 1044 L128 1064 L150 1072 L195 1073 L217 1070 L239 1065 L257 1052 L277 1032 L290 1010 L297 987 L300 965 L284 768 L238 432 L211 294 L203 279 L190 268 L142 243 Z M146 308 L159 312 L169 323 L174 338 L225 637 L258 936 L255 972 L247 992 L233 1008 L217 1017 L200 1018 L180 1010 L157 1002 L138 989 L123 969 L114 948 L108 929 L89 783 L78 637 L69 330 L72 319 L78 312 L85 313 L88 322 L90 335 L134 759 L141 768 L153 771 L166 766 L177 755 L182 739 L180 719 L157 522 L143 316 L146 308 Z " />
<glyph glyph-name="r" unicode="r" horiz-adv-x="372" d="M220 300 L218 295 L219 285 L219 274 L217 269 L211 269 L204 275 L199 287 L162 487 L140 587 L105 699 L101 702 L99 697 L98 686 L82 478 L46 240 L36 233 L23 233 L13 240 L5 253 L3 268 L47 982 L60 1013 L68 1024 L83 1031 L112 1036 L146 1033 L181 1027 L206 1020 L231 1010 L250 997 L269 980 L290 953 L300 926 L298 894 L292 874 L273 840 L257 828 L237 817 L206 806 L175 801 L163 800 L156 797 L153 789 L156 778 L224 477 L304 163 L299 152 L289 144 L276 145 L265 155 L258 167 L225 288 L220 300 Z M123 973 L120 958 L111 874 L111 861 L117 852 L128 845 L150 843 L174 843 L198 849 L219 859 L236 876 L247 897 L252 913 L250 929 L239 945 L216 963 L195 977 L172 981 L129 976 L123 973 Z " />
<glyph glyph-name="s" unicode="s" horiz-adv-x="379" d="M12 377 L25 379 L35 374 L42 366 L44 354 L51 290 L58 279 L69 273 L82 271 L105 274 L127 280 L145 291 L158 308 L171 340 L208 583 L232 828 L229 848 L224 859 L214 866 L202 867 L172 868 L141 867 L105 875 L88 884 L75 900 L67 920 L63 943 L61 966 L64 995 L72 1024 L80 1041 L93 1054 L108 1061 L132 1068 L156 1072 L182 1073 L207 1072 L233 1068 L272 1060 L282 1052 L286 1041 L283 1030 L272 1022 L260 1021 L218 1027 L176 1029 L158 1025 L142 1016 L132 1000 L127 980 L127 954 L133 937 L142 926 L154 921 L168 920 L201 921 L232 927 L262 930 L274 927 L283 918 L284 906 L286 891 L302 857 L311 833 L312 808 L204 266 L191 242 L176 228 L160 223 L132 218 L102 218 L67 226 L33 239 L19 246 L9 259 L6 273 L6 362 L12 377 Z " />
<glyph glyph-name="t" unicode="t" horiz-adv-x="379" d="M109 208 L101 209 L91 215 L81 228 L80 241 L116 981 L108 985 L97 985 L55 981 L32 980 L20 984 L10 995 L0 1008 L-6 1020 L-2 1032 L7 1039 L18 1040 L126 1049 L234 1055 L271 1059 L283 1056 L292 1049 L296 1039 L292 1027 L283 1018 L271 1012 L258 1000 L243 995 L205 987 L193 985 L186 979 L184 967 L147 600 L119 219 L109 208 Z " />
<glyph glyph-name="u" unicode="u" horiz-adv-x="328" d="M135 310 L150 316 L163 329 L174 349 L185 380 L191 411 L200 538 L200 601 L198 664 L198 686 L214 856 L236 1026 L241 1040 L250 1051 L262 1053 L272 1048 L278 1038 L282 1024 L266 936 L255 848 L247 650 L249 635 L247 616 L235 303 L229 291 L217 282 L201 274 L170 261 L137 255 L112 257 L91 268 L72 287 L48 318 L30 350 L11 406 L4 435 L3 464 L40 959 L46 967 L56 968 L66 964 L72 954 L74 941 L77 916 L83 896 L66 417 L72 390 L79 363 L84 349 L96 336 L117 319 L135 310 Z " />
<glyph glyph-name="v" unicode="v" horiz-adv-x="366" d="M81 415 L85 420 L88 431 L101 472 L140 633 L135 659 L130 688 L138 718 L148 736 L161 753 L172 772 L179 792 L182 816 L182 840 L201 929 L223 1020 L235 1041 L240 1057 L242 1074 L248 1089 L257 1101 L269 1105 L281 1102 L290 1093 L292 1082 L289 1070 L289 1049 L264 990 L244 930 L235 898 L229 867 L227 835 L227 804 L224 772 L208 742 L196 711 L154 474 L101 225 L94 214 L81 207 L69 210 L59 220 L50 232 L43 257 L16 587 L3 946 L10 951 L21 949 L27 939 L30 928 L81 415 Z " />
<glyph glyph-name="w" unicode="w" horiz-adv-x="448" d="M61 462 L65 466 L69 476 L156 715 L169 740 L174 760 L177 769 L185 773 L195 772 L207 767 L214 756 L216 744 L236 587 L242 509 L246 420 L248 416 L252 420 L253 431 L297 731 L333 1046 L340 1054 L348 1062 L352 1074 L356 1094 L361 1104 L370 1110 L381 1109 L392 1104 L398 1094 L399 1081 L391 1038 L269 233 L259 225 L247 225 L230 229 L219 233 L210 242 L208 254 L210 342 L207 430 L191 617 L187 622 L183 617 L180 606 L126 435 L70 253 L60 245 L49 243 L36 241 L23 237 L12 239 L3 248 L0 259 L2 273 L11 304 L21 335 L20 360 L10 822 L20 976 L23 989 L29 998 L39 1000 L49 995 L56 986 L57 974 L53 724 L61 462 Z " />
<glyph glyph-name="x" unicode="x" horiz-adv-x="385" d="M163 872 L168 875 L172 885 L202 970 L220 1013 L240 1055 L247 1066 L257 1070 L269 1069 L283 1063 L294 1055 L299 1043 L296 1030 L267 958 L242 885 L196 741 L193 710 L236 485 L296 249 L291 240 L280 236 L268 238 L257 248 L252 262 L199 469 L192 472 L182 471 L169 475 L160 485 L156 499 L152 523 L150 533 L147 538 L143 533 L140 523 L101 376 L62 217 L53 207 L40 204 L27 207 L11 212 L0 222 L-4 235 L0 247 L53 402 L92 556 L103 616 L109 677 L110 737 L107 797 L94 918 L72 1057 L75 1068 L82 1073 L92 1073 L102 1069 L115 1059 L124 1042 L142 963 L158 883 L163 872 Z " />
<glyph glyph-name="y" unicode="y" horiz-adv-x="391" d="M178 932 L184 936 L188 947 L210 1024 L221 1043 L234 1063 L242 1076 L252 1084 L263 1083 L275 1075 L282 1063 L281 1049 L200 786 L139 523 L114 386 L108 317 L107 283 L107 249 L106 237 L99 227 L87 221 L74 220 L58 215 L46 216 L35 226 L28 239 L28 254 L80 544 L162 848 L156 859 L144 872 L82 928 L4 1005 L-2 1017 L-2 1029 L2 1037 L11 1038 L22 1035 L55 1020 L87 1007 L106 998 L124 985 L146 965 L165 943 L178 932 Z " />
<glyph glyph-name="z" unicode="z" horiz-adv-x="429" d="M95 280 L100 278 L110 280 L230 280 L269 284 L285 283 L295 278 L302 269 L299 259 L290 252 L279 250 L264 245 L252 236 L237 232 L196 234 L153 232 L69 222 L27 227 L15 233 L6 244 L2 257 L3 274 L56 445 L120 616 L277 981 L272 984 L262 984 L237 979 L212 978 L187 979 L137 983 L113 988 L100 994 L92 1005 L89 1017 L94 1027 L103 1031 L110 1036 L113 1046 L116 1057 L123 1063 L133 1063 L170 1059 L207 1057 L279 1060 L302 1056 L317 1048 L328 1034 L337 1016 L342 1002 L339 989 L129 447 L116 395 L96 291 L95 280 Z " />
<glyph glyph-name="Ograve" unicode="&#xd2;" horiz-adv-x="297" d="M203 743 L187 753 L177 769 L160 802 L145 834 L121 898 L110 944 L102 990 L101 1004 L105 1016 L116 1025 L136 1038 L147 1043 L159 1043 L167 1035 L170 1024 L168 987 L169 950 L174 913 L183 876 L216 772 L217 760 L214 749 L203 743 Z M85 743 L69 753 L59 769 L42 802 L27 834 L3 898 L-7 944 L-15 990 L-16 1004 L-12 1016 L-1 1025 L18 1038 L29 1043 L41 1043 L49 1035 L52 1024 L50 987 L51 950 L56 913 L65 876 L98 772 L99 760 L96 749 L85 743 Z " />
<glyph glyph-name="Oacute" unicode="&#xd3;" horiz-adv-x="297" d="M-2 743 L-13 749 L-16 760 L-15 772 L18 876 L26 913 L31 950 L32 987 L31 1024 L33 1035 L41 1043 L53 1043 L65 1038 L84 1025 L95 1016 L99 1004 L99 990 L91 944 L79 898 L55 834 L40 802 L23 769 L13 753 L-2 743 Z M115 743 L104 749 L101 760 L102 772 L136 876 L144 913 L149 950 L150 987 L149 1024 L151 1035 L159 1043 L171 1043 L183 1038 L202 1025 L213 1016 L217 1004 L216 990 L209 944 L197 898 L173 834 L158 802 L141 769 L131 753 L115 743 Z " />
<glyph glyph-name="Ocircumflex" unicode="&#xd4;" horiz-adv-x="208" d="M-2 743 L-13 749 L-16 760 L-15 772 L18 876 L26 913 L31 950 L32 987 L31 1024 L33 1035 L41 1043 L53 1043 L65 1038 L84 1025 L95 1016 L99 1004 L99 990 L91 944 L79 898 L55 834 L40 802 L23 769 L13 753 L-2 743 Z " />
<glyph glyph-name="Otilde" unicode="&#xd5;" horiz-adv-x="208" d="M-2 743 L-13 749 L-16 760 L-15 772 L18 876 L26 913 L31 950 L32 987 L31 1024 L33 1035 L41 1043 L53 1043 L65 1038 L84 1025 L95 1016 L99 1004 L99 990 L91 944 L79 898 L55 834 L40 802 L23 769 L13 753 L-2 743 Z " />
<glyph glyph-name="quoteleft" unicode="&#x2018;" horiz-adv-x="208" d="M108 737 L119 743 L122 754 L121 766 L88 870 L80 907 L75 944 L74 981 L75 1018 L73 1029 L65 1037 L53 1037 L41 1032 L22 1019 L11 1010 L7 998 L7 984 L15 938 L27 892 L51 828 L66 796 L83 763 L93 747 L108 737 Z " />
<glyph glyph-name="quoteright" unicode="&#x2019;" horiz-adv-x="208" d="M-2 743 L-13 749 L-16 760 L-15 772 L18 876 L26 913 L31 950 L32 987 L31 1024 L33 1035 L41 1043 L53 1043 L65 1038 L84 1025 L95 1016 L99 1004 L99 990 L91 944 L79 898 L55 834 L40 802 L23 769 L13 753 L-2 743 Z " />
<glyph glyph-name="quotedblleft" unicode="&#x201c;" horiz-adv-x="297" d="M203 743 L187 753 L177 769 L160 802 L145 834 L121 898 L110 944 L102 990 L101 1004 L105 1016 L116 1025 L136 1038 L147 1043 L159 1043 L167 1035 L170 1024 L168 987 L169 950 L174 913 L183 876 L216 772 L217 760 L214 749 L203 743 Z M85 743 L69 753 L59 769 L42 802 L27 834 L3 898 L-7 944 L-15 990 L-16 1004 L-12 1016 L-1 1025 L18 1038 L29 1043 L41 1043 L49 1035 L52 1024 L50 987 L51 950 L56 913 L65 876 L98 772 L99 760 L96 749 L85 743 Z " />
<glyph glyph-name="quotedblright" unicode="&#x201d;" horiz-adv-x="297" d="M-2 743 L-13 749 L-16 760 L-15 772 L18 876 L26 913 L31 950 L32 987 L31 1024 L33 1035 L41 1043 L53 1043 L65 1038 L84 1025 L95 1016 L99 1004 L99 990 L91 944 L79 898 L55 834 L40 802 L23 769 L13 753 L-2 743 Z M115 743 L104 749 L101 760 L102 772 L136 876 L144 913 L149 950 L150 987 L149 1024 L151 1035 L159 1043 L171 1043 L183 1038 L202 1025 L213 1016 L217 1004 L216 990 L209 944 L197 898 L173 834 L158 802 L141 769 L131 753 L115 743 Z " />
</font>
</svg>
