<svg viewBox="0 0 58 49" fill="currentColor" xmlns="http://www.w3.org/2000/svg">
<path d="M16.9282 22.5627C16.9043 22.5867 16.8804 22.6066 16.8605 22.6305C16.8406 22.6744 16.8207 22.7222 16.8008 22.7661C16.8446 22.6983 16.8844 22.6305 16.9282 22.5627Z" fill="currentColor"/>
<path d="M17.2787 18.0291C17.3623 16.5697 17.4499 15.1024 17.5137 13.647C17.5814 12.2355 17.8084 10.7761 18.7362 10.0384C18.9672 9.85103 19.226 9.72344 19.5247 9.59584C19.8632 9.46027 20.2017 9.3247 20.5243 9.20508C20.8468 9.08945 21.1495 9.00571 21.4959 8.92597L22.5513 8.69869C22.5951 8.69071 22.6389 8.67476 22.6787 8.65881C23.0291 8.50729 23.1884 8.10058 23.0411 7.74969L23.0331 7.72976C22.6906 6.93229 22.7145 5.9514 23.0092 5.07019C23.3079 4.19297 23.8495 3.37556 24.5703 2.87315C25.2313 2.39866 26.1592 2.30296 26.9875 2.55815C27.8119 2.81334 28.5008 3.3955 28.672 4.13316C28.7397 4.42822 28.9787 4.66747 29.2933 4.72728C29.7194 4.80304 30.1256 4.52392 30.2012 4.09727C30.3167 3.45531 30.6512 2.82531 31.1211 2.3548C31.591 1.8803 32.1924 1.56929 32.8096 1.50948C33.395 1.44967 34.0481 1.68492 34.534 2.11157C35.0238 2.53423 35.3224 3.13632 35.2826 3.71847V3.75835C35.2667 3.97765 35.3623 4.20094 35.5534 4.3405C35.8481 4.55183 36.2623 4.48405 36.4733 4.185C37.0786 3.33569 38.2295 2.90107 39.3923 2.98081C39.9698 3.0167 40.5512 3.14429 41.0888 3.38752C41.3476 3.51512 41.6224 3.65866 41.8335 3.83012L41.9928 3.95772C42.0445 4.00556 42.0883 4.0574 42.1361 4.10924C42.2357 4.20493 42.3153 4.32455 42.4029 4.44417C42.7335 4.92664 42.9844 5.52874 43.2671 6.12285C43.5459 6.72096 43.8565 7.32305 44.2467 7.86932C44.5096 8.24413 44.8003 8.58704 45.1149 8.91002C43.3906 8.03678 41.6304 7.15957 39.7388 6.47773C37.7277 5.76798 35.5176 5.41709 33.3632 5.56063C31.2008 5.70019 29.0703 6.29032 27.1388 7.29115C25.2353 8.32387 23.5189 9.78724 22.3203 11.5776C21.0898 13.34 20.2535 15.2539 19.3575 17.108C18.6566 18.6153 17.9557 20.1265 17.2827 21.6496C17.2946 21.6377 17.3106 21.6257 17.3225 21.6098C17.4699 21.4263 17.6252 21.2629 17.7446 21.0954C17.9557 20.7525 18.1468 20.4773 18.2225 20.262C18.3141 20.0547 18.3659 19.9391 18.3659 19.9391C18.4853 19.6879 18.4614 19.6918 18.3937 19.947C18.3937 19.947 18.3579 20.0667 18.2942 20.286C18.2862 20.3338 18.2663 20.3856 18.2504 20.4415C18.8557 19.4526 19.453 18.4597 20.0464 17.4669C21.1057 15.6885 22.0933 13.8783 23.3159 12.3072C25.7212 9.16122 29.5561 7.35893 33.4627 7.14362C35.422 6.9921 37.3693 7.28317 39.2609 7.90122C41.1684 8.49533 43.0083 9.39249 44.9198 10.1939C46.8193 11.0193 48.8224 11.765 50.9131 12.0879C51.9604 12.2395 53.0237 12.3072 54.071 12.2036C54.9352 12.1159 55.7834 11.9165 56.5759 11.5975C56.6317 11.5496 56.6794 11.5058 56.7272 11.4699C55.8432 11.6852 54.9472 11.7809 54.0551 11.761C53.0436 11.7331 52.0441 11.5736 51.0684 11.3184C49.2604 10.8678 47.56 10.1022 45.8636 9.26888C45.3976 8.75052 44.9835 8.19628 44.6529 7.5902C44.3383 7.03596 44.0994 6.44982 43.8804 5.84374C43.6574 5.23766 43.4742 4.59968 43.1118 3.97367C43.0162 3.81816 42.9286 3.66265 42.8012 3.51911C42.7414 3.44733 42.6857 3.37157 42.622 3.30379L42.4149 3.10841C42.1361 2.85322 41.8375 2.6698 41.5268 2.48638C40.8976 2.14347 40.2007 1.92416 39.48 1.8484C38.7631 1.77264 38.0145 1.82049 37.2977 2.06771C36.999 2.16739 36.7083 2.31492 36.4295 2.48239C36.4056 2.41461 36.3857 2.34682 36.3578 2.28302C36.1508 1.80853 35.8481 1.39384 35.4817 1.05093C34.753 0.373079 33.7614 -0.0575557 32.6941 0.00624202C31.6627 0.0620651 30.7189 0.56846 30.03 1.2503C29.7512 1.52543 29.5123 1.83245 29.3052 2.1634C29.2495 2.10758 29.2017 2.04378 29.1459 1.99195C28.6521 1.52941 28.0548 1.21441 27.4335 1.03099C26.8123 0.847575 26.1552 0.791752 25.5061 0.879474C24.861 0.963208 24.2039 1.21042 23.6663 1.60119C22.6269 2.35878 21.9221 3.44335 21.5716 4.61563C21.3008 5.53272 21.2331 6.54551 21.48 7.51444L21.1575 7.59419C20.7911 7.6859 20.3968 7.81748 20.0384 7.969C19.684 8.12052 19.3535 8.27603 19.019 8.42755C18.6526 8.60299 18.2623 8.8223 17.9438 9.11736C17.2907 9.71148 16.9004 10.5369 16.7491 11.3144C16.5858 12.0999 16.5778 12.8655 16.5898 13.6111C16.6216 15.0785 16.6814 16.5378 16.7331 18.0012C16.7889 19.321 16.8526 20.6408 16.9322 21.9606C16.9522 21.9407 16.9721 21.9248 16.992 21.9048C17.0955 20.6049 17.1871 19.3051 17.2668 18.0052L17.2787 18.0291Z" fill="currentColor"/>
<path d="M54.075 36.0241C53.0237 35.9204 51.9604 35.9882 50.9171 36.1397C48.8264 36.4667 46.8193 37.2083 44.9237 38.0337C43.0083 38.8352 41.1685 39.7323 39.2649 40.3264C37.3733 40.9445 35.426 41.2356 33.4667 41.084C29.5601 40.8687 25.7251 39.0664 23.3198 35.9204C22.0973 34.3494 21.1057 32.5391 20.0504 30.7608C19.453 29.7679 18.8597 28.7751 18.2544 27.7862C18.2743 27.842 18.2902 27.8938 18.2982 27.9417C18.3619 28.161 18.3977 28.2806 18.3977 28.2806C18.4694 28.5478 18.4854 28.5318 18.3699 28.2886C18.3699 28.2886 18.3181 28.177 18.2265 27.9656C18.1508 27.7503 17.9597 27.4792 17.7486 27.1323C17.6331 26.9648 17.4778 26.8013 17.3265 26.6179C17.3146 26.6059 17.2986 26.594 17.2867 26.578C17.9597 28.1012 18.6606 29.6124 19.3615 31.1196C20.2535 32.9737 21.0937 34.8877 22.3243 36.6501C23.5229 38.4364 25.2393 39.9038 27.1428 40.9365C29.0703 41.9373 31.2048 42.5275 33.3672 42.667C35.5256 42.8106 37.7357 42.4597 39.7428 41.7499C41.6344 41.0681 43.3945 40.1909 45.1189 39.3176C44.8043 39.6406 44.5136 39.9875 44.2507 40.3583C43.8605 40.9046 43.5499 41.5067 43.2711 42.1048C42.9884 42.6989 42.7375 43.301 42.4069 43.7835C42.3233 43.8991 42.2397 44.0227 42.1401 44.1184C42.0923 44.1663 42.0485 44.2221 41.9968 44.2699L41.8375 44.3975C41.6264 44.569 41.3516 44.7125 41.0928 44.8401C40.5592 45.0834 39.9738 45.211 39.3963 45.2468C38.2375 45.3266 37.0826 44.888 36.4773 44.0427C36.3499 43.8632 36.1309 43.7516 35.8959 43.7675C35.5335 43.7915 35.2587 44.1065 35.2826 44.4693V44.5092C35.3264 45.0913 35.0278 45.6934 34.5379 46.1161C34.0561 46.5427 33.399 46.778 32.8136 46.7182C32.1964 46.6584 31.595 46.3474 31.1251 45.8729C30.6552 45.3984 30.3207 44.7723 30.2052 44.1304C30.1495 43.8313 29.9265 43.5801 29.6119 43.5084C29.1897 43.4087 28.7716 43.6718 28.672 44.0945C28.5008 44.8361 27.8119 45.4183 26.9875 45.6695C26.1592 45.9247 25.2313 45.829 24.5703 45.3545C23.8495 44.8561 23.3079 44.0387 23.0092 43.1575C22.7145 42.2763 22.6867 41.2994 23.0331 40.4979L23.0411 40.478C23.057 40.4381 23.0729 40.3982 23.0809 40.3543C23.1606 39.9795 22.9216 39.6127 22.5513 39.533L21.496 39.3057C21.1495 39.2259 20.8508 39.1422 20.5243 39.0266C20.2017 38.9109 19.8632 38.7714 19.5247 38.6358C19.2261 38.5082 18.9672 38.3806 18.7362 38.1932C17.8084 37.4595 17.5814 35.9962 17.5137 34.5846C17.45 33.1293 17.3623 31.6619 17.2787 30.2025C17.1991 28.9027 17.1075 27.6028 17.0039 26.3029C16.984 26.2869 16.9641 26.267 16.9442 26.2471C16.8646 27.5669 16.8008 28.8867 16.7451 30.2065C16.6933 31.6699 16.6336 33.1293 16.6017 34.5966C16.5898 35.3422 16.6017 36.1078 16.761 36.8933C16.9123 37.6709 17.2986 38.4962 17.9557 39.0904C18.2783 39.3854 18.6685 39.6087 19.0309 39.7802C19.3615 39.9317 19.696 40.0872 20.0504 40.2387C20.4048 40.3902 20.803 40.5218 21.1694 40.6135L21.492 40.6933C21.2451 41.6622 21.3088 42.675 21.5836 43.5921C21.934 44.7684 22.6349 45.8489 23.6783 46.6065C24.2159 46.9973 24.8729 47.2445 25.5181 47.3282C26.1672 47.416 26.8243 47.3562 27.4455 47.1767C28.0667 46.9933 28.6601 46.6823 29.1579 46.2158C29.2136 46.1639 29.2654 46.1001 29.3172 46.0443C29.5242 46.3753 29.7672 46.6823 30.0419 46.9574C30.7309 47.6432 31.6747 48.1457 32.7061 48.2015C33.7733 48.2653 34.7649 47.8346 35.4937 47.1568C35.8601 46.8139 36.1627 46.3992 36.3698 45.9247C36.3977 45.8609 36.4176 45.7931 36.4415 45.7253C36.7202 45.8968 37.007 46.0403 37.3096 46.14C38.0224 46.3872 38.7711 46.4351 39.4919 46.3593C40.2127 46.2836 40.9056 46.0603 41.5388 45.7213C41.8534 45.5379 42.1481 45.3545 42.4269 45.0993L42.6339 44.9039C42.6976 44.8361 42.7534 44.7604 42.8131 44.6886C42.9366 44.5451 43.0282 44.3896 43.1238 44.2341C43.4861 43.608 43.6693 42.9701 43.8923 42.364C44.1074 41.7579 44.3503 41.1718 44.6649 40.6175C44.9954 40.0154 45.4056 39.4572 45.8755 38.9388C47.568 38.1055 49.2684 37.3439 51.0804 36.8893C52.056 36.6341 53.0556 36.4786 54.0671 36.4467C55.0507 36.4228 56.0423 36.5384 57.01 36.8056C56.998 36.7976 56.9861 36.7857 56.9662 36.7737C56.0662 36.359 55.0826 36.1078 54.083 36.0081L54.075 36.0241Z" fill="currentColor"/>
<path d="M16.8605 25.6131C16.8844 25.637 16.9083 25.657 16.9282 25.6809C16.8844 25.6131 16.8446 25.5453 16.8008 25.4775C16.8207 25.5214 16.8406 25.5692 16.8605 25.6131Z" fill="currentColor"/>
<path d="M17.2866 26.59C17.2866 26.59 17.3145 26.614 17.3265 26.6299C17.4738 26.8133 17.6291 26.9768 17.7486 27.1443C17.9596 27.4872 18.1508 27.7623 18.2265 27.9776C18.318 28.185 18.3698 28.3006 18.3698 28.3006C18.4853 28.5399 18.4654 28.5598 18.3977 28.2926C18.3977 28.2926 18.3619 28.173 18.2981 27.9537C18.2902 27.9059 18.2703 27.854 18.2543 27.7982C18.1866 27.5949 18.0632 27.3476 17.9278 27.0406C17.8322 26.8532 17.6968 26.6618 17.5654 26.4465C17.434 26.2312 17.2388 26.0358 17.0557 25.8085C17.0158 25.7686 16.972 25.7288 16.9322 25.6889C16.9083 25.665 16.8844 25.645 16.8645 25.6211C16.7132 25.4776 16.5579 25.33 16.3827 25.1905C16.1198 25.0071 15.853 24.7957 15.5384 24.6442C15.1601 24.4289 14.738 24.2614 14.292 24.1258C14.738 23.9943 15.1601 23.8228 15.5384 23.6075C15.853 23.456 16.1198 23.2446 16.3827 23.0612C16.5579 22.9217 16.7132 22.7781 16.8645 22.6306C16.8884 22.6067 16.9123 22.5867 16.9322 22.5628C16.972 22.5229 17.0198 22.4831 17.0557 22.4432C17.2388 22.2159 17.43 22.0245 17.5654 21.8052C17.6968 21.5899 17.8322 21.3985 17.9278 21.2111C18.0632 20.9041 18.1826 20.6568 18.2543 20.4535C18.2742 20.3977 18.2902 20.3458 18.2981 20.298C18.3619 20.0787 18.3977 19.9591 18.3977 19.9591C18.4654 19.6999 18.4893 19.6999 18.3698 19.9511C18.3698 19.9511 18.318 20.0627 18.2265 20.2741C18.1508 20.4894 17.9596 20.7605 17.7486 21.1074C17.6331 21.2749 17.4778 21.4384 17.3265 21.6218C17.3145 21.6337 17.2986 21.6457 17.2866 21.6617C17.203 21.7574 17.1074 21.8451 17.0039 21.9368C16.984 21.9527 16.9641 21.9727 16.9442 21.9926C16.8844 22.0444 16.8287 22.0923 16.7729 22.1481C16.5579 22.3116 16.3269 22.4751 16.076 22.6226C15.8132 22.7542 15.5543 22.9097 15.2557 23.0054C14.6782 23.2367 14.0251 23.3682 13.3561 23.4001C13.0216 23.432 12.6831 23.4001 12.3486 23.3842C12.0141 23.3324 11.6796 23.2925 11.357 23.2008C10.7119 23.0293 10.1106 22.7582 9.61675 22.4033C9.15879 22.0524 8.76056 21.5739 8.46587 21.0915C8.1672 20.613 7.91632 20.0508 7.81676 19.4686C7.71322 18.8865 7.75304 18.2923 8.05171 17.8139C8.32649 17.3553 8.91587 16.8649 9.45348 16.5778C10.003 16.2827 10.6163 16.1711 11.138 16.3585C11.6636 16.5339 12.0659 16.9725 12.249 17.443C12.4402 17.9135 12.4004 18.404 12.249 18.7589C12.0937 19.1217 11.8428 19.341 11.6676 19.4766C11.5721 19.5364 11.5004 19.5842 11.4486 19.6161C11.3968 19.6441 11.369 19.656 11.369 19.656C11.13 19.7796 11.1181 19.7597 11.3809 19.6839C11.3809 19.6839 11.4088 19.672 11.4685 19.656C11.5243 19.6321 11.6039 19.5922 11.7114 19.5444C11.9105 19.4327 12.2092 19.2373 12.4402 18.8585C12.6632 18.4837 12.7986 17.9215 12.6473 17.3234C12.5119 16.7333 12.1017 16.0953 11.4048 15.7444C11.0623 15.569 10.6601 15.4813 10.2539 15.4852C9.84772 15.4852 9.4495 15.5809 9.07118 15.7245C8.68888 15.864 8.34242 16.0714 8.01189 16.2907C7.8526 16.4103 7.68933 16.506 7.53003 16.6695L7.28711 16.8968C7.21145 16.9805 7.14773 17.0722 7.08004 17.1639C6.80128 17.5228 6.63402 17.9574 6.53844 18.392C6.50659 18.6073 6.46278 18.8306 6.47075 19.042C6.47075 19.1496 6.47075 19.2573 6.47075 19.361L6.5026 19.672C6.60614 20.4934 6.91278 21.2191 7.28711 21.8291C7.58977 22.3116 7.97207 22.7781 8.45791 23.1888C7.90437 23.0572 7.36278 22.8977 6.97251 22.7303C6.88889 22.6984 6.82517 22.6585 6.74552 22.6266C6.68579 22.5867 6.62207 22.5628 6.55039 22.503C6.41101 22.3993 6.26367 22.2638 6.11632 22.1043C5.82562 21.7813 5.4911 21.3786 5.23225 21.0636C4.96942 20.7406 4.77031 20.4495 4.65084 20.2302C4.52739 20.0149 4.47562 19.8753 4.47562 19.8753C4.44376 19.8474 4.3004 19.8594 4.14907 19.8953C3.94996 19.8793 3.715 19.8873 3.70306 19.9192C3.70306 19.9192 3.61545 20.3458 3.36058 20.8323C3.11368 21.3227 2.68757 21.8251 2.31722 22.1641C1.96678 22.5189 1.44112 22.9416 0.93935 23.1968C0.445547 23.46 0.0194423 23.5796 0.0194423 23.5796C-0.00843372 23.6075 -0.00445144 23.7869 0.0194423 23.9584C-0.000469152 24.1258 -0.00445144 24.3013 0.0194423 24.3412C0.0194423 24.3412 0.449529 24.4608 0.93935 24.724C1.43714 24.9791 1.9628 25.4018 2.31722 25.7567C2.68757 26.0956 3.11368 26.598 3.36058 27.0885C3.61545 27.5709 3.70306 28.0016 3.70306 28.0016C3.71899 28.0335 3.95394 28.0414 4.15306 28.0255C4.29642 28.0574 4.4358 28.0693 4.47562 28.0454C4.47562 28.0454 4.52739 27.9059 4.65084 27.6905C4.77031 27.4712 4.96942 27.1842 5.23225 26.8572C5.4911 26.5462 5.82562 26.1395 6.11632 25.8165C6.26367 25.657 6.40703 25.5214 6.55039 25.4178C6.62207 25.3619 6.68579 25.338 6.74552 25.2941C6.82517 25.2622 6.88889 25.2224 6.97251 25.1905C7.54596 24.9393 8.44198 24.716 9.21852 24.5684C9.09905 24.6322 8.97959 24.696 8.8641 24.7678C8.17118 25.2423 7.66941 25.8364 7.28711 26.4425C6.91278 27.0526 6.60614 27.7743 6.5026 28.5997L6.47075 28.9107C6.47075 29.0183 6.47075 29.126 6.47075 29.2297C6.46278 29.441 6.50659 29.6643 6.53844 29.8796C6.638 30.3102 6.80128 30.7489 7.08004 31.1077C7.14773 31.1954 7.21145 31.2911 7.28711 31.3749L7.53003 31.6021C7.69331 31.7656 7.8526 31.8613 8.01189 31.9809C8.34242 32.2042 8.68888 32.4076 9.07118 32.5472C9.4495 32.6907 9.84772 32.7824 10.2539 32.7864C10.6561 32.7904 11.0583 32.7027 11.4048 32.5272C12.0977 32.1763 12.5119 31.5384 12.6473 30.9482C12.7946 30.3501 12.6632 29.7839 12.4402 29.4131C12.2092 29.0343 11.9105 28.8389 11.7114 28.7273C11.6079 28.6794 11.5243 28.6435 11.4685 28.6156C11.4128 28.5957 11.3809 28.5877 11.3809 28.5877C11.1221 28.5119 11.126 28.488 11.369 28.6156C11.369 28.6156 11.3968 28.6276 11.4486 28.6555C11.4964 28.6874 11.5721 28.7352 11.6676 28.795C11.8428 28.9306 12.0937 29.1539 12.249 29.5128C12.4004 29.8676 12.4362 30.3581 12.249 30.8286C12.0659 31.2951 11.6636 31.7377 11.138 31.9132C10.6123 32.1006 10.003 31.9889 9.45348 31.6939C8.91587 31.4068 8.32649 30.9163 8.05171 30.4578C7.74906 29.9793 7.70924 29.3812 7.81676 28.803C7.9203 28.2209 8.1672 27.6586 8.46587 27.1802C8.76056 26.7017 9.15481 26.2232 9.61675 25.8683C10.1106 25.5134 10.7159 25.2423 11.357 25.0709C11.6796 24.9752 12.0141 24.9353 12.3486 24.8874C12.6831 24.8715 13.0216 24.8396 13.3561 24.8715C14.0251 24.9034 14.6782 25.035 15.2557 25.2662C15.5543 25.3619 15.8132 25.5174 16.076 25.649C16.3269 25.8005 16.5579 25.964 16.7729 26.1235C16.8287 26.1793 16.8884 26.2272 16.9442 26.279C16.9641 26.299 16.984 26.3149 17.0039 26.3348C17.1074 26.4226 17.199 26.5143 17.2866 26.61V26.59ZM6.06455 24.09C5.93712 24.1737 5.79774 24.2654 5.69022 24.3651C5.46721 24.5605 5.28004 24.7877 5.12473 25.0071C4.8181 25.4576 4.59111 25.8564 4.36013 26.271C4.33226 26.3269 4.30438 26.3787 4.27651 26.4345C4.09332 25.8205 3.72297 25.1586 3.28093 24.7479C2.9504 24.4209 2.48049 24.1418 2.0066 23.9464C2.48049 23.755 2.9504 23.4719 3.28093 23.145C3.72297 22.7343 4.09332 22.0724 4.27651 21.4583C4.30438 21.5141 4.32828 21.566 4.36013 21.6218C4.58712 22.0365 4.81412 22.4392 5.12473 22.8858C5.28004 23.1091 5.46721 23.3324 5.69022 23.5277C5.79376 23.6274 5.93712 23.7151 6.06455 23.8029C6.16013 23.8507 6.25172 23.9026 6.34331 23.9464C6.25172 23.9903 6.15615 24.0421 6.06455 24.09Z" fill="currentColor"/>
<path d="M57.5078 36.3112C57.5078 36.3112 57.4162 36.2274 57.2529 36.0759C57.0896 35.9204 56.8587 35.6852 56.5919 35.3781C56.0582 34.7561 55.3812 33.8031 54.8994 32.5591C54.6605 31.937 54.4574 31.2512 54.3419 30.5295C54.2821 30.1667 54.2463 29.7998 54.2343 29.429C54.2343 29.2456 54.2344 29.0622 54.2503 28.8787C54.2543 28.6953 54.2821 28.5119 54.31 28.3325C54.4175 27.6068 54.6843 26.909 55.0706 26.3149C55.2697 26.0238 55.4848 25.7447 55.7397 25.5214C55.8631 25.4058 55.9945 25.2981 56.1299 25.2104L56.3091 25.0908C56.4047 25.0469 56.4644 24.9871 56.5919 24.9552C56.8228 24.8794 57.0498 24.8076 57.2768 24.7319C57.2768 24.5923 57.2808 24.3172 57.2848 24.0461C57.2848 23.7789 57.2768 23.4998 57.2768 23.3602C57.0498 23.2885 56.8228 23.2127 56.5919 23.1369C56.4644 23.105 56.4047 23.0452 56.3091 23.0014L56.1299 22.8818C55.9945 22.79 55.8671 22.6824 55.7397 22.5707C55.4848 22.3474 55.2697 22.0683 55.0706 21.7773C54.6843 21.1831 54.4136 20.4854 54.31 19.7597C54.2821 19.5802 54.2543 19.3968 54.2503 19.2134C54.2344 19.03 54.2304 18.8465 54.2343 18.6631C54.2463 18.2963 54.2821 17.9255 54.3419 17.5626C54.4574 16.8409 54.6605 16.1511 54.8994 15.533C55.3812 14.289 56.0582 13.332 56.5919 12.714C56.8627 12.403 57.0896 12.1677 57.2529 12.0162C57.4202 11.8647 57.5078 11.7809 57.5078 11.7809C57.7069 11.5537 57.3525 11.0712 57.0538 11.2307C57.0538 11.2307 56.9503 11.3104 56.7631 11.462C56.7551 11.4699 56.7432 11.4779 56.7352 11.4859C56.6874 11.5258 56.6397 11.5656 56.5839 11.6135C56.4206 11.757 56.2215 11.9404 55.9985 12.1677C55.3773 12.8017 54.5728 13.7985 53.9675 15.1383C53.6649 15.8082 53.4021 16.5498 53.2348 17.3553C53.1671 17.6782 53.1193 18.0132 53.0835 18.3521C52.7609 18.2245 52.2552 18.0291 51.5981 17.7899C50.4233 17.3593 48.7587 16.813 46.9149 16.1272C46.449 15.9557 46.003 15.7723 45.5171 15.561C45.0273 15.3536 44.4777 15.1343 43.8525 15.0506C43.2313 14.9668 42.6379 15.0187 42.0924 15.0506C41.5428 15.0905 40.9893 15.1263 40.4357 15.1662C39.3287 15.246 38.2295 15.3257 37.1623 15.4055C36.8915 15.4254 36.5888 15.4533 36.2663 15.533C35.9477 15.6048 35.5933 15.7723 35.3344 15.9557C34.9601 16.2308 34.6973 16.482 34.4424 16.7253C34.4265 16.7173 34.4105 16.7053 34.3906 16.7053C34.3906 16.7053 32.4473 16.5897 29.8787 16.4382C28.5924 16.3863 27.115 16.3385 25.6256 16.5538C24.8809 16.6575 24.1402 16.8329 23.4433 17.0961C23.0969 17.2197 22.7345 17.3792 22.392 17.6025C22.0535 17.8258 21.715 18.1408 21.5039 18.5634C21.2889 18.9781 21.2331 19.5204 21.3566 19.975C21.4681 20.4375 21.711 20.8323 22.0216 21.1592C22.6827 21.845 23.5628 22.0683 24.3234 22.164C25.096 22.2518 25.7889 22.2677 26.5017 22.3036C27.2066 22.3315 27.8915 22.3474 28.5367 22.3514C30.1734 22.3634 31.5512 22.3116 32.3477 22.2717C32.5906 22.3993 32.8415 22.5149 33.0964 22.6066C33.5026 22.7542 33.9167 22.8499 34.3269 22.9097C34.2273 22.9575 34.1278 23.0133 34.0282 23.0811C33.5902 23.3802 33.0924 23.9105 32.961 24.692C32.8296 25.4536 33.0566 26.3348 33.6858 27.0007C33.9924 27.3277 34.4504 27.5988 34.9004 27.7104C35.195 27.7862 35.4778 27.8261 35.7526 27.85C35.7486 27.858 35.7446 27.862 35.7366 27.8699C35.5614 28.0972 35.3424 28.4641 35.2269 28.9705C35.1114 29.4729 35.0995 30.1228 35.3822 30.7967C35.5216 31.1316 35.7526 31.4665 36.0592 31.7337C36.2145 31.8693 36.4057 31.9969 36.6287 32.0846C36.8437 32.1723 37.0548 32.2122 37.2419 32.2481C37.5924 32.3079 37.9548 32.3717 38.3291 32.4275C38.2415 32.6588 38.1897 32.9618 38.2574 33.3207C38.349 33.7872 38.6477 34.2298 38.9782 34.6086C39.1455 34.796 39.3008 34.9914 39.5278 35.2067C39.7428 35.414 40.0654 35.6453 40.4317 35.745C40.7902 35.8486 41.1207 35.8606 41.4114 35.8885C41.714 35.9124 42.0326 35.9364 42.3671 35.9364C42.7017 35.9364 43.0521 35.9204 43.4145 35.8526C43.7729 35.7888 44.1512 35.6612 44.4698 35.5057C44.7286 35.3781 44.9636 35.2466 45.1866 35.115C45.2463 35.1509 45.3937 35.2346 45.6207 35.3582C45.9193 35.5097 46.3534 35.737 46.9468 35.8566C47.5361 35.9762 48.233 35.9284 48.8543 35.737C49.4795 35.5536 50.033 35.2585 50.4791 34.9674C51.3751 34.3773 52.3069 33.4642 53.0198 32.7106C53.2428 32.4714 53.4459 32.2521 53.6171 32.0607C53.7286 32.3717 53.8481 32.6747 53.9755 32.9618C54.5808 34.3016 55.3852 35.2984 56.0065 35.9324C56.3171 36.2474 56.5839 36.4826 56.7711 36.6381C56.8587 36.7059 56.9224 36.7578 56.9742 36.7976C56.9901 36.8096 57.006 36.8216 57.018 36.8295C57.0458 36.8535 57.0658 36.8694 57.0658 36.8694C57.3286 37.0608 57.7427 36.5305 57.5197 36.3192L57.5078 36.3112ZM28.5725 21.3067C27.9353 21.2589 27.2623 21.2031 26.5734 21.1393C25.8924 21.0675 25.1517 21.0077 24.5066 20.904C23.8654 20.8004 23.296 20.5771 23.0013 20.2302C22.842 20.0547 22.7265 19.8434 22.6867 19.656C22.6469 19.4646 22.6668 19.325 22.7345 19.1815C22.8619 18.8944 23.3238 18.5794 23.9212 18.3561C24.5145 18.1169 25.1597 17.9374 25.8287 17.8098C27.1668 17.5546 28.5844 17.5068 29.8588 17.4789C31.5114 17.455 32.9012 17.435 33.6818 17.427C33.3114 17.7779 32.9331 18.1328 32.5468 18.4957C32.276 18.7548 32.0012 19.014 31.7265 19.2772C31.599 19.4008 31.4278 19.5563 31.2685 19.7676C31.2287 19.8195 31.1889 19.8753 31.149 19.9391C31.1092 20.0029 31.0614 20.0986 31.0256 20.1783C30.9539 20.3498 30.9181 20.5332 30.922 20.7166C30.922 20.9838 31.0375 21.2429 31.2008 21.4543C30.4681 21.4224 29.5681 21.3745 28.5685 21.3028L28.5725 21.3067ZM34.4145 26.259C34.0004 25.8763 33.8092 25.2941 33.865 24.8276C33.9088 24.3571 34.2035 23.9743 34.4981 23.743C34.8008 23.5078 35.1034 23.4121 35.3065 23.3762C35.4698 23.3483 35.5734 23.3483 35.6092 23.3483C35.6251 23.3722 35.645 23.4001 35.6729 23.42C35.6729 23.42 35.8123 23.4838 36.0751 23.5716C36.338 23.6593 36.7322 23.759 37.226 23.7988C37.7198 23.8427 38.3092 23.8307 38.9543 23.739C39.5994 23.6553 40.2963 23.4799 40.9972 23.3244C41.6981 23.1688 42.4229 23.0452 43.0999 23.133C43.7689 23.2127 44.3862 23.5437 44.8282 24.05C44.9397 24.1737 45.0393 24.3092 45.1229 24.4488C45.1667 24.5166 45.2025 24.5923 45.2384 24.6641C45.2623 24.7159 45.2543 24.704 45.2583 24.708V24.7159C45.2583 24.7159 45.2503 24.7319 45.2423 24.7359C45.2423 24.7359 45.2344 24.7359 45.2304 24.7359L44.9954 24.8316C44.2667 25.1386 43.5618 25.4337 42.9008 25.7088C42.2397 25.9919 41.5627 26.2989 40.8738 26.4943C40.1968 26.6937 39.4601 26.7335 38.6477 26.7375C37.8353 26.7296 37.0229 26.7176 36.2304 26.7096C35.8282 26.7056 35.4619 26.6937 35.1592 26.6299C34.8526 26.5661 34.6296 26.4465 34.4185 26.2551L34.4145 26.259ZM36.6765 30.9721C36.4734 30.8166 36.318 30.6212 36.2105 30.4059C35.9955 29.9713 35.9596 29.4968 36.0194 29.126C36.0791 28.7511 36.2145 28.472 36.33 28.3046C36.4455 28.1331 36.5251 28.0534 36.5251 28.0534C36.557 28.0175 36.561 27.9656 36.553 27.9058C36.561 27.9058 36.5729 27.9058 36.5809 27.9058C36.6088 27.9736 36.6605 28.0294 36.7282 28.0573C36.7282 28.0573 37.2618 28.1451 38.1698 28.2328C38.6238 28.2727 39.1773 28.3086 39.8105 28.2846C40.4397 28.2567 41.1605 28.181 41.8972 27.9178C42.2676 27.7982 42.6379 27.6148 42.9963 27.4034C43.3348 27.1921 43.6176 27.0087 43.8366 26.9768C44.0477 26.9369 44.3105 26.9927 44.6171 27.1323C44.9158 27.2679 45.2623 27.4792 45.6127 27.6746C45.9512 27.866 46.2897 28.0573 46.6282 28.2487C46.7676 28.3325 46.8671 28.4162 46.903 28.468C46.9348 28.5119 46.9308 28.5318 46.9308 28.5478C46.9308 28.5598 46.9189 28.6076 46.8552 28.6913C46.7954 28.7711 46.6959 28.8588 46.5844 28.9425C46.4729 29.0263 46.3454 29.106 46.214 29.1738C46.0587 29.2496 45.9074 29.3253 45.7561 29.3971C45.6127 29.4689 45.4614 29.5446 45.314 29.6164C45.0154 29.6682 44.7446 29.7679 44.5136 29.8836C44.207 30.0351 43.9481 30.2065 43.7132 30.362C43.6176 30.4258 43.522 30.4896 43.4344 30.5455C42.9764 30.7688 42.5185 30.9721 42.0605 31.1157C41.7618 31.1595 41.4512 31.1755 41.1605 31.1874C40.7424 31.1994 40.3481 31.2193 40.0136 31.2672C39.7826 31.2991 39.5835 31.3469 39.4242 31.3948C38.7313 31.3629 38.0424 31.2831 37.3893 31.2113C37.0428 31.1715 36.8795 31.1276 36.6765 30.9721ZM43.8884 34.3654C43.6455 34.5009 43.4145 34.5886 43.1556 34.6524C42.8968 34.7162 42.618 34.7481 42.3313 34.7641C42.0446 34.78 41.7499 34.78 41.4512 34.776C41.1446 34.776 40.8857 34.776 40.6906 34.7282C40.3362 34.6764 39.9937 34.3175 39.6472 33.9746C39.3207 33.6556 39.1136 33.3645 39.0419 33.1293C38.9742 32.894 39.018 32.6787 39.0658 32.575C39.0738 32.5551 39.0857 32.5391 39.0937 32.5232C39.2291 32.5391 39.3645 32.5551 39.5079 32.5671C40.3123 32.6348 41.1804 32.6348 42.0406 32.4514C42.9127 32.268 43.6813 31.9131 44.3742 31.5901C44.9039 31.335 45.4136 31.0917 45.9114 30.8565C46.1702 30.9402 46.4052 31.1316 46.6282 31.4267C46.7755 31.622 46.9069 31.8453 47.0304 32.0846C47.0901 32.2042 47.1499 32.3278 47.2096 32.4514C47.2375 32.5152 47.2335 32.5112 47.2295 32.5112H47.2215C47.2215 32.5112 47.1897 32.5431 47.1658 32.5591C47.122 32.599 47.0702 32.6348 47.0145 32.6747C46.676 32.914 46.1384 33.0894 45.5211 33.3845C44.8879 33.6955 44.3782 34.1022 43.8924 34.3654H43.8884ZM52.3109 31.9291C51.5025 32.5471 50.491 33.3007 49.7105 33.8071C49.3242 34.0663 48.8822 34.3374 48.4242 34.5328C47.9662 34.7322 47.4923 34.8319 47.0662 34.8199C46.6879 34.8079 46.3335 34.7202 46.0468 34.6405C46.0627 34.6325 46.0826 34.6205 46.0985 34.6126C46.5884 34.3853 47.2056 34.2178 47.791 33.8271C47.8866 33.7633 47.9782 33.6915 48.0698 33.6117C48.1176 33.5719 48.1494 33.54 48.2092 33.4841C48.2729 33.4243 48.3207 33.3605 48.3724 33.2967C48.5954 33.0575 48.6591 32.7903 48.6631 32.6189C48.6671 32.4833 48.6432 32.3477 48.5914 32.2162L48.4361 31.8733C48.3684 31.7337 48.2968 31.5941 48.2171 31.4546C48.0618 31.1715 47.8786 30.8884 47.6556 30.6132C47.5322 30.4617 47.3888 30.3142 47.2295 30.1786C47.2932 30.1348 47.3609 30.0909 47.4246 30.0431C47.6038 29.9035 47.787 29.74 47.9543 29.5167C48.1176 29.3014 48.2768 28.9864 48.2888 28.6116C48.3087 28.2408 48.1574 27.8739 47.9423 27.6227C47.7273 27.3715 47.5003 27.232 47.3012 27.1163C46.9149 26.909 46.5884 26.7455 46.226 26.5581C45.9592 26.4265 45.7003 26.283 45.4016 26.1434C45.4454 26.1235 45.4853 26.1075 45.5291 26.0876L45.8397 25.948C46.0149 25.8643 46.1861 25.7606 46.3176 25.6251C46.5884 25.3619 46.7038 24.9592 46.6083 24.5883C46.5884 24.4966 46.5565 24.4009 46.5167 24.3092C46.4808 24.2215 46.4251 24.1178 46.4052 24.078C46.3454 23.9703 46.2857 23.8626 46.218 23.759C46.0826 23.5516 45.9313 23.3602 45.764 23.1848C45.103 22.479 44.1472 22.0364 43.2193 21.9726C42.2915 21.9049 41.4671 22.1122 40.7463 22.3076C40.0216 22.5149 39.3884 22.7143 38.807 22.8259C38.2256 22.9456 37.7039 22.9894 37.2778 22.9814C36.8517 22.9735 36.5172 22.9137 36.2942 22.8578C37.4371 22.6345 38.3769 22.1042 38.9941 21.5739C39.3844 21.2469 39.6751 20.924 39.8742 20.6568C39.9379 20.5571 39.9738 20.4814 39.9937 20.4295C40.0853 20.4854 40.1609 20.5452 40.368 20.6608C40.607 20.7964 40.8379 20.916 41.0609 21.0197C41.5109 21.223 41.9251 21.3705 42.2994 21.4702C43.0481 21.6776 43.6295 21.7294 44.0556 21.7573C44.4817 21.7812 44.7605 21.7653 44.9317 21.7573C45.103 21.7493 45.1627 21.7414 45.1627 21.7414C45.5888 21.6576 45.5012 21.0635 45.1109 21.0276C45.1109 21.0276 45.0552 21.0316 44.8999 21.0356C44.7446 21.0356 44.4937 21.0436 44.1034 21.0117C43.7171 20.9758 43.1875 20.916 42.5145 20.7126C42.176 20.6129 41.8056 20.4774 41.4034 20.282C41.2043 20.1863 40.9972 20.0747 40.7822 19.9471C40.5393 19.7995 40.1609 19.5324 39.7826 19.2612C39.6791 19.3848 39.476 19.6799 39.1574 20.0667C38.9702 20.274 38.7074 20.5292 38.3649 20.7804C37.688 21.2868 36.6326 21.7773 35.4021 21.7773C34.7888 21.7773 34.1437 21.6616 33.5304 21.4224C33.2238 21.3028 32.9291 21.1473 32.6504 20.9678C32.5189 20.8801 32.3557 20.7685 32.284 20.6967C32.2641 20.6728 32.272 20.6728 32.2681 20.6608C32.2681 20.6568 32.2681 20.6528 32.272 20.6488L32.3278 20.5771C32.3995 20.4854 32.511 20.3817 32.6583 20.2461C32.9371 19.9909 33.2119 19.7357 33.4866 19.4845C34.0322 18.9781 34.5619 18.4877 35.0716 18.0172C35.4141 17.7022 35.8083 17.2994 36.1189 17.0762C36.2782 16.9605 36.4017 16.9047 36.5928 16.8489C36.78 16.797 37.011 16.7691 37.2698 16.7452C38.3331 16.6415 39.4322 16.5339 40.5353 16.4302C41.0848 16.3744 41.6384 16.3186 42.1879 16.2627C42.7375 16.2069 43.2472 16.1551 43.7052 16.1989C44.1552 16.2428 44.6211 16.3983 45.099 16.5777C45.5808 16.7651 46.0906 16.9486 46.5645 17.1041C48.476 17.7221 50.1485 18.1886 51.3392 18.5555C52.1835 18.8107 52.7689 19.01 53.0436 19.1057C53.0436 19.1536 53.0436 19.2014 53.0436 19.2493C53.0436 19.4686 53.0636 19.6919 53.0874 19.9152C53.183 20.8043 53.4817 21.6935 53.9596 22.475C54.2065 22.8578 54.4813 23.2326 54.8158 23.5437C54.979 23.7031 55.1543 23.8507 55.3414 23.9863L55.4051 24.0301V24.0341H55.3972C55.3972 24.0341 55.4012 24.0341 55.4051 24.0341V24.0381L55.3414 24.0819C55.1543 24.2135 54.979 24.3651 54.8158 24.5245C54.4773 24.8356 54.2065 25.2064 53.9596 25.5932C53.4817 26.3747 53.183 27.2639 53.0874 28.153C53.0596 28.3763 53.0397 28.5956 53.0436 28.8189C53.0357 29.0382 53.0436 29.2575 53.0556 29.4768C53.0914 29.9075 53.1512 30.3222 53.2348 30.7249C53.2627 30.8605 53.2985 30.992 53.3304 31.1236C53.0755 31.323 52.7211 31.5981 52.3109 31.9171V31.9291Z" fill="currentColor"/>
</svg>
