<svg width="84" height="70" viewBox="0 0 84 70" fill="none" xmlns="http://www.w3.org/2000/svg">
<path d="M24.6259 32.7393C24.5913 32.774 24.5566 32.8029 24.5276 32.8377C24.4987 32.9014 24.4698 32.9708 24.4409 33.0345C24.5045 32.9361 24.5623 32.8377 24.6259 32.7393V32.7393Z" fill="white"/>
<path d="M25.1349 26.1568C25.2563 24.0378 25.3835 21.9073 25.476 19.7942C25.5743 17.7447 25.9039 15.6258 27.2511 14.5548C27.5865 14.2827 27.9623 14.0974 28.3959 13.9121C28.8874 13.7153 29.3789 13.5185 29.8472 13.3448C30.3156 13.1769 30.755 13.0553 31.2581 12.9395L32.7903 12.6095C32.8539 12.5979 32.9175 12.5748 32.9753 12.5516C33.4842 12.3316 33.7154 11.7411 33.5015 11.2316L33.4899 11.2027C32.9927 10.0448 33.0274 8.62059 33.4552 7.34113C33.8889 6.06746 34.6753 4.88062 35.7218 4.15116C36.6816 3.46221 38.0289 3.32327 39.2315 3.69379C40.4284 4.06431 41.4287 4.90957 41.6773 5.98061C41.7756 6.40903 42.1226 6.7564 42.5793 6.84324C43.198 6.95324 43.7878 6.54798 43.8977 5.92851C44.0653 4.99641 44.551 4.08168 45.2333 3.39853C45.9156 2.70959 46.7887 2.25801 47.6849 2.17117C48.5349 2.08433 49.4831 2.42591 50.1885 3.04537C50.8997 3.65905 51.3334 4.53326 51.2756 5.37851V5.43641C51.2524 5.75483 51.3912 6.07904 51.6687 6.28167C52.0966 6.5885 52.698 6.49008 53.0044 6.05588C53.8833 4.82273 55.5543 4.19168 57.2427 4.30747C58.0811 4.35957 58.9252 4.54484 59.7058 4.89799C60.0816 5.08325 60.4806 5.29167 60.7871 5.54062L61.0183 5.72588C61.0935 5.79535 61.1571 5.87062 61.2265 5.94588C61.371 6.08482 61.4867 6.25851 61.6139 6.43219C62.0938 7.13271 62.4581 8.00691 62.8686 8.86954C63.2733 9.73795 63.7243 10.6122 64.291 11.4053C64.6726 11.9495 65.0947 12.4474 65.5515 12.9164C63.0478 11.6485 60.4922 10.3748 57.7457 9.3848C54.8258 8.35428 51.6167 7.84481 48.4886 8.05323C45.349 8.25586 42.2555 9.1127 39.4512 10.5658C36.6874 12.0653 34.1954 14.19 32.455 16.7895C30.6683 19.3484 29.4541 22.1273 28.1531 24.8194C27.1355 27.0078 26.1178 29.202 25.1406 31.4136C25.158 31.3962 25.1811 31.3788 25.1985 31.3557C25.4124 31.0894 25.6379 30.852 25.8114 30.6088C26.1178 30.111 26.3954 29.7115 26.5052 29.3989C26.6382 29.0978 26.7134 28.9299 26.7134 28.9299C26.8868 28.5652 26.8521 28.571 26.7538 28.9415C26.7538 28.9415 26.7018 29.1152 26.6093 29.4336C26.5977 29.5031 26.5688 29.5783 26.5457 29.6594C27.4246 28.2236 28.2919 26.782 29.1534 25.3405C30.6914 22.7584 32.1254 20.13 33.9005 17.8489C37.3928 13.2811 42.961 10.6643 48.6332 10.3516C51.4779 10.1316 54.3054 10.5543 57.0518 11.4516C59.8215 12.3143 62.4928 13.6169 65.2682 14.7805C68.0262 15.979 70.9346 17.0616 73.9702 17.5305C75.4908 17.7505 77.0346 17.8489 78.5553 17.6984C79.81 17.5711 81.0416 17.2816 82.1923 16.8184C82.2732 16.749 82.3426 16.6853 82.412 16.6332C81.1283 16.9458 79.8274 17.0847 78.5322 17.0558C77.0636 17.0153 75.6123 16.7837 74.1957 16.4132C71.5706 15.759 69.1017 14.6474 66.6385 13.4374C65.962 12.6848 65.3607 11.88 64.8808 11C64.424 10.1953 64.077 9.34427 63.759 8.46428C63.4352 7.58429 63.1693 6.65798 62.6431 5.74904C62.5043 5.52325 62.3771 5.29746 62.1921 5.08904C62.1054 4.98483 62.0244 4.87483 61.9319 4.77641L61.6312 4.49273C61.2265 4.12221 60.7928 3.85589 60.3418 3.58958C59.4283 3.09169 58.4164 2.77327 57.3699 2.66327C56.3291 2.55327 55.2421 2.62275 54.2013 2.98169C53.7676 3.12643 53.3455 3.34064 52.9408 3.58379C52.9061 3.48537 52.8772 3.38695 52.8367 3.29432C52.5361 2.60538 52.0966 2.00328 51.5647 1.50539C50.5066 0.521183 49.0668 -0.104076 47.5172 -0.0114447C46.0197 0.0696073 44.6493 0.804865 43.649 1.79486C43.2443 2.19433 42.8974 2.64011 42.5967 3.12064C42.5157 3.03958 42.4464 2.94695 42.3654 2.87169C41.6484 2.20012 40.7811 1.74275 39.8791 1.47644C38.9771 1.21012 38.0231 1.12907 37.0806 1.25644C36.1439 1.37802 35.1899 1.73696 34.4093 2.30433C32.9002 3.40432 31.8767 4.97904 31.3679 6.68114C30.9747 8.0127 30.8764 9.48322 31.2349 10.8901L30.7666 11.0058C30.2346 11.139 29.6622 11.33 29.1418 11.55C28.6272 11.77 28.1473 11.9958 27.6616 12.2158C27.1297 12.4706 26.563 12.789 26.1005 13.2174C25.1522 14.08 24.5856 15.2784 24.3658 16.4074C24.1288 17.5479 24.1172 18.6595 24.1346 19.7421C24.1808 21.8726 24.2676 23.9915 24.3427 26.1163C24.4237 28.0326 24.5162 29.9489 24.6318 31.8652C24.6607 31.8362 24.6896 31.8131 24.7186 31.7841C24.8689 29.8968 25.0019 28.0094 25.1175 26.122L25.1349 26.1568Z" fill="white"/>
<path d="M78.561 52.2845C77.0346 52.134 75.4907 52.2324 73.9758 52.4524C70.9403 52.9272 68.0261 54.004 65.2738 55.2024C62.4927 56.3661 59.8214 57.6687 57.0575 58.5313C54.3111 59.4287 51.4836 59.8513 48.6388 59.6313C42.9666 59.3187 37.3985 56.7019 33.9062 52.134C32.1311 49.853 30.6913 47.2246 29.1591 44.6425C28.2918 43.2009 27.4302 41.7594 26.5514 40.3236C26.5803 40.4046 26.6034 40.4799 26.615 40.5494C26.7075 40.8678 26.7595 41.0415 26.7595 41.0415C26.8636 41.4294 26.8867 41.4062 26.719 41.0531C26.719 41.0531 26.6439 40.8909 26.5109 40.5841C26.401 40.2715 26.1235 39.8778 25.817 39.3741C25.6494 39.131 25.4239 38.8936 25.2041 38.6273C25.1868 38.6099 25.1637 38.5925 25.1463 38.5694C26.1235 40.781 27.1411 42.9751 28.1588 45.1636C29.454 47.8556 30.674 50.6346 32.4606 53.1935C34.201 55.7872 36.6931 57.9177 39.4569 59.4171C42.2554 60.8703 45.3546 61.7271 48.4943 61.9297C51.6282 62.1382 54.8372 61.6287 57.7514 60.5982C60.4979 59.6082 63.0535 58.3345 65.5572 57.0666C65.1004 57.5356 64.6783 58.0392 64.2967 58.5777C63.73 59.3708 63.279 60.245 62.8743 61.1134C62.4638 61.9761 62.0995 62.8503 61.6196 63.5508C61.4982 63.7187 61.3767 63.8981 61.2322 64.0371C61.1628 64.1066 61.0992 64.1876 61.024 64.2571L60.7927 64.4423C60.4863 64.6913 60.0873 64.8997 59.7115 65.085C58.9367 65.4381 58.0867 65.6234 57.2483 65.6755C55.5658 65.7913 53.889 65.1544 53.0101 63.9271C52.8251 63.6666 52.507 63.5045 52.1659 63.5276C51.6397 63.5624 51.2408 64.0197 51.2755 64.5466V64.6045C51.3391 65.4497 50.9054 66.3239 50.1942 66.9376C49.4946 67.5571 48.5405 67.8986 47.6906 67.8118C46.7944 67.725 45.9213 67.2734 45.239 66.5844C44.5567 65.8955 44.071 64.9866 43.9033 64.0545C43.8224 63.6203 43.4986 63.2555 43.0418 63.1513C42.4289 63.0066 41.8218 63.3887 41.6772 64.0024C41.4286 65.0792 40.4283 65.9244 39.2314 66.2892C38.0288 66.6597 36.6815 66.5208 35.7217 65.8318C34.6752 65.1081 33.8888 63.9213 33.4551 62.6418C33.0273 61.3624 32.9868 59.944 33.4898 58.7803L33.5014 58.7513C33.5245 58.6934 33.5477 58.6356 33.5592 58.5719C33.6749 58.0277 33.3279 57.495 32.7902 57.3792L31.258 57.0492C30.7549 56.9335 30.3213 56.8119 29.8471 56.644C29.3788 56.4761 28.8873 56.2735 28.3958 56.0766C27.9622 55.8914 27.5864 55.7061 27.251 55.434C25.9038 54.3687 25.5742 52.244 25.4759 50.1946C25.3834 48.0814 25.2562 45.9509 25.1348 43.832C25.0191 41.9446 24.8861 40.0573 24.7358 38.1699C24.7069 38.1468 24.678 38.1178 24.6491 38.0889C24.5334 40.0052 24.4409 41.9215 24.36 43.8378C24.2848 45.9625 24.1981 48.0814 24.1518 50.2119C24.1345 51.2946 24.1518 52.4061 24.3831 53.5466C24.6028 54.6756 25.1637 55.874 26.1177 56.7366C26.5861 57.165 27.1527 57.4892 27.6789 57.7382C28.1588 57.9582 28.6445 58.184 29.1591 58.404C29.6737 58.624 30.2519 58.815 30.7838 58.9482L31.2522 59.064C30.8937 60.4708 30.9862 61.9413 31.3852 63.2729C31.894 64.9808 32.9116 66.5497 34.4265 67.6497C35.2071 68.2171 36.1612 68.576 37.0978 68.6976C38.0403 68.825 38.9944 68.7381 39.8964 68.4776C40.7984 68.2113 41.6599 67.7597 42.3827 67.0823C42.4636 67.0071 42.5388 66.9144 42.6139 66.8334C42.9146 67.3139 43.2673 67.7597 43.6663 68.1592C44.6666 69.1549 46.0369 69.8844 47.5345 69.9655C49.0841 70.0581 50.5238 69.4328 51.5819 68.4486C52.1139 67.9507 52.5533 67.3486 52.854 66.6597C52.8944 66.5671 52.9234 66.4686 52.958 66.3702C53.3628 66.6192 53.7791 66.8276 54.2185 66.9723C55.2535 67.3313 56.3406 67.4008 57.3871 67.2908C58.4337 67.1808 59.4397 66.8565 60.3591 66.3644C60.8159 66.0981 61.2437 65.8318 61.6485 65.4613L61.9492 65.1776C62.0417 65.0792 62.1226 64.9692 62.2093 64.865C62.3886 64.6566 62.5216 64.4308 62.6603 64.205C63.1865 63.296 63.4525 62.3697 63.7763 61.4897C64.0885 60.6097 64.4412 59.7587 64.898 58.954C65.3779 58.0798 65.9735 57.2692 66.6558 56.5166C69.1131 55.3066 71.5821 54.2009 74.2129 53.5409C75.6295 53.1703 77.0808 52.9445 78.5495 52.8982C79.9776 52.8635 81.4174 53.0314 82.8224 53.4193C82.8051 53.4077 82.7877 53.3903 82.7588 53.373C81.452 52.7709 80.0239 52.4061 78.5726 52.2614L78.561 52.2845Z" fill="white"/>
<path d="M24.5276 37.168C24.5623 37.2028 24.597 37.2317 24.6259 37.2665C24.5623 37.168 24.5045 37.0696 24.4409 36.9712C24.4698 37.0349 24.4987 37.1043 24.5276 37.168Z" fill="white"/>
<path d="M25.1464 38.5866C25.1464 38.5866 25.1868 38.6214 25.2042 38.6445C25.4181 38.9109 25.6436 39.1482 25.8171 39.3914C26.1235 39.8893 26.4011 40.2887 26.5109 40.6014C26.6439 40.9024 26.7191 41.0703 26.7191 41.0703C26.8868 41.4177 26.8579 41.4466 26.7596 41.0587C26.7596 41.0587 26.7075 40.885 26.615 40.5666C26.6035 40.4972 26.5745 40.4219 26.5514 40.3408C26.4531 40.0456 26.2739 39.6866 26.0773 39.2408C25.9385 38.9687 25.7419 38.6909 25.5511 38.3782C25.3603 38.0656 25.077 37.7819 24.811 37.4519C24.7532 37.394 24.6896 37.3361 24.6318 37.2782C24.5971 37.2435 24.5624 37.2145 24.5335 37.1798C24.3138 36.9714 24.0883 36.7572 23.8338 36.5546C23.4522 36.2882 23.0648 35.9814 22.608 35.7614C22.0587 35.4488 21.4459 35.2056 20.7983 35.0088C21.4459 34.8177 22.0587 34.5688 22.608 34.2561C23.0648 34.0361 23.4522 33.7293 23.8338 33.463C24.0883 33.2604 24.3138 33.0519 24.5335 32.8377C24.5682 32.803 24.6029 32.7741 24.6318 32.7393C24.6896 32.6814 24.759 32.6235 24.811 32.5656C25.077 32.2356 25.3545 31.9577 25.5511 31.6393C25.7419 31.3267 25.9385 31.0488 26.0773 30.7767C26.2739 30.3309 26.4473 29.972 26.5514 29.6767C26.5803 29.5957 26.6035 29.5204 26.615 29.4509C26.7075 29.1325 26.7596 28.9588 26.7596 28.9588C26.8579 28.5825 26.8926 28.5825 26.7191 28.9472C26.7191 28.9472 26.6439 29.1093 26.5109 29.4162C26.4011 29.7288 26.1235 30.1225 25.8171 30.6262C25.6494 30.8693 25.4239 31.1067 25.2042 31.373C25.1868 31.3904 25.1637 31.4077 25.1464 31.4309C25.0249 31.5699 24.8862 31.6972 24.7358 31.8304C24.7069 31.8535 24.678 31.8825 24.6491 31.9114C24.5624 31.9867 24.4814 32.0562 24.4005 32.1372C24.0883 32.3746 23.7529 32.612 23.3886 32.8262C23.007 33.0172 22.6312 33.243 22.1975 33.3819C21.3591 33.7177 20.4109 33.9088 19.4395 33.9551C18.9538 34.0014 18.4623 33.9551 17.9766 33.9319C17.4909 33.8567 17.0052 33.7988 16.5369 33.6656C15.6002 33.4167 14.7271 33.023 14.0101 32.5077C13.3452 31.9983 12.767 31.3035 12.3391 30.603C11.9054 29.9083 11.5412 29.092 11.3966 28.2467C11.2463 27.4015 11.3041 26.5388 11.7378 25.8441C12.1367 25.1783 12.9925 24.4662 13.7731 24.0494C14.571 23.621 15.4614 23.4589 16.2189 23.731C16.9821 23.9857 17.5661 24.6225 17.8321 25.3057C18.1096 25.9888 18.0518 26.7009 17.8321 27.2162C17.6066 27.743 17.2423 28.0615 16.9879 28.2583C16.8491 28.3451 16.745 28.4146 16.6699 28.4609C16.5947 28.5015 16.5542 28.5188 16.5542 28.5188C16.2073 28.6983 16.19 28.6694 16.5716 28.5594C16.5716 28.5594 16.612 28.542 16.6988 28.5188C16.7797 28.4841 16.8954 28.4262 17.0515 28.3567C17.3406 28.1946 17.7742 27.9109 18.1096 27.3609C18.4334 26.8167 18.63 26.0004 18.4103 25.132C18.2137 24.2752 17.6181 23.3489 16.6063 22.8394C16.109 22.5847 15.525 22.4573 14.9352 22.4631C14.3455 22.4631 13.7673 22.602 13.218 22.8104C12.6629 23.0131 12.1599 23.3141 11.6799 23.6325C11.4487 23.8062 11.2116 23.9452 10.9803 24.1825L10.6276 24.5125C10.5178 24.6341 10.4252 24.7673 10.3269 24.9004C9.9222 25.4215 9.67935 26.0525 9.54058 26.6836C9.49433 26.9962 9.43072 27.3204 9.44229 27.6273C9.44229 27.7836 9.44229 27.9399 9.44229 28.0904L9.48855 28.542C9.63888 29.7346 10.0841 30.7883 10.6276 31.6741C11.067 32.3746 11.6221 33.0519 12.3275 33.6483C11.5238 33.4572 10.7375 33.2256 10.1708 32.9825C10.0494 32.9362 9.95689 32.8783 9.84125 32.8319C9.75452 32.7741 9.66201 32.7393 9.55793 32.6525C9.35556 32.502 9.14162 32.3051 8.92769 32.0735C8.5056 31.6046 8.0199 31.0199 7.64407 30.5625C7.26245 30.0935 6.97335 29.6709 6.79989 29.3525C6.62064 29.0399 6.54548 28.8372 6.54548 28.8372C6.49922 28.7967 6.29107 28.8141 6.07135 28.8662C5.78224 28.843 5.4411 28.8546 5.42376 28.9009C5.42376 28.9009 5.29655 29.5204 4.9265 30.2267C4.56801 30.9388 3.94933 31.6683 3.4116 32.1604C2.90278 32.6756 2.13954 33.2893 1.411 33.6598C0.694029 34.0419 0.0753483 34.2156 0.0753483 34.2156C0.0348738 34.2561 0.0406559 34.5167 0.0753483 34.7656C0.046438 35.0088 0.0406559 35.2635 0.0753483 35.3214C0.0753483 35.3214 0.699811 35.4951 1.411 35.8772C2.13376 36.2477 2.89699 36.8614 3.4116 37.3767C3.94933 37.8688 4.56801 38.5982 4.9265 39.3103C5.29655 40.0108 5.42376 40.6361 5.42376 40.6361C5.44688 40.6824 5.78803 40.694 6.07713 40.6708C6.28528 40.7172 6.48766 40.7345 6.54548 40.6998C6.54548 40.6998 6.62064 40.4972 6.79989 40.1845C6.97335 39.8661 7.26245 39.4493 7.64407 38.9745C8.0199 38.523 8.5056 37.9324 8.92769 37.4635C9.14162 37.2319 9.34978 37.0351 9.55793 36.8845C9.66201 36.8035 9.75452 36.7688 9.84125 36.7051C9.95689 36.6588 10.0494 36.6009 10.1708 36.5546C11.0034 36.1898 12.3044 35.8656 13.4319 35.6514C13.2584 35.744 13.085 35.8367 12.9173 35.9409C11.9112 36.6298 11.1827 37.4924 10.6276 38.3724C10.0841 39.2582 9.63888 40.3061 9.48855 41.5045L9.44229 41.9561C9.44229 42.1124 9.44229 42.2687 9.44229 42.4192C9.43072 42.7261 9.49433 43.0503 9.54058 43.3629C9.68514 43.9882 9.9222 44.625 10.3269 45.1461C10.4252 45.2734 10.5178 45.4124 10.6276 45.534L10.9803 45.864C11.2174 46.1013 11.4487 46.2403 11.6799 46.414C12.1599 46.7382 12.6629 47.0334 13.218 47.2361C13.7673 47.4445 14.3455 47.5776 14.9352 47.5834C15.5192 47.5892 16.1032 47.4618 16.6063 47.2071C17.6123 46.6976 18.2137 45.7713 18.4103 44.9145C18.6242 44.0461 18.4334 43.224 18.1096 42.6856C17.7742 42.1356 17.3406 41.8519 17.0515 41.6898C16.9011 41.6203 16.7797 41.5682 16.6988 41.5277C16.6178 41.4987 16.5716 41.4872 16.5716 41.4872C16.1957 41.3772 16.2015 41.3424 16.5542 41.5277C16.5542 41.5277 16.5947 41.545 16.6699 41.5856C16.7393 41.6319 16.8491 41.7014 16.9879 41.7882C17.2423 41.985 17.6066 42.3092 17.8321 42.8303C18.0518 43.3456 18.1038 44.0577 17.8321 44.7408C17.5661 45.4182 16.9821 46.0608 16.2189 46.3155C15.4556 46.5876 14.571 46.4255 13.7731 45.9971C12.9925 45.5803 12.1367 44.8682 11.7378 44.2024C11.2983 43.5077 11.2405 42.6392 11.3966 41.7998C11.547 40.9545 11.9054 40.1382 12.3391 39.4435C12.767 38.7487 13.3394 38.054 14.0101 37.5388C14.7271 37.0235 15.606 36.6298 16.5369 36.3809C17.0052 36.2419 17.4909 36.184 17.9766 36.1146C18.4623 36.0914 18.9538 36.0451 19.4395 36.0914C20.4109 36.1377 21.3591 36.3288 22.1975 36.6646C22.6312 36.8035 23.007 37.0293 23.3886 37.2203C23.7529 37.4403 24.0883 37.6777 24.4005 37.9093C24.4814 37.9903 24.5682 38.0598 24.6491 38.1351C24.678 38.164 24.7069 38.1872 24.7358 38.2161C24.8862 38.3435 25.0192 38.4766 25.1464 38.6156V38.5866ZM8.85252 34.9567C8.66749 35.0782 8.46512 35.2114 8.30901 35.3561C7.98521 35.6398 7.71345 35.9698 7.48795 36.2882C7.04273 36.9424 6.71316 37.5214 6.3778 38.1235C6.33732 38.2045 6.29685 38.2798 6.25637 38.3609C5.9904 37.4693 5.45267 36.5082 4.81086 35.9119C4.33095 35.4372 3.64866 35.0319 2.9606 34.7483C3.64866 34.4704 4.33095 34.0593 4.81086 33.5846C5.45267 32.9883 5.9904 32.0272 6.25637 31.1356C6.29685 31.2167 6.33154 31.292 6.3778 31.373C6.70737 31.9751 7.03695 32.5598 7.48795 33.2083C7.71345 33.5325 7.98521 33.8567 8.30901 34.1404C8.45934 34.2851 8.66749 34.4125 8.85252 34.5398C8.99129 34.6093 9.12428 34.6846 9.25726 34.7483C9.12428 34.8119 8.98551 34.8872 8.85252 34.9567V34.9567Z" fill="white"/>
<path d="M83.5452 52.7013C83.5452 52.7013 83.4122 52.5797 83.1751 52.3597C82.9381 52.1339 82.6027 51.7924 82.2153 51.3466C81.4405 50.4434 80.4576 49.0598 79.7579 47.2535C79.411 46.3503 79.1161 45.3545 78.9484 44.3066C78.8617 43.7798 78.8097 43.2472 78.7923 42.7087C78.7923 42.4424 78.7923 42.1761 78.8155 41.9098C78.8212 41.6435 78.8617 41.3772 78.9022 41.1167C79.0583 40.063 79.4457 39.0498 80.0066 38.1872C80.2957 37.7646 80.6079 37.3593 80.9779 37.0351C81.1572 36.8672 81.348 36.7109 81.5446 36.5835L81.8048 36.4098C81.9436 36.3462 82.0303 36.2593 82.2153 36.213C82.5507 36.103 82.8802 35.9988 83.2098 35.8888C83.2098 35.6862 83.2156 35.2867 83.2214 34.893C83.2214 34.5051 83.2098 34.0999 83.2098 33.8972C82.8802 33.793 82.5507 33.683 82.2153 33.573C82.0303 33.5267 81.9436 33.4399 81.8048 33.3762L81.5446 33.2025C81.348 33.0693 81.163 32.913 80.9779 32.7509C80.6079 32.4267 80.2957 32.0215 80.0066 31.5988C79.4457 30.7362 79.0525 29.7231 78.9022 28.6694C78.8617 28.4089 78.8212 28.1425 78.8155 27.8762C78.7923 27.6099 78.7865 27.3436 78.7923 27.0773C78.8097 26.5447 78.8617 26.0062 78.9484 25.4794C79.1161 24.4315 79.411 23.4299 79.7579 22.5326C80.4576 20.7263 81.4405 19.3368 82.2153 18.4395C82.6085 17.9879 82.9381 17.6463 83.1751 17.4263C83.418 17.2063 83.5452 17.0847 83.5452 17.0847C83.8343 16.7547 83.3197 16.0542 82.886 16.2858C82.886 16.2858 82.7357 16.4016 82.4639 16.6216C82.4524 16.6332 82.435 16.6447 82.4235 16.6563C82.3541 16.7142 82.2847 16.7721 82.2037 16.8416C81.9667 17.05 81.6776 17.3163 81.3538 17.6463C80.4518 18.5668 79.2838 20.0142 78.4049 21.9594C77.9655 22.9321 77.5839 24.0089 77.341 25.1784C77.2427 25.6473 77.1733 26.1336 77.1213 26.6257C76.653 26.4405 75.9186 26.1568 74.9646 25.8094C73.2589 25.1841 70.842 24.391 68.1649 23.3952C67.4884 23.1463 66.8408 22.88 66.1354 22.5731C65.4242 22.2721 64.6263 21.9536 63.7185 21.8321C62.8165 21.7105 61.955 21.7857 61.1628 21.8321C60.3649 21.89 59.5612 21.9421 58.7575 22C57.1501 22.1157 55.5542 22.2315 54.0046 22.3473C53.6114 22.3763 53.172 22.4168 52.7037 22.5326C52.2411 22.6368 51.7265 22.88 51.3507 23.1463C50.8071 23.5457 50.4255 23.9105 50.0555 24.2636C50.0323 24.252 50.0092 24.2347 49.9803 24.2347C49.9803 24.2347 47.1587 24.0668 43.4292 23.8468C41.5616 23.7715 39.4165 23.7021 37.254 24.0147C36.1727 24.1652 35.0973 24.4199 34.0854 24.802C33.5824 24.9815 33.0562 25.2131 32.559 25.5373C32.0675 25.8615 31.576 26.3189 31.2696 26.9326C30.9573 27.5347 30.8764 28.322 31.0556 28.982C31.2175 29.6536 31.5702 30.2267 32.0212 30.7015C32.981 31.6973 34.2589 32.0215 35.3633 32.1604C36.485 32.2878 37.4911 32.3109 38.526 32.363C39.5495 32.4036 40.544 32.4267 41.4807 32.4325C43.8571 32.4499 45.8577 32.3746 47.0141 32.3167C47.3668 32.502 47.7311 32.6699 48.1011 32.803C48.6909 33.0172 49.2922 33.1562 49.8878 33.243C49.7432 33.3125 49.5987 33.3936 49.4541 33.492C48.8181 33.9262 48.0954 34.6962 47.9045 35.8309C47.7137 36.9367 48.0433 38.2162 48.9569 39.183C49.4021 39.6577 50.067 40.0514 50.7204 40.2135C51.1483 40.3235 51.5588 40.3814 51.9578 40.4161C51.952 40.4277 51.9462 40.4335 51.9346 40.4451C51.6802 40.7751 51.3622 41.3077 51.1945 42.043C51.0269 42.7724 51.0095 43.7161 51.42 44.6945C51.6224 45.1808 51.9578 45.6672 52.403 46.055C52.6285 46.2519 52.906 46.4371 53.2298 46.5645C53.5421 46.6919 53.8485 46.7498 54.1203 46.8019C54.6291 46.8887 55.1553 46.9813 55.6988 47.0624C55.5716 47.3982 55.4964 47.8382 55.5947 48.3592C55.7277 49.0366 56.1613 49.6792 56.6412 50.2292C56.8841 50.5013 57.1096 50.785 57.4392 51.0976C57.7514 51.3987 58.2197 51.7345 58.7517 51.8792C59.2721 52.0297 59.752 52.0471 60.1741 52.0876C60.6135 52.1224 61.0761 52.1571 61.5618 52.1571C62.0475 52.1571 62.5563 52.1339 63.0825 52.0355C63.6028 51.9429 64.1521 51.7576 64.6147 51.5318C64.9905 51.3466 65.3317 51.1555 65.6555 50.9645C65.7422 51.0166 65.9561 51.1382 66.2857 51.3176C66.7194 51.5376 67.3496 51.8676 68.2112 52.0413C69.0669 52.215 70.0788 52.1455 70.9808 51.8676C71.8885 51.6013 72.6922 51.1729 73.3398 50.7503C74.6408 49.8934 75.9938 48.5677 77.0288 47.4735C77.3526 47.1261 77.6475 46.8077 77.8961 46.5298C78.058 46.9814 78.2315 47.4213 78.4165 47.8382C79.2954 49.7834 80.4633 51.2308 81.3653 52.1513C81.8163 52.6087 82.2037 52.9503 82.4755 53.176C82.6027 53.2745 82.6952 53.3497 82.7704 53.4076C82.7935 53.425 82.8166 53.4424 82.834 53.4539C82.8745 53.4887 82.9034 53.5118 82.9034 53.5118C83.285 53.7897 83.8863 53.0197 83.5625 52.7129L83.5452 52.7013ZM41.5327 30.9157C40.6076 30.8462 39.6304 30.7652 38.6301 30.6725C37.6414 30.5683 36.5659 30.4815 35.6292 30.3309C34.6983 30.1804 33.8715 29.8562 33.4436 29.3525C33.2123 29.0978 33.0446 28.791 32.9868 28.5189C32.929 28.241 32.9579 28.0383 33.0562 27.8299C33.2412 27.4131 33.912 26.9557 34.7793 26.6315C35.6408 26.2841 36.5775 26.0236 37.5489 25.8384C39.4916 25.4678 41.5501 25.3984 43.4003 25.3578C45.7999 25.3231 47.8178 25.2941 48.9511 25.2826C48.4134 25.792 47.8641 26.3073 47.3032 26.8341C46.91 27.2104 46.5111 27.5868 46.1121 27.9689C45.9271 28.1483 45.6785 28.3741 45.4472 28.681C45.3894 28.7562 45.3315 28.8373 45.2737 28.9299C45.2159 29.0225 45.1465 29.1615 45.0945 29.2773C44.9904 29.5262 44.9383 29.7925 44.9441 30.0588C44.9441 30.4467 45.1118 30.8231 45.3489 31.1299C44.285 31.0836 42.9782 31.0141 41.5269 30.9099L41.5327 30.9157ZM50.015 38.1062C49.4137 37.5504 49.1361 36.7051 49.2171 36.0277C49.2807 35.3446 49.7086 34.7888 50.1364 34.453C50.5759 34.1114 51.0153 33.9725 51.3102 33.9204C51.5472 33.8799 51.6976 33.8799 51.7496 33.8799C51.7727 33.9146 51.8017 33.9551 51.8421 33.9841C51.8421 33.9841 52.0445 34.0767 52.4261 34.2041C52.8077 34.3314 53.3802 34.4762 54.0971 34.5341C54.8141 34.5978 55.6699 34.5804 56.6066 34.4472C57.5432 34.3257 58.5551 34.0709 59.5727 33.8451C60.5904 33.6193 61.6427 33.4399 62.6257 33.5672C63.5971 33.683 64.4933 34.1635 65.1351 34.8988C65.297 35.0783 65.4415 35.2751 65.563 35.4778C65.6266 35.5762 65.6786 35.6862 65.7306 35.7904C65.7653 35.8656 65.7538 35.8483 65.7596 35.8541V35.8656C65.7596 35.8656 65.748 35.8888 65.7364 35.8946C65.7364 35.8946 65.7249 35.8946 65.7191 35.8946L65.3779 36.0335C64.3198 36.4793 63.2964 36.9077 62.3366 37.3072C61.3768 37.7183 60.3938 38.164 59.3935 38.4477C58.4106 38.7372 57.3409 38.7951 56.1613 38.8009C54.9818 38.7893 53.8022 38.7719 52.6516 38.7604C52.0676 38.7546 51.5357 38.7372 51.0962 38.6446C50.651 38.5519 50.3272 38.3783 50.0208 38.1004L50.015 38.1062ZM53.2992 44.9493C53.0043 44.7235 52.7788 44.4398 52.6227 44.1272C52.3105 43.4961 52.2584 42.8072 52.3452 42.2688C52.4319 41.7245 52.6285 41.3193 52.7962 41.0761C52.9639 40.8272 53.0795 40.7114 53.0795 40.7114C53.1257 40.6593 53.1315 40.584 53.12 40.4972C53.1315 40.4972 53.1489 40.4972 53.1604 40.4972C53.2009 40.5956 53.2761 40.6767 53.3744 40.7172C53.3744 40.7172 54.1492 40.8446 55.4675 40.9719C56.1266 41.0298 56.9303 41.0819 57.8497 41.0472C58.7633 41.0067 59.8098 40.8967 60.8795 40.5146C61.4172 40.3409 61.955 40.0746 62.4753 39.7677C62.9668 39.4609 63.3773 39.1946 63.6954 39.1483C64.0018 39.0904 64.3834 39.1714 64.8286 39.374C65.2623 39.5709 65.7653 39.8777 66.2742 40.1614C66.7656 40.4393 67.2571 40.7172 67.7486 40.9951C67.951 41.1167 68.0955 41.2382 68.1475 41.3135C68.1938 41.3772 68.188 41.4061 68.188 41.4293C68.188 41.4467 68.1707 41.5161 68.0782 41.6377C67.9914 41.7535 67.8469 41.8809 67.685 42.0024C67.5231 42.124 67.3381 42.2398 67.1472 42.3382C66.9217 42.4482 66.702 42.5582 66.4823 42.6624C66.2742 42.7666 66.0544 42.8766 65.8405 42.9809C65.4068 43.0561 65.0137 43.2009 64.6783 43.3687C64.2331 43.5887 63.8573 43.8377 63.5161 44.0635C63.3773 44.1561 63.2386 44.2487 63.1114 44.3298C62.4464 44.654 61.7815 44.9493 61.1166 45.1577C60.6829 45.2214 60.2319 45.2445 59.8098 45.2619C59.2027 45.2793 58.6303 45.3082 58.1446 45.3777C57.8092 45.424 57.5201 45.4935 57.2888 45.5629C56.2828 45.5166 55.2825 45.4008 54.3342 45.2966C53.8312 45.2387 53.5941 45.175 53.2992 44.9493V44.9493ZM63.7705 49.8761C63.4178 50.0729 63.0825 50.2003 62.7066 50.2929C62.3308 50.3855 61.926 50.4319 61.5097 50.455C61.0934 50.4782 60.6656 50.4782 60.2319 50.4724C59.7867 50.4724 59.4109 50.4724 59.1275 50.4029C58.6129 50.3276 58.1157 49.8066 57.6126 49.3087C57.1385 48.8455 56.8378 48.4229 56.7338 48.0813C56.6355 47.7398 56.6991 47.4271 56.7684 47.2766C56.78 47.2477 56.7974 47.2245 56.8089 47.2013C57.0055 47.2245 57.2021 47.2477 57.4103 47.265C58.5782 47.3635 59.8387 47.3635 61.0877 47.0971C62.3539 46.8308 63.4699 46.3156 64.4759 45.8466C65.245 45.4761 65.9851 45.1229 66.7078 44.7814C67.0836 44.9029 67.4248 45.1808 67.7486 45.6093C67.9625 45.8929 68.1533 46.2171 68.3326 46.5645C68.4193 46.7382 68.506 46.9177 68.5928 47.0971C68.6332 47.1898 68.6275 47.184 68.6217 47.184H68.6101C68.6101 47.184 68.5639 47.2303 68.5292 47.2535C68.4656 47.3113 68.3904 47.3635 68.3094 47.4213C67.818 47.7687 67.0374 48.0234 66.1412 48.4519C65.2218 48.9034 64.4817 49.494 63.7763 49.8761H63.7705ZM75.9996 46.3387C74.8258 47.2361 73.3572 48.3303 72.2239 49.0655C71.663 49.4419 71.0212 49.8355 70.3563 50.1192C69.6914 50.4087 69.0033 50.5534 68.3846 50.5361C67.8353 50.5187 67.3207 50.3913 66.9044 50.2755C66.9275 50.264 66.9564 50.2466 66.9796 50.235C67.6908 49.905 68.587 49.6619 69.4369 49.0945C69.5757 49.0019 69.7087 48.8977 69.8417 48.7819C69.9111 48.724 69.9573 48.6777 70.0441 48.5966C70.1366 48.5098 70.206 48.4171 70.2811 48.3245C70.6049 47.9771 70.6974 47.5892 70.7032 47.3403C70.709 47.1435 70.6743 46.9466 70.5991 46.7556L70.3736 46.2577C70.2753 46.055 70.1713 45.8524 70.0556 45.6498C69.8301 45.2387 69.5642 44.8277 69.2404 44.4282C69.0611 44.2082 68.853 43.994 68.6217 43.7972C68.7142 43.7335 68.8125 43.6698 68.905 43.6003C69.1652 43.3977 69.4312 43.1603 69.674 42.8361C69.9111 42.5235 70.1424 42.0661 70.1597 41.5219C70.1886 40.9835 69.9689 40.4509 69.6567 40.0861C69.3444 39.7214 69.0149 39.5188 68.7258 39.3509C68.1649 39.0498 67.6908 38.8125 67.1646 38.5404C66.7772 38.3493 66.4014 38.1409 65.9677 37.9383C66.0313 37.9093 66.0891 37.8862 66.1527 37.8572L66.6037 37.6546C66.8581 37.533 67.1068 37.3825 67.2976 37.1856C67.6908 36.8035 67.8584 36.2188 67.7197 35.6804C67.6908 35.5472 67.6445 35.4083 67.5867 35.2751C67.5346 35.1478 67.4537 34.9972 67.4248 34.9393C67.3381 34.783 67.2513 34.6267 67.153 34.4762C66.9564 34.1751 66.7367 33.8972 66.4939 33.6425C65.5341 32.6178 64.1464 31.9751 62.7991 31.8825C61.4519 31.7841 60.255 32.0851 59.2085 32.3688C58.1561 32.6699 57.2368 32.9593 56.3926 33.1215C55.5484 33.2951 54.791 33.3588 54.1723 33.3472C53.5536 33.3357 53.0679 33.2488 52.7441 33.1678C54.4036 32.8436 55.7682 32.0736 56.6644 31.3036C57.231 30.8288 57.6531 30.3599 57.9422 29.972C58.0347 29.8273 58.0868 29.7173 58.1157 29.642C58.2487 29.7231 58.3585 29.8099 58.6592 29.9778C59.0061 30.1746 59.3415 30.3483 59.6653 30.4988C60.3186 30.7941 60.92 31.0083 61.4635 31.153C62.5505 31.4541 63.3947 31.5294 64.0134 31.5699C64.6321 31.6046 65.0368 31.5815 65.2854 31.5699C65.5341 31.5583 65.6208 31.5467 65.6208 31.5467C66.2395 31.4252 66.1123 30.5625 65.5456 30.5104C65.5456 30.5104 65.4647 30.5162 65.2392 30.522C65.0137 30.522 64.6494 30.5336 64.0828 30.4873C63.5219 30.4352 62.7529 30.3483 61.7757 30.0531C61.2842 29.9083 60.7465 29.7115 60.1625 29.4278C59.8734 29.2889 59.5727 29.1267 59.2605 28.9415C58.9078 28.7273 58.3585 28.3394 57.8092 27.9457C57.6589 28.1252 57.364 28.5536 56.9014 29.1152C56.6297 29.4162 56.2481 29.7867 55.7508 30.1515C54.7679 30.8867 53.2356 31.5988 51.4489 31.5988C50.5585 31.5988 49.6218 31.4309 48.7314 31.0836C48.2862 30.9099 47.8583 30.6841 47.4535 30.4236C47.2627 30.2962 47.0257 30.1341 46.9216 30.0299C46.8927 29.9952 46.9043 29.9952 46.8985 29.9778C46.8985 29.972 46.8985 29.9662 46.9042 29.9604L46.9852 29.8562C47.0893 29.7231 47.2512 29.5725 47.4651 29.3757C47.8699 29.0052 48.2688 28.6346 48.6678 28.2699C49.4599 27.5347 50.2289 26.8226 50.969 26.1394C51.4663 25.682 52.0387 25.0973 52.4897 24.7731C52.721 24.6052 52.9003 24.5242 53.1778 24.4431C53.4495 24.3678 53.7849 24.3273 54.1607 24.2926C55.7045 24.142 57.3004 23.9857 58.902 23.8352C59.7 23.7542 60.5037 23.6731 61.3016 23.5921C62.0995 23.511 62.8396 23.4357 63.5046 23.4994C64.1579 23.5631 64.8344 23.7889 65.5283 24.0494C66.2279 24.3215 66.968 24.5878 67.6561 24.8136C70.4315 25.711 72.8599 26.3883 74.5888 26.921C75.8146 27.2915 76.6645 27.581 77.0635 27.7199C77.0635 27.7894 77.0635 27.8589 77.0635 27.9283C77.0635 28.2468 77.0924 28.571 77.1271 28.8952C77.2659 30.1862 77.6995 31.4773 78.3934 32.612C78.7518 33.1678 79.1508 33.712 79.6365 34.1636C79.8736 34.3951 80.128 34.6093 80.3997 34.8062L80.4923 34.8699V34.8757H80.4807C80.4807 34.8757 80.4865 34.8757 80.4923 34.8757V34.8814L80.3997 34.9451C80.128 35.1362 79.8736 35.3562 79.6365 35.5878C79.145 36.0393 78.7518 36.5777 78.3934 37.1393C77.6995 38.274 77.2659 39.5651 77.1271 40.8561C77.0866 41.1803 77.0577 41.4988 77.0635 41.823C77.0519 42.1414 77.0635 42.4598 77.0808 42.7782C77.1329 43.4035 77.2196 44.0056 77.341 44.5903C77.3815 44.7872 77.4335 44.9782 77.4798 45.1693C77.1097 45.4587 76.5951 45.8582 75.9996 46.3214V46.3387Z" fill="white"/>
</svg>
