<svg width="70" height="84" viewBox="0 0 70 84" fill="currentColor" xmlns="http://www.w3.org/2000/svg">
<path d="M37.2352 59.0305C37.2005 59.0652 37.1715 59.0999 37.1368 59.1288C37.0731 59.1578 37.0036 59.1867 36.9399 59.2156C37.0384 59.152 37.1368 59.0941 37.2352 59.0305Z" fill="currentColor"/>
<path d="M43.8177 58.5219C45.9366 58.4004 48.0671 58.2732 50.1803 58.1807C52.2297 58.0824 54.3487 57.7528 55.4197 56.4056C55.6918 56.0702 55.8771 55.6944 56.0623 55.2607C56.2592 54.7692 56.456 54.2777 56.6297 53.8093C56.7976 53.341 56.9192 52.9015 57.0349 52.3985L57.3649 50.8662C57.3765 50.8026 57.3997 50.739 57.4228 50.6812C57.6428 50.1723 58.2334 49.9411 58.7428 50.155L58.7718 50.1666C59.9297 50.6638 61.3539 50.6291 62.6333 50.2013C63.907 49.7676 65.0938 48.9812 65.8233 47.9346C66.5122 46.9748 66.6512 45.6275 66.2807 44.4248C65.9101 43.2279 65.0649 42.2276 63.9938 41.9789C63.5654 41.8806 63.2181 41.5337 63.1312 41.0769C63.0212 40.4582 63.4265 39.8684 64.0459 39.7586C64.978 39.5909 65.8928 39.1052 66.5759 38.4229C67.2649 37.7406 67.7164 36.8675 67.8033 35.9712C67.8901 35.1212 67.5486 34.173 66.9291 33.4675C66.3154 32.7563 65.4412 32.3227 64.5959 32.3805L64.538 32.3805C64.2196 32.4036 63.8954 32.2648 63.6928 31.9873C63.386 31.5594 63.4844 30.9581 63.9186 30.6516C65.1517 29.7727 65.7828 28.1016 65.667 26.4132C65.6149 25.5748 65.4296 24.7306 65.0765 23.95C64.8912 23.5742 64.6828 23.1752 64.4338 22.8687L64.2486 22.6375C64.1791 22.5623 64.1038 22.4987 64.0286 22.4293C63.8896 22.2847 63.716 22.1691 63.5423 22.0419C62.8417 21.562 61.9675 21.1977 61.1049 20.7871C60.2365 20.3824 59.3623 19.9314 58.5691 19.3647C58.0249 18.9831 57.5271 18.561 57.0581 18.1042C58.326 20.6079 59.5997 23.1636 60.5897 25.9102C61.6202 28.8302 62.1296 32.0393 61.9212 35.1675C61.7186 38.3072 60.8618 41.4007 59.4086 44.2051C57.9092 46.969 55.7844 49.4611 53.185 51.2016C50.626 52.9883 47.8471 54.2025 45.155 55.5035C42.9666 56.5212 40.7724 57.5389 38.5609 58.5161C38.5782 58.4987 38.5956 58.4756 38.6188 58.4582C38.8851 58.2443 39.1225 58.0188 39.3656 57.8453C39.8635 57.5389 40.263 57.2613 40.5756 57.1515C40.8766 57.0185 41.0445 56.9433 41.0445 56.9433C41.4093 56.7698 41.4035 56.8045 41.033 56.9028C41.033 56.9028 40.8593 56.9549 40.5409 57.0474C40.4714 57.059 40.3961 57.0879 40.3151 57.111C41.7509 56.2321 43.1924 55.3648 44.634 54.5032C47.2161 52.9651 49.8445 51.5312 52.1255 49.756C56.6934 46.2636 59.3102 40.6953 59.6228 35.0229C59.8428 32.1781 59.4202 29.3506 58.5228 26.604C57.6602 23.8344 56.3576 21.163 55.1939 18.3875C53.9955 15.6294 52.9129 12.721 52.4439 9.6853C52.2239 8.16458 52.1255 6.62073 52.276 5.10001C52.4034 3.84527 52.6929 2.61365 53.156 1.46299C53.2255 1.38204 53.2892 1.31266 53.3413 1.24327C53.0287 2.52693 52.8897 3.82792 52.9187 5.12313C52.9592 6.59182 53.1908 8.04315 53.5613 9.45979C54.2155 12.0849 55.3271 14.5539 56.5371 17.0171C57.2897 17.6937 58.0944 18.295 58.9744 18.7749C59.7791 19.2317 60.6302 19.5787 61.5102 19.8967C62.3902 20.2205 63.3165 20.4865 64.2254 21.0127C64.4512 21.1514 64.677 21.2786 64.8854 21.4637C64.9896 21.5504 65.0996 21.6313 65.198 21.7239L65.4817 22.0245C65.8522 22.4293 66.1186 22.863 66.3849 23.314C66.8828 24.2276 67.2012 25.2394 67.3112 26.286C67.4212 27.3268 67.3517 28.4139 66.9928 29.4547C66.848 29.8883 66.6338 30.3104 66.3907 30.7152C66.4891 30.7499 66.5875 30.7788 66.6801 30.8193C67.3691 31.12 67.9712 31.5594 68.4691 32.0914C69.4533 33.1495 70.0785 34.5893 69.9859 36.1389C69.9048 37.6365 69.1696 39.0069 68.1796 40.0072C67.7801 40.412 67.3343 40.7589 66.8538 41.0596C66.9349 41.1405 67.0275 41.2099 67.1028 41.2909C67.7743 42.0079 68.2317 42.8752 68.498 43.7772C68.7643 44.6792 68.8454 45.6333 68.718 46.5758C68.5964 47.5125 68.2375 48.4666 67.6701 49.2472C66.5701 50.7563 64.9954 51.7798 63.2933 52.2886C61.9618 52.6818 60.4912 52.7801 59.0844 52.4216L58.9686 52.89C58.8355 53.4219 58.6444 53.9944 58.4244 54.5148C58.2044 55.0294 57.9786 55.5093 57.7586 55.995C57.5039 56.527 57.1855 57.0936 56.7571 57.5562C55.8944 58.5045 54.696 59.0712 53.5671 59.2909C52.4266 59.528 51.315 59.5395 50.2324 59.5222C48.1019 59.4759 45.9829 59.3892 43.8582 59.314C41.9419 59.2331 40.0256 59.1405 38.1093 59.0249C38.1382 58.996 38.1614 58.9671 38.1904 58.9382C40.0777 58.7878 41.9651 58.6548 43.8524 58.5392L43.8177 58.5219Z" fill="currentColor"/>
<path d="M17.6899 5.0942C17.8404 6.6207 17.742 8.16456 17.522 9.6795C17.0473 12.7152 15.9704 15.6294 14.772 18.3817C13.6084 21.163 12.3057 23.8343 11.4431 26.5982C10.5458 29.3448 10.1231 32.1723 10.3431 35.0171C10.6558 40.6895 13.2726 46.2578 17.8404 49.7502C20.1215 51.5254 22.7499 52.9651 25.332 54.4974C26.7735 55.3647 28.2151 56.2263 29.6509 57.1052C29.5698 57.0763 29.4946 57.0531 29.4251 57.0416C29.1067 56.9491 28.933 56.897 28.933 56.897C28.5451 56.7929 28.5682 56.7698 28.9214 56.9375C28.9214 56.9375 29.0835 57.0127 29.3903 57.1457C29.703 57.2555 30.0967 57.5331 30.6003 57.8395C30.8435 58.0072 31.0809 58.2327 31.3472 58.4524C31.3645 58.4698 31.3819 58.4929 31.4051 58.5103C29.1935 57.5331 26.9993 56.5154 24.8109 55.4977C22.1188 54.2025 19.3399 52.9825 16.781 51.1958C14.1873 49.4553 12.0568 46.9632 10.5573 44.1993C9.10419 41.4007 8.24735 38.3014 8.04472 35.1617C7.8363 32.0277 8.34577 28.8186 9.37629 25.9044C10.3663 23.1578 11.64 20.6021 12.9078 18.0984C12.4389 18.5552 11.9352 18.9773 11.3968 19.3589C10.6036 19.9256 9.72944 20.3766 8.86103 20.7813C7.99841 21.1919 7.1242 21.5562 6.42368 22.0361C6.25579 22.1575 6.07631 22.2789 5.93737 22.4235C5.86789 22.4929 5.78684 22.5565 5.71737 22.6316L5.53211 22.8629C5.28316 23.1694 5.07474 23.5684 4.88948 23.9442C4.53633 24.719 4.35106 25.569 4.29896 26.4074C4.18317 28.09 4.82001 29.7669 6.04737 30.6458C6.30789 30.8308 6.46999 31.1488 6.44683 31.49C6.4121 32.0162 5.95474 32.4151 5.4279 32.3805L5.37 32.3805C4.52475 32.3168 3.65054 32.7505 3.03686 33.4617C2.41739 34.1614 2.07582 35.1154 2.16266 35.9654C2.2495 36.8617 2.70107 37.7348 3.39002 38.4171C4.07896 39.0994 4.9879 39.5851 5.92 39.7528C6.35421 39.8337 6.71894 40.1575 6.82315 40.6143C6.96788 41.2272 6.58578 41.8344 5.9721 41.9789C4.89527 42.2276 4.05001 43.2279 3.68528 44.4248C3.31475 45.6275 3.4537 46.9748 4.14265 47.9346C4.86632 48.9812 6.05316 49.7676 7.33262 50.2012C8.61209 50.6291 10.0305 50.6696 11.1942 50.1665L11.2231 50.155C11.281 50.1318 11.3389 50.1087 11.4026 50.0971C11.9468 49.9815 12.4794 50.3284 12.5952 50.8662L12.9252 52.3985C13.041 52.9015 13.1626 53.3352 13.3305 53.8093C13.4984 54.2777 13.701 54.7692 13.8978 55.2607C14.0831 55.6943 14.2684 56.0702 14.5405 56.4055C15.6057 57.7528 17.7304 58.0824 19.7799 58.1807C21.893 58.2732 24.0235 58.4004 26.1425 58.5218C28.0298 58.6375 29.9172 58.7705 31.8045 58.9208C31.8277 58.9497 31.8566 58.9786 31.8856 59.0075C29.9693 59.1232 28.053 59.2157 26.1367 59.2966C24.012 59.3718 21.893 59.4585 19.7625 59.5048C18.6799 59.5222 17.5683 59.5048 16.4278 59.2735C15.2989 59.0538 14.1005 58.4929 13.2378 57.5389C12.8094 57.0705 12.4852 56.5038 12.2363 55.9777C12.0163 55.4977 11.7905 55.012 11.5705 54.4974C11.3505 53.9828 11.1594 53.4046 11.0263 52.8726L10.9105 52.4042C9.50366 52.7627 8.03314 52.6702 6.70157 52.2713C4.99369 51.7624 3.42476 50.7448 2.32476 49.2298C1.7574 48.4492 1.39845 47.4952 1.27687 46.5584C1.14951 45.6159 1.23635 44.6619 1.49688 43.7598C1.76319 42.8578 2.21476 41.9963 2.89213 41.2735C2.96739 41.1925 3.06002 41.1174 3.14107 41.0422C2.66055 40.7415 2.21476 40.3888 1.81529 39.9898C0.81951 38.9895 0.0900443 37.6191 0.00899152 36.1215C-0.0836388 34.5719 0.541617 33.1321 1.52582 32.074C2.02371 31.542 2.62581 31.1026 3.31476 30.8019C3.40739 30.7614 3.50581 30.7325 3.60423 30.6978C3.35528 30.2931 3.14686 29.8768 3.00213 29.4373C2.64318 28.4023 2.57371 27.3152 2.68371 26.2687C2.79371 25.2221 3.11792 24.216 3.61002 23.2966C3.87633 22.8398 4.14265 22.4119 4.51317 22.0072L4.79685 21.7065C4.89527 21.614 5.00527 21.533 5.10948 21.4463C5.3179 21.267 5.54368 21.1341 5.76947 20.9953C6.67841 20.4691 7.60472 20.2031 8.48472 19.8793C9.36471 19.5671 10.2158 19.2144 11.0205 18.7576C11.8947 18.2776 12.7052 17.6821 13.4578 16.9998C14.6678 14.5423 15.7736 12.0733 16.4336 9.44242C16.8041 8.02578 17.0299 6.57445 17.0762 5.10577C17.111 3.67756 16.9431 2.23779 16.5552 0.832714C16.5668 0.850059 16.5841 0.867405 16.6015 0.896316C17.2036 2.2031 17.5683 3.63131 17.7131 5.08264L17.6899 5.0942Z" fill="currentColor"/>
<path d="M32.8062 59.1288C32.7714 59.0941 32.7425 59.0595 32.7078 59.0305C32.8062 59.0941 32.9046 59.152 33.003 59.2156C32.9393 59.1867 32.8699 59.1578 32.8062 59.1288Z" fill="currentColor"/>
<path d="M31.3878 58.5102C31.3878 58.5102 31.3531 58.4697 31.3299 58.4524C31.0636 58.2384 30.8262 58.0129 30.5831 57.8395C30.0852 57.533 29.6857 57.2555 29.3731 57.1456C29.072 57.0126 28.9041 56.9375 28.9041 56.9375C28.5568 56.7698 28.5278 56.7987 28.9157 56.897C28.9157 56.897 29.0894 56.949 29.4078 57.0415C29.4773 57.0531 29.5526 57.082 29.6336 57.1051C29.9289 57.2034 30.2878 57.3827 30.7336 57.5793C31.0057 57.718 31.2836 57.9146 31.5962 58.1055C31.9089 58.2963 32.1925 58.5796 32.5225 58.8456C32.5804 58.9034 32.6383 58.967 32.6962 59.0248C32.731 59.0595 32.7599 59.0942 32.7946 59.1231C33.0031 59.3428 33.2173 59.5684 33.4199 59.8228C33.6862 60.2044 33.9931 60.5918 34.2131 61.0486C34.5257 61.5979 34.7688 62.2108 34.9657 62.8584C35.1567 62.2108 35.4057 61.5979 35.7183 61.0486C35.9383 60.5918 36.2451 60.2044 36.5115 59.8228C36.7141 59.5684 36.9225 59.3428 37.1367 59.1231C37.1715 59.0884 37.2004 59.0537 37.2351 59.0248C37.293 58.967 37.3509 58.8976 37.4088 58.8456C37.7388 58.5796 38.0167 58.3021 38.3351 58.1055C38.6478 57.9146 38.9257 57.718 39.1978 57.5793C39.6435 57.3827 40.0025 57.2092 40.2977 57.1051C40.3788 57.0762 40.4541 57.0531 40.5235 57.0415C40.842 56.949 41.0156 56.897 41.0156 56.897C41.3919 56.7987 41.3919 56.764 41.0272 56.9375C41.0272 56.9375 40.8651 57.0126 40.5583 57.1456C40.2456 57.2555 39.852 57.533 39.3483 57.8395C39.1051 58.0072 38.8678 58.2327 38.6014 58.4524C38.5841 58.4697 38.5667 58.4929 38.5435 58.5102C38.4046 58.6316 38.2772 58.7704 38.1441 58.9207C38.1209 58.9497 38.092 58.9786 38.063 59.0075C37.9878 59.0942 37.9183 59.1752 37.8372 59.2561C37.5999 59.5684 37.3625 59.9037 37.1483 60.268C36.9572 60.6496 36.7315 61.0255 36.5925 61.4591C36.2567 62.2976 36.0657 63.2458 36.0194 64.2173C35.973 64.703 36.0194 65.1944 36.0425 65.6802C36.1178 66.1659 36.1757 66.6516 36.3088 67.1199C36.5578 68.0566 36.9515 68.9298 37.4667 69.6468C37.9762 70.3117 38.6709 70.8899 39.3714 71.3178C40.0662 71.7515 40.8825 72.1158 41.7277 72.2603C42.573 72.4106 43.4356 72.3528 44.1304 71.9192C44.7961 71.5202 45.5082 70.6644 45.9251 69.8838C46.3535 69.0859 46.5156 68.1954 46.2435 67.4379C45.9888 66.6747 45.3519 66.0907 44.6688 65.8247C43.9856 65.5472 43.2735 65.605 42.7583 65.8247C42.2314 66.0502 41.913 66.4145 41.7162 66.6689C41.6293 66.8077 41.5598 66.9118 41.5135 66.9869C41.473 67.0621 41.4556 67.1026 41.4556 67.1026C41.2762 67.4495 41.3051 67.4669 41.4151 67.0852C41.4151 67.0852 41.4325 67.0448 41.4556 66.958C41.4904 66.8771 41.5483 66.7614 41.6177 66.6053C41.7798 66.3162 42.0635 65.8825 42.6135 65.5472C43.1577 65.2234 43.974 65.0268 44.8424 65.2465C45.6993 65.4431 46.6256 66.0386 47.1351 67.0505C47.3898 67.5478 47.5172 68.1318 47.5114 68.7216C47.5114 69.3114 47.3724 69.8896 47.164 70.4389C46.9614 70.994 46.6603 71.4971 46.3419 71.977C46.1682 72.2083 46.0293 72.4453 45.7919 72.6766L45.4619 73.0293C45.3403 73.1392 45.2072 73.2317 45.074 73.33C44.553 73.7348 43.9219 73.9776 43.2909 74.1164C42.9783 74.1627 42.654 74.2263 42.3472 74.2147C42.1909 74.2147 42.0346 74.2147 41.8841 74.2147L41.4325 74.1684C40.2399 74.0181 39.1862 73.5729 38.3004 73.0293C37.5999 72.5899 36.9225 72.0348 36.3262 71.3294C36.5173 72.1331 36.7488 72.9195 36.992 73.4861C37.0383 73.6076 37.0962 73.7001 37.1425 73.8157C37.2004 73.9025 37.2351 73.995 37.322 74.0991C37.4725 74.3014 37.6693 74.5154 37.9009 74.7293C38.3699 75.1514 38.9546 75.6371 39.412 76.013C39.8809 76.3946 40.3035 76.6837 40.622 76.8572C40.9346 77.0364 41.1372 77.1116 41.1372 77.1116C41.1777 77.1578 41.1604 77.366 41.1083 77.5857C41.1314 77.8748 41.1198 78.216 41.0735 78.2333C41.0735 78.2333 40.4541 78.3605 39.7478 78.7306C39.0357 79.0891 38.3062 79.7078 37.8141 80.2455C37.2988 80.7544 36.6851 81.5176 36.3146 82.2462C35.9325 82.9632 35.7588 83.5819 35.7588 83.5819C35.7183 83.6224 35.4578 83.6166 35.2088 83.5819C34.9657 83.6108 34.7109 83.6166 34.6531 83.5819C34.6531 83.5819 34.4794 82.9574 34.0973 82.2462C33.7267 81.5234 33.1131 80.7602 32.5978 80.2455C32.1057 79.7078 31.3762 79.0891 30.6641 78.7306C29.9636 78.3605 29.3384 78.2333 29.3384 78.2333C29.292 78.2102 29.2805 77.8691 29.3036 77.5799C29.2573 77.3718 29.2399 77.1694 29.2747 77.1116C29.2747 77.1116 29.4773 77.0364 29.7899 76.8572C30.1083 76.6837 30.5252 76.3946 30.9999 76.013C31.4515 75.6371 32.042 75.1514 32.511 74.7293C32.7425 74.5154 32.9394 74.3072 33.0899 74.0991C33.171 73.995 33.2057 73.9025 33.2694 73.8157C33.3157 73.7001 33.3736 73.6076 33.4199 73.4861C33.7846 72.6535 34.1088 71.3525 34.3231 70.225C34.2304 70.3984 34.1378 70.5719 34.0336 70.7396C33.3446 71.7457 32.482 72.4742 31.602 73.0293C30.7162 73.5729 29.6684 74.0181 28.4699 74.1684L28.0184 74.2147C27.862 74.2147 27.7057 74.2147 27.5552 74.2147C27.2484 74.2263 26.9242 74.1627 26.6115 74.1164C25.9863 73.9718 25.3494 73.7348 24.8284 73.33C24.701 73.2317 24.5621 73.1392 24.4405 73.0293L24.1105 72.6766C23.8731 72.4396 23.7342 72.2083 23.5605 71.977C23.2363 71.4971 22.941 70.994 22.7384 70.4389C22.53 69.8896 22.3968 69.3114 22.391 68.7216C22.3852 68.1376 22.5126 67.5536 22.7674 67.0505C23.2768 66.0444 24.2031 65.4431 25.06 65.2465C25.9284 65.0325 26.7505 65.2234 27.2889 65.5472C27.8389 65.8825 28.1226 66.3162 28.2847 66.6053C28.3542 66.7556 28.4063 66.8771 28.4468 66.958C28.4757 67.039 28.4873 67.0852 28.4873 67.0852C28.5973 67.4611 28.632 67.4553 28.4468 67.1026C28.4468 67.1026 28.4294 67.0621 28.3889 66.9869C28.3426 66.9175 28.2731 66.8077 28.1863 66.6689C27.9894 66.4145 27.6652 66.0502 27.1442 65.8247C26.6289 65.605 25.9168 65.5529 25.2337 65.8247C24.5563 66.0907 23.9137 66.6747 23.6589 67.4379C23.3868 68.2012 23.5489 69.0859 23.9773 69.8838C24.3942 70.6644 25.1063 71.5202 25.7721 71.9192C26.4668 72.3586 27.3352 72.4164 28.1747 72.2603C29.0199 72.11 29.8362 71.7515 30.531 71.3178C31.2257 70.8899 31.9204 70.3175 32.4357 69.6468C32.951 68.9298 33.3446 68.0509 33.5936 67.1199C33.7325 66.6516 33.7904 66.1659 33.8599 65.6802C33.8831 65.1944 33.9294 64.703 33.8831 64.2173C33.8367 63.2458 33.6457 62.2976 33.3099 61.4591C33.171 61.0255 32.9452 60.6496 32.7541 60.268C32.5341 59.9037 32.2968 59.5684 32.0652 59.2561C31.9841 59.1752 31.9147 59.0884 31.8394 59.0075C31.8104 58.9786 31.7873 58.9497 31.7583 58.9207C31.631 58.7704 31.4978 58.6374 31.3589 58.5102L31.3878 58.5102ZM35.0178 74.8045C34.8962 74.9895 34.7631 75.1919 34.6183 75.348C34.3346 75.6718 34.0046 75.9436 33.6862 76.1691C33.032 76.6143 32.4531 76.9439 31.851 77.2793C31.7699 77.3197 31.6947 77.3602 31.6136 77.4007C32.5052 77.6667 33.4662 78.2044 34.0625 78.8462C34.5373 79.3262 34.9425 80.0085 35.2262 80.6966C35.5041 80.0085 35.9151 79.3262 36.3899 78.8462C36.9862 78.2044 37.9472 77.6667 38.8388 77.4007C38.7578 77.3602 38.6825 77.3255 38.6014 77.2793C37.9993 76.9497 37.4146 76.6201 36.7662 76.1691C36.442 75.9436 36.1178 75.6718 35.8341 75.348C35.6894 75.1977 35.562 74.9895 35.4346 74.8045C35.3652 74.6657 35.2899 74.5327 35.2262 74.3997C35.1625 74.5327 35.0873 74.6715 35.0178 74.8045Z" fill="currentColor"/>
<path d="M17.2732 0.109836C17.2732 0.109836 17.3947 0.242828 17.6147 0.4799C17.8405 0.716968 18.1821 1.05234 18.6279 1.43975C19.531 2.21456 20.9147 3.19754 22.721 3.89719C23.6242 4.24412 24.6199 4.53901 25.6678 4.7067C26.1947 4.79343 26.7273 4.84547 27.2657 4.86282C27.532 4.86282 27.7983 4.86281 28.0647 4.83968C28.331 4.8339 28.5973 4.79343 28.8578 4.75295C29.9115 4.59683 30.9246 4.20942 31.7873 3.64855C32.2099 3.35944 32.6151 3.0472 32.9393 2.67714C33.1072 2.49789 33.2636 2.30708 33.3909 2.11048L33.5646 1.85028C33.6283 1.71151 33.7151 1.62478 33.7614 1.43975C33.8714 1.10438 33.9757 0.774791 34.0857 0.445205C34.2883 0.445205 34.6878 0.439422 35.0814 0.433639C35.4693 0.433639 35.8746 0.445205 36.0772 0.445205C36.1814 0.774792 36.2914 1.10438 36.4014 1.43975C36.4477 1.62478 36.5346 1.71151 36.5983 1.85028L36.772 2.11048C36.9051 2.30708 37.0614 2.49211 37.2235 2.67714C37.5477 3.0472 37.953 3.35944 38.3756 3.64855C39.2382 4.20942 40.2514 4.60262 41.3051 4.75295C41.5656 4.79343 41.8319 4.8339 42.0982 4.83968C42.3645 4.86281 42.6309 4.8686 42.8972 4.86282C43.4298 4.84547 43.9682 4.79343 44.4951 4.7067C45.5429 4.53901 46.5445 4.24412 47.4419 3.89719C49.2482 3.19754 50.6376 2.21457 51.535 1.43975C51.9866 1.04656 52.3282 0.716969 52.5481 0.4799C52.7681 0.237045 52.8897 0.109837 52.8897 0.109837C53.2197 -0.179272 53.9202 0.335342 53.6887 0.769009C53.6887 0.769009 53.5729 0.919346 53.3529 1.19111C53.3413 1.20267 53.3297 1.22002 53.3181 1.23159C53.2602 1.30098 53.2024 1.37035 53.1329 1.45131C52.9245 1.68838 52.6581 1.97749 52.3282 2.30129C51.4076 3.20332 49.9603 4.37133 48.015 5.25022C47.0424 5.68967 45.9656 6.0713 44.7961 6.31415C44.3272 6.41244 43.8408 6.48183 43.3487 6.53387C43.534 7.00224 43.8177 7.73657 44.1651 8.69064C44.7903 10.3964 45.5835 12.8134 46.5792 15.4905C46.8282 16.167 47.0945 16.8146 47.4013 17.5201C47.7024 18.2313 48.0208 19.0292 48.1424 19.937C48.264 20.8391 48.1887 21.7006 48.1424 22.4928C48.0845 23.2907 48.0324 24.0945 47.9745 24.8982C47.8587 26.5056 47.7429 28.1015 47.6271 29.6512C47.5982 30.0443 47.5577 30.4838 47.4419 30.9522C47.3377 31.4147 47.0945 31.9293 46.8282 32.3052C46.4287 32.8487 46.064 33.2303 45.7108 33.6004C45.7224 33.6235 45.7398 33.6467 45.7398 33.6756C45.7398 33.6756 45.9077 36.4973 46.1277 40.2268C46.2029 42.0945 46.2724 44.2397 45.9598 46.4022C45.8093 47.4835 45.5545 48.559 45.1724 49.5709C44.9929 50.0739 44.7614 50.6001 44.4372 51.0974C44.1129 51.5889 43.6556 52.0804 43.0419 52.3868C42.4398 52.699 41.6524 52.78 40.9924 52.6008C40.3209 52.4388 39.7477 52.0861 39.273 51.6351C38.2772 50.6753 37.953 49.3974 37.814 48.293C37.6867 47.1713 37.6635 46.1652 37.6114 45.1301C37.5709 44.1067 37.5477 43.1121 37.5419 42.1754C37.5246 39.7989 37.5998 37.7983 37.6577 36.6418C37.4725 36.2891 37.3046 35.9249 37.1714 35.5548C36.9572 34.965 36.8183 34.3637 36.7314 33.7681C36.662 33.9126 36.5809 34.0572 36.4825 34.2018C36.0483 34.8378 35.2783 35.5606 34.1436 35.7514C33.0378 35.9422 31.7583 35.6126 30.7915 34.699C30.3167 34.2538 29.9231 33.5888 29.761 32.9354C29.651 32.5076 29.5931 32.097 29.5583 31.6981C29.5467 31.7038 29.541 31.7096 29.5294 31.7212C29.1994 31.9756 28.6667 32.2936 27.9315 32.4613C27.202 32.629 26.2583 32.6463 25.2799 32.2358C24.7936 32.0334 24.3073 31.6981 23.9194 31.2528C23.7226 31.0273 23.5373 30.7498 23.4099 30.426C23.2826 30.1137 23.2247 29.8073 23.1726 29.5355C23.0857 29.0267 22.9931 28.5005 22.9121 27.957C22.5763 28.0842 22.1363 28.1593 21.6152 28.061C20.9379 27.9281 20.2952 27.4944 19.7452 27.0145C19.4731 26.7716 19.1894 26.5461 18.8768 26.2165C18.5758 25.9043 18.24 25.4359 18.0952 24.904C17.9447 24.3836 17.9274 23.9036 17.8868 23.4815C17.8521 23.0421 17.8174 22.5795 17.8174 22.0938C17.8174 21.6081 17.8405 21.0993 17.9389 20.5731C18.0316 20.0527 18.2168 19.5034 18.4426 19.0408C18.6279 18.665 18.8189 18.3238 19.01 18C18.9579 17.9133 18.8363 17.6993 18.6568 17.3697C18.4368 16.9361 18.1068 16.3058 17.9331 15.4443C17.7595 14.5885 17.8289 13.5766 18.1068 12.6746C18.3731 11.7668 18.8016 10.9631 19.2242 10.3154C20.081 9.01444 21.4068 7.66141 22.501 6.62639C22.8484 6.30259 23.1668 6.00769 23.4447 5.75906C22.9931 5.59716 22.5531 5.42369 22.1363 5.23865C20.191 4.35976 18.7437 3.19176 17.8231 2.28973C17.3658 1.83872 17.0242 1.45131 16.7984 1.17955C16.7 1.05234 16.6247 0.959819 16.5668 0.884651C16.5495 0.861522 16.5321 0.838394 16.5205 0.821048C16.4858 0.780571 16.4626 0.751663 16.4626 0.751663C16.1847 0.370037 16.9547 -0.231312 17.2616 0.0924907L17.2732 0.109836ZM39.0588 42.1234C39.1282 43.0485 39.2093 44.0257 39.3019 45.0261C39.4061 46.0148 39.493 47.0903 39.6435 48.027C39.794 48.958 40.1182 49.7848 40.6219 50.2127C40.8767 50.444 41.1835 50.6117 41.4556 50.6695C41.7335 50.7273 41.9361 50.6984 42.1445 50.6001C42.5614 50.4151 43.0187 49.7443 43.343 48.877C43.6903 48.0155 43.9508 47.0787 44.1361 46.1073C44.5066 44.1645 44.5761 42.106 44.6166 40.2557C44.6514 37.8561 44.6803 35.8381 44.6919 34.7048C44.1824 35.2426 43.6672 35.7919 43.1403 36.3527C42.764 36.7459 42.3877 37.1449 42.0056 37.5439C41.8261 37.7289 41.6003 37.9775 41.2935 38.2088C41.2182 38.2666 41.1372 38.3245 41.0445 38.3823C40.9519 38.4401 40.813 38.5095 40.6972 38.5615C40.4482 38.6656 40.1819 38.7177 39.9156 38.7119C39.5277 38.7119 39.1514 38.5442 38.8446 38.3071C38.8909 39.3711 38.9604 40.6778 39.0646 42.1292L39.0588 42.1234ZM31.8683 33.6409C32.4241 34.2422 33.2693 34.5198 33.9467 34.4388C34.6299 34.3752 35.1856 33.9473 35.5214 33.5195C35.863 33.08 36.002 32.6406 36.0541 32.3457C36.0946 32.1086 36.0946 31.9583 36.0946 31.9062C36.0599 31.8831 36.0193 31.8542 35.9904 31.8137C35.9904 31.8137 35.8977 31.6113 35.7704 31.2297C35.643 30.8481 35.4983 30.2756 35.4404 29.5586C35.3767 28.8416 35.3941 27.9859 35.5272 27.0492C35.6488 26.1124 35.9035 25.1006 36.1293 24.0829C36.3551 23.0652 36.5346 22.0129 36.4072 21.0299C36.2914 20.0585 35.8109 19.1622 35.0756 18.5204C34.8962 18.3585 34.6993 18.2139 34.4967 18.0925C34.3983 18.0289 34.2883 17.9769 34.1841 17.9248C34.1088 17.8901 34.1262 17.9017 34.1204 17.8959L34.1088 17.8959C34.1088 17.8959 34.0857 17.9075 34.0799 17.9191C34.0799 17.9191 34.0799 17.9306 34.0799 17.9364L33.9409 18.2775C33.4951 19.3357 33.0667 20.3591 32.6672 21.319C32.2562 22.2788 31.8104 23.2618 31.5267 24.2621C31.2373 25.2451 31.1794 26.3148 31.1736 27.4944C31.1852 28.674 31.2025 29.8535 31.2141 31.0042C31.2199 31.5882 31.2373 32.1202 31.3299 32.5596C31.4225 33.0048 31.5962 33.3286 31.8741 33.6351L31.8683 33.6409ZM25.0252 30.3566C25.251 30.6515 25.5347 30.877 25.8473 31.0331C26.4783 31.3453 27.1673 31.3974 27.7057 31.3106C28.2499 31.2239 28.6552 31.0273 28.8983 30.8596C29.1473 30.692 29.2631 30.5763 29.2631 30.5763C29.3152 30.5301 29.3904 30.5243 29.4773 30.5358C29.4773 30.5243 29.4773 30.5069 29.4773 30.4954C29.3789 30.4549 29.2978 30.3797 29.2573 30.2814C29.2573 30.2814 29.1299 29.5066 29.0025 28.1883C28.9446 27.5291 28.8925 26.7254 28.9273 25.806C28.9678 24.8924 29.0778 23.8458 29.4599 22.7761C29.6336 22.2384 29.8999 21.7006 30.2067 21.1802C30.5136 20.6887 30.7799 20.2782 30.8262 19.9602C30.8841 19.6537 30.803 19.2721 30.6004 18.8269C30.4036 18.3932 30.0967 17.8901 29.8131 17.3813C29.5352 16.8898 29.2573 16.3983 28.9794 15.9068C28.8578 15.7045 28.7362 15.5599 28.661 15.5079C28.5973 15.4616 28.5683 15.4674 28.5452 15.4674C28.5278 15.4674 28.4583 15.4847 28.3368 15.5773C28.221 15.664 28.0936 15.8085 27.972 15.9704C27.8504 16.1323 27.7347 16.3174 27.6362 16.5082C27.5262 16.7337 27.4162 16.9534 27.312 17.1731C27.2078 17.3813 27.0978 17.601 26.9936 17.815C26.9183 18.2486 26.7736 18.6418 26.6057 18.9772C26.3857 19.4224 26.1368 19.7983 25.911 20.1394C25.8184 20.2782 25.7257 20.417 25.6447 20.5442C25.3205 21.2091 25.0252 21.8741 24.8168 22.539C24.7531 22.9727 24.7299 23.4237 24.7126 23.8458C24.6952 24.4529 24.6663 25.0254 24.5968 25.5111C24.5505 25.8465 24.481 26.1356 24.4115 26.3669C24.4578 27.373 24.5736 28.3733 24.6778 29.3216C24.7357 29.8246 24.7994 30.0617 25.0252 30.3566ZM20.0984 19.885C19.9016 20.2377 19.7742 20.5731 19.6816 20.9489C19.5889 21.3248 19.5426 21.7295 19.5194 22.1458C19.4963 22.5622 19.4963 22.99 19.5021 23.4237C19.5021 23.8689 19.5021 24.2448 19.5716 24.5281C19.6468 25.0427 20.1679 25.54 20.6658 26.0431C21.1289 26.5172 21.5515 26.8179 21.8931 26.922C22.2347 27.0203 22.5473 26.9566 22.6978 26.8873C22.7268 26.8757 22.75 26.8583 22.7731 26.8468C22.75 26.6502 22.7268 26.4536 22.7094 26.2454C22.611 25.0774 22.611 23.8169 22.8773 22.5679C23.1436 21.3016 23.6589 20.1857 24.1278 19.1796C24.4984 18.4105 24.8515 17.6704 25.1931 16.9476C25.0715 16.5718 24.7936 16.2306 24.3652 15.9068C24.0815 15.6929 23.7573 15.5021 23.4099 15.3228C23.2363 15.2361 23.0568 15.1494 22.8773 15.0626C22.7847 15.0222 22.7905 15.0279 22.7905 15.0337L22.7905 15.0453C22.7905 15.0453 22.7442 15.0915 22.721 15.1262C22.6631 15.1898 22.611 15.265 22.5531 15.346C22.2057 15.8375 21.951 16.618 21.5226 17.5143C21.071 18.4337 20.4805 19.1738 20.0984 19.8792L20.0984 19.885ZM23.6357 7.65562C22.7384 8.82941 21.6442 10.2981 20.9089 11.4314C20.5326 11.9923 20.1389 12.6341 19.8552 13.2991C19.5658 13.964 19.421 14.6521 19.4384 15.2708C19.4558 15.8201 19.5831 16.3347 19.6989 16.751C19.7105 16.7279 19.7279 16.699 19.7394 16.6759C20.0694 15.9647 20.3126 15.0684 20.88 14.2184C20.9726 14.0797 21.0768 13.9467 21.1926 13.8137C21.2505 13.7443 21.2968 13.698 21.3779 13.6113C21.4647 13.5188 21.5573 13.4494 21.65 13.3742C21.9973 13.0504 22.3852 12.9579 22.6342 12.9521C22.831 12.9463 23.0278 12.981 23.2189 13.0562L23.7168 13.2817C23.9194 13.38 24.122 13.4841 24.3247 13.5997C24.7357 13.8252 25.1468 14.0912 25.5462 14.415C25.7662 14.5943 25.9805 14.8024 26.1773 15.0337C26.241 14.9412 26.3047 14.8429 26.3741 14.7504C26.5768 14.4902 26.8141 14.2242 27.1383 13.9814C27.451 13.7443 27.9083 13.513 28.4525 13.4957C28.991 13.4667 29.5236 13.6865 29.8883 13.9987C30.2531 14.3109 30.4557 14.6405 30.6236 14.9296C30.9246 15.4905 31.162 15.9647 31.4341 16.4908C31.6251 16.8782 31.8336 17.2541 32.0362 17.6878C32.0651 17.6242 32.0883 17.5663 32.1173 17.5027L32.3199 17.0517C32.4415 16.7973 32.592 16.5487 32.7888 16.3578C33.1709 15.9647 33.7557 15.797 34.2941 15.9358C34.4272 15.9647 34.5662 16.0109 34.6993 16.0687C34.8267 16.1208 34.9772 16.2017 35.0351 16.2306C35.1914 16.3174 35.3478 16.4041 35.4983 16.5024C35.7993 16.699 36.0772 16.9187 36.332 17.1616C37.3567 18.1214 37.9993 19.5092 38.0919 20.8564C38.1904 22.2037 37.8893 23.4006 37.6056 24.4472C37.3046 25.4995 37.0151 26.4189 36.853 27.2631C36.6793 28.1073 36.6156 28.8648 36.6272 29.4835C36.6388 30.1022 36.7256 30.5879 36.8067 30.9117C37.1309 29.2522 37.9009 27.8876 38.6709 26.9913C39.1456 26.4247 39.6146 26.0026 40.0025 25.7135C40.1472 25.621 40.2572 25.5689 40.3325 25.54C40.2514 25.407 40.1646 25.2972 39.9967 24.9965C39.7998 24.6495 39.6261 24.3142 39.4756 23.9904C39.1804 23.337 38.9661 22.7356 38.8214 22.1921C38.5204 21.105 38.4451 20.2608 38.4046 19.6421C38.3698 19.0234 38.393 18.6187 38.4046 18.3701C38.4161 18.1214 38.4277 18.0347 38.4277 18.0347C38.5493 17.416 39.4119 17.5432 39.464 18.1099C39.464 18.1099 39.4582 18.1908 39.4525 18.4163C39.4525 18.6418 39.4409 19.0061 39.4872 19.5728C39.5393 20.1336 39.6261 20.9027 39.9214 21.8799C40.0661 22.3714 40.263 22.9091 40.5467 23.4931C40.6856 23.7822 40.8477 24.0829 41.033 24.3951C41.2472 24.7478 41.6351 25.2972 42.0288 25.8465C41.8493 25.9968 41.4209 26.2917 40.8593 26.7543C40.5582 27.026 40.1877 27.4077 39.823 27.9049C39.0877 28.8879 38.3756 30.4202 38.3756 32.2069C38.3756 33.0974 38.5435 34.0341 38.8909 34.9245C39.0646 35.3698 39.2904 35.7976 39.5509 36.2024C39.6782 36.3932 39.8403 36.6303 39.9446 36.7344C39.9793 36.7633 39.9793 36.7517 39.9967 36.7575C40.0025 36.7575 40.0082 36.7575 40.014 36.7517L40.1182 36.6708C40.2514 36.5667 40.4019 36.4048 40.5988 36.1908C40.9693 35.7861 41.3398 35.3871 41.7045 34.9881C42.4398 34.196 43.1519 33.4269 43.8351 32.6868C44.2924 32.1895 44.8772 31.6171 45.2014 31.1661C45.3693 30.9348 45.4503 30.7556 45.5314 30.478C45.6066 30.2062 45.6471 29.8709 45.6819 29.495C45.8324 27.9512 45.9887 26.3553 46.1393 24.7536C46.2203 23.9557 46.3014 23.152 46.3824 22.354C46.4635 21.5561 46.5387 20.8159 46.475 20.151C46.4114 19.4976 46.1856 18.8211 45.925 18.1272C45.6529 17.4276 45.3866 16.6874 45.1608 15.9994C44.2635 13.2239 43.5861 10.7954 43.0535 9.06649C42.683 7.84066 42.3935 6.99067 42.2545 6.5917C42.1851 6.5917 42.1156 6.5917 42.0461 6.5917C41.7277 6.5917 41.4035 6.56279 41.0793 6.5281C39.7882 6.38932 38.4972 5.95565 37.3625 5.26179C36.8067 4.90329 36.2625 4.50431 35.8109 4.01861C35.5793 3.78154 35.3651 3.52713 35.1683 3.25536L35.1046 3.16285L35.0988 3.16285L35.0988 3.17441C35.0988 3.17441 35.0988 3.16863 35.0988 3.16285L35.093 3.16285L35.0293 3.25536C34.8383 3.52713 34.6183 3.78154 34.3867 4.01861C33.9351 4.5101 33.3967 4.90329 32.8351 5.26179C31.7004 5.95565 30.4094 6.38932 29.1183 6.52809C28.7941 6.56857 28.4757 6.59748 28.1515 6.5917C27.8331 6.60326 27.5147 6.59169 27.1962 6.57434C26.571 6.5223 25.9689 6.43557 25.3841 6.31415C25.1873 6.27367 24.9963 6.22164 24.8052 6.17538C24.5157 6.54544 24.1163 7.06006 23.6531 7.65562L23.6357 7.65562Z" fill="currentColor"/>
</svg>
