<?xml version="1.0" encoding="utf-8"?>
<!-- Generator: Adobe Illustrator 27.1.1, SVG Export Plug-In . SVG Version: 6.00 Build 0)  -->
<svg version="1.1" id="Layer_1_Image" xmlns="http://www.w3.org/2000/svg" xmlns:xlink="http://www.w3.org/1999/xlink" x="0px"
	 y="0px" viewBox="0 0 423 584.5" style="enable-background:new 0 0 423 584.5;" xml:space="preserve" fill="#5b4f49">
<style type="text/css">
	.st0{fill:transparent;}
</style>
<path class="st0" d="M398.1,26.9v532.9c-1.1-1.3-2.2-2.6-3.4-3.9c-0.7-0.7-1.5-1.3-2.2-2c-8-7.9-16-15.8-23.9-23.7
	c-0.3-0.3-0.6-0.6-1-0.9c3.4,4,7,7.8,10.5,11.7c5.3,6,11.3,11.3,16.1,17.8c1,1.3,2.1,2.2,3.8,1.8c0,0.1-0.1,0.2-0.1,0.2
	c-0.3,0-0.6,0-0.9,0H24.9c0-178,0-356,0-534c0-0.3,0.1-0.7,0.2-1c0,1.7,1.1,2.7,2.1,3.7c1,1,2.2,1.8,3.2,2.8C37,39,43.5,45.5,50,52
	c1.8,1.8,3.7,3.6,5.6,5.5c-0.1-0.4-0.3-0.7-0.6-0.9c-2.7-3-5.5-6-8.2-8.9c-5-5.3-10-10.7-14.9-16c-1.7-1.8-3.2-3.7-4.8-5.5
	c10.9,0,21.8,0,32.6,0c0.3,0.5,0.6,1.1,1.1,1.6c0.5,0.5,1.1,0.8,1.7,1.2c-0.6-0.2-1.1-0.4-1.7-0.6c-0.1,0.1-0.2,0.3-0.2,0.4
	c0.9,0.9,2,1.7,2.7,2.7c0.7,1.1,1,2.5,1.4,3.7c0-0.4,0.1-1,0.2-1.5c0.1,0.4,0.2,0.8,0.3,1.1c0.4-3.6-0.7-6.6-3.6-8.7
	c49.8,0,99.5,0,149.3,0c-0.7,0.4-1.5,0.7-2.1,1.3c-0.5,0.5-1,0.6-1.7,0.4c-1-0.2-2-0.3-3.1-0.2c-4.8,0.3-8.3,2.8-10.9,6.9
	c-0.2,0.2-0.2,0.5-0.4,0.8c0.2,0.1,0.3,0.3,0.5,0.4c0.2-0.4,0.4-0.9,0.7-1.2c1.6-1.8,3.4-3.5,5.7-4.4c2-0.8,4-1.4,6.2-0.9
	c-1,0.1-2,0-2.9,0.3c-2,0.5-3.8,1.5-4.7,3.6c-0.2,0.4,0,0.9,0.1,1.3c0.5-0.2,1-0.3,1.4-0.6c0.2-0.1,0.3-0.4,0.4-0.7
	c0.9-1.9,2.4-3,4.5-3.3c0.4-0.1,0.8-0.1,1.2-0.3c0.1,0,0.1-0.3,0.1-0.5c0.5,0.1,1.1,0.2,1.5,0.3v2.1c-0.4,0-0.7,0-1,0
	c-2.6,0.1-4.8,2.3-4.8,5.1c-0.1,3.3,2.5,5.9,5.9,6.1c0.5,0,1,0.2,1.3,0.5c1.8,1.6,4.5,1.6,6.3,0c0.3-0.3,0.8-0.4,1.2-0.5
	c0.5-0.1,1-0.1,1.5-0.2c2.3-0.6,3.9-2.1,4.4-4.5c0.5-2.2-0.1-4.2-2-5.4c-1.1-0.7-2.4-0.9-3.7-1.4c0-0.1,0.1-0.4,0.1-0.7
	c0-0.3-0.1-0.7-0.2-1c0.2-0.1,0.4-0.2,0.5-0.2c0.4-0.1,0.7-0.1,1.1-0.1c0.1,0.5,0.1,0.6,1.2,0.7c2.1,0.3,3.7,1.4,4.6,3.4
	c0.1,0.3,0.3,0.7,0.5,0.9c0.3,0.2,0.8,0.2,1.2,0.3c0.1-0.4,0.3-0.9,0.1-1.1c-0.5-0.8-1-1.7-1.7-2.3c-1.7-1.4-3.8-1.9-6-1.8
	c0.3-0.1,0.7-0.2,1-0.2c4.4,0,7.8,2.1,10.7,5.4c0.3,0.4,0.7,0.7,1,1l0.2-0.2c-0.3-0.4-0.5-0.9-0.8-1.3c-3.5-5-8.1-7.2-14-6
	c-0.3,0-0.6,0-0.8-0.2c-0.9-0.5-1.7-1.1-2.6-1.6c49.8,0,99.5,0,149.3,0c-3,2.4-4.5,6.2-3.6,8.6c0.1-0.4,0.2-0.8,0.4-1.2v1.8
	c0.1,0,0.2,0,0.3,0c0.1-2.5,1-4.4,3.1-5.7c0.3-0.2,0.5-0.7,0.8-1c-0.1-0.1-0.2-0.3-0.3-0.4c-0.6,0.3-1.1,0.5-1.7,0.8
	c0.5-0.4,1.2-0.8,1.6-1.3c0.4-0.5,0.8-1.1,1.1-1.6c10.9,0,21.8,0,32.6,0c-1.6,1.8-3.1,3.7-4.7,5.5c-7.5,8.1-15.1,16.2-22.6,24.4
	c-0.4,0.5-0.8,0.9-1.3,1.4c0.3-0.1,0.5-0.2,0.7-0.4c5.2-5.1,10.3-10.2,15.5-15.3c3.5-3.5,7.1-6.9,10.7-10.4
	C395.7,29.8,396.9,28.3,398.1,26.9L398.1,26.9z M64.7,553.4l-0.2-1.8c-0.4,2.4-1.2,4.3-3.3,5.6c-0.4,0.2-0.6,0.7-0.8,1.1
	c0.1,0.1,0.2,0.2,0.3,0.3c0.5-0.2,1.1-0.4,1.7-0.6c-0.6,0.4-1.1,0.8-1.7,1.2c-0.4,0.4-0.8,0.8-1.2,1.3c3.2,1.5,6.7-5,5.6-8.4
	C65,552.5,64.9,553,64.7,553.4L64.7,553.4z M394.7,65.4l1.1-2.3c-0.2-0.1-0.3-0.2-0.5-0.3c-0.9,1-1.7,2.1-2.7,2.8s-2.4,1-3.6,1.4
	c0.8,0,1.7,0,2.6,0c-0.7,0.2-1.3,0.3-2.3,0.6c2.7,0.4,4.8-0.2,6.7-1.7c0.7-0.6,1.3-1.4,1.8-2.3c0.2-0.4,0-1-0.1-1.5
	c-0.4,0.2-0.8,0.5-1.2,0.8c-0.2,0.2-0.3,0.6-0.5,0.9C395.5,64.3,395.1,64.8,394.7,65.4L394.7,65.4z M28.5,65.2
	c-0.3-0.3-0.7-0.6-0.9-0.9c-0.3-0.4-0.4-0.9-0.7-1.3c-0.4-0.4-0.9-0.7-1.3-1c0,0.6-0.2,1.3,0,1.7c0.3,0.7,0.9,1.4,1.5,1.9
	c1.7,1.6,4.7,2.4,6.5,1.8c-0.6-0.2-1.3-0.3-1.9-0.5h2.6c-2.4-0.3-4.4-1.4-5.6-3.6c-0.2-0.3-0.6-0.4-0.9-0.6
	c-0.1,0.1-0.2,0.2-0.4,0.3C27.8,63.8,28.1,64.5,28.5,65.2z M394.7,521.6c0.6,0.8,1.1,1.6,1.7,2.4c0.3,0.3,0.8,0.5,1.2,0.8
	c0.1-0.5,0.3-1,0.2-1.4c-1-2.8-5.5-4.9-8.1-4c0.7,0.2,1.4,0.3,2.1,0.5h-2.8c2.5,0.3,4.4,1.4,5.7,3.7c0.1,0.2,0.6,0.3,0.9,0.4
	c0.1-0.1,0.2-0.2,0.3-0.3C395.5,523,395.1,522.3,394.7,521.6L394.7,521.6z M31.6,520c0.7-0.2,1.4-0.5,2-0.7
	c-2.8-0.6-6.4,0.9-7.8,3.4c-0.4,0.6-0.9,1.5-0.1,2c0.8,0.4,1.1-0.6,1.4-1.2c0.5-0.7,1-1.3,1.4-1.9c-0.4,0.7-0.8,1.4-1.2,2.1l0.4,0.4
	c0.4-0.3,0.8-0.6,1.1-1c1.1-1.8,2.7-2.7,4.7-3c0.3,0,0.5-0.1,0.8-0.1l0-0.3C33.4,519.8,32.5,519.9,31.6,520L31.6,520z M358.5,553.3
	c-0.1-0.4-0.3-0.8-0.4-1.2c-0.8,2.5,0.9,7.1,3.5,8.4c0.5,0.3,1.2,0.2,1.8,0.3c0.1-0.1,0.1-0.3,0.2-0.4c-0.4-0.4-0.7-0.8-1.1-1.2
	c-0.5-0.4-1.1-0.8-1.7-1.2c0.6,0.2,1.1,0.4,1.7,0.6c0.1-0.1,0.2-0.3,0.3-0.4c-0.9-0.9-2-1.7-2.7-2.7c-0.7-1.1-1-2.5-1.5-3.9
	L358.5,553.3L358.5,553.3z M39.3,536c0.8-1.2,3-1.8,4.3-1.1c0.6,0.3,1.2,1.1,1.3,1.7c0.2,0.7-0.2,1.5-0.3,2.2
	c1.4-1.2,1.7-2.6,0.5-3.7c-0.7-0.7-1.7-1.3-2.6-1.3c-1.3,0-2.6,0.6-3.8,1c0.2-0.2,0.4-0.4,0.6-0.6c1.4-1.5,2.9-3,4.3-4.6
	c0.2-0.2,0.2-0.7,0.3-1.1l0,0c0.2,0,0.4,0,0.5,0.1c1.6,2.2,3.6,4.3,2.7,7.6c1.1-0.6,1.2-1.4,1-2.4c-0.3-2.1-1.6-3.7-2.8-5.4
	c-0.6-0.9-1.3-1.8-1.9-2.7c0.5-0.1,0.8,0,1.1,0c0.7,0,1.4,0.1,2-0.1c0.4-0.2,0.9-0.9,0.9-1.3c0-0.4-0.7-0.9-1.2-1
	c-0.5-0.1-1.1,0.1-1.7,0.1c-1.2-2.9-3.3-4.7-6.1-5.5c0-0.5,0-1,0-1.5c0-2.2-1.9-3.8-4-3.3c-0.8,0.2-1.1,0-1.4-0.7
	c-0.7-1.3-1.7-2.2-3-2.6c1,1.2,1.9,2.4,2.6,3.2c-0.8,1.1-1.5,1.9-2,2.7c-0.4,0.6-0.8,1.3-0.2,1.9c0.7,0.7,1.4,0.3,2-0.2
	c1-0.8,1.4-2,1.5-3.3c1.3-0.6,2.6-0.5,3.2,0.5c0.4,0.7,0.5,1.6,0.5,2.4c0,0.3-0.7,0.6-1.1,0.8c-0.8,0.4-1.5,1-1.1,2.1
	c-3.2,0.6-5.6,2.5-7.2,5.4c-1.4,2.6-0.5,4.4,2.3,4.8c0.1,1.2,0.2,2.4,0.4,3.5c0.2,1.2,0.5,2.4,0.9,3.5c0.3,0.8,0.3,1.4-0.2,2.2
	c-1.5,2.8-0.3,5.8,2.6,6.4c0.8,0.2,1.5,0.3,1.8,1.3c0.1,0,0.2-0.1,0.3-0.1v-1.3c0.4-0.4,0.8-0.7,1.2-1.1c1.5-1.8,0.7-4.4-1.5-4.8
	c-1.1-0.3-2.4,0.6-2.6,1.9c-0.2,1,0.5,2.2,1.5,2.2c0.5,0,1.1-0.5,1.5-0.9c0.1-0.2-0.2-0.8-0.3-1.3c-0.3,0.6-0.4,1.1-0.6,1.3
	c-0.2,0.1-0.7,0-0.9-0.1c-0.2-0.3-0.5-0.8-0.4-1.2c0.2-0.8,0.8-1.2,1.6-1c0.9,0.2,1.5,0.8,1.5,1.8c0,1.4-0.9,2.4-2.2,2.5
	c-1.6,0.1-3-1.1-3.2-2.6c-0.2-1.5,0.2-2.9,1.3-3.8c1.8-1.5,3.7-2.8,5.6-4.1c-0.8,1-1.7,2.1-2.5,3.1c0.1,0,0.1,0.1,0.2,0.1
	c0.8-0.6,1.5-1.2,2.3-1.8c-0.2,0.3-0.5,0.6-0.7,0.9c-1,1.4-0.7,3.4,0.7,4.3c1.3,0.8,3,1,3.9-0.7c-0.5,0.1-1,0.3-1.6,0.4
	c-1.6,0.2-2.6-0.6-2.8-1.9c-0.1-1.4,1.1-2.7,2.5-2.8c1-0.1,1.7,0.6,1.4,1.6c-0.1,0.4-0.5,0.9-0.8,1c-0.5,0.1-1-0.1-1.5-0.1
	c0.3,0.4,0.7,0.9,1.2,1c1,0.1,1.9-0.9,2-2c0.1-1.2-0.6-2.1-1.7-2.2C40.8,535.6,40.1,535.9,39.3,536L39.3,536z M39.4,50.9
	c0.6,0.1,1.2,0.3,1.8,0.2c1.1,0,1.9-0.8,2-1.9c0-1.1-0.7-2.1-1.7-2.3c-0.8-0.1-1.4,0.2-1.6,1.4c0.3-0.3,0.3-0.4,0.4-0.5
	c0.7-0.4,1.6-0.2,1.9,0.6c0.3,0.7,0.3,1.4-0.5,1.7c-0.9,0.4-1.8,0.1-2.5-0.6c-0.7-0.6-1-1.5-0.7-2.5c0.3-1,1.1-1.5,2-1.5
	c0.8,0,1.5,0.2,2.3,0.3c-1.3-1.5-2.9-1.6-4.3-0.4c-1.3,1.2-1.3,2.9,0,4.4c0.1,0.1,0.2,0.3,0.3,0.4c-0.8-0.6-1.5-1.2-2.3-1.8
	c-0.1,0-0.1,0.1-0.2,0.1c0.8,1,1.6,2,2.5,3.1c-1.9-1.4-3.9-2.7-5.7-4.2c-1.1-0.9-1.3-2.3-1.2-3.7c0.2-2.1,2.8-3.3,4.4-2.1
	c0.8,0.6,1.2,2.1,0.7,2.9c-0.5,0.8-1.2,1.3-2,0.8c-0.4-0.2-0.7-1-0.8-1.5c0-0.2,0.6-0.6,1-0.9c0.3,0.4,0.6,0.8,0.9,1.2
	c0.6-0.6,0.6-1.2-0.1-1.7c-0.5-0.2-1.2-0.3-1.7,0c-0.8,0.3-1.1,1.1-0.9,2c0.2,1.1,1.3,2,2.3,1.9c1.2-0.1,2.3-1.2,2.5-2.4
	c0.2-1.7-0.7-2.8-1.7-3.5c0-0.6-0.1-1-0.1-1.4c-0.1,0-0.2,0-0.3-0.1c-0.3,0.9-0.8,1.1-1.6,1.3c-1,0.3-2,0.9-2.6,1.7
	c-1.2,1.5-0.8,3.3,0,4.9c0.2,0.4,0.3,1.1,0.2,1.5c-0.5,2.5-1.1,4.9-1.6,7.5c-1.6,0.2-2.5,0.9-2.6,2.4c0,0.7,0.2,1.4,0.5,2.1
	c1.5,3.1,3.9,5,7.2,5.7c-0.2,1.2,0.1,1.7,1.4,2.2c0.3,0.1,0.8,0.4,0.9,0.6c0.6,1.8-0.8,3.6-2.7,3.4c-0.6-0.1-0.9-0.2-1.2-1
	c-0.3-1-0.9-2-1.6-2.7c-0.3-0.3-1.2-0.1-1.8-0.1c0,0.6-0.1,1.3,0.1,1.7c0.6,0.9,1.4,1.6,2.4,2.6c-0.9,1.1-1.8,2.3-2.8,3.6
	c1.4-0.5,2.4-1.4,3.1-2.7c0.3-0.5,0.5-0.8,1.2-0.6c2.4,0.6,4.2-1,4.2-3.6c0-0.4,0-0.8,0-1.2c2.9-0.9,4.9-2.7,6.1-5.4
	c0.8,0,1.5,0.1,2.2,0c0.3-0.1,0.7-0.6,0.8-0.9c0.1-0.3-0.2-0.9-0.5-1c-0.4-0.3-1-0.5-1.5-0.5c-0.6,0-1.3,0.2-2.3,0.3
	c0.8-1.2,1.4-2.1,2.1-3c1.2-1.6,2.5-3.2,2.8-5.4c0.1-0.9,0.1-1.8-0.9-2.3c0,0.9,0.2,1.8-0.1,2.6c-0.6,1.5-1.4,2.9-2.2,4.2
	c-0.2,0.4-0.6,0.6-1,0.9l0,0c-0.1-0.3-0.1-0.8-0.2-1c-0.7-0.9-1.4-1.9-2.1-2.7c-0.9-0.9-1.9-1.7-2.8-2.6c0.6,0.3,1.2,0.6,1.8,0.8
	c1.9,0.7,3.7,0.3,4.7-1c1.1-1.4,0.8-2.8-0.7-3.7c0.1,0.3,0.3,0.6,0.4,1c0.4,1.5-0.2,2.7-1.6,3.1C41.9,52.3,40.5,52,39.4,50.9
	L39.4,50.9z M383.9,50.9c-0.7,0.4-1.3,0.9-2,1.1c-1.2,0.3-2.4,0.2-3.2-0.8c-0.8-1-0.5-2.1-0.1-3.1c0-0.1,0-0.1,0-0.2
	c-1.4,1.2-1.7,2.6-0.6,3.7c0.7,0.7,1.7,1.3,2.6,1.3c1.3,0,2.6-0.6,3.8-1c-0.2,0.2-0.4,0.4-0.6,0.6c-1.4,1.5-2.9,3-4.3,4.6
	c-0.2,0.2-0.2,0.7-0.3,1.1l0,0c-0.1,0-0.4,0-0.5-0.1c-1.6-2.2-3.6-4.3-2.7-7.6c-1.1,0.6-1.1,1.4-1,2.4c0.3,2.1,1.6,3.7,2.8,5.4
	c0.6,0.9,1.3,1.8,1.9,2.7c-0.5,0.1-0.8,0-1.1,0c-0.7,0-1.4-0.1-2,0.1c-0.4,0.2-0.9,0.9-0.9,1.3c0,0.4,0.7,0.9,1.2,1
	c0.5,0.1,1.1-0.1,1.7-0.1c1.2,2.9,3.3,4.7,6.1,5.5c0,0.5,0,1,0,1.5c0,2.2,1.9,3.8,4,3.3c0.8-0.2,1.1,0,1.4,0.7
	c0.7,1.3,1.7,2.2,2.9,2.6c-0.4-0.5-0.9-1-1.3-1.7c-0.5-0.7-0.9-1.4-1.3-2.1c0.2,0.1,0.3,0.2,0.4,0.2c0.6-0.8,1.2-1.6,1.8-2.4
	c0.4-0.6,0.8-1.3,0.2-1.9c-0.7-0.7-1.4-0.3-2,0.2c-1,0.8-1.4,2-1.5,3.3c-1.3,0.6-2.6,0.5-3.2-0.5c-0.4-0.7-0.5-1.6-0.5-2.4
	c0-0.3,0.7-0.6,1.1-0.8c0.8-0.4,1.5-1,1.1-2.1c3.6-1,5.8-2.6,7.2-5.4c1.3-2.6,0.5-4.4-2.1-4.8c-0.5-2.4-1-4.8-1.5-7.1
	c-0.2-0.8-0.3-1.4,0.2-2.2c1.5-2.8,0.3-5.8-2.6-6.4c-0.8-0.2-1.5-0.3-1.8-1.3c-0.1,0-0.2,0.1-0.3,0.1v1.3c-0.4,0.4-0.8,0.7-1.2,1.1
	c-1.5,1.8-0.7,4.4,1.5,4.8c1.1,0.3,2.4-0.6,2.6-1.9c0.2-1-0.5-2.2-1.5-2.2c-0.5,0-1.1,0.5-1.5,0.9c-0.1,0.2,0.2,0.8,0.3,1.3
	c0.3-0.6,0.4-1.1,0.6-1.3c0.2-0.1,0.7,0,0.9,0.1c0.2,0.3,0.5,0.8,0.4,1.2c-0.2,0.8-0.8,1.2-1.6,1c-0.9-0.2-1.5-0.8-1.5-1.8
	c0-1.4,0.9-2.4,2.2-2.5c1.6-0.1,3,1.1,3.2,2.6c0.2,1.5-0.2,2.9-1.3,3.8c-1.8,1.5-3.7,2.8-5.6,4.1c0.8-1,1.7-2.1,2.5-3.1l-0.2-0.1
	c-0.8,0.6-1.5,1.2-2.3,1.8c0.2-0.3,0.5-0.6,0.7-0.9c1-1.4,0.7-3.4-0.7-4.3c-1.3-0.8-3-1-3.8,0.7c0.5-0.1,1-0.3,1.6-0.4
	c1.6-0.2,2.6,0.6,2.8,1.9c0.1,1.4-1.1,2.7-2.5,2.8c-0.7,0-1.4-0.1-1.5-1.1c0-0.9,0.5-1.4,1.3-1.5c0.4,0,0.7,0.2,1.1,0.3
	c0.1-0.1,0.1-0.2,0.2-0.2c-0.5-0.3-0.9-0.8-1.4-0.8c-1-0.1-1.9,0.9-2,2c-0.1,1.2,0.6,2.1,1.8,2.2C382.4,51.2,383.1,51,383.9,50.9
	L383.9,50.9z M384.4,536.3c0.8,0.6,1.5,1.2,2.4,1.9c-0.1-0.2-0.1-0.4-0.2-0.5c-0.7-0.9-1.5-1.9-2.2-2.8c1.9,1.4,3.9,2.7,5.7,4.2
	c1.1,0.9,1.3,2.3,1.2,3.7c-0.2,2.1-2.8,3.3-4.4,2.1c-0.8-0.6-1.2-2.1-0.7-2.9c0.5-0.8,1.2-1.3,2-0.8c0.4,0.2,0.7,1,0.8,1.5
	c0,0.2-0.6,0.6-1,0.9c-0.3-0.4-0.6-0.8-0.9-1.2c-0.6,0.6-0.6,1.2,0.1,1.7c0.5,0.2,1.2,0.3,1.7,0c0.8-0.3,1.1-1.1,0.9-2
	c-0.2-1.1-1.3-2-2.3-1.9c-1.2,0.1-2.3,1.2-2.5,2.4c-0.2,1.7,0.7,2.8,1.7,3.5c0,0.6,0.1,1,0.1,1.4c0.1,0,0.2,0,0.3,0.1
	c0.3-0.9,0.8-1.1,1.6-1.3c1-0.3,2-0.9,2.6-1.7c1.1-1.5,0.8-3.3,0-4.9c-0.2-0.4-0.3-1.1-0.2-1.5c0.5-2.5,1.1-4.9,1.6-7.5
	c1.6-0.2,2.5-0.9,2.6-2.4c0-0.7-0.2-1.4-0.5-2.1c-1.5-3.1-3.9-5-7.2-5.7c0.2-1.2-0.1-1.7-1.4-2.2c-0.3-0.1-0.8-0.4-0.9-0.6
	c-0.6-1.8,0.8-3.6,2.7-3.4c0.6,0.1,0.9,0.2,1.2,1c0.3,1,0.9,2,1.6,2.7c0.3,0.3,1.2,0.1,1.8,0.1c0-0.6,0.1-1.3-0.1-1.7
	c-0.6-0.9-1.4-1.6-2.4-2.6c0.9-1.1,1.8-2.3,2.7-3.4c-1.1,0.2-2.1,1-3,2.6c-0.3,0.5-0.5,0.8-1.2,0.6c-2.4-0.6-4.2,1-4.2,3.6
	c0,0.4,0,0.8,0,1.2c-2.9,0.8-4.9,2.7-6.1,5.4c-0.8,0-1.5-0.1-2.2,0c-0.3,0.1-0.7,0.6-0.8,0.9c-0.1,0.3,0.2,0.9,0.5,1
	c0.4,0.3,1,0.5,1.5,0.5c0.6,0,1.3-0.2,2.3-0.3c-0.8,1.2-1.4,2.1-2.1,3c-1.2,1.6-2.5,3.2-2.8,5.4c-0.1,0.9-0.1,1.8,0.9,2.3
	c0-0.9-0.2-1.8,0.1-2.6c0.6-1.5,1.4-2.9,2.2-4.2c0.2-0.4,0.6-0.6,1-0.9l0,0c0.1,0.3,0.1,0.8,0.2,1c0.7,0.9,1.4,1.9,2.1,2.7
	c0.9,0.9,1.9,1.7,2.8,2.6c-0.6-0.3-1.2-0.6-1.8-0.8c-1.9-0.7-3.7-0.3-4.7,1c-1.1,1.4-0.8,2.8,0.7,3.7c-0.1-0.3-0.3-0.6-0.4-1
	c-0.4-1.5,0.2-2.7,1.6-3.1c1.4-0.4,2.8-0.1,3.9,1c-0.6-0.1-1.3-0.3-1.9-0.2c-1.2,0-1.9,0.9-1.8,2.1c0,1.1,0.9,2.1,1.9,2.1
	c0.7,0,1.2-0.3,1.3-0.9c-0.6,0-1.2,0.2-1.6-0.1c-0.4-0.2-0.7-0.8-0.7-1.2c0-0.3,0.3-0.9,0.6-1c0.9-0.4,1.8-0.1,2.5,0.6
	c0.7,0.7,1,1.5,0.7,2.5c-0.3,1-1.1,1.5-2,1.4c-0.8,0-1.5-0.2-2.3-0.3c0.8,1.1,1.7,1.5,3,1.1c1.2-0.4,2-1.1,2.3-2.4
	C386,538.2,385.2,537.2,384.4,536.3L384.4,536.3z M205.6,556.9c-0.1-0.5-0.1-0.5-1.2-0.7c-2.1-0.3-3.7-1.4-4.6-3.4
	c-0.1-0.3-0.3-0.7-0.5-0.9c-0.3-0.2-0.8-0.2-1.2-0.3c-0.1,0.4-0.3,0.9-0.1,1.1c0.5,0.8,1,1.7,1.7,2.3
	C201.4,556.5,203.4,557,205.6,556.9c-0.3,0.1-0.7,0.2-1,0.2c-4.4,0-7.8-2.1-10.7-5.4c-0.3-0.3-0.7-0.6-1-1c-0.1,0.1-0.2,0.2-0.2,0.2
	c0.3,0.5,0.5,0.9,0.9,1.4c3.3,4.6,7.6,6.8,13.1,6.1c0.9-0.1,1.6-0.1,2.3,0.6c1.2,1.1,3,1.6,4.3,0.6c1.8-1.3,3.5-1.4,5.5-1
	c0.1,0,0.3,0,0.4,0c5-0.3,8.6-2.8,11.3-7.1c0.1-0.2,0.2-0.4,0.2-0.7c-0.2-0.2-0.3-0.3-0.5-0.5c-0.2,0.4-0.3,0.9-0.6,1.2
	c-1.6,1.9-3.4,3.5-5.7,4.4c-2,0.8-4,1.4-6.2,0.9c1-0.1,2,0,2.9-0.3c2-0.5,3.8-1.5,4.7-3.6c0.2-0.4,0-0.9-0.1-1.3
	c-0.5,0.2-1,0.3-1.4,0.6c-0.2,0.1-0.3,0.4-0.4,0.7c-0.9,1.9-2.4,3-4.5,3.3c-0.4,0.1-0.8,0.1-1.2,0.3c-0.1,0-0.1,0.3-0.1,0.5
	c-0.5-0.1-1.1-0.2-1.5-0.3v-2.1c0.4,0,0.7,0,1,0c2.6-0.1,4.8-2.3,4.8-5.1c0.1-3.3-2.5-5.9-5.9-6.1c-0.5,0-1-0.2-1.3-0.5
	c-1.8-1.6-4.5-1.6-6.3,0c-0.3,0.3-0.8,0.4-1.2,0.5c-0.5,0.1-1,0.1-1.5,0.2c-2.3,0.6-3.9,2.1-4.4,4.5c-0.5,2.2,0.1,4.2,2,5.4
	c1.1,0.7,2.4,0.9,3.7,1.4v1.8C206.6,556.8,206.1,556.9,205.6,556.9L205.6,556.9z M73.3,32.7c0.3-0.6,0.5-1.1,0.8-1.6
	c-1.2,1-2.3,1.9-3.4,2.8c-1-1-1.8-1.8-2.7-2.5c-0.4-0.3-1.3-0.2-1.5,0c-0.3,0.3-0.2,1.2,0,1.6c0.5,1.2,1.6,1.7,2.8,1.8
	c0.6,0,0.9,0.3,0.9,0.9c0,0.6,0,1.2-0.2,1.7c-0.4,1.1-1.2,1.4-2.2,1.5c-1,0.1-1.3-0.5-1.6-1.3c-0.3-0.8-0.8-1.5-1.9-1.1
	c-0.7-3.5-2.6-6.1-5.8-7.7c-2.1-1-3.8,0.1-4,2.4c0,0.1-0.1,0.2,0,0.1c-2.1,0.4-4,0.7-5.9,1.2c-1.3,0.4-2.3,0.5-3.6-0.1
	c-2.5-1.2-5.3,0.3-5.6,2.8c-0.1,0.8-0.2,1.5-1,1.8c1,0.7,1.9,1.6,2.9,2.1c0.9,0.5,1.9,0.4,2.8-0.3c0.8-0.7,1.1-1.6,1-2.6
	c-0.2-1.1-1.3-2-2.3-1.8c-0.9,0.1-1.8,1.1-1.6,2c0.1,0.5,0.5,1,0.9,1.2c0.2,0.1,0.7-0.2,1.2-0.3c-0.6-0.3-1.1-0.4-1.2-0.6
	c-0.1-0.3,0-0.9,0.3-1.1c0.3-0.2,1-0.3,1.3,0c0.4,0.3,0.7,1,0.6,1.4c-0.1,0.5-0.5,1.3-1,1.4c-0.7,0.2-1.5,0-2.2-0.3
	c-0.9-0.5-1.2-1.8-0.8-3c0.3-1.1,1.4-2.1,2.6-2.2c1.7-0.2,3,0.6,4,1.9c1,1.2,1.8,2.5,2.6,3.8c1.8,2.8,3.7,5.4,6.6,7.1
	c-2.1,1.7-4,3.4-6.9,3.2c0.4,0.4,0.8,0.8,1.2,0.7c1.1-0.2,2.2-0.5,3.2-1.1c1.4-0.8,2.6-1.9,4-2.9c0.4-0.3,0.9-0.5,1.1-0.6
	c0.1,1.2,0.2,2.3,0.4,3.4c0.1,0.3,0.7,0.7,1,0.6c0.4-0.1,0.8-0.5,0.9-0.9c0.2-0.7,0-1.4,0-1.9c1.1-0.9,2.3-1.7,3.3-2.8
	c0.9-1.1,1.5-2.5,2.2-3.8c2.9,0.7,5.1-1.5,4.3-5.1c0.6-0.3,1.2-0.7,1.8-1c-0.5,1.4-0.5,1.4,1,1.4c18.4,0,36.9,0,55.3,0
	c20.4,0,40.8,0,61.2,0c1.9,0,1.9,0,2.7-2.1c-0.4,0-0.7-0.1-1.1-0.1c-20.8,0-41.7-0.1-62.5-0.1c-18.1,0-36.2,0-54.2,0
	C74.4,32.7,73.9,32.7,73.3,32.7L73.3,32.7z M350,32.7c-0.5,0-1.1,0-1.7,0c-19.5,0-38.9,0.1-58.4,0.1c-19.3,0-38.6,0-58,0
	c-0.5,0-0.9,0-1.7,0c0.9,1,0.8,2.2,2.4,2.2c39,0,78,0,117,0c1.5,0,1.5,0,1-1.4c0.6,0.4,1.2,0.7,1.8,1.1c-0.9,3.8,1.5,5.6,4.5,5
	c0.8,3,2.6,5.1,5.4,6.3c-0.1,0.3-0.1,0.6-0.2,0.9c-0.2,1.1,0.3,2.1,1,2.2c0.7,0.1,1.4-0.9,1.4-1.9c0-0.7-0.1-1.5-0.3-2.5
	c0.9,0.6,1.6,1.1,2.3,1.6c1.6,1.3,3.2,2.7,5.3,3.2c0.8,0.2,1.7,0.4,2.2-0.7c-3.1-0.3-5.5-1.5-6.5-3c1.3-1.3,2.8-2.4,3.9-3.8
	c1.5-1.9,2.7-4,4.1-5.9c0.9-1.3,1.9-2.5,3.5-3c1.7-0.5,3.5,0.2,4,1.8c0.3,1,0.4,2-0.4,2.9c-0.6,0.7-1.5,1-2.3,0.6
	c-0.5-0.2-1-0.9-1.2-1.4c-0.1-0.4,0.3-1.1,0.6-1.5c0.2-0.2,0.9-0.1,1.3,0.1c0.2,0.1,0.4,0.8,0.3,1.1c-0.1,0.3-0.7,0.3-1.1,0.5
	c0.2,0.5,0.6,0.7,1.3,0.4c0.7-0.4,0.9-1.1,0.6-1.8c-0.3-0.9-1-1.3-1.9-1.3c-1,0-1.8,0.9-2,1.8c-0.2,1.2,0.2,2.3,1.2,2.8
	c1.1,0.6,2.2,0.5,3.2-0.2c0.7-0.5,1.1-1.6,2.2-1.5c0,0,0.1-0.2,0.1-0.3c-0.3-0.2-0.6-0.4-0.9-0.5c0.1,0,0.2-0.1,0.2-0.1
	c-0.3-0.9-0.5-1.8-0.9-2.6c-1.2-1.9-3.6-2.3-5.8-1c-0.3,0.2-0.8,0.4-1.2,0.3c-2.5-0.6-5-1.2-7.5-1.8c-0.3-2.4-2-3.4-4.3-2.2
	c-3,1.6-4.8,4.1-5.5,7.5c-1.2-0.4-1.7,0.4-1.9,1.3c-0.2,1.1-0.9,1.1-1.7,1.1c-1.5-0.1-2.5-1.5-2.3-3.2c0.1-0.5,0.3-0.9,0.9-0.9
	c1.1,0,2.1-0.5,2.6-1.6c0.3-0.5,0.4-1.4,0.1-1.8c-0.4-0.7-1.2-0.4-1.7,0.1c-0.8,0.7-1.5,1.5-2.5,2.4c-1.1-0.9-2.2-1.9-3.5-2.9
	C349.4,31.6,349.7,32.2,350,32.7L350,32.7z M386,73.4c-0.1,0-0.2,0-0.3,0c-0.1,0.4-0.2,0.9-0.2,1.3c-0.1,18-0.2,36-0.2,53.9
	c0,26.8,0,53.6,0,80.4c0.1,83.7,0.1,167.3,0.2,251c0,4.3,0,8.5,0,12.8c0,12.8,0,25.7,0,38.5c0,0.5,0.1,0.9,0.2,1.6
	c0.6-0.7,1.1-1.1,1.5-1.6c0.3-0.4,0.5-0.9,0.5-1.4c0.1-14.7,0.2-29.3,0.2-44c0-5.1-0.1-10.3-0.1-15.4
	c-0.1-108.1-0.1-216.2-0.1-324.3c0-15.9,0-31.9,0-47.8c0-1.8,0.2-3.6-1.5-4.8C386.2,73.6,386.1,73.5,386,73.4L386,73.4z M37.2,512.8
	c0.1,0,0.2,0,0.3,0c0.1-0.4,0.2-0.9,0.2-1.3c0.1-18.2,0.2-36.3,0.2-54.5c0-25,0-50.1,0-75.1c-0.1-85.8-0.1-171.6-0.2-257.4
	c0-16.5,0-33.1,0-49.6c0-0.5-0.1-1-0.2-1.7c-0.6,0.7-1.1,1.1-1.4,1.6c-0.3,0.5-0.6,1-0.6,1.6c-0.1,19.6-0.2,39.1-0.2,58.7
	c0,106-0.1,212-0.1,318c0,5.9,0.2,11.9,0.2,17.8c0,12.3,0,24.6,0,36.9c0,1.8-0.2,3.6,1.5,4.8C37.1,512.5,37.1,512.7,37.2,512.8
	L37.2,512.8z M33.6,511.7c0.1-0.1,0.3-0.1,0.4-0.2V74.3c-0.9,1-1.3,1.8-1.3,3c0,10.3-0.1,20.6-0.1,30.9c0,5.1,0.1,10.2,0.1,15.3
	c0,5.7,0,11.5,0,17.2c0,103.9-0.1,207.9-0.1,311.8c0,8.7,0,17.4,0,26.2c0,1.9,0.2,3.7,0.2,5.6c0,8.3-0.1,16.7,0,25
	C32.7,510.1,33.3,510.9,33.6,511.7L33.6,511.7z M389.2,511.8c1-0.9,1.3-1.7,1.3-2.8c0-8.3-0.1-16.7-0.1-25c0-7.2,0.2-14.3,0.2-21.5
	c0-4.3-0.1-8.7-0.1-13c0-106.3,0.1-212.7,0.1-319c0-5.4,0-10.8,0-16.2c0-4.1-0.1-8.2-0.2-12.3c0-8.3,0.1-16.7,0-25
	c0-0.8-0.6-1.5-0.9-2.3l-0.4,0.1L389.2,511.8L389.2,511.8z M380,549.6c0.6,0.3,1.1,0.3,1.3,0.6c0.1,0.3,0,0.9-0.2,1.1
	c-0.3,0.2-1,0.3-1.3,0.1c-0.4-0.3-0.7-1-0.7-1.4c0.1-0.5,0.5-1.3,1-1.4c0.7-0.2,1.5-0.1,2.2,0.3c0.9,0.5,1.2,1.8,0.9,2.9
	c-0.3,1.1-1.4,2.1-2.6,2.2c-1.7,0.2-3-0.6-4-1.9c-1-1.3-1.9-2.6-2.8-4c-1.7-2.7-3.6-5.2-6.5-6.9c2.1-1.7,4-3.4,6.9-3.2
	c-0.4-0.4-0.8-0.8-1.2-0.7c-1.1,0.2-2.2,0.5-3.2,1.1c-1.4,0.8-2.6,1.9-4,2.9c-0.4,0.3-0.9,0.5-1.1,0.6c-0.1-1.2-0.2-2.3-0.4-3.4
	c-0.1-0.3-0.7-0.7-1-0.6c-0.4,0.1-0.8,0.5-0.9,0.9c-0.2,0.7,0,1.4,0,2.2c-2.7,1.2-4.4,3.4-5.3,6.4c-3.1-0.7-5.3,1.5-4.5,4.7
	c-1.2,1.3-2.4,2.4-3.5,3.6c0-0.4-0.1-0.8-0.2-1.4c-0.4,0-0.7,0-1.1,0c-20,0-40,0.1-60.1,0.1c-18.8,0-37.6,0-56.4,0
	c-1.4,0-2.3,0.4-2.9,1.8c0.8,0,1.6,0,2.3,0c20.5,0,41,0.1,61.5,0.1c17.9,0,35.9,0,53.8,0c0.7,0,1.4-0.1,2,0.1c1,0.3,1.4-0.2,2-0.8
	c0.9-1,1.9-1.7,2.8-2.5c1.1,1,2,1.9,2.9,2.6c0.3,0.2,1.1,0.2,1.4-0.1c0.3-0.3,0.3-1,0.1-1.4c-0.5-1.3-1.6-1.9-2.9-2
	c-0.7,0-0.9-0.4-0.9-1c0-0.6,0-1.2,0.2-1.7c0.4-1,1.3-1.4,2.3-1.4c1-0.1,1.2,0.5,1.5,1.3c0.3,0.8,0.8,1.5,1.9,1.1
	c0.6,3.2,2.3,5.6,5,7.2c1.1,0.6,2.1,1,3.3,0.5c1.2-0.5,1.4-1.6,1.5-2.5c2.6-0.6,5-1.2,7.4-1.8c0.4-0.1,0.9,0,1.2,0.2
	c3.3,2.1,6.9,0,6.7-3.7c0.3-0.2,0.6-0.4,0.9-0.5c-1-0.8-1.9-1.7-3-2.2c-2-0.9-4,0.8-3.7,3c0.2,1.1,1.3,2,2.3,1.8
	c0.9-0.1,1.8-1.1,1.6-1.9c-0.1-0.5-0.5-1-0.9-1.2C381,549.1,380.5,549.5,380,549.6L380,549.6z M195.1,556.1c-0.7-1.4-1.6-1.8-3-1.8
	c-19.5,0-39.1-0.1-58.6-0.1c-19,0-38,0-57,0c-1,0-2.4-0.5-2.1,1.3c-1.2-1.2-2.3-2.4-3.6-3.7c0.4-1.1,0.3-2.5-0.7-3.7
	c-1-1.2-2.4-1.3-3.8-1c-0.8-3.1-2.7-5.2-5.4-6.4c0.1-0.5,0.4-1,0.2-1.4c-0.2-0.6-0.7-1.2-1-1.7c-0.5,0.4-1,0.8-1.4,1.4
	c-0.2,0.2-0.1,0.7-0.1,1.1c0.1,0.5,0.2,1.1,0.3,1.9c-0.6-0.4-1.1-0.6-1.5-0.9c-1.1-0.8-2.2-1.8-3.4-2.5c-1.1-0.6-2.4-1-3.7-1.4
	c-0.4-0.1-0.9,0.3-1.3,0.5c0,0.1,0.1,0.2,0.1,0.4c2.9-0.4,4.8,1.4,6.7,2.9c-1.1,0.9-2.1,1.6-3,2.6c-0.9,0.9-1.7,2-2.5,3.1
	c-1,1.3-1.8,2.8-2.7,4.1c-0.9,1.3-1.9,2.5-3.5,3c-1.7,0.5-3.4-0.2-3.9-1.8c-0.4-1-0.4-2,0.3-2.9c0.6-0.8,1.5-1.1,2.4-0.7
	c0.5,0.2,0.9,0.8,1.1,1.2c0.1,0.4-0.1,1.2-0.4,1.5c-0.3,0.3-0.9,0.3-1.4,0.2c-0.2-0.1-0.5-0.8-0.4-1c0.2-0.3,0.6-0.5,1.1-0.9
	c-0.3-0.1-0.8-0.4-1-0.3c-0.4,0.3-0.9,0.7-1,1.2c-0.2,1.2,1.1,2.3,2.2,2s1.8-1.2,1.8-2.4c0-1.3-1-2.4-2.1-2.5
	c-1.6-0.2-2.7,0.5-3.4,1.8c-0.4,0.1-0.8,0.2-0.9,0.2c0.3,0.8,0.5,1.3,0.7,1.9c0.2,0.6,0.3,1.2,0.7,1.7c1.3,1.9,3.6,2.3,5.9,1
	c0.3-0.2,0.8-0.3,1.2-0.2c2.5,0.6,4.9,1.2,7.4,1.8c0.4,2.6,2.1,3.5,4.6,2.1c2.8-1.6,4.6-4.1,5.2-7.4c1.1,0.4,1.7-0.4,1.9-1.3
	c0.3-1.3,1.1-1.2,2-1.1c1.7,0.3,2.4,2.1,1.7,3.9c-1.3,0-2.4,0.4-3.2,1.5c-0.4,0.6-0.8,1.3-0.2,2c0.6,0.7,1.3,0.3,1.9-0.1
	c0.8-0.6,1.5-1.4,2.6-2.3c0.8,0.8,1.8,1.7,2.9,2.6c0.4,0.3,0.8,0.7,1.2,0.7c0.9,0.1,1.7-0.2,2.6-0.2c19,0,38-0.1,57-0.1
	c19.5,0,38.9,0,58.4,0C193.6,556.1,194.2,556.1,195.1,556.1L195.1,556.1z M230.5,553.4c0.5,0,0.8,0,1.2,0c20.8,0,41.5,0.1,62.3,0.1
	c18.2,0,36.4,0,54.7,0c0.8,0,1.4-0.2,1.8-0.9c0.2-0.4,0.3-0.8,0.5-1.2c-0.4-0.1-0.7-0.3-1.1-0.3c-18.5,0-37,0-55.4,0
	c-20.3,0-40.7,0-61.1,0C232,551.2,231,551.9,230.5,553.4L230.5,553.4z M192.8,553.4c-0.6-1.5-1.5-2.2-2.9-2.2
	c-21.1,0-42.2,0-63.3-0.1c-17.6,0-35.1,0-52.7,0c-0.6,0-1.1,0.2-1.7,0.4c0.4,0.6,0.7,1.3,1.1,1.7c0.2,0.2,0.8,0.2,1.2,0.2
	c19.7,0,39.5-0.1,59.2-0.1c19.2,0,38.4,0,57.6,0L192.8,553.4L192.8,553.4z M349.2,30h-121c0.7,1.5,1.7,1.9,3,1.9
	c19.5,0,39.1,0.1,58.6,0.1c19,0,38.1,0,57.1,0c1,0,2.1,0.3,2-1.4C348.9,30.4,349,30.2,349.2,30L349.2,30z M74,29.9
	c0.2,0.3,0.4,0.5,0.3,0.7c-0.1,1.4,0.7,1.3,1.7,1.3c19.8-0.1,39.6-0.1,59.4-0.1c19,0,38.1,0,57.1,0c1.3,0,1.9-0.7,2.7-1.9L74,29.9
	L74,29.9z M225.3,27.6c0,0.1-0.1,0.3-0.1,0.4c0.6,0.2,1.2,0.5,1.8,0.6c1.1,0.1,2.1,0,3.2,0c20.2,0,40.4,0,60.6,0.1
	c21.7,0,43.4,0,65.1,0c0.5,0,1.5,0.4,1.5-0.5c0-1-1-0.6-1.6-0.6c-30.9,0-61.7,0-92.6,0c-12.3,0-24.6,0-36.9,0
	C226.1,27.6,225.7,27.6,225.3,27.6z M198,28.1c0-0.1-0.1-0.3-0.1-0.4c-0.4,0-0.8,0-1.1,0c-20.9,0-41.8,0-62.7,0
	c-22.3,0-44.6,0-66.9,0c-0.3,0-0.7-0.1-1,0c-0.2,0.1-0.4,0.4-0.6,0.6c0.2,0.2,0.4,0.5,0.6,0.5c0.5,0.1,1.1,0,1.7,0
	c29.9,0,59.9,0,89.8,0c12.8,0,25.6,0,38.3,0C196.7,28.7,197.3,28.3,198,28.1L198,28.1z M225.2,558c0,0.1,0.1,0.3,0.1,0.4
	c0.4,0,0.8,0,1.1,0c20.8,0,41.7,0,62.5,0c22.4,0,44.8,0,67.2,0c0.3,0,0.6,0.1,0.9,0c0.2-0.1,0.4-0.4,0.6-0.6
	c-0.2-0.2-0.4-0.5-0.6-0.5c-0.5-0.1-1.1,0-1.7,0c-38.9,0-77.9,0-116.8,0c-3.8,0-7.6,0-11.5,0C226.4,557.4,225.8,557.8,225.2,558
	L225.2,558z M197.9,558.5c0-0.1,0.1-0.3,0.1-0.4c-0.6-0.2-1.2-0.5-1.8-0.6c-1.1-0.1-2.1,0-3.2,0c-20.2,0-40.4,0-60.6-0.1
	c-21.7,0-43.4,0-65.1,0c-0.5,0-1.5-0.4-1.5,0.5c0,1,1,0.6,1.6,0.6c30.9,0,61.7,0,92.6,0c12.3,0,24.6,0,36.9,0
	C197.1,558.5,197.5,558.5,197.9,558.5L197.9,558.5z M55.7,529.6c-0.1-0.1-0.1-0.2-0.2-0.2c-0.4,0.4-0.9,0.9-1.3,1.3
	c-7.7,7.6-15.5,15.3-23.2,22.9c-1.6,1.5-3.2,3-4.8,4.5c-0.6,0.6-1.3,1.5-1.1,2.5c1.3,0.3,2.4,0,3.2-1.1c0.3-0.4,0.6-0.7,1-1.1
	c2.1-2.4,4.1-4.9,6.2-7.2C42.2,544,49,536.8,55.7,529.6L55.7,529.6z M46.3,545.7c0-0.5-0.2-1.2,0-1.5c0.3-0.4,0.8-0.8,1.3-0.9
	c0.3-0.1,0.9,0.4,1.1,0.7c0.3,1,0,1.9-0.7,2.6c-0.7,0.7-1.5,1-2.4,0.6c-1-0.3-1.4-1.1-1.4-2.1c0-0.5,0.1-1.1,0.1-1.6
	c-1.3,0.7-1.3,1.8-0.5,3.2c0.8,1.6,2.2,1.8,4.7,0.9c-0.5,0.7-1,1.2-1.4,1.7c2.1-1.1,3.5-2.6,3.9-5c0.3-1.4,0.1-2.6-0.8-3.7
	c-1-1.4-2.5-1.4-3.3-0.1c1.2-0.2,2.2-0.2,2.9,1c0.6,1.1,0.5,2.7-0.2,3.8c-0.1-1.9-0.7-2.9-1.9-3c-1-0.1-2.1,0.7-2.3,1.7
	C45.2,544.8,45.5,545.5,46.3,545.7L46.3,545.7z M377,41.2c0,0.5,0.2,1.1,0,1.5c-0.3,0.4-0.8,0.8-1.3,0.9c-0.3,0.1-0.8-0.3-1-0.6
	c-0.6-1,0.3-2.7,1.5-3.2c1.2-0.5,2.5,0,2.8,1.3c0.2,0.7,0.1,1.5,0.2,2.3c1-0.5,1.2-1.3,0.5-2.9c-0.8-1.7-2.2-2-4.8-1.1
	c0.5-0.6,1-1.2,1.4-1.7c-2.3,0.9-4.1,3.6-4.1,6c0,1.6,0.8,3,2,3.6c0.9,0.4,1.7,0.3,2.2-0.8c-1.3,0.3-2.3,0.2-3-1
	c-0.6-1.1-0.5-2.7,0.2-3.7c0.1,1.9,0.7,2.8,1.9,3c1,0.1,2.1-0.7,2.3-1.7C378,42,377.7,41.3,377,41.2z M46.2,41.3
	c-0.7,0.2-0.9,0.6-0.8,1.5c0.2,1,1.2,1.8,2.3,1.8c1.2-0.1,1.8-0.9,2-3.1c0.7,1.4,0.8,2.6,0.2,3.9c-0.6,1.3-1.8,1.2-3,1
	c0.6,1.1,1.4,1.2,2.3,0.8c1-0.5,1.6-1.3,1.8-2.4c0.6-2.7-1.2-6-4-7.1c0.5,0.6,0.9,1.1,1.4,1.7c-2.6-0.9-4-0.6-4.8,1.1
	c-0.6,1.3-0.7,2.4,0.7,2.9c-0.1-0.4-0.2-0.7-0.2-1c-0.1-1.6,0.7-2.7,2-2.8c1.3-0.1,2.7,1.1,2.6,2.5c0,0.5-0.3,1.4-0.7,1.5
	c-0.4,0.2-1.2-0.2-1.5-0.6C46.1,42.5,46.2,41.8,46.2,41.3L46.2,41.3z M379,543.5c0.1,0.3,0.2,0.6,0.2,0.9c0.1,1,0,1.9-0.9,2.5
	c-0.8,0.6-1.7,0.5-2.5,0c-0.9-0.6-1.4-1.5-1.3-2.6c0.1-1.1,1.1-1.5,1.9-0.9c0.3,0.3,0.6,0.7,0.7,1.1c0.1,0.3-0.2,0.7-0.3,1.2
	c0.9-0.2,1.2-0.8,1-1.7c-0.2-1-1.2-1.8-2.2-1.7c-1.3,0-1.8,0.8-2.1,3.2c-0.6-1.4-0.7-2.7-0.1-3.9c0.6-1.3,1.8-1.2,3-1
	c-0.6-1.2-1.6-1.3-2.4-0.7c-0.7,0.6-1.4,1.5-1.7,2.4c-0.6,1.8,0.1,3.5,1.3,5c0.7,0.9,1.6,1.5,2.4,2.3l0.2-0.2
	c-0.4-0.5-0.8-1-1.2-1.5c2.1,0.9,3.7,0.6,4.5-1C380.3,545.4,380.4,544.2,379,543.5L379,543.5z M388,548.4c1.3,0.9,3.7,0.1,3.7,3
	C392.4,549.1,390.7,547.9,388,548.4z M387.9,38.2c0,0.1,0.1,0.2,0.1,0.3c1.3,0.1,2.5,0.3,3.5-1c0.4-0.6,0.7-1.2,0.2-2
	c-0.3,1.7-0.9,2.2-2.7,2.4C388.7,38,388.3,38.1,387.9,38.2L387.9,38.2z M31.6,35.3c-0.5,1.2-0.2,1.9,0.3,2.5c0.9,1,2.1,0.9,3.3,0.6
	C34,37.5,31.6,38.3,31.6,35.3z M35.3,548.6c0-0.1-0.1-0.2-0.1-0.3c-1.3-0.1-2.7-0.3-3.5,1.1c-0.3,0.5-0.3,1.1-0.4,1.7
	c0.1,0,0.2,0,0.3,0.1c0.2-1.5,0.9-2.1,2.5-2.2C34.5,548.9,34.9,548.7,35.3,548.6L35.3,548.6z M385.7,36.5c0.3-0.6,0.6-0.9,0.7-1.3
	c0.1-1.4,0.6-2.4,2.3-2.7C386.4,32.2,385.3,33.7,385.7,36.5L385.7,36.5z M388.6,554.3c-1.6-0.4-2-1-2.2-2.5
	c-0.1-0.4-0.3-0.8-0.5-1.3C385.3,553.1,386.4,554.6,388.6,554.3L388.6,554.3z M34.6,554.3c2.1,0.4,3.4-1.4,2.8-4
	c-0.3,0.6-0.6,1-0.6,1.3C36.7,553.1,36.2,554,34.6,554.3L34.6,554.3z M34.7,32.5c1.6,0.3,2.1,1.2,2.2,2.6c0,0.4,0.4,0.7,0.5,1.1
	C37.8,33.5,36.7,32.1,34.7,32.5L34.7,32.5z M226.4,553.1c0.1,0.1,0.2,0.1,0.3,0.2c0.6-0.6,1.1-1.3,1.9-2.1h-2.3
	C226.3,551.9,226.4,552.5,226.4,553.1L226.4,553.1z M196.9,551.3h-2c0.6,0.7,1.1,1.4,1.8,2.2C196.8,552.5,196.9,551.9,196.9,551.3z
	 M226.3,34.8h2c-0.6-0.7-1.1-1.4-1.8-2.2C226.4,33.6,226.3,34.2,226.3,34.8z M194.6,34.9h2.3c-0.1-0.7-0.1-1.3-0.2-2.3
	C195.9,33.4,195.4,34,194.6,34.9L194.6,34.9z M391.2,548.2v-2.5C390.4,546.4,390.5,547.5,391.2,548.2z M32,545.6v2.6
	C32.8,547.5,32.8,546.5,32,545.6z M32,41.1c0.8-0.6,0.8-1.9,0-2.5V41.1z M391.2,41.1v-2.5C390.4,39.2,390.4,40.5,391.2,41.1z
	 M33.1,547.9c0.4-0.3,0.7-0.5,1-0.7c-0.2-0.3-0.5-0.7-0.8-1c-0.1,0.1-0.2,0.1-0.3,0.2V547.9z M390.1,38.9c-0.4,0.3-0.7,0.5-1,0.7
	c0.2,0.3,0.5,0.7,0.8,1c0.1-0.1,0.2-0.1,0.3-0.2V38.9z M33.1,40.4c0.1,0.1,0.2,0.1,0.3,0.2c0.2-0.3,0.5-0.7,0.8-1
	c-0.3-0.2-0.6-0.4-1-0.7V40.4z M390.1,546.5c-0.1-0.1-0.2-0.2-0.4-0.3c-0.2,0.3-0.5,0.7-0.7,1.1c0.3,0.2,0.6,0.4,1.1,0.6V546.5
	L390.1,546.5z M39.5,553.6c0-0.1,0.1-0.3,0.1-0.4c-0.5-0.1-0.9-0.3-1.4-0.3c-0.2,0-0.4,0.3-0.9,0.7H39.5z M383.6,553.6h2
	C385.1,552.7,384.3,552.6,383.6,553.6z M383.7,33.2c0,0.1-0.1,0.3-0.1,0.4c0.5,0.1,1,0.2,1.5,0.2c0.2,0,0.4-0.4,0.6-0.7L383.7,33.2
	L383.7,33.2z M37.7,33.2c0,0.1-0.1,0.3-0.1,0.4c0.4,0.1,0.8,0.3,1.1,0.3c0.3,0,0.6-0.3,0.9-0.5c0-0.1-0.1-0.2-0.1-0.3
	C39.5,33.2,37.7,33.2,37.7,33.2z"/>
<path d="M212.5,26c0.9,0.5,1.7,1.1,2.6,1.6c0.2,0.1,0.5,0.2,0.8,0.2c5.9-1.2,10.5,1.1,14,6c0.3,0.4,0.5,0.9,0.8,1.3l-0.2,0.2
	c-0.3-0.3-0.7-0.6-1-1c-2.9-3.3-6.3-5.4-10.7-5.4c-0.4,0-0.7,0.1-1,0.2l0,0c-0.4,0-0.7,0-1.1,0.1c-0.2,0-0.3,0.1-0.5,0.2
	c0.1,0.4,0.1,0.7,0.2,1c0,0.3-0.1,0.6-0.1,0.7c1.3,0.5,2.7,0.7,3.7,1.4c1.9,1.2,2.4,3.2,2,5.4c-0.5,2.4-2.1,3.8-4.4,4.5
	c-0.5,0.1-1,0.1-1.5,0.2c-0.4,0.1-0.9,0.2-1.2,0.5c-1.8,1.6-4.5,1.6-6.3,0c-0.3-0.3-0.9-0.5-1.3-0.5c-3.4-0.1-5.9-2.8-5.9-6.1
	c0-2.7,2.2-5,4.8-5.1c0.3,0,0.7,0,1,0v-2.1c-0.4-0.1-1-0.2-1.5-0.3l0,0c-2.2-0.6-4.2,0.1-6.2,0.9c-2.3,0.9-4.1,2.6-5.7,4.4
	c-0.3,0.3-0.4,0.8-0.7,1.2c-0.2-0.1-0.3-0.3-0.5-0.4c0.1-0.3,0.2-0.6,0.4-0.8c2.6-4.1,6.1-6.6,10.9-6.9c1-0.1,2.1,0,3.1,0.2
	c0.7,0.1,1.1,0.1,1.7-0.4c0.6-0.5,1.4-0.9,2.1-1.3C211.3,26,211.9,26,212.5,26L212.5,26z M206.6,38.7c0.3-0.3,0.3-0.4,0.4-0.4
	c1.6-0.5,2.2-1.5,1.9-2.9c-0.4-1.6-1.6-2.4-3.1-2.1c-1.6,0.3-2.7,1.6-2.8,3.2c-0.1,1.8,0.9,3.5,2.4,4.2c1.7,0.8,3.6,0.4,5.1-1.1
	c-0.2-0.4-0.5-0.7-0.5-0.9L206.6,38.7L206.6,38.7z M212.7,39.7c1.5,1.1,2.9,1.8,4.7,1.2c2.8-0.9,3.9-4.6,2-6.7
	c-0.9-0.9-2.3-1.3-3.4-0.8c-1,0.5-1.5,1.4-1.6,2.6c0,1.2,0.5,1.8,2.1,2.4c0,0,0,0.1,0.2,0.5c-1.1-0.1-2.1-0.1-3.2-0.2
	C213.1,38.9,212.9,39.2,212.7,39.7L212.7,39.7z M213.6,28.7c-1.6-1.3-2.5-1.3-3.9,0c0.7,0.5,1.3,1,2,1.5
	C212.3,29.7,212.9,29.2,213.6,28.7L213.6,28.7z M211.6,33.6c-0.6,1.4-0.7,2.8,0,4.2C212.3,36.4,212.3,35,211.6,33.6z M211.6,40.9
	c-0.3,0.2-0.5,0.4-0.8,0.6c-0.3,0.2-0.5,0.4-0.8,0.5c1.3,0.9,2.2,0.9,3.1-0.1C212.6,41.6,212.1,41.3,211.6,40.9z M212.6,31.6
	c0.3,0.5,0.5,0.9,0.7,1.3l0.3,0c0.2-0.8,0.5-1.6,0.7-2.4c-0.1-0.1-0.2-0.1-0.3-0.2C213.6,30.7,213.2,31.1,212.6,31.6L212.6,31.6z
	 M209.2,30.3c-0.1,0.1-0.2,0.1-0.4,0.2l0.8,2.4c0.1,0,0.2,0,0.3,0c0.2-0.4,0.4-0.8,0.7-1.3C210.1,31.1,209.6,30.7,209.2,30.3
	L209.2,30.3z"/>
<path d="M398.1,560.8c-1.7,0.4-2.9-0.5-3.8-1.8c-4.8-6.5-10.8-11.9-16.1-17.8c-3.5-3.9-7.1-7.7-10.5-11.7c0.3,0.3,0.7,0.6,1,0.9
	c8,7.9,15.9,15.8,23.9,23.7c0.7,0.7,1.5,1.3,2.2,2c1.2,1.2,2.3,2.6,3.4,3.9L398.1,560.8L398.1,560.8z M396.7,560.2
	c0.2-0.2,0.3-0.3,0.5-0.5c-1-1-2-2.1-3-3.1c-0.1,0.1-0.2,0.2-0.4,0.4C394.8,558.1,395.8,559.1,396.7,560.2L396.7,560.2z"/>
<path d="M27.1,26c1.6,1.8,3.1,3.7,4.8,5.5c5,5.4,10,10.7,14.9,16c2.8,3,5.5,5.9,8.2,8.9c0.2,0.3,0.5,0.5,0.6,0.9
	c-1.9-1.8-3.7-3.6-5.6-5.5C43.5,45.5,37,39,30.4,32.5c-1-1-2.2-1.8-3.2-2.8c-1-1-2.1-2-2.1-3.7C25.8,26,26.4,26,27.1,26z M26.5,26.6
	c-0.2,0.2-0.3,0.3-0.5,0.5c1,1,2,2.1,3,3.1c0.1-0.1,0.2-0.2,0.4-0.4C28.4,28.7,27.5,27.7,26.5,26.6z"/>
<path d="M398.1,26.9c-1.3,1.4-2.5,2.9-3.8,4.2c-3.5,3.5-7.1,6.9-10.7,10.4c-5.2,5.1-10.3,10.2-15.5,15.3c-0.2,0.2-0.4,0.3-0.7,0.4
	c0.4-0.5,0.8-0.9,1.3-1.4c7.5-8.1,15.1-16.2,22.6-24.4c1.6-1.8,3.2-3.7,4.7-5.5c0.7,0,1.3,0,2,0L398.1,26.9L398.1,26.9z M393.8,29.8
	c0.1,0.1,0.2,0.2,0.3,0.3c1.2-0.9,2.3-1.8,2.9-3.2c-0.1-0.1-0.2-0.2-0.3-0.3C395.8,27.7,394.8,28.7,393.8,29.8L393.8,29.8z"/>
<path d="M358.5,33.4c-0.1,0.4-0.3,0.9-0.4,1.2c-0.9-2.4,0.6-6.2,3.6-8.6c0.6,0,1.2,0,1.8,0c-0.4,0.5-0.7,1.1-1.1,1.6
	c-0.5,0.5-1.1,0.9-1.6,1.3C359.3,30,358.9,31.7,358.5,33.4L358.5,33.4z"/>
<path d="M62.4,28.8c-0.6-0.4-1.2-0.7-1.7-1.2c-0.4-0.4-0.7-1-1.1-1.6c0.6,0,1.2,0,1.8,0c2.9,2.1,4,5.1,3.6,8.7
	c-0.1-0.4-0.2-0.8-0.3-1.1C64.6,31.6,63.8,30,62.4,28.8z"/>
<path d="M386,73.4c0.1,0.1,0.1,0.3,0.2,0.3c1.7,1.2,1.5,3,1.5,4.8c0,15.9,0,31.9,0,47.8c0,108.1,0.1,216.2,0.1,324.3
	c0,5.1,0.1,10.3,0.1,15.4c-0.1,14.7-0.1,29.3-0.2,44c0,0.5-0.3,1-0.5,1.4c-0.3,0.5-0.8,0.9-1.5,1.6c-0.1-0.7-0.2-1.1-0.2-1.6
	c0-12.8,0-25.7,0-38.5c0-4.3,0-8.5,0-12.8c-0.1-83.7-0.2-167.3-0.2-251c0-26.8,0-53.6,0-80.4c0-18,0.1-36,0.2-53.9
	c0-0.4,0.1-0.9,0.2-1.3C385.8,73.4,385.9,73.4,386,73.4L386,73.4z"/>
<path d="M37.2,512.8c-0.1-0.1-0.1-0.3-0.2-0.3c-1.7-1.2-1.5-3-1.5-4.8c0-12.3,0-24.6,0-36.9c0-5.9-0.2-11.9-0.2-17.8
	c0-106,0-212,0.1-318c0-19.6,0.1-39.1,0.2-58.7c0-0.5,0.3-1.1,0.6-1.6c0.3-0.5,0.8-0.9,1.4-1.6c0.1,0.7,0.2,1.2,0.2,1.7
	c0,16.5,0,33.1,0,49.6c0.1,85.8,0.2,171.6,0.2,257.4c0,25,0,50.1,0,75.1c0,18.2-0.1,36.3-0.2,54.5c0,0.4-0.1,0.9-0.2,1.3
	C37.3,512.7,37.3,512.7,37.2,512.8L37.2,512.8z"/>
<path d="M33.6,511.6c-0.3-0.8-0.8-1.6-0.9-2.4c0-8.3,0-16.7,0-25c0-1.9-0.1-3.7-0.2-5.6c0-8.7,0-17.4,0-26.2
	c0-103.9,0.1-207.9,0.1-311.8c0-5.7,0.1-11.5,0-17.2c0-5.1-0.1-10.2-0.1-15.3c0-10.3,0.1-20.6,0.1-30.9c0-1.1,0.4-1.9,1.3-3v437.2
	C33.9,511.5,33.7,511.6,33.6,511.6L33.6,511.6z"/>
<path d="M389.2,511.7V74.6l0.4-0.1c0.3,0.8,0.9,1.5,0.9,2.3c0,8.3,0,16.7,0,25c0,4.1,0.1,8.2,0.2,12.3c0,5.4,0,10.8,0,16.2
	c0,106.3-0.1,212.7-0.1,319c0,4.3,0.1,8.7,0.1,13c0,7.2-0.2,14.3-0.2,21.5c0,8.3,0,16.7,0.1,25C390.5,510,390.2,510.9,389.2,511.7
	L389.2,511.7z"/>
<path d="M380,549.6c0.5-0.1,1-0.5,1.3-0.3c0.4,0.3,0.8,0.8,0.9,1.2c0.2,0.9-0.7,1.8-1.6,1.9c-1,0.1-2.1-0.8-2.3-1.8
	c-0.4-2.2,1.7-3.9,3.7-3c1.1,0.5,2,1.4,3,2.2c-0.3,0.2-0.6,0.3-0.9,0.5c0.2,3.7-3.4,5.7-6.7,3.7c-0.3-0.2-0.8-0.3-1.2-0.2
	c-2.4,0.5-4.8,1.2-7.4,1.8c0,0.9-0.3,2-1.5,2.5c-1.2,0.5-2.3,0.1-3.3-0.5c-2.7-1.6-4.3-4-5-7.2c-1,0.4-1.6-0.3-1.9-1.1
	c-0.3-0.8-0.5-1.4-1.5-1.3c-1,0.1-1.9,0.4-2.3,1.4c-0.2,0.5-0.2,1.1-0.2,1.7c0,0.6,0.2,0.9,0.9,1c1.3,0.1,2.4,0.7,2.9,2
	c0.2,0.4,0.1,1.2-0.1,1.4c-0.3,0.3-1,0.3-1.4,0.1c-0.9-0.7-1.8-1.5-2.9-2.6c-0.8,0.7-1.9,1.5-2.8,2.5c-0.6,0.7-1,1.2-2,0.8
	c-0.6-0.2-1.3-0.1-2-0.1c-17.9,0-35.9,0-53.8,0c-20.5,0-41-0.1-61.5-0.1c-0.8,0-1.5,0-2.3,0c0.7-1.4,1.6-1.8,2.9-1.8
	c18.8,0.1,37.6,0.1,56.4,0c20,0,40-0.1,60.1-0.1c0.4,0,0.7,0,1.1,0c0.1,0.6,0.1,1,0.2,1.4c1.2-1.2,2.3-2.4,3.5-3.6
	c-0.8-3.2,1.4-5.4,4.5-4.7c0.9-3,2.6-5.2,5.3-6.4c0-0.8-0.1-1.5,0-2.2c0.1-0.4,0.6-0.9,0.9-0.9c0.3-0.1,1,0.3,1,0.6
	c0.2,1.1,0.3,2.2,0.4,3.4c0.2-0.1,0.7-0.3,1.1-0.6c1.3-1,2.6-2.1,4-2.9c1-0.6,2.1-0.8,3.2-1.1c0.4-0.1,0.8,0.3,1.2,0.7
	c-2.9-0.2-4.8,1.5-6.9,3.2c2.9,1.6,4.8,4.2,6.5,6.9c0.9,1.4,1.8,2.7,2.8,4c1,1.3,2.3,2,4,1.9c1.2-0.1,2.3-1,2.6-2.2
	c0.3-1.2,0.1-2.5-0.9-2.9c-0.6-0.3-1.5-0.4-2.2-0.3c-0.4,0.1-0.9,0.9-1,1.4c-0.1,0.4,0.3,1.1,0.7,1.4c0.3,0.2,0.9,0.1,1.3-0.1
	c0.2-0.1,0.4-0.8,0.2-1.1C381.2,550,380.7,549.9,380,549.6L380,549.6z M366.3,552.1c0.6,0.6,1.3,1.2,1.9,1.8
	c0.2,0.2,0.4,0.4,0.6,0.4c2.5,0.1,5-0.4,7.3-1.4c-0.8-1.1-1.4-2.1-2.1-3.1c-0.1-0.2-0.3-0.4-0.5-0.5c-0.7-0.5-1.4-0.9-2-1.4
	c-1.3-1.2-2.8-1.6-4.5-1.3c-1.2,0.2-2.2,1.2-2.4,2.4c-0.2,1.1,0.6,2.2,1.7,2.4c1.1,0.2,2.1-0.4,2.2-1.4c0-0.5-0.2-1.1-0.6-1.5
	c-0.3-0.2-0.9-0.3-1.3-0.1c-0.3,0.1-0.6,0.6-0.5,1c0,0.4,0.4,0.8,0.6,1.1c-0.1,0.1-0.1,0.2-0.2,0.3c-0.4-0.3-1.1-0.5-1.2-0.9
	c-0.2-0.5,0-1.2,0.3-1.6c0.6-0.9,1.8-0.9,2.7-0.3c0.8,0.6,1.1,1.6,0.7,2.6C368.4,551.9,367.4,552.3,366.3,552.1L366.3,552.1z
	 M370.5,546.4c-1.7-1.5-3.8-2.4-6.1-2.2c-2.4,0.2-3.9,1.7-4.4,3.9c-0.8,3.8,1.9,8.3,5.5,9.4c0.4,0.1,0.9,0.2,1.2,0
	c0.5-0.4,1.1-0.9,1.3-1.5c0.3-1.1-0.3-2.1-1.3-2.6c-0.5-0.2-1.2-0.2-1.7,0c-0.2,0.1-0.3,1-0.2,1.4c0.3,0.6,0.8,1.1,1.9,0.6
	c-0.4-0.5-0.7-0.9-1.1-1.3c0.5,0,1.1,0.2,1.4,0.6c0.2,0.3,0.2,1.2,0,1.4c-0.4,0.3-1.2,0.5-1.5,0.3c-0.6-0.5-1.1-1.2-1.6-1.9
	c-0.3-0.4-0.5-1-0.8-1.4c-1.2-1.4-1.9-3-1.5-4.9c0.6-2.6,3.3-4,5.6-2.8c-2.4-0.3-4,0.6-4.8,2.8c-0.7,2,0.3,3.4,1.6,4.7
	c0.5-0.3,1-0.5,1.5-0.7c-1.4-1-2-2.1-1.6-3.3c0.4-1.6,1.7-2.7,3.3-2.7C368.3,546,369.4,546.2,370.5,546.4L370.5,546.4z M371.8,546.9
	c-1.3-1.9-2.8-3.7-4.8-4.8c-0.3-0.1-0.7-0.1-1.1,0c-1.1,0.4-2.2,0.8-3.4,1.2c-0.3,0.1-0.6-0.1-0.9-0.2c0.2-0.2,0.3-0.1,0.4-0.2
	c0.3-0.2,0.7-0.4,1-0.6c0.1,0-0.1-0.5-0.1-0.5c-0.3,0-0.7,0-1,0.2c-2.2,1.2-3.6,3-4.2,5.5c0.4,0.4,0.8,0.8,1.3,1.1
	c0.6-3.6,2.6-5.3,6.1-5.2C367.8,543.5,369.9,545,371.8,546.9L371.8,546.9z M356,555c0.1-0.1,0.2-0.2,0.2-0.3
	c-0.2-1.2-0.8-1.6-2.6-1.9C354.5,553.7,355.2,554.3,356,555L356,555z M363.5,538.6c-0.2,0-0.4,0.1-0.7,0.1c0.2,0.7,0.3,1.4,0.5,2.1
	c0.2,0,0.3-0.1,0.5-0.1C363.7,540.1,363.6,539.3,363.5,538.6L363.5,538.6z"/>
<path d="M195.1,556.1c-0.8,0-1.5,0-2.2,0c-19.5,0-38.9,0-58.4,0c-19,0-38,0.1-57,0.1c-0.9,0-1.7,0.2-2.6,0.2c-0.4,0-0.9-0.4-1.2-0.7
	c-1-0.9-2-1.9-2.9-2.6c-1,0.9-1.8,1.7-2.6,2.3c-0.6,0.4-1.3,0.8-1.9,0.1c-0.6-0.7-0.2-1.4,0.2-2c0.8-1.1,1.9-1.5,3.2-1.5
	c0.8-1.8,0.1-3.6-1.7-3.9c-0.9-0.2-1.7-0.2-2,1.1c-0.2,0.9-0.8,1.6-1.9,1.3c-0.6,3.3-2.4,5.8-5.2,7.4c-2.5,1.4-4.2,0.5-4.6-2.1
	c-2.5-0.6-5-1.2-7.4-1.8c-0.4-0.1-0.8,0-1.2,0.2c-2.2,1.3-4.6,1-5.9-1c-0.3-0.5-0.5-1.1-0.7-1.7c-0.2-0.6-0.4-1.1-0.7-1.9
	c0.1,0,0.5-0.1,0.9-0.2c0.7-1.3,1.8-2,3.4-1.8c1.2,0.2,2.1,1.3,2.1,2.5c0,1.2-0.6,2.1-1.8,2.4c-1.1,0.3-2.4-0.8-2.2-2
	c0.1-0.5,0.6-1,1-1.2c0.2-0.1,0.7,0.2,1,0.3c-0.5,0.3-1,0.5-1.1,0.9c-0.1,0.2,0.2,0.9,0.4,1c0.4,0.1,1.1,0.1,1.4-0.2
	c0.3-0.3,0.5-1.1,0.4-1.5c-0.1-0.5-0.6-1.1-1.1-1.2c-0.9-0.4-1.7-0.1-2.4,0.7c-0.8,0.9-0.7,1.9-0.3,2.9c0.6,1.6,2.2,2.3,3.9,1.8
	c1.6-0.5,2.6-1.7,3.5-3c0.9-1.4,1.8-2.8,2.7-4.1c0.8-1.1,1.5-2.1,2.5-3.1c0.9-0.9,2-1.7,3-2.6c-1.9-1.6-3.8-3.3-6.7-2.9
	c0-0.1-0.1-0.2-0.1-0.4c0.4-0.2,0.9-0.6,1.3-0.5c1.3,0.3,2.5,0.7,3.7,1.4c1.2,0.7,2.3,1.7,3.4,2.5c0.4,0.3,0.9,0.5,1.5,0.9
	c-0.2-0.8-0.3-1.3-0.3-1.9c0-0.4-0.1-0.9,0.1-1.1c0.4-0.5,0.9-0.9,1.4-1.4c0.4,0.6,0.8,1.1,1,1.7c0.1,0.4-0.1,0.9-0.2,1.4
	c2.7,1.2,4.5,3.3,5.4,6.4c1.4-0.3,2.8-0.2,3.8,1c1,1.1,1.1,2.5,0.7,3.7c1.3,1.3,2.4,2.5,3.6,3.7c-0.2-1.8,1.1-1.3,2.1-1.3
	c19,0,38,0,57,0c19.5,0,39.1,0.1,58.6,0.1C193.4,554.3,194.4,554.6,195.1,556.1L195.1,556.1z M56.9,550.6c0.2-0.7,0.5-1.2,0.3-1.7
	c-0.1-0.3-0.8-0.7-1.2-0.7c-0.8,0-1.5,1.1-1.1,1.8c0.3,0.5,0.9,1.1,1.5,1.2c0.9,0.3,1.7-0.2,2.1-1.1c0.8-1.6-0.6-3.5-2.5-3.7
	c-2.9-0.4-4.6,1.9-6.6,3.3c-0.9,0.7-1.5,2-2.2,3.1c2.3,0.9,4.6,1.4,7,1.4c0.3,0,0.6-0.2,0.8-0.4c0.7-0.6,1.3-1.3,1.9-1.8
	c-0.2,0-0.5,0-0.8,0c-1.1-0.2-1.7-1-1.9-2c-0.2-0.9,0.2-1.7,1-2.2c0.9-0.5,1.8-0.4,2.4,0.3c0.4,0.4,0.6,1.1,0.5,1.7
	C58,550.5,57.4,550.8,56.9,550.6L56.9,550.6z M57.6,553.9c-0.3,0.4-0.6,0.7-0.8,1c-0.1,0.1,0.2,0.5,0.3,0.6c0.8,0.2,1.3-0.3,1.4-1.1
	c0.2-0.7,0-1.4-0.8-1.5c-1-0.1-1.7,0.4-2.2,1.3c-0.5,0.8-0.6,1.8,0,2.6c0.6,0.7,1.4,1,2.3,0.6c3-1.3,4.9-3.5,5.4-6.9
	c0.4-2.2-0.4-4.4-2-5.5c-2.6-1.8-7.1-0.4-8.5,1.5c3.2-1.1,5.3-0.7,6.3,1.3c0.8,1.6,0.4,2.8-1.3,4.1c0.5,0.2,1,0.5,1.5,0.7
	c1.3-1.3,2.2-2.7,1.6-4.6c-0.7-2.3-2.3-3.2-4.6-3.1c1.4-0.5,2.7-0.6,3.8,0.4c2.2,1.9,2.3,5,0.2,7.3c-0.4,0.4-0.5,1-0.8,1.5
	c-0.5,0.7-1.1,1.4-1.7,1.9c-0.3,0.2-1.1,0-1.4-0.4c-0.2-0.2-0.2-1,0-1.4C56.5,553.9,57.1,553.6,57.6,553.9L57.6,553.9z M51.5,546.5
	c1.4-0.8,2.9-2,4.6-2.7c4-1.5,7.3,0.5,8.1,4.8c0.4-0.4,0.8-0.8,1.2-1.2c-0.6-2.5-2-4.4-4.3-5.6c-0.3-0.1-0.6-0.1-0.9-0.1
	c0,0-0.2,0.3-0.1,0.4c0.2,0.3,0.5,0.5,0.8,0.7c0.1,0.1,0.4,0,0.5,0c-0.5,0.2-1,0.4-1.4,0.2c-1.1-0.4-2.1-0.8-3.2-1.2
	c-0.1-0.1-0.3,0-0.5,0.1C54.2,543.1,52.7,544.9,51.5,546.5L51.5,546.5z M67.3,555c0.7-0.7,1.4-1.3,2.2-2
	C67.7,553.2,67.2,553.6,67.3,555z M59.4,540.8l0.5,0.1c0.1-0.7,0.2-1.4,0.4-2.2c-0.2,0-0.4-0.1-0.6-0.1
	C59.6,539.3,59.5,540,59.4,540.8z"/>
<path d="M350.7,33.5c0.5,1.4,0.5,1.4-1,1.4c-39,0-78,0-117,0c-1.6,0-1.6-1.2-2.4-2.2c0.8,0,1.2,0,1.7,0c19.3,0,38.6,0,58,0
	c19.5,0,38.9-0.1,58.4-0.1c0.5,0,1.1,0,1.7,0C350.2,33,350.4,33.3,350.7,33.5L350.7,33.5z"/>
<path d="M73.3,32.7c0.5,0,1.1,0,1.7,0c18.1,0,36.2,0,54.2,0c20.8,0,41.7,0.1,62.5,0.1c0.4,0,0.7,0,1.1,0.1c-0.8,2.1-0.8,2.1-2.7,2.1
	c-20.4,0-40.8,0-61.2,0c-18.4,0-36.9,0-55.3,0c-1.5,0-1.5,0-1-1.4C72.8,33.3,73,33,73.3,32.7L73.3,32.7z"/>
<path d="M230.5,553.4c0.6-1.5,1.5-2.2,2.9-2.2c20.3,0,40.7,0,61.1,0c18.5,0,37,0,55.4,0c0.4,0,0.7,0.2,1.1,0.3
	c-0.2,0.4-0.3,0.8-0.5,1.2c-0.4,0.7-1,0.9-1.8,0.9c-18.2,0-36.4,0-54.7,0c-20.8,0-41.5-0.1-62.3-0.1
	C231.3,553.4,230.9,553.4,230.5,553.4L230.5,553.4z"/>
<path d="M192.8,553.4h-1.3c-19.2,0-38.4,0-57.6,0c-19.7,0-39.5,0.1-59.2,0.1c-0.4,0-1,0-1.2-0.2c-0.5-0.5-0.8-1.1-1.1-1.7
	c0.6-0.1,1.1-0.4,1.7-0.4c17.6,0,35.1,0,52.7,0c21.1,0,42.2,0,63.3,0.1C191.2,551.2,192.2,551.9,192.8,553.4L192.8,553.4z"/>
<path d="M349.2,30c-0.1,0.3-0.3,0.4-0.2,0.6c0.1,1.7-1.1,1.4-2,1.4c-19,0-38.1,0-57.1,0c-19.5,0-39.1-0.1-58.6-0.1
	c-1.4,0-2.3-0.4-3-1.9H349.2z"/>
<path d="M74,29.9h121.2c-0.8,1.2-1.3,1.9-2.7,1.9c-19-0.1-38.1-0.1-57.1,0c-19.8,0-39.6,0.1-59.4,0.1c-0.9,0-1.8,0.1-1.7-1.3
	C74.4,30.5,74.2,30.3,74,29.9L74,29.9z"/>
<path d="M217.6,556.9c2.2,0.6,4.2-0.1,6.2-0.9c2.3-0.9,4.1-2.6,5.7-4.4c0.3-0.3,0.4-0.8,0.6-1.2c0.2,0.2,0.3,0.3,0.5,0.5
	c-0.1,0.2-0.1,0.5-0.2,0.7c-2.6,4.3-6.3,6.8-11.3,7.1c-0.2,0-0.3,0-0.4,0c-2-0.4-3.7-0.3-5.5,1c-1.3,1-3,0.5-4.3-0.6
	c-0.8-0.7-1.4-0.8-2.3-0.6c-5.5,0.8-9.9-1.4-13.1-6.1c-0.3-0.4-0.6-0.9-0.9-1.4c0.1-0.1,0.2-0.2,0.2-0.2c0.3,0.3,0.7,0.6,1,1
	c2.9,3.3,6.3,5.4,10.7,5.4c0.4,0,0.7-0.1,1.1-0.2l0,0c0.5-0.1,1.1-0.1,1.5-0.2v-1.8c-1.3-0.5-2.7-0.7-3.7-1.4
	c-1.9-1.2-2.4-3.2-2-5.4c0.5-2.4,2.1-3.8,4.4-4.5c0.5-0.1,1-0.1,1.5-0.2c0.4-0.1,0.9-0.2,1.2-0.5c1.8-1.6,4.5-1.6,6.3,0
	c0.3,0.3,0.9,0.5,1.3,0.5c3.4,0.1,5.9,2.8,5.9,6.1c0,2.7-2.2,5-4.8,5.1c-0.3,0-0.7,0-1,0v2.1C216.5,556.7,217.1,556.8,217.6,556.9
	L217.6,556.9L217.6,556.9z M216.4,547.4c0,0.1,0,0.2,0,0.3c-0.1,0.1-0.2,0.2-0.2,0.2c-1.3,0.4-1.9,1.1-1.9,2.3
	c0,1.2,0.8,2.3,1.9,2.6c1.9,0.6,3.9-0.9,4.1-3c0.2-1.8-0.8-3.5-2.3-4.3c-1.7-0.9-3.7-0.5-5.2,1.1c0.2,0.4,0.5,0.7,0.5,0.9
	L216.4,547.4L216.4,547.4z M210,547.4c0.1-0.2,0.3-0.6,0.5-1c-1.5-1.1-3-1.8-4.7-1.2c-1.6,0.6-2.6,1.8-2.8,3.6
	c-0.2,1.5,0.4,2.8,1.6,3.6c1,0.6,2.1,0.7,3.1,0c0.9-0.6,1.3-1.6,1.2-2.7c-0.1-1.2-0.9-1.8-2-2.1c0,0-0.1-0.1-0.2-0.4L210,547.4
	L210,547.4z M209.6,557.4c1.5,1.3,2.7,1.3,3.8-0.1c-0.6-0.5-1.3-1-1.9-1.5C210.9,556.4,210.3,556.9,209.6,557.4z M211.5,552.6
	c0.8-1.3,0.8-3.4,0-4.5C211,549.7,210.9,551.1,211.5,552.6z M213.3,544c-1.2-0.8-2.2-0.8-3.3,0c0.6,0.4,1.1,0.8,1.7,1.2
	c0.3-0.2,0.5-0.4,0.7-0.6C212.6,544.5,212.9,544.3,213.3,544L213.3,544z M213.6,552.9c-1.1,1.8-1.1,2,0.8,2.9
	C214.1,554.8,213.9,554,213.6,552.9z M209.9,553.2c-0.1,0-0.3,0-0.4,0l-0.7,2.4c0.1,0.1,0.2,0.1,0.3,0.2c0.5-0.4,0.9-0.8,1.4-1.2
	C210.3,554,210.1,553.6,209.9,553.2L209.9,553.2z"/>
<path d="M43.9,58.2c0.3-0.3,0.8-0.5,1-0.9c0.8-1.4,1.7-2.8,2.2-4.2c0.3-0.7,0.1-1.7,0.1-2.6c1,0.5,1.1,1.4,0.9,2.3
	c-0.3,2.1-1.6,3.7-2.8,5.4c-0.6,0.9-1.3,1.8-2.1,3c1-0.2,1.7-0.4,2.3-0.3c0.5,0,1.1,0.2,1.5,0.5c0.3,0.2,0.5,0.7,0.5,1
	c-0.1,0.4-0.5,0.9-0.8,0.9c-0.7,0.1-1.4,0-2.2,0c-1.1,2.7-3.2,4.5-6.1,5.4c0,0.4,0,0.8,0,1.2c0,2.5-1.8,4.1-4.2,3.6
	c-0.7-0.2-0.9,0.1-1.2,0.6c-0.7,1.3-1.7,2.3-3.1,2.7c1-1.2,1.9-2.4,2.8-3.6c-0.9-1-1.8-1.7-2.4-2.6c-0.3-0.4-0.1-1.2-0.1-1.7
	c0.6,0,1.5-0.2,1.8,0.1c0.7,0.8,1.3,1.7,1.6,2.7c0.2,0.8,0.5,1,1.2,1c1.9,0.2,3.3-1.6,2.7-3.4c-0.1-0.3-0.6-0.5-0.9-0.6
	c-1.2-0.5-1.6-1-1.4-2.2c-3.3-0.7-5.7-2.6-7.2-5.7c-0.3-0.6-0.5-1.4-0.5-2.1c0.1-1.5,1-2.2,2.6-2.4c0.6-2.6,1.1-5,1.6-7.5
	c0.1-0.5,0-1.1-0.2-1.5c-0.8-1.7-1.2-3.4,0-4.9c0.6-0.8,1.6-1.5,2.6-1.7c0.8-0.2,1.4-0.4,1.6-1.3c0.1,0,0.2,0,0.3,0.1
	c0,0.4,0.1,0.8,0.1,1.4c1.1,0.7,1.9,1.8,1.7,3.5c-0.1,1.2-1.3,2.3-2.5,2.4c-1,0.1-2.1-0.8-2.3-1.9c-0.2-0.9,0.1-1.7,0.9-2
	c0.5-0.2,1.2-0.2,1.7,0c0.8,0.4,0.7,1.1,0.1,1.7c-0.3-0.4-0.6-0.8-0.9-1.2c-0.3,0.3-1,0.6-1,0.9c0.1,0.5,0.4,1.3,0.8,1.5
	c0.8,0.5,1.6,0,2-0.8c0.5-0.9,0.1-2.3-0.7-2.9c-1.7-1.2-4.2,0-4.4,2.1c-0.2,1.4,0.1,2.8,1.2,3.7c1.8,1.5,3.8,2.8,5.7,4.2l0,0
	c1,0.9,2,1.7,2.8,2.6c0.8,0.8,1.5,1.8,2.1,2.7C43.9,57.4,43.9,57.9,43.9,58.2c-0.5,0.9-0.6,0-0.7-0.2c-1.1-1.9-2.6-3.4-4-4.5
	c0.8,1.4,1.9,3,2.5,4.7c1.4,3.9-0.5,7.7-4.4,8.2c-0.1,0-0.2,0.1-0.2,0.2c1.3,1.4,1.5,1.4,3.2,0.5c0.2-0.1,0.5-0.2,0.7-0.4
	c1-1.2,1.9-2.3,2.9-3.5c0.1-0.1,0-0.5,0-0.7c-0.3,0.1-0.6,0.1-0.8,0.2c-0.2,0.3-0.2,0.7-0.4,1.4c-0.1-0.5-0.3-0.9-0.2-1.1
	c0.4-1.3,0.8-2.5,1.3-3.7C43.7,58.8,43.8,58.5,43.9,58.2L43.9,58.2z M34.9,59c0.8,0.2,1.4,0.5,1.9,0.3c0.3-0.1,0.6-1,0.5-1.3
	c-0.3-0.5-0.9-1-1.4-1.1c-1-0.1-1.8,1.1-1.6,2.1c0.3,1.7,2.1,2.4,3.5,1.3c1.3-1,1.8-3.1,0.9-5c-0.8-1.6-1.7-3.1-2.8-4.4
	c-0.8-0.9-2-1.5-3-2.3c-0.8,2.4-1.4,4.8-1.3,7.4c0,0.3,0.2,0.6,0.4,0.7c0.6,0.5,1.2,1,1.8,1.5c-0.1-0.1,0-0.5,0.2-0.9
	c0.5-0.9,1.2-1.3,2.2-1.3c0.9,0,1.5,0.5,1.9,1.4c0.4,0.9,0.2,1.7-0.4,2.2c-0.4,0.4-1.2,0.6-1.7,0.5C35.4,60.2,35.1,59.4,34.9,59
	L34.9,59z M32,59.6c-0.1,0-0.2,0.1-0.3,0.1c-0.1-0.3-0.1-0.6-0.3-0.8c-0.2-0.2-0.5-0.3-0.8-0.2c-0.1,0-0.4,0.5-0.3,0.6
	c0.2,0.4,0.5,0.9,0.9,1.1c0.3,0.2,0.9,0.1,1.1-0.1c0.3-0.3,0.4-0.9,0.3-1.3c-0.3-1.3-2-2.3-3.1-1.9c-1.2,0.4-1.6,1.7-0.9,3.2
	c1.1,2.4,2.9,4.1,5.4,4.9c3.2,1,6.1-0.3,6.9-3.1c0.3-1,0.2-2.1,0.1-3.1c-0.1-1.8-1.4-4.2-2.5-4.9c0.3,0.6,0.6,1.3,0.9,2
	c0.6,2-0.1,4.1-1.6,5c-1.5,0.9-2.5,0.6-4.2-1.1c-0.2,0.4-0.4,0.8-0.6,1.2c1.3,1.4,2.7,2.2,4.5,1.7c2.1-0.7,3-2.4,2.9-4.9
	c1.1,2.5-0.1,4.9-2.4,5.7c-2,0.6-3.6-0.1-5-1.4c-0.4-0.4-1.1-0.5-1.5-0.9c-0.6-0.5-1.3-1.1-1.7-1.8c-0.2-0.3,0.1-1.2,0.4-1.4
	c0.4-0.2,1.1-0.2,1.5,0.1C31.8,58.5,31.8,59.2,32,59.6L32,59.6z M30.7,69.5c0.8,0.9,1.4,1.7,2.1,2.4C32.6,70.1,32.2,69.6,30.7,69.5z
	 M44.7,61.6c0,0.2,0,0.4-0.1,0.6c0.7,0.1,1.4,0.2,2,0.3c0-0.2,0-0.4,0.1-0.6C46,61.8,45.4,61.7,44.7,61.6z"/>
<path d="M384.5,534.9c-1-0.9-2-1.7-2.8-2.6c-0.8-0.8-1.5-1.8-2.1-2.7c-0.2-0.3-0.2-0.7-0.2-1c0.5-0.8,0.6,0,0.7,0.3
	c1.1,1.9,2.6,3.4,4.6,4.8c-0.8-1-1.4-1.7-1.9-2.5c-0.5-0.8-0.9-1.7-1.2-2.6c-1.2-3.9,0.5-7.7,4.5-8.2c0.1,0,0.2-0.1,0.2-0.2
	c-1.3-1.4-1.5-1.4-3.2-0.5c-0.2,0.1-0.5,0.2-0.7,0.4c-1,1.2-1.9,2.3-2.9,3.5c-0.1,0.1,0,0.5,0,0.7c0.3-0.1,0.6-0.1,0.8-0.2
	c0.2-0.3,0.2-0.7,0.4-1.4c0.1,0.5,0.3,0.9,0.2,1.1c-0.4,1.3-0.8,2.5-1.3,3.7c-0.1,0.3-0.2,0.6-0.4,1c-0.3,0.3-0.8,0.5-1,0.9
	c-0.8,1.4-1.7,2.8-2.2,4.2c-0.3,0.7-0.1,1.7-0.1,2.6c-1-0.5-1.1-1.4-0.9-2.3c0.3-2.1,1.6-3.7,2.8-5.4c0.6-0.9,1.3-1.8,2.1-3
	c-1,0.2-1.7,0.4-2.3,0.3c-0.5,0-1.1-0.2-1.5-0.5c-0.3-0.2-0.5-0.7-0.5-1c0.1-0.4,0.5-0.9,0.8-0.9c0.7-0.1,1.4,0,2.2,0
	c1.1-2.7,3.2-4.6,6.1-5.4c0-0.4,0-0.8,0-1.2c0-2.5,1.8-4.1,4.2-3.6c0.7,0.2,0.9-0.1,1.2-0.6c0.9-1.6,1.9-2.4,3-2.6
	c-0.9,1.1-1.8,2.3-2.7,3.4c0.9,1,1.8,1.7,2.4,2.6c0.3,0.4,0.1,1.2,0.1,1.7c-0.6,0-1.5,0.2-1.8-0.1c-0.7-0.8-1.3-1.7-1.6-2.7
	c-0.2-0.8-0.5-1-1.2-1c-1.9-0.2-3.3,1.6-2.7,3.4c0.1,0.3,0.6,0.5,0.9,0.6c1.2,0.5,1.6,1,1.4,2.2c3.3,0.7,5.7,2.6,7.2,5.7
	c0.3,0.6,0.5,1.4,0.5,2.1c-0.1,1.5-1,2.2-2.6,2.4c-0.6,2.6-1.1,5-1.6,7.5c-0.1,0.5,0,1.1,0.2,1.5c0.8,1.7,1.2,3.4,0,4.9
	c-0.6,0.8-1.6,1.5-2.6,1.7c-0.8,0.2-1.4,0.4-1.6,1.3c-0.1,0-0.2,0-0.3-0.1c0-0.4-0.1-0.8-0.1-1.4c-1.1-0.7-1.9-1.8-1.7-3.5
	c0.1-1.2,1.3-2.3,2.5-2.4c1-0.1,2.1,0.8,2.3,1.9c0.2,0.9-0.1,1.7-0.9,2c-0.5,0.2-1.2,0.2-1.7,0c-0.8-0.4-0.7-1.1-0.1-1.7
	c0.3,0.4,0.6,0.8,0.9,1.2c0.3-0.3,1-0.6,1-0.9c-0.1-0.5-0.4-1.3-0.8-1.5c-0.8-0.5-1.6,0-2,0.8c-0.5,0.9-0.1,2.3,0.7,2.9
	c1.7,1.2,4.2,0,4.4-2.1c0.2-1.4-0.1-2.8-1.2-3.7C388.3,537.6,386.4,536.2,384.5,534.9L384.5,534.9L384.5,534.9z M388.3,527.9
	c-0.1,0.1-0.2,0.1-0.3,0.2c-0.7-0.8-1.6-0.9-1.9-0.2c-0.2,0.4-0.2,1.2,0.1,1.4c0.4,0.4,1.1,0.6,1.6,0.6c0.8-0.1,1.3-0.9,1.2-1.8
	c0-0.9-0.5-1.7-1.4-2c-1.6-0.5-3.2,0.8-3.4,2.7c-0.3,3.1,2,5,3.5,7.1c0.6,0.9,1.8,1.4,2.8,2.2c0.9-2.4,1.4-4.9,1.3-7.5
	c0-0.2-0.2-0.5-0.3-0.7c-0.6-0.5-1.2-1-1.7-1.4c0,0.1-0.2,0.5-0.4,0.9c-0.5,0.9-1.4,1.4-2.3,1.1c-0.6-0.2-1.3-0.8-1.7-1.4
	c-0.5-0.8-0.1-1.6,0.4-2.1c0.4-0.4,1.2-0.5,1.7-0.4C387.9,526.6,388.1,527.4,388.3,527.9L388.3,527.9z M391.2,527.2
	c0.1,0,0.2-0.1,0.3-0.1c0.1,0.3,0.1,0.6,0.3,0.7c0.2,0.2,0.5,0.3,0.8,0.2c0.2,0,0.4-0.5,0.3-0.6c-0.2-0.4-0.5-0.9-0.9-1.1
	c-0.3-0.2-0.9-0.1-1.1,0.1c-0.3,0.3-0.4,0.9-0.3,1.3c0.3,1.3,2,2.3,3.1,1.9c1.2-0.4,1.6-1.7,0.9-3.2c-1.1-2.5-3-4.1-5.5-4.9
	c-3.2-1-6,0.3-6.8,3.2c-0.3,1-0.2,2.1-0.2,3.1c0.1,1.8,1.4,4.1,2.5,4.9c-0.3-0.6-0.6-1.3-0.9-2c-0.6-2,0.1-4.1,1.6-5
	c1.5-0.9,2.6-0.6,4.2,1.1c0.2-0.4,0.4-0.8,0.7-1.3c-1.3-1.4-2.8-2.3-4.6-1.6c-2.1,0.7-3,2.4-2.7,4.9c-1.1-2.4,0.1-4.9,2.4-5.7
	c2-0.6,3.6,0.1,5,1.4c0.4,0.4,1.1,0.5,1.5,0.9c0.6,0.5,1.3,1.1,1.7,1.8c0.2,0.3,0,1.2-0.3,1.4c-0.4,0.2-1.1,0.2-1.5-0.1
	C391.5,528.3,391.4,527.6,391.2,527.2L391.2,527.2z M390.5,514.8c0.1,1.7,0.5,2.3,2.1,2.4C391.7,516.3,391.1,515.6,390.5,514.8z
	 M378.5,525.2l0.1-0.5c-0.7-0.1-1.4-0.2-2-0.3c0,0.2-0.1,0.4-0.1,0.6C377.2,525,377.9,525.1,378.5,525.2L378.5,525.2z"/>
<path d="M44,528.6c-0.1,0.4-0.1,0.8-0.3,1.1c-1.4,1.6-2.9,3.1-4.3,4.6c-0.2,0.2-0.4,0.4-0.6,0.6l0,0c-1.9,1.4-3.8,2.7-5.6,4.1
	c-1.1,0.9-1.4,2.3-1.3,3.8c0.2,1.6,1.6,2.7,3.2,2.6c1.3-0.1,2.2-1.1,2.2-2.5c0-1-0.6-1.6-1.5-1.8c-0.8-0.2-1.4,0.2-1.6,1
	c-0.1,0.4,0.1,0.9,0.4,1.2c0.1,0.2,0.7,0.3,0.9,0.1c0.3-0.2,0.3-0.7,0.6-1.3c0.1,0.5,0.5,1.1,0.3,1.3c-0.4,0.4-1,1-1.5,0.9
	c-1,0-1.7-1.2-1.5-2.2c0.3-1.3,1.5-2.1,2.6-1.9c2.1,0.5,2.9,3.1,1.5,4.8c-0.3,0.4-0.8,0.7-1.2,1.1v1.3c-0.1,0-0.2,0.1-0.3,0.1
	c-0.3-1-0.9-1.1-1.8-1.3c-2.8-0.6-4.1-3.7-2.6-6.4c0.4-0.8,0.4-1.4,0.2-2.2c-0.4-1.1-0.7-2.3-0.9-3.5c-0.2-1.2-0.3-2.3-0.4-3.5
	c-2.8-0.4-3.7-2.2-2.3-4.8c1.6-2.9,3.9-4.8,7.2-5.4c-0.4-1.2,0.2-1.7,1.1-2.1c0.4-0.2,1.1-0.5,1.1-0.8c0-0.8-0.1-1.8-0.5-2.4
	c-0.6-1-1.9-1.1-3.2-0.5c-0.1,1.3-0.4,2.5-1.5,3.3c-0.6,0.5-1.3,0.8-2,0.2c-0.6-0.6-0.2-1.4,0.2-1.9c0.6-0.8,1.2-1.6,2-2.7
	c-0.6-0.8-1.6-2-2.6-3.2c1.3,0.4,2.3,1.3,3,2.6c0.4,0.7,0.7,0.9,1.4,0.7c2-0.5,3.9,1.1,4,3.3c0,0.5,0,1,0,1.5
	c2.8,0.8,4.9,2.6,6.1,5.5c0.6,0,1.2-0.2,1.7-0.1c0.5,0.1,1.2,0.6,1.2,1c0,0.4-0.5,1.1-0.9,1.3c-0.6,0.2-1.4,0.1-2,0.1
	c-0.3,0-0.6-0.1-1.1,0c0.6,0.9,1.2,1.8,1.9,2.7c1.2,1.6,2.5,3.2,2.8,5.4c0.1,0.9,0.1,1.8-1,2.4c0.9-3.3-1.1-5.4-2.7-7.6
	C44.3,528.7,44.1,528.7,44,528.6c-0.1-0.1-0.1-0.3-0.1-0.5c-0.5-1.3-1.1-2.6-1.6-4c-0.1-0.3,0.1-0.8,0.1-1.1
	c0.2,0.2,0.2,0.4,0.2,0.5c0.2,0.3,0.4,0.6,0.6,0.9c0.1,0.1,0.5-0.1,0.5-0.1c0-0.3,0-0.7-0.2-1c-0.8-1.7-2.1-3-3.8-3.8
	c-1.6-0.8-1.7-0.8-2.8,0.8c0.1,0.1,0.3,0.1,0.4,0.1c2.4,0.4,3.9,1.8,4.4,4.3c0.6,2.6-0.2,4.8-1.6,6.9c-0.4,0.6-1,1.2-1.4,1.8
	c1.9-1.2,3.4-2.7,4.4-4.7C43.4,528.5,43.5,528,44,528.6L44,528.6z M32.8,537.9c2.5-1.2,3.9-3.5,5.4-5.7c0.8-1.1,0.9-2.5,0.8-3.8
	c-0.2-1.7-1.9-2.9-3.4-2.4c-1,0.3-1.4,1.1-1.4,2.1c0,0.9,0.5,1.5,1.3,1.7c0.8,0.2,1.5-0.1,1.7-0.9c0.1-0.4-0.1-1.2-0.4-1.5
	c-0.6-0.5-1.2-0.2-1.5,0.5c0,0-0.1,0-0.5-0.1c0.3-0.5,0.5-1.2,0.8-1.3c0.5-0.2,1.2-0.1,1.6,0.2c0.6,0.5,1,1.3,0.7,2.2
	c-0.3,1-0.9,1.5-2,1.5c-1.6,0-2.2-1-2.5-2c-0.5,0.3-1.1,0.8-1.6,1.2c-0.2,0.2-0.4,0.5-0.4,0.7C31.4,533.1,31.9,535.6,32.8,537.9
	L32.8,537.9z M33.7,526.8c2.1-2.1,4.2-2.1,5.4,0.2c0.4,0.7,0.6,1.6,0.5,2.4c-0.1,1.2-0.6,2.3-0.8,3.4c1.6-1.7,2.5-3.9,2.5-6.4
	c0-2.6-1.4-4.4-3.8-5c-3.5-0.9-8.4,2.3-9.1,5.9c-0.3,1.5,0.7,2.7,2.1,2.5c1-0.2,1.7-0.8,2.2-1.7c0.3-0.8,0.2-1.4-0.6-1.8
	c-0.6-0.3-1.6,0.3-1.7,1c0,0.3,0.2,0.6,0.2,0.9c0.3-0.1,0.6-0.2,0.9-0.4c0.1-0.1,0.1-0.4,0.1-0.6c0.1,0,0.2,0.1,0.4,0.1
	c-0.2,0.4-0.3,1.1-0.6,1.3c-0.4,0.2-1.1,0.3-1.5,0.1c-0.3-0.2-0.5-1.1-0.4-1.4c0.4-0.7,1-1.2,1.6-1.7c0.5-0.4,1.3-0.6,1.8-1.1
	c2.2-1.9,4.8-2,6.6-0.1c1.2,1.1,1.5,3.1,0.7,4.3c-0.1-2.6-1-4.1-2.8-4.6c-1.6-0.5-3.3,0.2-4.5,1.8C33.3,526,33.5,526.4,33.7,526.8
	L33.7,526.8z M33,515.1c-0.1-0.1-0.2-0.2-0.2-0.3c-0.6,0.7-1.3,1.5-1.9,2.2l0.3,0.3C32.4,517.1,32.7,516.2,33,515.1z M46.7,524.9
	c0-0.2-0.1-0.4-0.1-0.6c-0.7,0.1-1.4,0.3-2,0.4c0,0.2,0.1,0.3,0.1,0.5L46.7,524.9L46.7,524.9z"/>
<path d="M379.3,58.2c0.1-0.4,0.1-0.8,0.3-1.1c1.4-1.6,2.9-3.1,4.3-4.6c0.2-0.2,0.4-0.4,0.6-0.6l0,0c1.9-1.4,3.8-2.7,5.6-4.1
	c1.1-0.9,1.4-2.3,1.3-3.8c-0.2-1.6-1.6-2.7-3.2-2.6c-1.3,0.1-2.2,1.1-2.2,2.5c0,1,0.6,1.6,1.5,1.8c0.8,0.2,1.4-0.2,1.6-1
	c0.1-0.4-0.1-0.9-0.4-1.2c-0.1-0.2-0.7-0.3-0.9-0.1c-0.3,0.2-0.3,0.7-0.6,1.3c-0.1-0.5-0.5-1.1-0.3-1.3c0.4-0.4,1-1,1.5-0.9
	c1,0,1.7,1.2,1.5,2.2c-0.3,1.3-1.5,2.1-2.6,1.9c-2.1-0.5-2.9-3.1-1.5-4.8c0.3-0.4,0.8-0.7,1.2-1.1v-1.3c0.1,0,0.2-0.1,0.3-0.1
	c0.3,1,0.9,1.1,1.8,1.3c2.8,0.6,4.1,3.7,2.6,6.4c-0.4,0.8-0.4,1.4-0.2,2.2c0.6,2.3,1,4.6,1.5,7.1c2.6,0.4,3.4,2.2,2.1,4.8
	c-1.4,2.8-3.6,4.4-7.2,5.4c0.4,1.1-0.2,1.6-1.1,2.1c-0.4,0.2-1.1,0.5-1.1,0.8c0,0.8,0.1,1.8,0.5,2.4c0.6,1,1.9,1.1,3.2,0.5
	c0.1-1.3,0.4-2.5,1.5-3.3c0.6-0.5,1.3-0.8,2-0.2c0.6,0.6,0.2,1.4-0.2,1.9c-0.6,0.8-1.2,1.6-1.8,2.4c-0.2-0.1-0.3-0.2-0.4-0.2
	c0.4,0.7,0.8,1.4,1.3,2.1c0.5,0.6,1,1.2,1.3,1.7c-1.1-0.4-2.2-1.3-2.9-2.6c-0.4-0.7-0.7-0.9-1.4-0.7c-2,0.5-3.9-1.1-4-3.3
	c0-0.5,0-1,0-1.5c-2.8-0.8-4.9-2.6-6.1-5.5c-0.6,0-1.2,0.2-1.7,0.1c-0.5-0.1-1.2-0.6-1.2-1c0-0.4,0.5-1.1,0.9-1.3
	c0.6-0.2,1.4-0.1,2-0.1c0.3,0,0.6,0.1,1.1,0c-0.6-0.9-1.2-1.8-1.9-2.7c-1.2-1.6-2.5-3.2-2.8-5.4c-0.1-0.9-0.1-1.8,1-2.4
	c-0.9,3.3,1.1,5.4,2.7,7.6C378.9,58.1,379.2,58.1,379.3,58.2c0.1,0.1,0.1,0.3,0.1,0.5c0.5,1.3,1.1,2.6,1.6,4
	c0.1,0.3-0.1,0.8-0.1,1.1c-0.2-0.2-0.2-0.4-0.2-0.5c-0.2-0.3-0.4-0.6-0.6-0.9c-0.1-0.1-0.5,0.1-0.5,0.1c0,0.3,0,0.7,0.2,1
	c0.8,1.7,2.1,3,3.8,3.8c1.6,0.8,1.7,0.8,2.7-0.8c0,0,0-0.1-0.1-0.1c-0.1,0-0.2-0.1-0.3-0.1c-2.4-0.4-3.9-1.8-4.4-4.3
	c-0.6-2.6,0.2-4.8,1.6-6.9c0.4-0.6,1-1.2,1.4-1.8c-1.9,1.2-3.4,2.7-4.4,4.7C379.8,58.3,379.7,58.8,379.3,58.2L379.3,58.2z
	 M390.5,48.9c-2.6,1.2-3.9,3.5-5.4,5.7c-0.8,1.1-0.9,2.5-0.8,3.8c0.2,1.7,1.9,2.9,3.4,2.4c1-0.3,1.4-1.1,1.4-2.1
	c0-0.9-0.5-1.5-1.3-1.7c-0.8-0.2-1.5,0.1-1.7,0.9c-0.1,0.4,0.1,1.2,0.4,1.5c0.6,0.5,1.2,0.2,1.5-0.5c0,0,0.1,0,0.5,0.1
	c-0.3,0.5-0.5,1.2-0.8,1.3c-0.5,0.2-1.2,0.1-1.6-0.2c-0.6-0.5-1-1.3-0.7-2.2c0.3-1,0.9-1.5,2-1.5c1.6,0,2.2,1,2.5,2
	c0.5-0.3,1.1-0.8,1.6-1.2c0.2-0.2,0.4-0.5,0.4-0.7C391.9,53.7,391.3,51.2,390.5,48.9L390.5,48.9z M384.4,54.2
	c-1.5,1.6-2.3,3.6-2.5,6c-0.1,2.5,1.3,4.6,3.7,5.2c3.8,1,8.1-2,9.2-5.8c0.4-1.4-0.6-2.6-1.9-2.5c-1.1,0.1-1.8,0.7-2.3,1.7
	c-0.3,0.6-0.4,1.4,0.3,1.7c0.4,0.2,1.1,0,1.5-0.3c0.3-0.2,0.3-0.8,0.4-1.2c0-0.1-0.4-0.3-0.5-0.3c-0.3,0.3-0.5,0.6-0.7,0.9
	c0,0-0.1,0-0.3,0c-0.2-0.7-0.1-1.3,0.5-1.5c0.4-0.2,1.1-0.2,1.4,0.1c0.3,0.3,0.5,1.2,0.2,1.5c-0.4,0.7-1.1,1.2-1.7,1.6
	c-0.4,0.3-1,0.5-1.4,0.9c-2.2,2.1-4.9,2.3-6.8,0.4c-1.2-1.1-1.5-3-0.7-4.5c-0.2,2.4,0.7,4,2.7,4.8c1.8,0.7,3.3-0.2,4.6-1.6
	c-0.2-0.4-0.5-0.8-0.7-1.3c-0.9,1.3-2,2.1-3.5,1.5c-1.5-0.5-2.5-1.9-2.4-3.7C383.7,56.5,384.1,55.3,384.4,54.2L384.4,54.2z
	 M392.4,69.8c-1.4-0.1-1.8,0.5-2.1,2.4C391.1,71.2,391.7,70.5,392.4,69.8z M376.5,61.8c0,0.2,0.1,0.4,0.1,0.7c0.7-0.1,1.4-0.3,2-0.4
	l-0.1-0.5C377.9,61.7,377.2,61.8,376.5,61.8L376.5,61.8z"/>
<path d="M73.3,32.7c-0.2,0.3-0.5,0.6-0.7,0.8c-0.6,0.3-1.2,0.7-1.8,1c0.8,3.5-1.3,5.7-4.3,5.1c-0.7,1.3-1.3,2.7-2.2,3.8
	c-0.9,1.1-2.2,1.9-3.3,2.8c0,0.5,0.1,1.3,0,1.9c-0.1,0.4-0.6,0.9-0.9,0.9c-0.3,0.1-1-0.3-1-0.6c-0.2-1.1-0.3-2.2-0.4-3.4
	c-0.2,0.1-0.7,0.3-1.1,0.6c-1.3,1-2.6,2.1-4,2.9c-1,0.6-2.1,0.8-3.2,1.1c-0.4,0.1-0.8-0.3-1.2-0.7c2.9,0.2,4.8-1.5,6.9-3.2
	c-3-1.7-4.9-4.3-6.6-7.1c-0.8-1.3-1.7-2.6-2.6-3.8c-1-1.3-2.3-2-4-1.9c-1.2,0.1-2.3,1-2.6,2.2c-0.3,1.2-0.1,2.5,0.8,3
	c0.6,0.3,1.5,0.5,2.2,0.3c0.4-0.1,0.9-0.9,1-1.4c0.1-0.4-0.3-1.1-0.6-1.4c-0.3-0.2-0.9-0.1-1.3,0c-0.2,0.1-0.4,0.8-0.3,1.1
	c0.1,0.3,0.7,0.4,1.2,0.6c-0.5,0.1-1,0.5-1.2,0.3c-0.4-0.3-0.8-0.8-0.9-1.2c-0.2-0.9,0.7-1.8,1.6-2c1-0.2,2.1,0.7,2.3,1.8
	c0.2,1.1-0.1,2-1,2.6c-0.9,0.7-1.9,0.8-2.8,0.3c-1-0.6-1.9-1.4-2.9-2.1c0.8-0.3,0.9-0.9,1-1.8c0.3-2.5,3.1-4.1,5.6-2.8
	c1.3,0.6,2.3,0.5,3.6,0.1c1.9-0.5,3.9-0.8,5.9-1.2c0,0.1,0,0,0-0.1c0.2-2.3,1.9-3.4,4-2.4c3.2,1.5,5.1,4.1,5.8,7.7
	c1.1-0.4,1.6,0.3,1.9,1.1c0.3,0.8,0.6,1.4,1.6,1.3c1-0.1,1.9-0.5,2.2-1.5c0.2-0.5,0.2-1.1,0.2-1.7c0-0.5-0.2-0.8-0.9-0.9
	c-1.2-0.1-2.2-0.6-2.8-1.8c-0.2-0.5-0.2-1.3,0-1.6c0.3-0.3,1.2-0.3,1.5,0c0.9,0.6,1.6,1.5,2.7,2.5c1-0.9,2.2-1.8,3.4-2.8
	C73.8,31.5,73.5,32.1,73.3,32.7L73.3,32.7z M47.2,33.8c0.8,1.1,1.5,2.2,2.2,3.2c0.1,0.1,0.2,0.3,0.4,0.4c0.7,0.5,1.5,1,2.2,1.5
	c1.3,1.1,2.8,1.5,4.4,1.2c1.2-0.2,2.2-1.2,2.4-2.4c0.2-1-0.5-2.1-1.5-2.4c-1-0.3-1.9,0.1-2.3,1.1c-0.3,0.8-0.1,1.5,0.6,1.8
	c0.4,0.2,1.3,0.1,1.5-0.2c0.6-0.6,0.2-1.3-0.4-1.9c0.6,0.1,1.2,0.3,1.4,0.7c0.2,0.5,0,1.2-0.2,1.6c-0.6,0.9-1.8,1-2.7,0.4
	c-0.8-0.5-1.2-1.6-0.8-2.6c0.5-1.3,1.5-1.8,2.6-1.7c-0.6-0.6-1.2-1.2-1.9-1.8c-0.2-0.2-0.5-0.4-0.8-0.4
	C51.8,32.3,49.5,32.9,47.2,33.8L47.2,33.8z M52.8,40.5c1.6,1.5,3.6,2.3,5.9,2.2c2.4-0.1,4.1-1.6,4.6-4c0.8-3.8-1.9-8.3-5.5-9.3
	c-0.4-0.1-0.8-0.1-1.2,0c-0.7,0.2-1.2,0.7-1.3,1.5c-0.1,1.2,0.4,2.1,1.4,2.6c0.5,0.2,1.2,0.2,1.7,0c0.2-0.1,0.3-1,0.2-1.4
	c-0.3-0.6-0.8-1.1-1.9-0.5c0.4,0.5,0.7,0.9,1.1,1.3c-0.7,0.3-1.2,0-1.4-0.7c-0.1-0.4-0.1-1.2,0.1-1.3c0.4-0.3,1.2-0.5,1.5-0.2
	c0.6,0.5,1.1,1.2,1.6,1.9c0.3,0.4,0.4,0.9,0.7,1.3c1.3,1.4,2,3,1.5,5c-0.6,2.6-3.4,4-5.6,2.7c2.4,0.4,4-0.6,4.7-2.7
	c0.7-2-0.2-3.5-1.6-4.8c-0.5,0.3-1,0.5-1.5,0.8c1.4,1,2,2.1,1.6,3.3c-0.4,1.5-1.7,2.7-3.2,2.7C55,40.9,53.9,40.6,52.8,40.5
	L52.8,40.5z M51.4,39.9c1.2,1.9,2.7,3.6,4.7,4.7c0.3,0.2,0.8,0.1,1.2,0c1.1-0.3,2.2-0.8,3.4-1.1c0.2-0.1,0.6,0.1,0.9,0.2
	c-0.2,0.2-0.3,0.1-0.4,0.2c-0.3,0.2-0.7,0.4-0.9,0.6c-0.1,0,0.1,0.5,0.1,0.5c0.3,0,0.7-0.1,1-0.2c2.2-1.2,3.6-3,4.2-5.5
	c-0.4-0.4-0.8-0.8-1.3-1.1c-0.5,3.5-2.6,5.3-5.9,5.3C55.5,43.3,53.3,41.8,51.4,39.9L51.4,39.9z M67.3,31.8c-0.1,1.4,0.6,2,2.3,2.1
	C68.7,33.1,68,32.4,67.3,31.8z M59.8,46c-0.1,0-0.2,0-0.3,0c0.1,0.7,0.2,1.4,0.3,2.2C60.6,47.3,60.3,46.6,59.8,46L59.8,46z"/>
<path d="M350.7,33.5c-0.2-0.3-0.5-0.6-0.7-0.8c-0.3-0.6-0.5-1.1-0.8-1.7c1.2,1,2.4,2,3.5,2.9c0.9-0.9,1.7-1.7,2.5-2.4
	c0.5-0.4,1.3-0.8,1.7-0.1c0.3,0.4,0.2,1.3-0.1,1.8c-0.5,1.1-1.5,1.5-2.6,1.6c-0.6,0-0.8,0.3-0.9,0.9c-0.3,1.7,0.7,3,2.3,3.2
	c0.8,0.1,1.5,0,1.7-1.1c0.2-0.9,0.8-1.7,1.9-1.3c0.7-3.4,2.5-5.9,5.5-7.5c2.3-1.2,4.1-0.2,4.3,2.2c2.6,0.6,5,1.3,7.5,1.8
	c0.4,0.1,0.8-0.1,1.2-0.3c2.2-1.3,4.5-0.9,5.8,1c0.5,0.8,0.6,1.7,0.9,2.6c-0.1,0-0.2,0.1-0.2,0.1c0.3,0.2,0.6,0.3,0.9,0.5
	c0,0.1-0.1,0.3-0.1,0.3c-1.1-0.1-1.4,1-2.2,1.5c-1,0.7-2.1,0.8-3.2,0.2c-1-0.5-1.4-1.7-1.2-2.8c0.2-1,1-1.8,2-1.8
	c0.9,0,1.6,0.4,1.9,1.3c0.3,0.8,0.1,1.4-0.6,1.8c-0.6,0.4-1,0.1-1.3-0.4c0.4-0.2,0.9-0.2,1.1-0.5c0.1-0.3,0-0.9-0.3-1.1
	c-0.3-0.2-1-0.3-1.3-0.1c-0.4,0.3-0.7,1.1-0.6,1.5c0.1,0.6,0.7,1.2,1.2,1.4c0.8,0.4,1.7,0.1,2.3-0.6c0.8-0.9,0.7-1.9,0.4-2.9
	c-0.5-1.6-2.3-2.3-4-1.8c-1.6,0.5-2.6,1.7-3.5,3c-1.4,2-2.6,4.1-4.1,5.9c-1.1,1.4-2.6,2.6-3.9,3.8c1.1,1.5,3.5,2.7,6.5,3
	c-0.5,1.1-1.4,0.9-2.2,0.7c-2.1-0.5-3.6-1.9-5.3-3.2c-0.7-0.5-1.4-1-2.3-1.6c0.1,1.1,0.3,1.8,0.3,2.5c0,1-0.7,1.9-1.4,1.9
	c-0.7-0.1-1.2-1.1-1-2.2c0.1-0.3,0.1-0.6,0.2-0.9c-2.7-1.2-4.5-3.4-5.4-6.3c-2.9,0.6-5.4-1.3-4.5-5
	C351.9,34.3,351.3,33.9,350.7,33.5L350.7,33.5z M366.2,34.6c1.5,0.1,2.3,0.5,2.7,1.7c0.4,1.2-0.2,2.4-1.4,2.8
	c-1,0.3-2.2-0.2-2.5-1.3c-0.1-0.4,0-1,0.3-1.3c0.2-0.3,0.7-0.3,1-0.4c-0.2,0.7-0.4,1.3-0.3,1.8c0.1,0.3,0.7,0.6,1.1,0.6
	c0.8,0,1.5-1.1,1.1-1.8c-0.3-0.5-0.9-1.1-1.5-1.3c-0.9-0.3-1.7,0.2-2.1,1.1c-0.8,1.6,0.5,3.5,2.5,3.7c3,0.4,4.7-1.9,6.7-3.4
	c0.9-0.7,1.4-2,2.3-3.2c-2.3-0.4-4.4-0.8-6.5-1.2c-0.8-0.1-1.4,0.1-1.9,0.8C367.5,33.8,366.8,34.2,366.2,34.6L366.2,34.6z
	 M366.9,41.7c-1.3,0.5-2.6,0.6-3.8-0.4c-2.3-1.9-2.3-5-0.1-7.4c0.3-0.4,0.6-0.9,0.8-1.4c0.3-1,0.9-1.8,1.9-2
	c0.4-0.1,1.2,0.2,1.3,0.6c0.2,0.3,0,1.1-0.3,1.5c-0.2,0.3-0.8,0.3-1.1,0.4c0.4-0.5,0.7-1,1-1.5c-1.3-0.3-1.8,0.1-2,1
	c-0.2,0.7,0,1.3,0.8,1.4c1,0.1,1.7-0.4,2.2-1.2c0.5-0.8,0.7-1.7,0.1-2.6c-0.5-0.8-1.3-0.9-2.3-0.6c-2.9,1-5.5,4.4-5.6,7.8
	c-0.1,2.4,1.2,4.6,3.3,5.2c2.8,0.9,5.3-0.2,7.4-1.9c-1.1,0.2-2.2,0.4-3.4,0.4c-1.6,0-2.9-1.2-3.3-2.7c-0.3-1.2,0.2-2.3,1.6-3.3
	c-0.5-0.2-1-0.5-1.4-0.7c-1.7,1.6-2.3,3.3-1.6,4.9C363.3,41,364.8,41.9,366.9,41.7L366.9,41.7z M361.8,43.9c0-0.1,0-0.1,0-0.2
	c0.3-0.1,0.5-0.3,0.8-0.3c1,0.3,2.2,0.4,3.1,1c0.8,0.5,1.4,0.4,2-0.1c0.4-0.3,0.8-0.5,1.1-0.8c1.1-1.2,2.2-2.3,3.2-3.4
	c-1.6,0.9-3.1,2.1-4.8,2.8c-2.1,0.9-4.4,0.8-6.2-1c-1-1-1.5-2.4-2.2-3.6c-0.2,0.2-0.6,0.5-0.9,0.9c0.6,2.5,2.2,4.7,4.3,5.6
	c0.3,0.1,0.7,0,1,0c-0.3-0.3-0.5-0.7-0.8-0.9C362.2,43.8,361.9,43.9,361.8,43.9L361.8,43.9z M353.8,33.7c1.8-0.1,2.4-0.6,2.3-2
	C355.2,32.4,354.5,33.1,353.8,33.7z M362.9,48.1c0.2,0,0.4,0.1,0.6,0.1c0.1-0.7,0.2-1.4,0.3-2.2c-0.2,0-0.4-0.1-0.5-0.1
	C363.2,46.6,363,47.4,362.9,48.1L362.9,48.1z"/>
<path d="M225.3,27.6c0.4,0,0.8,0,1.1,0c12.3,0,24.6,0,36.9,0c30.9,0,61.7,0,92.6,0c0.6,0,1.6-0.4,1.6,0.6c0,0.9-1,0.5-1.5,0.5
	c-21.7,0-43.4,0-65.1,0c-20.2,0-40.4,0-60.6-0.1c-1.1,0-2.1,0.1-3.2,0c-0.6-0.1-1.2-0.4-1.8-0.6C225.3,27.9,225.3,27.8,225.3,27.6
	L225.3,27.6z"/>
<path d="M198,28.1c-0.6,0.2-1.3,0.6-1.9,0.6c-12.8,0-25.6,0-38.3,0c-29.9,0-59.9,0-89.8,0c-0.5,0-1.1,0.1-1.7,0
	c-0.2,0-0.4-0.3-0.6-0.5c0.2-0.2,0.3-0.5,0.6-0.6c0.3-0.1,0.7,0,1,0c22.3,0,44.6,0,66.9,0c20.9,0,41.8,0,62.7,0c0.4,0,0.8,0,1.1,0
	C197.9,27.8,197.9,27.9,198,28.1L198,28.1z"/>
<path d="M225.2,558c0.6-0.2,1.2-0.6,1.8-0.6c3.8-0.1,7.6,0,11.5,0c38.9,0,77.9,0,116.8,0c0.5,0,1.1-0.1,1.7,0c0.2,0,0.4,0.3,0.6,0.5
	c-0.2,0.2-0.3,0.5-0.6,0.6c-0.3,0.1-0.6,0-0.9,0c-22.4,0-44.8,0-67.2,0c-20.8,0-41.7,0-62.5,0c-0.4,0-0.8,0-1.1,0
	C225.3,558.3,225.3,558.2,225.2,558L225.2,558z"/>
<path d="M197.9,558.5c-0.4,0-0.8,0-1.1,0c-12.3,0-24.6,0-36.9,0c-30.9,0-61.7,0-92.6,0c-0.6,0-1.6,0.4-1.6-0.6c0-0.9,1-0.5,1.5-0.5
	c21.7,0,43.4,0,65.1,0c20.2,0,40.4,0,60.6,0.1c1.1,0,2.1-0.1,3.2,0c0.6,0.1,1.2,0.4,1.8,0.6C198,558.2,197.9,558.3,197.9,558.5
	L197.9,558.5z"/>
<path d="M55.7,529.6c-6.7,7.2-13.5,14.4-20.2,21.6c-2.2,2.3-4.1,4.8-6.2,7.2c-0.3,0.4-0.7,0.7-1,1.1c-0.8,1.1-1.8,1.4-3.2,1.1
	c-0.2-1.1,0.5-1.9,1.1-2.5c1.5-1.6,3.2-3,4.8-4.5c7.7-7.6,15.5-15.3,23.2-22.9c0.4-0.4,0.9-0.9,1.3-1.3
	C55.6,529.4,55.7,529.5,55.7,529.6L55.7,529.6z M26.1,559.9c0.1,0.1,0.2,0.2,0.3,0.3c1-1.1,1.9-2.2,2.9-3.2
	c-0.1-0.1-0.2-0.2-0.2-0.2C27.9,557.5,26.8,558.5,26.1,559.9L26.1,559.9z"/>
<path d="M46.3,545.6c-0.8-0.2-1-0.8-0.9-1.7c0.2-1,1.3-1.8,2.3-1.7c1.2,0.1,1.8,1,1.9,3c0.7-1.1,0.8-2.7,0.2-3.8
	c-0.7-1.2-1.8-1.2-2.9-1c0.8-1.3,2.3-1.3,3.3,0.1c0.8,1.1,1,2.3,0.8,3.7c-0.5,2.4-1.9,4-3.9,5c0.4-0.5,0.9-1,1.4-1.7
	c-2.5,0.9-3.9,0.7-4.7-0.9c-0.7-1.4-0.8-2.5,0.5-3.2c0,0.6-0.2,1.1-0.1,1.6c0.1,1,0.5,1.8,1.4,2.1c0.9,0.3,1.7,0,2.4-0.6
	c0.7-0.7,1-1.6,0.7-2.6c-0.1-0.3-0.8-0.8-1.1-0.7c-0.5,0.1-1.1,0.5-1.3,0.9C46.1,544.5,46.3,545.1,46.3,545.6L46.3,545.6z"/>
<path d="M377,41.2c0.7,0.2,0.9,0.8,0.8,1.6c-0.2,1-1.3,1.8-2.3,1.7c-1.2-0.1-1.8-1-1.9-3c-0.7,1-0.8,2.7-0.2,3.7
	c0.7,1.2,1.7,1.2,3,1c-0.6,1.1-1.3,1.2-2.2,0.8c-1.3-0.5-2.1-2-2-3.6c0.1-2.4,1.9-5.1,4.1-6c-0.5,0.6-0.9,1.1-1.4,1.7
	c2.6-0.9,4-0.6,4.8,1.1c0.7,1.6,0.5,2.4-0.5,2.9c0-0.7,0-1.5-0.2-2.3c-0.4-1.3-1.6-1.8-2.8-1.3c-1.3,0.5-2.1,2.2-1.5,3.2
	c0.2,0.3,0.7,0.7,1,0.6c0.5-0.1,1.1-0.5,1.3-0.9C377.2,42.3,377,41.7,377,41.2z"/>
<path d="M46.2,41.3c0,0.5-0.1,1.3,0.2,1.6c0.3,0.4,1.1,0.8,1.5,0.6c0.4-0.1,0.7-1,0.7-1.5c0-1.4-1.3-2.6-2.6-2.5
	c-1.3,0.1-2.1,1.2-2,2.8c0,0.3,0.1,0.7,0.2,1c-1.4-0.6-1.3-1.7-0.7-2.9c0.8-1.7,2.2-2,4.8-1.1c-0.5-0.6-1-1.2-1.4-1.7
	c2.7,1.1,4.6,4.4,4,7.1c-0.2,1.1-0.8,2-1.8,2.4c-0.9,0.4-1.7,0.4-2.3-0.8c1.2,0.2,2.4,0.2,3-1c0.6-1.3,0.5-2.5-0.2-3.9
	c-0.2,2.2-0.7,3.1-2,3.1c-1,0.1-2.1-0.8-2.3-1.8C45.2,41.9,45.5,41.4,46.2,41.3L46.2,41.3z"/>
<path d="M379,543.5c1.4,0.7,1.3,1.9,0.6,3.2c-0.8,1.6-2.4,1.8-4.5,1c0.4,0.5,0.8,1,1.2,1.5l-0.2,0.2c-0.8-0.8-1.7-1.4-2.4-2.3
	c-1.2-1.4-1.8-3.1-1.3-5c0.3-0.9,1-1.8,1.7-2.4c0.8-0.6,1.7-0.5,2.4,0.7c-1.2-0.2-2.4-0.2-3,1c-0.6,1.3-0.5,2.5,0.1,3.9
	c0.3-2.3,0.8-3.1,2.1-3.2c1,0,2,0.8,2.2,1.7c0.1,0.9-0.1,1.5-1,1.7c0.1-0.4,0.4-0.8,0.3-1.2c-0.1-0.4-0.4-0.8-0.7-1.1
	c-0.8-0.7-1.8-0.2-1.9,0.9c-0.1,1.1,0.4,2,1.3,2.6c0.8,0.5,1.7,0.6,2.5,0c0.9-0.6,1-1.6,0.9-2.5C379.1,544.1,379,543.8,379,543.5
	L379,543.5z"/>
<path d="M384.4,536.3c0.8,0.9,1.5,1.9,1.3,3.2c-0.3,1.3-1.1,2-2.3,2.4c-1.3,0.4-2.2,0-3-1.1c0.8,0.1,1.5,0.3,2.3,0.3
	c1,0,1.7-0.4,2-1.4c0.3-1,0-1.8-0.7-2.5c-0.7-0.7-1.6-1-2.5-0.6c-0.3,0.1-0.7,0.7-0.6,1c0.1,0.4,0.4,1.1,0.7,1.2
	c0.4,0.2,1.1,0.1,1.6,0.1c-0.1,0.6-0.6,0.9-1.3,0.9c-1,0-1.9-1-1.9-2.1c0-1.2,0.7-2.1,1.8-2.1c0.6,0,1.3,0.2,1.9,0.2
	C384,536,384.2,536.1,384.4,536.3L384.4,536.3z"/>
<path d="M383.9,50.9c-0.7,0.1-1.4,0.3-2,0.2c-1.1,0-1.8-1-1.8-2.2c0.1-1.1,1-2.1,2-2c0.5,0.1,0.9,0.5,1.4,0.8
	c-0.1,0.1-0.1,0.2-0.2,0.2c-0.4-0.1-0.8-0.4-1.1-0.3c-0.8,0.1-1.3,0.6-1.3,1.5c0,1,0.7,1.2,1.5,1.1c1.4-0.1,2.6-1.4,2.5-2.8
	c-0.1-1.3-1.2-2.1-2.8-1.9c-0.5,0.1-1.1,0.3-1.6,0.4c0.8-1.8,2.6-1.5,3.8-0.7c1.5,0.9,1.7,2.8,0.7,4.3c-0.2,0.3-0.5,0.6-0.7,0.9
	C384.3,50.7,384.1,50.8,383.9,50.9L383.9,50.9z"/>
<path d="M38.8,50.5c-0.1-0.1-0.2-0.3-0.3-0.4c-1.3-1.5-1.3-3.2,0-4.4c1.4-1.3,3-1.1,4.3,0.4c-0.8-0.1-1.5-0.3-2.3-0.3
	c-1,0-1.7,0.5-2,1.5c-0.3,1,0,1.8,0.7,2.5c0.7,0.7,1.6,1,2.5,0.6c0.8-0.3,0.8-1.1,0.5-1.7c-0.3-0.8-1.3-1-1.9-0.6
	c-0.1,0.1-0.2,0.2-0.4,0.5c0.2-1.2,0.8-1.5,1.6-1.4c1,0.2,1.8,1.2,1.7,2.3c0,1.1-0.8,1.9-2,1.9c-0.6,0-1.2-0.2-1.8-0.2
	C39.2,50.8,39,50.6,38.8,50.5L38.8,50.5z"/>
<path d="M39.3,536c0.7-0.1,1.4-0.4,2.1-0.4c1.1,0,1.8,1,1.7,2.2c-0.1,1.1-1,2.1-2,2c-0.5-0.1-0.9-0.5-1.2-1c0.5,0,1.1,0.2,1.5,0.1
	c0.3-0.1,0.7-0.6,0.8-1c0.3-1-0.4-1.7-1.4-1.6c-1.4,0.1-2.6,1.4-2.5,2.8c0.1,1.3,1.2,2.1,2.8,1.9c0.5-0.1,1.1-0.3,1.6-0.4
	c-0.8,1.8-2.6,1.5-3.9,0.7c-1.5-0.9-1.7-2.8-0.7-4.3c0.2-0.3,0.5-0.6,0.7-0.9C38.9,536.2,39.1,536.1,39.3,536L39.3,536z"/>
<path d="M360.8,558c0.6,0.4,1.1,0.8,1.7,1.2c0.4,0.3,0.8,0.8,1.1,1.2c-0.1,0.1-0.1,0.3-0.2,0.4c-0.6-0.1-1.3,0-1.8-0.3
	c-2.6-1.3-4.2-5.9-3.5-8.4c0.1,0.4,0.3,0.8,0.4,1.2C358.9,555.1,359.4,556.8,360.8,558L360.8,558z"/>
<path d="M28.5,521.6c-0.5,0.6-1,1.2-1.4,1.9c-0.4,0.6-0.7,1.6-1.4,1.2c-0.8-0.5-0.2-1.3,0.1-2c1.4-2.5,5-4.1,7.8-3.4
	c-0.6,0.2-1.3,0.5-2,0.7C30.6,520.5,29.5,521.1,28.5,521.6L28.5,521.6z"/>
<path d="M38.8,50.5c0.2,0.1,0.4,0.3,0.6,0.4c1.1,1.2,2.5,1.4,3.9,1c1.5-0.4,2-1.5,1.6-3.1c-0.1-0.3-0.2-0.6-0.4-1
	c1.5,0.9,1.8,2.4,0.7,3.7c-1.1,1.3-2.9,1.7-4.7,1c-0.6-0.2-1.2-0.5-1.8-0.8l0,0c-0.8-1-1.6-2-2.5-3.1c0.1,0,0.1-0.1,0.2-0.1
	C37.3,49.3,38,49.9,38.8,50.5L38.8,50.5z"/>
<path d="M39.3,536c-0.2,0.1-0.4,0.2-0.5,0.3c-0.8,0.6-1.5,1.2-2.3,1.8c-0.1,0-0.1-0.1-0.2-0.1c0.8-1,1.7-2.1,2.5-3.1l0,0
	c1.3-0.4,2.5-1,3.8-1c0.9,0,2,0.6,2.6,1.3c1.2,1.1,0.9,2.5-0.5,3.7c0.1-0.7,0.4-1.5,0.3-2.2c-0.2-0.7-0.8-1.4-1.3-1.7
	C42.3,534.2,40.1,534.8,39.3,536L39.3,536z"/>
<path d="M391.7,519.9c-0.7-0.2-1.4-0.3-2.1-0.5c2.7-0.9,7.2,1.2,8.1,4c0.1,0.4-0.1,1-0.2,1.4c-0.4-0.2-0.9-0.4-1.2-0.8
	c-0.6-0.7-1.1-1.6-1.7-2.4C393.7,521,392.7,520.4,391.7,519.9L391.7,519.9z"/>
<path d="M383.9,50.9c0.2-0.1,0.4-0.3,0.6-0.4c0.8-0.6,1.5-1.2,2.3-1.8l0.2,0.1c-0.8,1-1.7,2.1-2.5,3.1l0,0c-1.3,0.4-2.6,1-3.8,1
	c-0.9,0-2-0.6-2.6-1.3c-1.2-1.2-0.8-2.6,0.6-3.7c0,0.1,0.1,0.2,0,0.2c-0.5,1-0.8,2.1,0.1,3.1c0.9,1,2.1,1.1,3.2,0.8
	C382.6,51.8,383.2,51.3,383.9,50.9L383.9,50.9z"/>
<path d="M384.4,536.3c-0.2-0.1-0.4-0.3-0.6-0.4c-1.1-1.2-2.5-1.4-3.9-1c-1.5,0.4-2,1.5-1.6,3.1c0.1,0.3,0.2,0.6,0.4,1
	c-1.5-0.9-1.8-2.4-0.7-3.7c1.1-1.3,2.9-1.7,4.7-1c0.6,0.2,1.2,0.5,1.8,0.8l0,0c0.7,0.9,1.5,1.9,2.2,2.8c0.1,0.1,0.1,0.2,0.2,0.5
	C386,537.5,385.2,536.9,384.4,536.3L384.4,536.3z"/>
<path d="M31.7,67c0.6,0.2,1.3,0.3,1.9,0.5c-1.7,0.6-4.8-0.1-6.5-1.8c-0.6-0.6-1.2-1.2-1.5-1.9c-0.2-0.5,0-1.2,0-1.7
	c0.4,0.3,0.9,0.6,1.3,1c0.3,0.3,0.4,0.9,0.7,1.3c0.2,0.3,0.6,0.6,0.9,0.9C29.6,65.8,30.6,66.4,31.7,67L31.7,67z"/>
<path d="M394.7,65.4c0.4-0.6,0.9-1.1,1.3-1.7c0.2-0.3,0.2-0.7,0.5-0.9c0.3-0.3,0.8-0.5,1.2-0.8c0,0.5,0.3,1.2,0.1,1.5
	c-0.5,0.8-1,1.7-1.8,2.3c-1.8,1.5-4,2.1-6.7,1.7c1-0.2,1.6-0.4,2.3-0.6C392.6,66.4,393.6,65.9,394.7,65.4L394.7,65.4z"/>
<path d="M64.7,553.4c0.1-0.4,0.2-0.9,0.3-1.3c1.1,3.4-2.4,9.9-5.6,8.4c0.5-0.5,0.8-0.9,1.2-1.3c0.5-0.4,1.1-0.8,1.7-1.2
	C63.8,556.8,64.5,555.2,64.7,553.4z"/>
<path d="M205.6,29.2c0,0.2-0.1,0.4-0.1,0.5c-0.4,0.1-0.8,0.2-1.2,0.3c-2,0.3-3.6,1.3-4.5,3.3c-0.1,0.2-0.2,0.6-0.4,0.7
	c-0.4,0.2-0.9,0.4-1.4,0.6c0-0.4-0.2-1-0.1-1.3c0.9-2.1,2.7-3,4.7-3.6C203.6,29.2,204.6,29.3,205.6,29.2L205.6,29.2L205.6,29.2z"/>
<path d="M217.6,29.2c2.2-0.1,4.3,0.4,6,1.8c0.7,0.6,1.2,1.5,1.7,2.3c0.2,0.2-0.1,0.7-0.1,1.1c-0.4-0.1-0.8-0.1-1.2-0.3
	c-0.2-0.1-0.4-0.5-0.5-0.9c-0.9-2-2.5-3.1-4.6-3.4C217.8,29.7,217.8,29.7,217.6,29.2L217.6,29.2L217.6,29.2z"/>
<path d="M217.7,556.9c0-0.2,0.1-0.4,0.1-0.5c0.4-0.1,0.8-0.2,1.2-0.3c2-0.3,3.6-1.3,4.5-3.3c0.1-0.2,0.2-0.6,0.4-0.7
	c0.4-0.2,0.9-0.4,1.4-0.6c0,0.4,0.2,1,0.1,1.3c-0.9,2.1-2.7,3-4.7,3.6C219.6,556.9,218.6,556.8,217.7,556.9L217.7,556.9L217.7,556.9
	z"/>
<path d="M205.6,556.9c-2.2,0.1-4.3-0.4-6-1.8c-0.7-0.6-1.2-1.5-1.7-2.3c-0.2-0.2,0.1-0.7,0.1-1.1c0.4,0.1,0.8,0.1,1.2,0.3
	c0.2,0.1,0.4,0.5,0.5,0.9c0.9,2,2.5,3.1,4.6,3.4C205.4,556.4,205.5,556.4,205.6,556.9L205.6,556.9L205.6,556.9z"/>
<path d="M62.4,28.8c1.4,1.3,2.2,2.9,2.4,4.8c-0.1,0.5-0.1,1.1-0.2,1.5c-0.5-1.2-0.7-2.6-1.4-3.7c-0.7-1.1-1.8-1.8-2.7-2.7
	c0.1-0.1,0.2-0.3,0.2-0.4C61.3,28.4,61.8,28.6,62.4,28.8z"/>
<path d="M64.7,553.4c-0.2,1.8-0.9,3.4-2.3,4.6c-0.5,0.2-1.1,0.4-1.7,0.6c-0.1-0.1-0.2-0.2-0.3-0.3c0.3-0.4,0.5-0.8,0.8-1.1
	c2-1.3,2.9-3.2,3.3-5.6C64.6,552.2,64.7,552.8,64.7,553.4L64.7,553.4z"/>
<path d="M394.7,65.4c-1,0.5-2.1,1.1-3.1,1.6H389c1.2-0.5,2.5-0.7,3.6-1.4c1.1-0.7,1.8-1.9,2.7-2.8c0.2,0.1,0.3,0.2,0.5,0.3
	L394.7,65.4L394.7,65.4z"/>
<path d="M31.7,67c-1.1-0.6-2.1-1.2-3.1-1.8c-0.4-0.7-0.8-1.4-1.1-2.1c0.1-0.1,0.2-0.2,0.4-0.3c0.3,0.2,0.8,0.3,0.9,0.6
	c1.3,2.3,3.2,3.3,5.6,3.6L31.7,67L31.7,67z"/>
<path d="M358.5,33.4c0.4-1.7,0.7-3.3,2.2-4.4c0.6-0.3,1.1-0.5,1.7-0.8c0.1,0.1,0.2,0.3,0.3,0.4c-0.2,0.3-0.4,0.8-0.8,1
	c-2.1,1.3-3,3.2-3.1,5.7c-0.1,0-0.2,0-0.3,0L358.5,33.4L358.5,33.4z"/>
<path d="M391.7,519.9c1,0.6,2,1.2,3,1.7c0.4,0.7,0.8,1.4,1.2,2.1c-0.1,0.1-0.2,0.2-0.3,0.3c-0.3-0.1-0.8-0.2-0.9-0.4
	c-1.3-2.3-3.2-3.4-5.7-3.7L391.7,519.9L391.7,519.9z"/>
<path d="M360.8,558c-1.4-1.2-1.9-2.9-2.3-4.7c0-0.5,0-1.1,0-1.8c0.5,1.5,0.8,2.9,1.5,3.9c0.7,1.1,1.8,1.8,2.7,2.7
	c-0.1,0.1-0.2,0.3-0.3,0.4C361.9,558.4,361.4,558.2,360.8,558L360.8,558z"/>
<path d="M28.5,521.6c1-0.5,2-1.1,3.1-1.6c0.9-0.1,1.8-0.2,2.7-0.3l0,0.3c-0.2,0-0.5,0.1-0.8,0.1c-2,0.3-3.6,1.2-4.7,3
	c-0.2,0.4-0.7,0.7-1.1,1l-0.4-0.4C27.8,523,28.1,522.3,28.5,521.6L28.5,521.6z"/>
<path d="M388,548.4c2.7-0.6,4.4,0.7,3.7,3C391.6,548.5,389.2,549.3,388,548.4z"/>
<path d="M387.9,38.2c0.4-0.1,0.7-0.3,1.1-0.3c1.7-0.2,2.4-0.7,2.7-2.4c0.5,0.8,0.2,1.5-0.2,2c-0.9,1.2-2.2,1.1-3.5,1
	C388,38.4,388,38.3,387.9,38.2L387.9,38.2z"/>
<path d="M31.6,35.3c0,3,2.4,2.1,3.7,3.1c-1.2,0.3-2.4,0.4-3.3-0.6C31.4,37.2,31.1,36.5,31.6,35.3z"/>
<path d="M35.3,548.6c-0.4,0.1-0.8,0.3-1.2,0.3c-1.7,0.2-2.3,0.7-2.5,2.2c-0.1,0-0.2,0-0.3-0.1c0.1-0.6,0.1-1.3,0.4-1.7
	c0.9-1.3,2.2-1.2,3.5-1.1C35.2,548.3,35.3,548.5,35.3,548.6L35.3,548.6z"/>
<path d="M385.7,36.5c-0.4-2.8,0.7-4.3,2.9-4c-1.7,0.3-2.2,1.3-2.3,2.7C386.4,35.6,386.1,35.9,385.7,36.5L385.7,36.5z"/>
<path d="M388.6,554.3c-2.2,0.3-3.3-1.2-2.7-3.8c0.2,0.4,0.5,0.8,0.5,1.3C386.6,553.3,387,553.8,388.6,554.3L388.6,554.3z"/>
<path d="M34.6,554.3c1.6-0.3,2.1-1.2,2.2-2.6c0-0.4,0.3-0.7,0.6-1.3C38,552.9,36.8,554.7,34.6,554.3L34.6,554.3z"/>
<path d="M34.7,32.5c2-0.4,3.1,1,2.7,3.8c-0.2-0.4-0.5-0.7-0.5-1.1C36.7,33.8,36.2,32.8,34.7,32.5L34.7,32.5z"/>
<path d="M226.4,553.1c-0.1-0.6-0.1-1.2-0.2-1.9h2.3c-0.7,0.8-1.3,1.4-1.9,2.1C226.6,553.3,226.6,553.2,226.4,553.1L226.4,553.1z"/>
<path d="M196.9,551.3c-0.1,0.6-0.1,1.2-0.2,2.2c-0.7-0.9-1.2-1.5-1.8-2.2H196.9z"/>
<path d="M226.3,34.8c0.1-0.6,0.1-1.2,0.2-2.2c0.7,0.9,1.2,1.5,1.8,2.2H226.3z"/>
<path d="M194.6,34.9c0.7-0.8,1.3-1.4,2.1-2.3c0.1,1,0.2,1.6,0.2,2.3H194.6L194.6,34.9z"/>
<path d="M391.2,548.2c-0.7-0.6-0.8-1.7,0-2.5V548.2z"/>
<path d="M32,545.6c0.8,0.9,0.8,2,0,2.6V545.6z"/>
<path d="M32,41.1v-2.5C32.8,39.2,32.8,40.5,32,41.1z"/>
<path d="M391.2,41.1c-0.8-0.6-0.8-1.8,0-2.5V41.1z"/>
<path d="M33.1,547.9v-1.5c0.1-0.1,0.2-0.1,0.3-0.2c0.2,0.3,0.5,0.7,0.8,1C33.8,547.5,33.5,547.7,33.1,547.9z"/>
<path d="M390.1,38.9v1.5c-0.1,0.1-0.2,0.1-0.3,0.2c-0.2-0.3-0.5-0.7-0.8-1C389.4,39.3,389.7,39.1,390.1,38.9z"/>
<path d="M33.1,40.4v-1.5c0.4,0.3,0.7,0.5,1,0.7c-0.2,0.3-0.5,0.7-0.8,1C33.3,40.5,33.2,40.4,33.1,40.4z"/>
<path d="M390.2,546.5v1.4c-0.4-0.3-0.7-0.4-1.1-0.6c0.2-0.3,0.5-0.7,0.7-1.1C389.9,546.3,390,546.4,390.2,546.5L390.2,546.5z"/>
<path d="M39.5,553.6h-2.2c0.5-0.4,0.7-0.7,0.9-0.7c0.5,0,0.9,0.2,1.4,0.3C39.6,553.4,39.6,553.5,39.5,553.6z"/>
<path d="M383.6,553.6c0.7-1,1.5-1,2,0H383.6z"/>
<path d="M383.7,33.1h2.1c-0.3,0.3-0.5,0.7-0.6,0.7c-0.5,0-1-0.1-1.5-0.2C383.6,33.5,383.7,33.3,383.7,33.1L383.7,33.1z"/>
<path d="M37.7,33.1h1.8c0,0.1,0.1,0.2,0.1,0.3c-0.3,0.2-0.6,0.4-0.9,0.5c-0.4,0-0.8-0.2-1.1-0.3C37.6,33.4,37.6,33.3,37.7,33.1z"/>
<path class="st0" d="M206.6,38.7h3.4c0.1,0.1,0.3,0.5,0.5,0.9c-1.4,1.5-3.4,1.9-5.1,1.1c-1.6-0.8-2.6-2.4-2.4-4.2
	c0.1-1.6,1.2-2.9,2.8-3.2c1.5-0.3,2.7,0.5,3.1,2.1c0.3,1.4-0.3,2.4-1.9,2.9C206.9,38.3,206.9,38.3,206.6,38.7L206.6,38.7z"/>
<path class="st0" d="M212.7,39.7c0.3-0.4,0.5-0.8,0.6-1c1.1,0.1,2.1,0.1,3.2,0.2c-0.1-0.4-0.1-0.5-0.2-0.5c-1.5-0.6-2.1-1.2-2.1-2.4
	c0-1.1,0.5-2.1,1.6-2.6c1.1-0.5,2.6-0.1,3.4,0.8c1.9,2.1,0.8,5.8-2,6.7C215.6,41.5,214.1,40.8,212.7,39.7L212.7,39.7z"/>
<path class="st0" d="M213.6,28.7c-0.7,0.5-1.3,1-2,1.6c-0.6-0.5-1.3-1-2-1.5C211.1,27.4,212,27.4,213.6,28.7L213.6,28.7z"/>
<path class="st0" d="M211.6,33.6c0.7,1.4,0.7,2.8,0,4.2C211,36.5,211,35,211.6,33.6z"/>
<path class="st0" d="M211.6,40.9c0.5,0.4,1,0.7,1.5,1.1c-1,0.9-1.8,1-3.1,0.1c0.3-0.2,0.5-0.4,0.8-0.5
	C211.1,41.3,211.3,41.1,211.6,40.9z"/>
<path class="st0" d="M212.6,31.6c0.5-0.5,1-0.8,1.4-1.2c0.1,0.1,0.2,0.1,0.3,0.2c-0.2,0.8-0.5,1.6-0.7,2.4l-0.3,0
	C213.1,32.5,212.9,32.1,212.6,31.6L212.6,31.6z"/>
<path class="st0" d="M209.2,30.3c0.5,0.4,0.9,0.8,1.4,1.2c-0.3,0.5-0.5,0.9-0.7,1.3c-0.1,0-0.2,0-0.3,0l-0.8-2.4
	C208.9,30.5,209,30.4,209.2,30.3L209.2,30.3z"/>
<path class="st0" d="M396.7,560.2c-1-1.1-2-2.1-2.9-3.2c0.1-0.1,0.2-0.2,0.4-0.4c1,1,2,2.1,3,3.1C397,559.9,396.9,560,396.7,560.2
	L396.7,560.2z"/>
<path class="st0" d="M26.5,26.6c1,1.1,2,2.2,2.9,3.2c-0.1,0.1-0.2,0.2-0.4,0.4c-1-1-2-2.1-3-3.1C26.2,26.9,26.3,26.7,26.5,26.6z"/>
<path class="st0" d="M393.8,29.8c1-1.1,1.9-2.2,2.9-3.2c0.1,0.1,0.2,0.2,0.3,0.3c-0.6,1.4-1.7,2.4-2.9,3.2
	C394,30,393.9,29.9,393.8,29.8L393.8,29.8z"/>
<path class="st0" d="M366.3,552.1c1.1,0.1,2.1-0.3,2.6-1.6c0.4-1,0.1-2.1-0.7-2.6c-0.9-0.6-2.1-0.5-2.7,0.3
	c-0.3,0.4-0.5,1.2-0.3,1.6c0.1,0.4,0.8,0.6,1.2,0.9c0.1-0.1,0.1-0.2,0.2-0.3c-0.2-0.4-0.6-0.7-0.6-1.1c0-0.3,0.3-0.9,0.5-1
	c0.4-0.1,1-0.1,1.3,0.1c0.3,0.3,0.6,1,0.6,1.5c-0.1,1-1.1,1.6-2.2,1.4c-1.1-0.2-1.9-1.3-1.7-2.4c0.2-1.2,1.2-2.2,2.4-2.4
	c1.7-0.2,3.2,0.2,4.5,1.3c0.6,0.5,1.4,1,2,1.4c0.2,0.1,0.4,0.3,0.5,0.5c0.7,1,1.4,2,2.1,3.1c-2.4,0.9-4.8,1.5-7.3,1.4
	c-0.2,0-0.4-0.3-0.6-0.4C367.5,553.3,366.9,552.7,366.3,552.1L366.3,552.1z"/>
<path class="st0" d="M370.5,546.4c-1.1-0.2-2.2-0.4-3.3-0.4c-1.6,0-2.9,1.2-3.3,2.7c-0.3,1.2,0.2,2.3,1.6,3.3
	c-0.5,0.2-1,0.5-1.5,0.7c-1.3-1.3-2.3-2.8-1.6-4.7c0.7-2.2,2.3-3.1,4.8-2.8c-2.3-1.3-5,0.2-5.6,2.8c-0.4,1.9,0.3,3.5,1.5,4.9
	c0.3,0.4,0.5,1,0.8,1.4c0.5,0.7,1,1.4,1.6,1.9c0.3,0.2,1.1,0,1.5-0.3c0.2-0.2,0.2-1,0-1.4c-0.2-0.4-0.8-0.5-1.4-0.6
	c0.3,0.4,0.7,0.8,1.1,1.3c-1.1,0.5-1.7,0.1-1.9-0.6c-0.2-0.4,0-1.3,0.2-1.4c0.5-0.2,1.2-0.2,1.7,0c1,0.5,1.6,1.5,1.3,2.6
	c-0.1,0.6-0.8,1.1-1.3,1.5c-0.3,0.2-0.8,0.1-1.2,0c-3.6-1-6.3-5.6-5.5-9.4c0.5-2.3,2-3.7,4.4-3.9
	C366.7,543.9,368.7,544.8,370.5,546.4L370.5,546.4z"/>
<path class="st0" d="M371.8,546.9c-1.9-1.9-4-3.4-6.8-3.5c-3.5-0.1-5.5,1.7-6.1,5.2c-0.4-0.4-0.8-0.8-1.3-1.1c0.6-2.5,2-4.3,4.2-5.5
	c0.3-0.2,0.7-0.2,1-0.2c0,0,0.2,0.4,0.1,0.5c-0.3,0.2-0.6,0.4-1,0.6c-0.1,0-0.2,0-0.4,0.2c0.3,0.1,0.6,0.3,0.9,0.2
	c1.1-0.3,2.2-0.8,3.4-1.2c0.3-0.1,0.8-0.2,1.1,0C369.1,543.2,370.5,544.9,371.8,546.9L371.8,546.9z"/>
<path class="st0" d="M356,555c-0.7-0.7-1.5-1.3-2.4-2.2c1.8,0.3,2.4,0.7,2.6,1.9C356.1,554.8,356,554.9,356,555L356,555z"/>
<path class="st0" d="M363.5,538.6c0.1,0.7,0.2,1.4,0.3,2.1c-0.2,0-0.3,0.1-0.5,0.1c-0.2-0.7-0.3-1.4-0.5-2.1
	C363.1,538.7,363.3,538.7,363.5,538.6L363.5,538.6z"/>
<path class="st0" d="M56.9,550.6c0.5,0.1,1.1-0.1,1.2-0.8c0.1-0.5-0.1-1.3-0.5-1.7c-0.7-0.7-1.6-0.8-2.4-0.3c-0.8,0.5-1.2,1.3-1,2.2
	c0.2,1,0.8,1.8,1.9,2c0.3,0.1,0.7,0,0.8,0c-0.6,0.6-1.3,1.2-1.9,1.8c-0.2,0.2-0.5,0.4-0.8,0.4c-2.4,0.1-4.7-0.5-7-1.4
	c0.8-1.1,1.3-2.4,2.2-3.1c2-1.4,3.7-3.7,6.6-3.3c2,0.2,3.3,2.1,2.5,3.7c-0.4,0.9-1.2,1.4-2.1,1.1c-0.6-0.2-1.2-0.7-1.5-1.2
	c-0.4-0.7,0.2-1.8,1.1-1.8c0.4,0,1.1,0.3,1.2,0.7C57.4,549.4,57,550,56.9,550.6L56.9,550.6z"/>
<path class="st0" d="M57.6,553.9c-0.5-0.3-1.1-0.1-1.3,0.5c-0.2,0.4-0.2,1.2,0,1.4c0.3,0.3,1.1,0.6,1.4,0.4c0.7-0.5,1.2-1.2,1.7-1.9
	c0.3-0.4,0.5-1.1,0.8-1.5c2.1-2.3,2.1-5.4-0.2-7.3c-1.2-1-2.5-0.9-3.8-0.4c2.3-0.1,3.9,0.8,4.6,3.1c0.5,1.9-0.4,3.3-1.6,4.6
	c-0.5-0.2-1-0.5-1.5-0.7c1.7-1.3,2.1-2.6,1.3-4.1c-1-2-3.1-2.5-6.3-1.3c1.5-1.9,5.9-3.4,8.5-1.5c1.6,1.1,2.4,3.3,2,5.5
	c-0.6,3.3-2.4,5.6-5.4,6.9c-0.9,0.4-1.7,0.2-2.3-0.6c-0.6-0.8-0.5-1.7,0-2.6c0.5-0.8,1.2-1.4,2.2-1.3c0.8,0.1,1,0.8,0.8,1.5
	c-0.2,0.7-0.7,1.2-1.4,1.1c-0.2,0-0.4-0.5-0.3-0.6C57,554.6,57.3,554.4,57.6,553.9L57.6,553.9z"/>
<path class="st0" d="M51.5,546.5c1.2-1.6,2.7-3.4,4.8-4.5c0.2-0.1,0.4-0.2,0.5-0.1c1.1,0.4,2.1,0.9,3.2,1.2c0.4,0.1,0.9,0,1.4-0.2
	c-0.2,0-0.4,0.1-0.5,0c-0.3-0.2-0.5-0.4-0.8-0.7c0-0.1,0.1-0.4,0.1-0.4c0.3,0,0.6,0,0.9,0.1c2.3,1.2,3.7,3.1,4.3,5.6
	c-0.4,0.4-0.8,0.8-1.2,1.2c-0.8-4.3-4.1-6.4-8.1-4.8C54.4,544.4,52.9,545.7,51.5,546.5L51.5,546.5z"/>
<path class="st0" d="M67.3,555c-0.1-1.4,0.4-1.8,2.2-2C68.7,553.7,68,554.4,67.3,555z"/>
<path class="st0" d="M59.4,540.8c0.1-0.7,0.2-1.4,0.3-2.2c0.2,0,0.4,0.1,0.6,0.1c-0.1,0.7-0.2,1.4-0.4,2.2L59.4,540.8z"/>
<path class="st0" d="M216.4,547.4h-3.2c-0.1-0.2-0.3-0.5-0.5-0.9c1.6-1.6,3.5-1.9,5.2-1.1c1.5,0.8,2.5,2.5,2.3,4.3
	c-0.2,2.1-2.2,3.6-4.1,3c-1.1-0.3-1.9-1.4-1.9-2.6c0-1.2,0.6-1.9,1.9-2.3c0.1,0,0.2-0.1,0.2-0.2
	C216.4,547.6,216.4,547.5,216.4,547.4L216.4,547.4z"/>
<path class="st0" d="M210,547.4h-3.2c0.1,0.2,0.1,0.4,0.2,0.4c1.1,0.2,1.9,0.8,2,2.1c0.1,1.1-0.3,2.1-1.2,2.7c-1,0.7-2.1,0.6-3.1,0
	c-1.3-0.8-1.8-2.1-1.6-3.6c0.2-1.8,1.2-3,2.8-3.6c1.7-0.7,3.2,0,4.7,1.2C210.3,546.8,210.1,547.2,210,547.4L210,547.4z"/>
<path class="st0" d="M209.7,557.4c0.6-0.5,1.3-1,2-1.5c0.6,0.5,1.3,1,1.9,1.5C212.3,558.7,211.1,558.7,209.7,557.4z"/>
<path class="st0" d="M211.5,552.6c-0.6-1.5-0.5-3,0-4.5C212.3,549.2,212.3,551.3,211.5,552.6z"/>
<path class="st0" d="M213.3,544c-0.4,0.3-0.7,0.4-0.9,0.6c-0.2,0.2-0.5,0.4-0.7,0.6c-0.5-0.4-1.1-0.7-1.7-1.2
	C211.1,543.2,212.1,543.3,213.3,544L213.3,544z"/>
<path class="st0" d="M213.6,552.9c0.3,1.1,0.5,1.9,0.8,2.9C212.6,554.9,212.5,554.6,213.6,552.9z"/>
<path class="st0" d="M209.9,553.2c0.2,0.4,0.4,0.8,0.7,1.3c-0.5,0.4-1,0.8-1.4,1.2c-0.1-0.1-0.2-0.1-0.3-0.2l0.7-2.4
	C209.6,553.2,209.8,553.2,209.9,553.2L209.9,553.2z"/>
<path class="st0" d="M34.9,59c0.3,0.4,0.5,1.2,0.9,1.2c0.5,0.1,1.3-0.1,1.7-0.5c0.6-0.5,0.8-1.3,0.4-2.2c-0.4-0.8-1-1.3-1.9-1.4
	c-1,0-1.7,0.4-2.2,1.3c-0.2,0.4-0.3,0.8-0.2,0.9c-0.6-0.5-1.2-1-1.8-1.5c-0.2-0.2-0.4-0.5-0.4-0.7c-0.1-2.5,0.5-5,1.3-7.4
	c1.1,0.8,2.2,1.4,3,2.3c1.1,1.3,2,2.8,2.8,4.4c0.9,1.9,0.4,4-0.9,5c-1.4,1.1-3.2,0.3-3.5-1.3c-0.2-1.1,0.6-2.2,1.6-2.1
	c0.5,0.1,1.1,0.6,1.4,1.1c0.2,0.2-0.2,1.2-0.5,1.3C36.3,59.4,35.7,59.1,34.9,59L34.9,59z"/>
<path class="st0" d="M32,59.6c-0.2-0.4-0.3-1.1-0.6-1.3C31,58.1,30.3,58,30,58.3c-0.3,0.2-0.5,1.1-0.4,1.4c0.4,0.7,1.1,1.3,1.7,1.8
	c0.5,0.4,1.1,0.5,1.5,0.9c1.5,1.3,3.1,2.1,5,1.4c2.3-0.8,3.5-3.2,2.4-5.7c0.2,2.6-0.7,4.3-2.9,4.9c-1.7,0.5-3.2-0.3-4.5-1.7
	c0.2-0.4,0.4-0.8,0.6-1.2c1.7,1.8,2.8,2,4.2,1.1c1.5-0.9,2.2-3,1.6-5c-0.2-0.7-0.6-1.4-0.9-2c1.1,0.7,2.4,3,2.5,4.9
	c0.1,1,0.1,2.2-0.1,3.1c-0.8,2.9-3.7,4.2-6.9,3.1c-2.5-0.8-4.3-2.4-5.4-4.9c-0.7-1.5-0.3-2.8,0.9-3.2c1.1-0.4,2.8,0.6,3.1,1.9
	c0.1,0.4,0,1-0.3,1.3c-0.2,0.2-0.9,0.3-1.1,0.1c-0.4-0.2-0.7-0.7-0.9-1.1c-0.1-0.1,0.1-0.6,0.3-0.6c0.2-0.1,0.6,0,0.8,0.2
	c0.2,0.2,0.2,0.5,0.3,0.8C31.8,59.7,31.9,59.7,32,59.6L32,59.6z"/>
<path class="st0" d="M43.9,58.2c-0.1,0.3-0.2,0.6-0.4,1c-0.4,1.2-0.9,2.5-1.3,3.7c-0.1,0.3,0.1,0.6,0.2,1.1c0.2-0.6,0.2-1.1,0.4-1.4
	c0.1-0.2,0.5-0.2,0.8-0.2c0,0.2,0.1,0.6,0,0.7c-0.9,1.2-1.9,2.4-2.9,3.5c-0.2,0.2-0.4,0.3-0.7,0.4c-1.7,1-1.9,0.9-3.2-0.5
	c0.1-0.1,0.1-0.2,0.2-0.2c3.9-0.5,5.8-4.4,4.4-8.2c-0.6-1.7-1.7-3.3-2.5-4.7c1.5,1,3,2.5,4,4.5C43.3,58.1,43.4,59,43.9,58.2
	L43.9,58.2L43.9,58.2z"/>
<path class="st0" d="M30.7,69.5c1.5,0.1,2,0.6,2.1,2.4C32.1,71.2,31.5,70.5,30.7,69.5z"/>
<path class="st0" d="M44.7,61.6c0.7,0.1,1.4,0.1,2,0.2c0,0.2,0,0.4-0.1,0.6c-0.7-0.1-1.4-0.2-2-0.3C44.6,62,44.7,61.8,44.7,61.6z"/>
<path class="st0" d="M388.3,527.9c-0.3-0.4-0.5-1.2-0.8-1.3c-0.5-0.1-1.3,0-1.7,0.4c-0.6,0.5-1,1.4-0.4,2.1c0.4,0.6,1,1.2,1.7,1.4
	c1,0.3,1.8-0.3,2.3-1.1c0.2-0.3,0.3-0.8,0.4-0.9c0.5,0.4,1.1,0.9,1.7,1.4c0.2,0.2,0.3,0.4,0.3,0.7c0.1,2.6-0.5,5-1.3,7.5
	c-1-0.8-2.1-1.3-2.8-2.2c-1.5-2.2-3.8-4-3.5-7.1c0.2-1.9,1.8-3.3,3.4-2.7c0.9,0.3,1.4,1.1,1.4,2c0,0.9-0.4,1.6-1.2,1.8
	c-0.5,0.1-1.2-0.2-1.6-0.6c-0.3-0.2-0.2-1-0.1-1.4c0.3-0.7,1.2-0.6,1.9,0.2C388.1,528,388.2,527.9,388.3,527.9L388.3,527.9z"/>
<path class="st0" d="M391.2,527.2c0.2,0.4,0.3,1.1,0.6,1.3c0.4,0.2,1.1,0.3,1.5,0.1c0.3-0.2,0.5-1.1,0.3-1.4
	c-0.4-0.7-1.1-1.3-1.7-1.8c-0.5-0.4-1.1-0.5-1.5-0.9c-1.5-1.3-3.1-2.1-5-1.4c-2.3,0.8-3.5,3.2-2.4,5.7c-0.2-2.5,0.7-4.2,2.7-4.9
	c1.8-0.6,3.3,0.3,4.6,1.6c-0.2,0.4-0.4,0.8-0.7,1.3c-1.7-1.8-2.7-2-4.2-1.1c-1.5,0.9-2.2,3-1.6,5c0.2,0.7,0.6,1.4,0.9,2
	c-1.1-0.8-2.4-3.1-2.5-4.9c-0.1-1-0.1-2.2,0.2-3.1c0.8-2.8,3.6-4.1,6.8-3.2c2.5,0.8,4.4,2.4,5.5,4.9c0.7,1.5,0.3,2.8-0.9,3.2
	c-1.1,0.4-2.8-0.6-3.1-1.9c-0.1-0.4,0.1-1,0.3-1.3c0.2-0.2,0.9-0.3,1.1-0.1c0.4,0.2,0.7,0.7,0.9,1.1c0.1,0.1-0.2,0.6-0.3,0.6
	c-0.2,0.1-0.6,0-0.8-0.2c-0.2-0.2-0.2-0.5-0.3-0.7C391.4,527.1,391.3,527.1,391.2,527.2L391.2,527.2z"/>
<path class="st0" d="M379.3,528.6c0.1-0.3,0.2-0.6,0.4-1c0.4-1.2,0.9-2.5,1.3-3.7c0.1-0.3-0.1-0.6-0.2-1.1c-0.2,0.6-0.2,1.1-0.4,1.4
	c-0.1,0.2-0.5,0.2-0.8,0.2c0-0.2-0.1-0.6,0-0.7c0.9-1.2,1.9-2.4,2.9-3.5c0.2-0.2,0.4-0.3,0.7-0.4c1.7-1,1.9-0.9,3.2,0.5
	c-0.1,0.1-0.1,0.2-0.2,0.2c-3.9,0.5-5.7,4.3-4.5,8.2c0.3,0.9,0.7,1.7,1.2,2.6c0.5,0.8,1.1,1.5,1.9,2.5c-2-1.4-3.5-2.9-4.6-4.8
	C379.9,528.7,379.8,527.8,379.3,528.6L379.3,528.6L379.3,528.6z"/>
<path class="st0" d="M390.5,514.8c0.6,0.7,1.3,1.5,2.1,2.4C391,517.2,390.5,516.6,390.5,514.8z"/>
<path class="st0" d="M378.5,525.2c-0.7-0.1-1.4-0.2-2.1-0.3c0-0.2,0.1-0.4,0.1-0.6c0.7,0.1,1.4,0.2,2,0.3L378.5,525.2L378.5,525.2z"
	/>
<path class="st0" d="M32.8,537.9c-0.8-2.3-1.4-4.8-1.3-7.4c0-0.2,0.2-0.5,0.4-0.7c0.6-0.5,1.2-0.9,1.6-1.2c0.2,0.9,0.9,2,2.5,2
	c1,0,1.6-0.6,2-1.5c0.3-0.9,0-1.7-0.7-2.2c-0.4-0.3-1.1-0.4-1.6-0.2c-0.4,0.1-0.5,0.8-0.8,1.3c0.3,0.1,0.5,0.1,0.5,0.1
	c0.4-0.7,1-1,1.5-0.5c0.3,0.3,0.5,1,0.4,1.5c-0.2,0.8-0.9,1.1-1.7,0.9c-0.8-0.2-1.3-0.9-1.3-1.7c0-1,0.5-1.8,1.4-2.1
	c1.4-0.5,3.1,0.7,3.4,2.4c0.2,1.4,0,2.7-0.8,3.8C36.7,534.4,35.3,536.7,32.8,537.9L32.8,537.9z"/>
<path class="st0" d="M33.7,526.7c-0.2-0.4-0.4-0.8-0.6-1.2c1.2-1.6,3-2.3,4.5-1.8c1.8,0.6,2.6,2,2.8,4.6c0.8-1.2,0.5-3.1-0.7-4.3
	c-1.9-1.9-4.4-1.8-6.6,0.1c-0.5,0.5-1.3,0.6-1.8,1.1c-0.6,0.5-1.2,1.1-1.6,1.7c-0.2,0.3,0.1,1.2,0.4,1.4c0.4,0.2,1.1,0.2,1.5-0.1
	c0.3-0.2,0.4-0.8,0.6-1.3c-0.1,0-0.2-0.1-0.4-0.1c0,0.2,0,0.5-0.1,0.6c-0.3,0.2-0.6,0.3-0.9,0.4c-0.1-0.3-0.3-0.6-0.2-0.9
	c0.1-0.7,1.1-1.3,1.7-1c0.8,0.4,0.9,1,0.6,1.8c-0.4,1-1.1,1.6-2.2,1.7c-1.4,0.2-2.4-1-2.1-2.5c0.7-3.6,5.6-6.8,9.1-5.9
	c2.4,0.6,3.8,2.4,3.8,5c0,2.5-0.9,4.7-2.5,6.4c0.3-1,0.7-2.2,0.8-3.4c0.1-0.8-0.2-1.7-0.5-2.4C37.9,524.7,35.7,524.6,33.7,526.7
	L33.7,526.7z"/>
<path class="st0" d="M44,528.6c-0.4-0.7-0.5-0.1-0.7,0.2c-1.1,2-2.6,3.5-4.4,4.7c0.5-0.6,1-1.2,1.4-1.8c1.4-2.1,2.2-4.3,1.6-6.9
	c-0.5-2.4-2.1-3.8-4.4-4.3c-0.1,0-0.3-0.1-0.4-0.1c1.1-1.6,1.2-1.6,2.8-0.8c1.7,0.8,3,2.1,3.8,3.8c0.1,0.3,0.1,0.6,0.2,1
	c0,0-0.4,0.2-0.5,0.1c-0.2-0.2-0.4-0.5-0.6-0.9c-0.1-0.1,0-0.3-0.2-0.5c-0.1,0.4-0.2,0.8-0.1,1.1c0.5,1.3,1,2.7,1.6,4
	C44,528.3,43.9,528.5,44,528.6L44,528.6L44,528.6z"/>
<path class="st0" d="M33,515.1c-0.3,1.1-0.6,2.1-1.8,2.3l-0.3-0.3c0.6-0.7,1.3-1.5,1.9-2.2C32.8,514.9,32.9,515,33,515.1z"/>
<path class="st0" d="M46.7,524.9l-2.1,0.3c0-0.2-0.1-0.3-0.1-0.5c0.7-0.1,1.4-0.3,2-0.4C46.7,524.5,46.7,524.7,46.7,524.9
	L46.7,524.9z"/>
<path class="st0" d="M390.5,48.9c0.8,2.3,1.4,4.8,1.3,7.3c0,0.2-0.2,0.5-0.4,0.7c-0.6,0.5-1.2,0.9-1.6,1.2c-0.2-0.9-0.9-2-2.5-2
	c-1,0-1.6,0.6-2,1.5c-0.3,0.9,0,1.7,0.7,2.2c0.4,0.3,1.1,0.4,1.6,0.2c0.4-0.1,0.5-0.8,0.8-1.3c-0.3-0.1-0.5-0.1-0.5-0.1
	c-0.4,0.7-1,1-1.5,0.5c-0.3-0.3-0.5-1-0.4-1.5c0.2-0.8,0.9-1.1,1.7-0.9c0.8,0.2,1.3,0.9,1.3,1.7c0,1-0.5,1.8-1.4,2.1
	c-1.4,0.5-3.1-0.7-3.4-2.4c-0.2-1.4,0-2.7,0.8-3.8C386.5,52.4,387.9,50,390.5,48.9L390.5,48.9z"/>
<path class="st0" d="M384.4,54.2c-0.2,1.1-0.7,2.3-0.8,3.6c-0.1,1.7,0.9,3.2,2.4,3.7c1.6,0.6,2.6-0.2,3.5-1.5
	c0.2,0.4,0.5,0.9,0.7,1.3c-1.3,1.4-2.8,2.3-4.6,1.6c-2-0.7-2.9-2.4-2.7-4.8c-0.8,1.5-0.5,3.4,0.7,4.5c2,1.9,4.6,1.7,6.8-0.4
	c0.4-0.4,1-0.5,1.4-0.9c0.6-0.5,1.3-1,1.7-1.6c0.2-0.3,0-1.2-0.2-1.5c-0.2-0.3-1-0.2-1.4-0.1c-0.6,0.2-0.8,0.8-0.5,1.5
	c0.1,0,0.2,0,0.3,0c0.2-0.3,0.5-0.6,0.7-0.9c0,0,0.5,0.2,0.5,0.3c-0.1,0.4-0.1,1-0.4,1.2c-0.4,0.3-1.1,0.4-1.5,0.3
	c-0.7-0.3-0.6-1-0.3-1.7c0.5-1,1.2-1.6,2.3-1.7c1.3-0.1,2.3,1.1,1.9,2.5c-1.1,3.8-5.3,6.8-9.2,5.8c-2.4-0.6-3.8-2.7-3.7-5.2
	C382,57.8,382.9,55.8,384.4,54.2L384.4,54.2z"/>
<path class="st0" d="M379.3,58.2c0.4,0.7,0.5,0.1,0.7-0.2c1.1-2,2.6-3.5,4.4-4.7c-0.5,0.6-1,1.2-1.4,1.8c-1.4,2.1-2.2,4.3-1.6,6.9
	c0.5,2.4,2.1,3.8,4.4,4.3c0.1,0,0.2,0.1,0.3,0.1c0,0,0.1,0.1,0.1,0.1c-1.1,1.5-1.1,1.6-2.7,0.8c-1.7-0.8-3-2.1-3.8-3.8
	c-0.1-0.3-0.1-0.6-0.2-1c0,0,0.4-0.2,0.5-0.1c0.2,0.2,0.4,0.5,0.6,0.9c0.1,0.1,0,0.3,0.2,0.5c0.1-0.4,0.2-0.8,0.1-1.1
	c-0.5-1.3-1-2.7-1.6-4C379.3,58.5,379.3,58.3,379.3,58.2L379.3,58.2L379.3,58.2z"/>
<path class="st0" d="M392.4,69.8c-0.6,0.7-1.3,1.5-2.1,2.4C390.5,70.3,391,69.7,392.4,69.8z"/>
<path class="st0" d="M376.5,61.8c0.7-0.1,1.4-0.1,2-0.2l0.1,0.5c-0.7,0.1-1.4,0.3-2,0.4C376.6,62.3,376.5,62.1,376.5,61.8
	L376.5,61.8z"/>
<path class="st0" d="M47.2,33.8c2.3-0.9,4.6-1.5,7.1-1.4c0.3,0,0.6,0.2,0.8,0.4c0.7,0.6,1.3,1.2,1.9,1.8c-1.1-0.1-2.1,0.3-2.6,1.7
	c-0.4,1,0,2.1,0.8,2.6c0.9,0.6,2.1,0.4,2.7-0.4c0.3-0.4,0.4-1.2,0.2-1.6c-0.1-0.4-0.8-0.6-1.4-0.7c0.6,0.6,1,1.2,0.4,1.9
	c-0.3,0.3-1.1,0.4-1.5,0.2c-0.7-0.3-0.9-1-0.6-1.8c0.4-0.9,1.2-1.4,2.3-1.1c0.9,0.3,1.6,1.4,1.5,2.4c-0.2,1.2-1.2,2.2-2.4,2.4
	C54.8,40.4,53.3,40,52,39c-0.7-0.6-1.5-1-2.2-1.5c-0.1-0.1-0.2-0.3-0.4-0.4C48.7,36,47.9,34.9,47.2,33.8L47.2,33.8z"/>
<path class="st0" d="M52.8,40.5c1.1,0.1,2.2,0.4,3.4,0.4c1.5,0,2.8-1.2,3.2-2.7c0.3-1.3-0.2-2.3-1.6-3.3c0.5-0.2,1-0.5,1.5-0.8
	c1.4,1.3,2.3,2.8,1.6,4.8c-0.8,2.1-2.3,3-4.7,2.7c2.2,1.3,5-0.1,5.6-2.7c0.5-2-0.3-3.6-1.5-5c-0.3-0.4-0.4-0.9-0.7-1.3
	c-0.5-0.7-0.9-1.4-1.6-1.9c-0.3-0.2-1.1,0-1.5,0.2c-0.2,0.1-0.2,0.9-0.1,1.3c0.2,0.6,0.8,1,1.4,0.7c-0.3-0.4-0.7-0.8-1.1-1.3
	c1.1-0.5,1.6-0.1,1.9,0.5c0.2,0.4,0.1,1.3-0.2,1.4c-0.5,0.2-1.2,0.2-1.7,0c-1-0.5-1.5-1.4-1.4-2.6c0.1-0.8,0.5-1.3,1.3-1.5
	c0.4-0.1,0.8-0.1,1.2,0c3.6,1,6.3,5.6,5.5,9.3c-0.5,2.3-2.1,3.9-4.6,4C56.4,42.7,54.4,41.9,52.8,40.5L52.8,40.5z"/>
<path class="st0" d="M51.4,39.9c1.9,1.9,4.1,3.4,6.8,3.5c3.4,0.1,5.4-1.7,5.9-5.3c0.4,0.4,0.8,0.7,1.3,1.1c-0.6,2.5-2,4.3-4.2,5.5
	C61,45,60.6,45,60.3,45c0,0-0.2-0.4-0.1-0.5c0.3-0.2,0.6-0.5,0.9-0.6c0.1,0,0.2,0,0.4-0.2c-0.3-0.1-0.6-0.3-0.9-0.2
	c-1.1,0.3-2.2,0.8-3.4,1.1c-0.4,0.1-0.9,0.2-1.2,0C54.1,43.6,52.6,41.9,51.4,39.9L51.4,39.9z"/>
<path class="st0" d="M67.3,31.8c0.7,0.6,1.4,1.3,2.3,2.1C67.9,33.8,67.2,33.2,67.3,31.8z"/>
<path class="st0" d="M59.8,46c0.5,0.7,0.8,1.3-0.1,2.2c-0.1-0.7-0.2-1.4-0.3-2.2C59.5,46,59.6,46,59.8,46L59.8,46z"/>
<path class="st0" d="M366.2,34.6c0.6-0.5,1.2-0.9,1.6-1.4c0.5-0.7,1.1-0.9,1.9-0.8c2.1,0.4,4.2,0.8,6.5,1.2
	c-0.9,1.3-1.4,2.6-2.3,3.2c-2,1.5-3.7,3.8-6.7,3.4c-2-0.2-3.3-2.1-2.5-3.7c0.4-0.9,1.2-1.3,2.1-1.1c0.6,0.2,1.2,0.7,1.5,1.3
	c0.4,0.7-0.3,1.8-1.1,1.8c-0.4,0-1.1-0.3-1.1-0.6c-0.1-0.5,0.2-1.1,0.3-1.8c-0.2,0.1-0.8,0.1-1,0.4c-0.2,0.3-0.4,0.9-0.3,1.3
	c0.2,1,1.5,1.6,2.5,1.3c1.2-0.4,1.8-1.6,1.4-2.8C368.5,35.2,367.8,34.7,366.2,34.6L366.2,34.6z"/>
<path class="st0" d="M366.9,41.7c-2.1,0.2-3.6-0.7-4.5-2.7c-0.7-1.7-0.1-3.4,1.6-4.9c0.5,0.2,1,0.5,1.4,0.7c-1.4,1-1.9,2.1-1.6,3.3
	c0.4,1.6,1.7,2.8,3.3,2.7c1.1,0,2.3-0.3,3.4-0.4c-2.2,1.7-4.6,2.8-7.4,1.9c-2.1-0.7-3.4-2.8-3.3-5.2c0.1-3.3,2.7-6.8,5.6-7.8
	c0.9-0.3,1.7-0.1,2.3,0.6c0.6,0.8,0.4,1.7-0.1,2.6c-0.5,0.8-1.2,1.4-2.2,1.2c-0.7-0.1-0.9-0.7-0.8-1.4c0.2-0.9,0.8-1.3,2-1
	c-0.4,0.5-0.7,1-1,1.5c0.3-0.1,0.9-0.1,1.1-0.4c0.3-0.4,0.5-1.1,0.3-1.5c-0.2-0.4-0.9-0.7-1.3-0.6c-1,0.2-1.6,1-1.9,2
	c-0.2,0.5-0.4,1-0.8,1.4c-2.2,2.4-2.1,5.5,0.1,7.4C364.3,42.3,365.6,42.2,366.9,41.7L366.9,41.7z"/>
<path class="st0" d="M361.8,43.9c0.2,0,0.5-0.1,0.6,0c0.3,0.3,0.5,0.6,0.8,0.9c-0.3,0-0.7,0.1-1,0c-2.1-0.9-3.7-3.1-4.3-5.6
	c0.4-0.3,0.7-0.7,0.9-0.9c0.7,1.2,1.2,2.7,2.2,3.6c1.7,1.8,4,1.8,6.2,1c1.7-0.7,3.2-1.9,4.8-2.8c-1,1.1-2.1,2.3-3.2,3.4
	c-0.3,0.3-0.7,0.5-1.1,0.8c-0.7,0.5-1.2,0.6-2,0.1c-0.9-0.5-2-0.7-3.1-1c-0.2-0.1-0.5,0.2-0.8,0.3C361.7,43.8,361.7,43.9,361.8,43.9
	L361.8,43.9z"/>
<path class="st0" d="M353.8,33.7c0.7-0.6,1.4-1.3,2.3-2C356.2,33.1,355.6,33.6,353.8,33.7z"/>
<path class="st0" d="M362.9,48.1c0.1-0.7,0.2-1.4,0.4-2.2c0.2,0,0.4,0.1,0.5,0.1c-0.1,0.7-0.2,1.4-0.3,2.2
	C363.3,48.2,363.1,48.1,362.9,48.1L362.9,48.1z"/>
<path class="st0" d="M26.1,559.9c0.7-1.4,1.7-2.4,3-3.2c0.1,0.1,0.2,0.2,0.2,0.2c-1,1.1-1.9,2.2-2.9,3.2
	C26.4,560.1,26.3,560,26.1,559.9L26.1,559.9z"/>
</svg>
