<svg width="277" height="31" viewBox="0 0 277 31" fill="none" xmlns="http://www.w3.org/2000/svg">
<g clip-path="url(#clip0_2309_5898)">
<path d="M266.566 0.0729498C258.324 -0.730822 251.803 4.96865 244.594 7.89145C240.337 9.62687 235.899 9.75474 231.389 9.07884C227.404 8.47601 222.93 7.56264 220.593 3.90913C219.742 2.59387 218.075 2.97749 217.423 3.96393C217.133 4.12834 216.861 4.32928 216.698 4.6033C216.155 5.53494 216.553 6.50312 217.35 7.10595C219.723 8.89617 221.988 10.9969 223.437 13.6275C224.795 16.1118 225.375 19.4 224.089 22.0305C221.535 27.2368 213.293 27.3098 210.413 22.3045C209.724 21.0989 209.761 19.7288 210.829 18.7606C212.134 17.5915 213.927 17.7011 215.485 18.1943C217.713 18.9068 218.673 15.3811 216.445 14.6687C212.405 13.3717 207.098 14.961 206.373 19.7471C205.703 24.2226 209.797 27.73 213.601 29.0453C217.55 30.3971 221.97 29.5385 225.049 26.707C228.237 23.7842 228.998 19.1625 227.893 15.0889C227.567 13.9197 227.114 12.8237 226.534 11.7824C228.146 12.2209 229.831 12.5314 231.498 12.7506C237.783 13.6092 243.326 12.6775 248.996 9.84608C254.267 7.21555 259.647 3.2515 265.842 3.65339C267.726 3.78126 269.845 4.40235 271.348 5.68108C270.225 8.0924 267.436 12.1843 269.519 14.6322C271.584 17.08 274.971 14.8148 276.112 12.641C279.554 6.10124 272.309 0.602708 266.566 0.0546823V0.0729498Z" fill="white"/>
<path d="M190.451 2.52102C178.478 1.16922 170.761 12.2211 162.845 19.2723C161.088 20.8251 163.66 23.4008 165.399 21.8481C171.486 16.4226 177.5 8.03781 185.814 6.37547C183.586 8.76851 181.557 11.3442 179.891 14.1209C177.554 18.0302 176.177 23.1268 178.605 27.3466C179.619 29.1003 181.358 30.4703 183.459 30.2694C185.905 30.0319 187.154 27.7667 186.919 25.465C186.665 23.1268 185.705 20.953 185.542 18.5782C185.379 16.0755 185.687 13.6459 186.394 11.2712C188.024 9.26174 189.817 7.38018 191.737 5.6265C193.023 4.45738 191.882 2.66716 190.451 2.50275V2.52102Z" fill="white"/>
<path d="M10.4337 0.767411C18.6756 -0.0180934 25.1967 5.68138 32.4061 8.60418C36.6629 10.3396 41.1008 10.4675 45.6112 9.79157C49.5963 9.18874 54.0705 8.27537 56.4072 4.62186C57.2586 3.3066 58.925 3.69022 59.5771 4.67666C59.867 4.84107 60.1387 5.04201 60.3017 5.31603C60.8451 6.24767 60.4466 7.21585 59.6496 7.81868C57.2767 9.6089 55.0124 11.7097 53.5633 14.3402C52.2047 16.8246 51.6251 20.1127 52.9112 22.7433C55.4653 27.9495 63.7071 28.0226 66.5873 23.0173C67.2756 21.8116 67.2394 20.4415 66.1707 19.4734C64.8664 18.3042 63.0732 18.4138 61.5154 18.9071C59.2873 19.6195 58.3273 16.0939 60.5553 15.3814C64.5947 14.0844 69.9022 15.6737 70.6267 20.4598C71.2969 24.9354 67.2032 28.4427 63.3992 29.758C59.4504 31.1098 55.0305 30.2512 51.9511 27.4197C48.7631 24.4969 48.0023 19.8752 49.1072 15.8016C49.4333 14.6325 49.8861 13.5364 50.4658 12.4952C48.8536 12.9336 47.169 13.2441 45.5025 13.4633C39.217 14.3219 33.6741 13.3903 28.0044 10.5588C22.7332 7.92828 17.3533 3.96423 11.1583 4.36611C9.76353 4.45745 8.22383 4.8228 6.91962 5.53524C6.15883 5.93712 5.90523 6.9053 6.30374 7.67254C7.55361 10.0839 9.23822 13.2807 7.49927 15.3449C5.43427 17.7927 2.04694 15.5276 0.905756 13.3537C-2.55403 6.83223 4.69159 1.3337 10.4337 0.767411Z" fill="white"/>
<path d="M86.5671 3.21535C98.5405 1.86356 106.257 12.9154 114.173 19.9667C115.93 21.5194 113.358 24.0951 111.619 22.5424C105.532 17.1169 99.5186 8.73215 91.2043 7.0698C93.4323 9.46285 95.4611 12.0386 97.1276 14.8152C99.4643 18.7245 100.841 23.8211 98.4137 28.0409C97.3993 29.7946 95.6603 31.1647 93.5591 30.9637C91.1137 30.7263 89.8638 28.4611 90.0993 26.1594C90.3529 23.8211 91.313 21.6473 91.476 19.2725C91.639 16.7699 91.3311 14.3403 90.6246 11.9655C88.9944 9.95607 87.2011 8.07452 85.281 6.32083C83.9949 5.15171 85.1361 3.36149 86.5671 3.19709V3.21535Z" fill="white"/>
</g>
<defs>
<clipPath id="clip0_2309_5898">
<rect width="277" height="31" fill="white"/>
</clipPath>
</defs>
</svg>
