<svg xmlns="http://www.w3.org/2000/svg" viewBox="18.03 54.03 518.44 133.44" style="fill: currentColor"><path fill="currentColor" d="M337.7 75.8l-3.2-2.5-3.8-1.1-3.5-.4-3.1.7-2.2 1.1001L319.7 75l-2.2 2.3-1.1 2.4-3.9 33.9-1.9 29.2-.3 13.6.1 6.8.7 6.8.9 2.7 2.4 2.2 3.2 1.1 4.6.6 4.6-.3 4.5-1 2.2-1.1 1.6-1.8 1.1-2.3 1-3.5.7-3.6 2.7-41.7.5-38.8-1.2-3.8999-2.2-2.8001zm-2.5 43.8l-1 22.9-2 22.7-.5 1.4-.9.9-4.1.4-1.9-.5-.3-.9.1-1.2-.8-2.1-1.8-2.2-1.8-2.6-1.1-3-.8-3.1-.8-14.2-.2-14.4 2.1-24.3.8-8.6 1.4-8.8 1.2-2.3 1.8-1.7 2.4-1.5 2.3-.3 2.6.7 2.4 1.8 1.3 2.1.4 2.2-.9 36.3v.3h.1zm-283.8.8l2.7-1.3 1.8-1.4 1.1-2.1 1.4-4.6.5-3.3.4-3.4-.9-25.5001-.7-3-1.8-2.4-1.8-1.7-2.5-.9-4-1.1-4.3-.8-2.7.2-2.2 1.1-2.4.4h-1.4l-1.2.6-.7 1.1-.2 1.5-1 2.8-1.1 3.3L28 169.7l.4 1.8 1.5 1.5 1.4.6 1.5-.1 1.1-1.2.3-1.5-.1-2.6-.5-2.5.2-1.6.9-.8 1.4-.9.6-1.5 1.1-37.5V122l.7-.9 2-.1 5.6-.3 5.6-.7-.3.4zM38.9 115l-1.7-.5-.3-.6-.2-1.2-.2-4 .3-27.8001.2-1.8.8-1.5 1.5-.8 1.8-.7 3.1-.5 2.9 1 2.9 2.2 1.5 1.8.5 1.8 2.2 14-.1 5.8001c-.1 4.5-1.9 8.9-5.2 12l-2.6 1-7.4-.2zm83.8 48.3l1-1 .1-1.6-.7-2-2.9-14-2-13.7-1.8-15.5-1.2-7.6-.7-3.9-1-3.7-3.9-12.6-3-12.4001-.1-3.5999-.4-1.5-.9-1.1-1.4-.4-1.2.9-16.5001 66.8-1.8 8.7-.4 2-.1 1.6.5 1.2 1.5.7 2.2-1.1 6.9-30L107.3 118h1.6l.9.3 6.9 43.1.5 1.5 1.1 1.2 1.5.4 1.6-.6 1.4-.7-.1.1zM108 111.2h-8.5001l-1.8-.2-.8-.2L101.8 89.3999l.4-2.1999.7-1.2.6.6 1.6 5.6999 1.2 4.4001 2.2 14.1-.5.4zm382.7-35.7999l.5-1.5-.5-1.2-1.1-.8999-1.5-.4001-4.6.5-13.5.7001-13.5 1.0999-1.4.1001-1.1.8999-.5 1.5.8 1.5 1.2 1.6001 1.2 1.3999 1.5.5 2.9-.0999 5.2-.5h1.4l1 .5-4.5 92.3998.1 1.6 1.2 1.6 1.3.8 1 .1 1.2-1.4 3.5-47.6 4.6-45.7998.3-1.5.9-.7 1.5-.3 4.7-1 1.9-.6001 1.6-1.5 1.5-.6999 1.2-1.1001zM210.7 165.6l.8 2 1.7 1.9 3.1 2.6 3.5 1.1 3.1.4 3 .1h6.2l1.8-.4 1.6-.7.8-1.4v-1.5l-.8-1.2-.7-1.5-.1-1.5-1-1.3-1.5-.6-4.1-.4h-5.4l-2.3-.6-1.5-1-.9-1.2 1.5-29.4v-29.1l.8-.9 1.5-.5 3-.4 3.1-.1 6-.4 1.8-.5 1.2-1.2.5-1.6v-1.5l-.4-1.4-1.1-.9-1.8-.6-3.6-.3-3.5.3-5.9.7-1.3.3-.7-.5-.4-1.1-.4-4.8-.5-2.9v-1.4l.5-.9 1.1-.5 3-.3h6.6l6.7-.4 1.5-.5 1.4-1 .6-1.3-1.1-2-1.4-.7-3-.6-8 .4-8 .7-2.2.7-1.6 1.6-1.1 2.1-.2 3.6.6 20.6v20.6l-2.5 41.3zm-54.7 1.9l2.5-6.2.4-5.3v-48.1l1.2-6.4-.1-1.7999-1.2-1.5-1.6-1-2.9-.3001h-4.1l-4.1.4-1.6.4001-1.4.5999-.8 1 .8 1.9 1.4.9 2 .2 1.9-.1h1.4l1.1.7 1.9 55.5-.7 2.2-1.3 1.6-1.6.8h-2l-4.5-1.3-2.4-1.4-1.6-2.1-1.1-3 .5-62.8.6-4.6 1.3-4.6999L143.7 74l1.2-1.7999 1.4-1.4001 1.8-.3999 1.8.3999 1.5.9001.7 1.2999 1 2.7001.9 1.5999 1.1.9001h1.5l1.1-.9001.5-1.3999V73.3l-1.4-2.5999-2.9-2.9001-3.5-1.8999L145 65.3l-3 .5-2.9 1.2-1.8.9001-1.5 1-.9 1.5-1.3 2.7-.9 3.1999-1.8 19.7001-.8 19.7999v39.3l.6 3.3 1.6 3.4 1.6 2.8 2.9 2.6 4 1.8 4.5.3 3.6.1 3.5-.1 1.5-.1 1.2-.6.9-1.1zm34.4-4.6l3.9-1.6 2-1 1.5-1.1.7-1.5 1.5-39.1v-4.3l1-24.7 1.4-11 2-11-.5-1.8-.7-1.2-1.3-.6-1.5.2-1.1 1.4-.7 1.8-2.8 21.2-1.7 21.2v18.6l-1.1 15.8-.7 3.9-1.4 3.9-1.4 2.5-1.6 1.6-1.8.7-2.3-1.3-2.6-2.1-1.5-1.6-.6-1.8-.9-3.4-.7-3.4 2.1-59.7-.7-2.5-.4-3.1-.3-1.6-.7-1.2-1.3-.5-1.2.1-.7 1-4.6 61.8.1 3.6.8 3.6 2.4 7 2.3 4 3 3.9 2.4 2.4 2.6 1.4 3.1.3 4-.8zm114.7-80.4999l-1.7-2.5-1.8-1.7-2.5-.8999-4-1.1001-4.3-.8-2.7.2001-2.2 1-2.4.4H282l-1.2.6-.7 1.0999-.2 1.5-1 2.8001-1.1 3.3-2.2 53.4998 2.5-30.5c2-2.8 2.3-1.4 5.4-3.6v16.4l2-.1 5.6-.2 6.9-.1 2.7-1.2 1.8-1.4 1.2-2 1.4-4.6.5-3.2.4-3.4-.2-20.5998-.7-3v.0999zM300.6 105.4l-3 8.1-2.1 2.4-3 .5-6.8.2-1.7-.7-.3-.7-.2-1.5.8-20.3998-.2-5 .2-2.2.8-1.8 1.5-1 1.8-.8 3.1-.6001 2.9 1.3 4.2 1c3.2-.2 2 21.1999 2 21.1999z" /><path fill="currentColor" d="M277.9 109.4l-2.5 30.5-1.1 23 .3 1.7.7 1 .8.2.4-.6.4-1.4.3-1.3.4-.6.2 1.7.2 5.8.6 1.8 1.1 1.7 1.7.5 1.6-.7 1-1.3-.7-38.1v-27.4c-3 2.1-3.3.7-5.4 3.5zM380 90.2l-3.1-3.3001-2.7-2-2.8-1.3999-3.5-1-3.5-.5-4.8-.3-4.6.1-.8 1.3-1.9 1.2-.9 1.5999-1.3 4.3001.9 15.7.3.9-.4 32.8.4 22.4.2 1.6 1.1 1.4 1.5 1 1.4-.2 1.3-.8.7-1.4.4-1.4 1-.9 1.1-1.5-.9-15.6-1.3-19.8-.1-10.2 8.1-1.4 1.6-.3 4.1-1.1 4-2 2.5-1.8 1.9-1.8 1.9-4.9.6-2.7-.5-4.3001L380 90.2zm-4.7 8.1l-1.1 3-2 2.5-2.7 1.7-3.1 1.2-3.2.4-3 .1-1.6-.7-1-1.1-.2-1.8v-2.2l.7-6.6-.6-1.2-.2-.3v-1.1l.2-2.1.7-.5 5.7-1.4 3.2.1999 3 1.5L373.4 92l1.7 2 .5 2.1-.3 2.2zm41.2-20.7998l-1.8-1.8001-2.5-1-4-1.3-4.3-1-2.8.1001-2.2.8999-2.4.3h-1.4l-1.2.5-.7 1.1001-.3 1.5-1.1 2.7-.6 1.5-.3.1999-1 1.3001-.3 1.6999L388 148.9l.7 18.5.3 1.3.9.9 2.6-.2.1.8-.1 1.2.3 1.3 1.1.9h1.4l1.1-.8.5-1.3.2-1.7-.3-8.4-1.9-16.7.9-39.2h8l5.6-.4 2.8-1.1 1.9-1.4 1.3-2 1.6-4.4998.7-3.2001.5-3.3999.4-6.8001-.6-3-1.5-2.1999zm-4.6 10.8999l-2.2 3.2001-2.2 1.7999-2.6.9001H399l-1.6-.7-.3-.6-.1-1.2v-7.9001l.3-1.7.9-1.5 1.5-.6999 1.9-.6001 3.2-.3999 2.9 1.1 2.8 2.4 1.4 1.8999.4 1.9001-.4 2.0999zM446.5 165.2l-.1-1.5-1-1.3-1.5-.6-4.1-.4h-5.4l-2.3-.6-1.5-1-.8-1.1-.2 5.9-.7 1.6-1.7 1.7-1.5.5 2.2 1.8 3.5 1.1 3.1.4 3 .1h6.2l1.8-.4 1.6-.7.8-1.4v-1.5l-.8-1.2-.6-1.4z" /><path fill="currentColor" d="M428.9 166.2l.7-1.6.2-5.9.1-4.1 1-30.1.4-13.6.2-1.3.7-1.1 1.3-.4 3.7-.8 3.7-.2 2.9-.4 1.3-.6 1.4-1.5-.8-2-1.1-.8-1.7-.2h-4.5l-4.5.9-1.3.1-.7-.5-.3-1-.4-4.0998.4-4.1001.7-2.0999 1.1-1.7 1.7-1.1 2.7-.6001 7 .5 1.4-.0999 1.1-.7.5-1.3-.6-1.4001-1.2-1.3999-1.8-.6001h-9.9l-2.5-.3999-2.5-.6001-1.4.2001-1.1.7-.7 1.3-.4 2.0999-.8 2.5-2.1 65.6999v11.5l.5 1.6 1.1 1.3 1.5.2 1.5-.5 1.5-1.8zm97.8-61.8l-2.1-4.3-.3-1.8999-.1-1.5-1.2-1.0999-1.5-.4001-3.8.4001-4 .7-4.2.0999-1.8-.0999-1.5-.7-1.1-1.4001-.8-2.1999v-9.2l.7-2.5 1.3-1.9001 2-1.0999 2.3-.5h5.3l5.4.8 1.5-.1 1.4-1.1001.4-1.3999-.5-1.4-1.3-1-5-1.1-3.3-.5-3.2-.1001-3.3.1001-3.1.5-3.1.8999-1.9.9001-1.7 1.7-1 2.1999-1 3.7-.4 3.7001.3 8.7999.5 2.9001 1 2.5 1.7 1.9998 2.2 1.2 4.6 1h7.8l1.5.1 1.3.9.7 1.4.4 2.5-3.1 25.5L510 159l-1.7 4.1-1.6 2.2-2.3 1.4-2.8.8-2.9.4-1.7-.3-1.4-.8-.9-1.4-.9-8.2-.2-1.5-.9-1-1.3-.7-1.7.3-.7 1.9v11.4l.4 1.8 1.3 1.7 1.8.9 4.4 1.7 4.5 1h3.9l3.6-.7 2.1-.6 1.9-1.8 1.6-3.1 13.8-58-.1-3.2-1.5-2.9zM97.5 157.9l1.2-1.5.3-1.6-.6-1.5-.6-.4-1.6-.4-2.1.7-12.7 4.9-3.1 1.1-2.1.1c-.4 0-.8-.2-1.1-.6l-.5-.9v-32s-.2-1.5-.4-1.4l-.7-1.2-.5-1 .2-1.1.7-.5.3-1.3.4-3.6.7-.9-.1-5.9.1-6v-.2l.2-9.0999.5-23.5-.4-1.9-1.5-1.5-1.4-.6h-1.3l-.9.9-.4 1.2-1.1 4.6-.4 41.2999-.2 13-.4 37.3.4 1.8 1.1 1.5 1.5 1 2.1.1 2.4-1.1 5.1-2 15.4-6.9 1.5-.9z"/></svg>