<svg width="58" height="49" viewBox="0 0 58 49" fill="currentColor" xmlns="http://www.w3.org/2000/svg">
<path d="M40.6561 22.5627C40.68 22.5867 40.7039 22.6066 40.7238 22.6305C40.7437 22.6744 40.7636 22.7222 40.7835 22.7661C40.7397 22.6983 40.6999 22.6305 40.6561 22.5627Z" fill="currentColor"/>
<path d="M40.3057 18.0291C40.2221 16.5697 40.1345 15.1024 40.0708 13.647C40.0031 12.2355 39.7761 10.7761 38.8482 10.0384C38.6172 9.85103 38.3583 9.72344 38.0597 9.59584C37.7212 9.46027 37.3827 9.3247 37.0601 9.20508C36.7375 9.08945 36.4349 9.00571 36.0884 8.92597L35.033 8.69869C34.9892 8.69071 34.9454 8.67476 34.9056 8.65881C34.5552 8.50729 34.3959 8.10058 34.5432 7.74969L34.5512 7.72976C34.8937 6.93229 34.8698 5.9514 34.5751 5.07019C34.2764 4.19297 33.7348 3.37556 33.014 2.87315C32.3529 2.39866 31.425 2.30296 30.5967 2.55815C29.7723 2.81334 29.0834 3.3955 28.9121 4.13316C28.8444 4.42822 28.6055 4.66747 28.2909 4.72728C27.8647 4.80304 27.4585 4.52392 27.3829 4.09727C27.2674 3.45531 26.9329 2.82531 26.463 2.3548C25.993 1.8803 25.3917 1.56929 24.7744 1.50948C24.189 1.44967 23.5359 1.68492 23.05 2.11157C22.5602 2.53423 22.2615 3.13632 22.3014 3.71847V3.75835C22.3173 3.97765 22.2217 4.20094 22.0306 4.3405C21.7359 4.55183 21.3217 4.48405 21.1106 4.185C20.5053 3.33569 19.3544 2.90107 18.1915 2.98081C17.6141 3.0167 17.0327 3.14429 16.495 3.38752C16.2362 3.51512 15.9614 3.65866 15.7503 3.83012L15.591 3.95772C15.5393 4.00556 15.4955 4.0574 15.4477 4.10924C15.3481 4.20493 15.2685 4.32455 15.1808 4.44417C14.8503 4.92664 14.5994 5.52874 14.3167 6.12285C14.0379 6.72096 13.7273 7.32305 13.337 7.86932C13.0742 8.24413 12.7834 8.58704 12.4688 8.91002C14.1932 8.03678 15.9534 7.15957 17.8451 6.47773C19.8562 5.76798 22.0664 5.41709 24.2209 5.56063C26.3833 5.70019 28.5139 6.29032 30.4453 7.29115C32.3489 8.32387 34.0653 9.78724 35.264 11.5776C36.4946 13.34 37.3309 15.2539 38.2269 17.108C38.9278 18.6153 39.6287 20.1265 40.3017 21.6496C40.2898 21.6377 40.2739 21.6257 40.2619 21.6098C40.1146 21.4263 39.9593 21.2629 39.8398 21.0954C39.6287 20.7525 39.4376 20.4773 39.3619 20.262C39.2703 20.0547 39.2185 19.9391 39.2185 19.9391C39.0991 19.6879 39.123 19.6918 39.1907 19.947C39.1907 19.947 39.2265 20.0667 39.2902 20.286C39.2982 20.3338 39.3181 20.3856 39.334 20.4415C38.7287 19.4526 38.1313 18.4597 37.538 17.4669C36.4787 15.6885 35.491 13.8783 34.2684 12.3072C31.8631 9.16122 28.028 7.35893 24.1213 7.14362C22.162 6.9921 20.2146 7.28317 18.3229 7.90122C16.4154 8.49533 14.5755 9.39249 12.664 10.1939C10.7644 11.0193 8.76123 11.765 6.67048 12.0879C5.62311 12.2395 4.55982 12.3072 3.51245 12.2036C2.64827 12.1159 1.80002 11.9165 1.00753 11.5975C0.951771 11.5496 0.903988 11.5058 0.856197 11.4699C1.74029 11.6852 2.63632 11.7809 3.52838 11.761C4.53991 11.7331 5.53948 11.5736 6.51517 11.3184C8.32317 10.8678 10.0237 10.1022 11.7201 9.26888C12.1861 8.75052 12.6003 8.19628 12.9308 7.5902C13.2454 7.03596 13.4843 6.44982 13.7034 5.84374C13.9264 5.23766 14.1096 4.59968 14.472 3.97367C14.5676 3.81816 14.6552 3.66265 14.7826 3.51911C14.8423 3.44733 14.8981 3.37157 14.9618 3.30379L15.1689 3.10841C15.4477 2.85322 15.7463 2.6698 16.057 2.48638C16.6862 2.14347 17.3831 1.92416 18.1039 1.8484C18.8207 1.77264 19.5694 1.82049 20.2863 2.06771C20.5849 2.16739 20.8757 2.31492 21.1544 2.48239C21.1783 2.41461 21.1982 2.34682 21.2261 2.28302C21.4332 1.80853 21.7359 1.39384 22.1022 1.05093C22.831 0.373079 23.8226 -0.0575557 24.8899 0.00624202C25.9213 0.0620651 26.8652 0.56846 27.5541 1.2503C27.8329 1.52543 28.0718 1.83245 28.2789 2.1634C28.3347 2.10758 28.3825 2.04378 28.4382 1.99195C28.932 1.52941 29.5294 1.21441 30.1506 1.03099C30.7719 0.847575 31.429 0.791752 32.0781 0.879474C32.7233 0.963208 33.3804 1.21042 33.918 1.60119C34.9574 2.35878 35.6623 3.44335 36.0127 4.61563C36.2835 5.53272 36.3512 6.54551 36.1043 7.51444L36.4269 7.59419C36.7933 7.6859 37.1875 7.81748 37.5459 7.969C37.9004 8.12052 38.2309 8.27603 38.5654 8.42755C38.9318 8.60299 39.3221 8.8223 39.6407 9.11736C40.2938 9.71148 40.6841 10.5369 40.8354 11.3144C40.9987 12.0999 41.0066 12.8655 40.9947 13.6111C40.9628 15.0785 40.9031 16.5378 40.8513 18.0012C40.7956 19.321 40.7318 20.6408 40.6522 21.9606C40.6323 21.9407 40.6124 21.9248 40.5925 21.9048C40.4889 20.6049 40.3973 19.3051 40.3177 18.0052L40.3057 18.0291Z" fill="currentColor"/>
<path d="M3.50846 36.0241C4.55981 35.9204 5.62311 35.9882 6.66649 36.1397C8.75725 36.4667 10.7644 37.2083 12.66 38.0337C14.5755 38.8352 16.4154 39.7323 18.319 40.3264C20.2106 40.9445 22.158 41.2356 24.1173 41.084C28.024 40.8687 31.8591 39.0664 34.2644 35.9204C35.487 34.3494 36.4786 32.5391 37.534 30.7608C38.1313 29.7679 38.7247 28.7751 39.33 27.7862C39.3101 27.842 39.2942 27.8938 39.2862 27.9417C39.2225 28.161 39.1867 28.2806 39.1867 28.2806C39.115 28.5478 39.0991 28.5318 39.2145 28.2886C39.2145 28.2886 39.2663 28.177 39.3579 27.9656C39.4336 27.7503 39.6247 27.4792 39.8358 27.1323C39.9513 26.9648 40.1066 26.8013 40.2579 26.6179C40.2699 26.6059 40.2858 26.594 40.2978 26.578C39.6247 28.1012 38.9238 29.6124 38.2229 31.1196C37.3309 32.9737 36.4906 34.8877 35.26 36.6501C34.0613 38.4364 32.3449 39.9038 30.4413 40.9365C28.5139 41.9373 26.3793 42.5275 24.2169 42.667C22.0584 42.8106 19.8482 42.4597 17.8411 41.7499C15.9494 41.0681 14.1892 40.1909 12.4648 39.3176C12.7795 39.6406 13.0702 39.9875 13.333 40.3583C13.7233 40.9046 14.0339 41.5067 14.3127 42.1048C14.5954 42.6989 14.8463 43.301 15.1769 43.7835C15.2605 43.8991 15.3441 44.0227 15.4437 44.1184C15.4915 44.1663 15.5353 44.2221 15.587 44.2699L15.7463 44.3975C15.9574 44.569 16.2322 44.7125 16.491 44.8401C17.0247 45.0834 17.6101 45.211 18.1875 45.2468C19.3464 45.3266 20.5013 44.888 21.1066 44.0427C21.2341 43.8632 21.4531 43.7516 21.6881 43.7675C22.0505 43.7915 22.3252 44.1065 22.3013 44.4693V44.5092C22.2575 45.0913 22.5562 45.6934 23.0461 46.1161C23.5279 46.5427 24.185 46.778 24.7704 46.7182C25.3877 46.6584 25.989 46.3474 26.459 45.8729C26.9289 45.3984 27.2634 44.7723 27.3789 44.1304C27.4346 43.8313 27.6577 43.5801 27.9723 43.5084C28.3944 43.4087 28.8125 43.6718 28.9121 44.0945C29.0834 44.8361 29.7723 45.4183 30.5967 45.6695C31.425 45.9247 32.3529 45.829 33.014 45.3545C33.7348 44.8561 34.2764 44.0387 34.5751 43.1575C34.8698 42.2763 34.8976 41.2994 34.5512 40.4979L34.5432 40.478C34.5273 40.4381 34.5113 40.3982 34.5034 40.3543C34.4237 39.9795 34.6627 39.6127 35.033 39.533L36.0884 39.3057C36.4348 39.2259 36.7335 39.1422 37.0601 39.0266C37.3826 38.9109 37.7212 38.7714 38.0597 38.6358C38.3583 38.5082 38.6172 38.3806 38.8482 38.1932C39.7761 37.4595 40.0031 35.9962 40.0708 34.5846C40.1345 33.1293 40.2221 31.6619 40.3057 30.2025C40.3854 28.9027 40.477 27.6028 40.5805 26.3029C40.6004 26.2869 40.6203 26.267 40.6402 26.2471C40.7199 27.5669 40.7836 28.8867 40.8394 30.2065C40.8911 31.6699 40.9509 33.1293 40.9827 34.5966C40.9947 35.3422 40.9827 36.1078 40.8234 36.8933C40.6721 37.6709 40.2858 38.4962 39.6287 39.0904C39.3061 39.3854 38.9159 39.6087 38.5535 39.7802C38.2229 39.9317 37.8884 40.0872 37.534 40.2387C37.1795 40.3902 36.7813 40.5218 36.4149 40.6135L36.0924 40.6933C36.3393 41.6622 36.2755 42.675 36.0008 43.5921C35.6503 44.7684 34.9494 45.8489 33.906 46.6065C33.3684 46.9973 32.7113 47.2445 32.0662 47.3282C31.417 47.416 30.7599 47.3562 30.1387 47.1767C29.5174 46.9933 28.9241 46.6823 28.4263 46.2158C28.3705 46.1639 28.3187 46.1001 28.267 46.0443C28.0599 46.3753 27.817 46.6823 27.5422 46.9574C26.8532 47.6432 25.9094 48.1457 24.878 48.2015C23.8107 48.2653 22.8191 47.8346 22.0903 47.1568C21.7239 46.8139 21.4212 46.3992 21.2142 45.9247C21.1863 45.8609 21.1664 45.7931 21.1425 45.7253C20.8637 45.8968 20.577 46.0403 20.2743 46.14C19.5615 46.3872 18.8128 46.4351 18.092 46.3593C17.3711 46.2836 16.6782 46.0603 16.045 45.7213C15.7304 45.5379 15.4357 45.3545 15.1569 45.0993L14.9499 44.9039C14.8861 44.8361 14.8304 44.7604 14.7707 44.6886C14.6472 44.5451 14.5556 44.3896 14.46 44.2341C14.0976 43.608 13.9144 42.9701 13.6914 42.364C13.4764 41.7579 13.2334 41.1718 12.9188 40.6175C12.5883 40.0154 12.1781 39.4572 11.7082 38.9388C10.0157 38.1055 8.3152 37.3439 6.50321 36.8893C5.52753 36.6341 4.52795 36.4786 3.51642 36.4467C2.53277 36.4228 1.54116 36.5384 0.573437 36.8056C0.585384 36.7976 0.597332 36.7857 0.617245 36.7737C1.51727 36.359 2.50092 36.1078 3.5005 36.0081L3.50846 36.0241Z" fill="currentColor"/>
<path d="M40.7238 25.6131C40.6999 25.637 40.676 25.657 40.6561 25.6809C40.6999 25.6131 40.7397 25.5453 40.7835 25.4775C40.7636 25.5214 40.7437 25.5692 40.7238 25.6131Z" fill="currentColor"/>
<path d="M40.2977 26.59C40.2977 26.59 40.2698 26.614 40.2579 26.6299C40.1105 26.8133 39.9552 26.9768 39.8357 27.1443C39.6247 27.4872 39.4335 27.7623 39.3579 27.9776C39.2663 28.185 39.2145 28.3006 39.2145 28.3006C39.099 28.5399 39.1189 28.5598 39.1866 28.2926C39.1866 28.2926 39.2225 28.173 39.2862 27.9537C39.2941 27.9059 39.314 27.854 39.33 27.7982C39.3977 27.5949 39.5211 27.3476 39.6565 27.0406C39.7521 26.8532 39.8875 26.6618 40.0189 26.4465C40.1504 26.2312 40.3455 26.0358 40.5287 25.8085C40.5685 25.7686 40.6123 25.7288 40.6521 25.6889C40.676 25.665 40.6999 25.645 40.7198 25.6211C40.8712 25.4776 41.0265 25.33 41.2017 25.1905C41.4645 25.0071 41.7314 24.7957 42.046 24.6442C42.4243 24.4289 42.8464 24.2614 43.2925 24.1258C42.8464 23.9943 42.4243 23.8228 42.046 23.6075C41.7314 23.456 41.4645 23.2446 41.2017 23.0612C41.0265 22.9217 40.8712 22.7781 40.7198 22.6306C40.6959 22.6067 40.672 22.5867 40.6521 22.5628C40.6123 22.5229 40.5645 22.4831 40.5287 22.4432C40.3455 22.2159 40.1543 22.0245 40.0189 21.8052C39.8875 21.5899 39.7521 21.3985 39.6565 21.2111C39.5211 20.9041 39.4017 20.6568 39.33 20.4535C39.3101 20.3977 39.2941 20.3458 39.2862 20.298C39.2225 20.0787 39.1866 19.9591 39.1866 19.9591C39.1189 19.6999 39.095 19.6999 39.2145 19.9511C39.2145 19.9511 39.2663 20.0627 39.3579 20.2741C39.4335 20.4894 39.6247 20.7605 39.8357 21.1074C39.9512 21.2749 40.1065 21.4384 40.2579 21.6218C40.2698 21.6337 40.2858 21.6457 40.2977 21.6617C40.3813 21.7574 40.4769 21.8451 40.5804 21.9368C40.6004 21.9527 40.6203 21.9727 40.6402 21.9926C40.6999 22.0444 40.7557 22.0923 40.8114 22.1481C41.0265 22.3116 41.2575 22.4751 41.5083 22.6226C41.7712 22.7542 42.03 22.9097 42.3287 23.0054C42.9062 23.2367 43.5593 23.3682 44.2283 23.4001C44.5628 23.432 44.9013 23.4001 45.2359 23.3842C45.5704 23.3324 45.9049 23.2925 46.2275 23.2008C46.8726 23.0293 47.474 22.7582 47.9678 22.4033C48.4258 22.0524 48.824 21.5739 49.1187 21.0915C49.4174 20.613 49.6683 20.0508 49.7678 19.4686C49.8714 18.8865 49.8315 18.2923 49.5329 17.8139C49.2581 17.3553 48.6687 16.8649 48.1311 16.5778C47.5815 16.2827 46.9682 16.1711 46.4465 16.3585C45.9208 16.5339 45.5186 16.9725 45.3354 17.443C45.1443 17.9135 45.1841 18.404 45.3354 18.7589C45.4907 19.1217 45.7416 19.341 45.9168 19.4766C46.0124 19.5364 46.0841 19.5842 46.1359 19.6161C46.1877 19.6441 46.2155 19.656 46.2155 19.656C46.4545 19.7796 46.4664 19.7597 46.2036 19.6839C46.2036 19.6839 46.1757 19.672 46.116 19.656C46.0602 19.6321 45.9806 19.5922 45.873 19.5444C45.6739 19.4327 45.3752 19.2373 45.1443 18.8585C44.9213 18.4837 44.7859 17.9215 44.9372 17.3234C45.0726 16.7333 45.4828 16.0953 46.1797 15.7444C46.5222 15.569 46.9244 15.4813 47.3306 15.4852C47.7368 15.4852 48.135 15.5809 48.5134 15.7245C48.8957 15.864 49.2421 16.0714 49.5727 16.2907C49.732 16.4103 49.8953 16.506 50.0546 16.6695L50.2975 16.8968C50.3731 16.9805 50.4369 17.0722 50.5046 17.1639C50.7833 17.5228 50.9506 17.9574 51.0462 18.392C51.078 18.6073 51.1218 18.8306 51.1139 19.042C51.1139 19.1496 51.1139 19.2573 51.1139 19.361L51.082 19.672C50.9785 20.4934 50.6718 21.2191 50.2975 21.8291C49.9948 22.3116 49.6125 22.7781 49.1267 23.1888C49.6802 23.0572 50.2218 22.8977 50.6121 22.7303C50.6957 22.6984 50.7594 22.6585 50.8391 22.6266C50.8988 22.5867 50.9625 22.5628 51.0342 22.503C51.1736 22.3993 51.321 22.2638 51.4683 22.1043C51.759 21.7813 52.0935 21.3786 52.3524 21.0636C52.6152 20.7406 52.8143 20.4495 52.9338 20.2302C53.0573 20.0149 53.109 19.8753 53.109 19.8753C53.1409 19.8474 53.2843 19.8594 53.4356 19.8953C53.6347 19.8793 53.8697 19.8873 53.8816 19.9192C53.8816 19.9192 53.9692 20.3458 54.2241 20.8323C54.471 21.3227 54.8971 21.8251 55.2675 22.1641C55.6179 22.5189 56.1436 22.9416 56.6454 23.1968C57.1392 23.46 57.5653 23.5796 57.5653 23.5796C57.5932 23.6075 57.5892 23.7869 57.5653 23.9584C57.5852 24.1258 57.5892 24.3013 57.5653 24.3412C57.5653 24.3412 57.1352 24.4608 56.6454 24.724C56.1476 24.9791 55.6219 25.4018 55.2675 25.7567C54.8971 26.0956 54.471 26.598 54.2241 27.0885C53.9692 27.5709 53.8816 28.0016 53.8816 28.0016C53.8657 28.0335 53.6307 28.0414 53.4316 28.0255C53.2882 28.0574 53.1489 28.0693 53.109 28.0454C53.109 28.0454 53.0573 27.9059 52.9338 27.6905C52.8143 27.4712 52.6152 27.1842 52.3524 26.8572C52.0935 26.5462 51.759 26.1395 51.4683 25.8165C51.321 25.657 51.1776 25.5214 51.0342 25.4178C50.9625 25.3619 50.8988 25.338 50.8391 25.2941C50.7594 25.2622 50.6957 25.2224 50.6121 25.1905C50.0386 24.9393 49.1426 24.716 48.366 24.5684C48.4855 24.6322 48.605 24.696 48.7205 24.7678C49.4134 25.2423 49.9152 25.8364 50.2975 26.4425C50.6718 27.0526 50.9785 27.7743 51.082 28.5997L51.1139 28.9107C51.1139 29.0183 51.1139 29.126 51.1139 29.2297C51.1218 29.441 51.078 29.6643 51.0462 29.8796C50.9466 30.3102 50.7833 30.7489 50.5046 31.1077C50.4369 31.1954 50.3731 31.2911 50.2975 31.3749L50.0546 31.6021C49.8913 31.7656 49.732 31.8613 49.5727 31.9809C49.2421 32.2042 48.8957 32.4076 48.5134 32.5472C48.135 32.6907 47.7368 32.7824 47.3306 32.7864C46.9284 32.7904 46.5262 32.7027 46.1797 32.5272C45.4868 32.1763 45.0726 31.5384 44.9372 30.9482C44.7898 30.3501 44.9213 29.7839 45.1443 29.4131C45.3752 29.0343 45.6739 28.8389 45.873 28.7273C45.9766 28.6794 46.0602 28.6435 46.116 28.6156C46.1717 28.5957 46.2036 28.5877 46.2036 28.5877C46.4624 28.5119 46.4585 28.488 46.2155 28.6156C46.2155 28.6156 46.1877 28.6276 46.1359 28.6555C46.0881 28.6874 46.0124 28.7352 45.9168 28.795C45.7416 28.9306 45.4907 29.1539 45.3354 29.5128C45.1841 29.8676 45.1482 30.3581 45.3354 30.8286C45.5186 31.2951 45.9208 31.7377 46.4465 31.9132C46.9722 32.1006 47.5815 31.9889 48.1311 31.6939C48.6687 31.4068 49.2581 30.9163 49.5329 30.4578C49.8355 29.9793 49.8753 29.3812 49.7678 28.803C49.6643 28.2209 49.4174 27.6586 49.1187 27.1802C48.824 26.7017 48.4297 26.2232 47.9678 25.8683C47.474 25.5134 46.8686 25.2423 46.2275 25.0709C45.9049 24.9752 45.5704 24.9353 45.2359 24.8874C44.9013 24.8715 44.5628 24.8396 44.2283 24.8715C43.5593 24.9034 42.9062 25.035 42.3287 25.2662C42.03 25.3619 41.7712 25.5174 41.5083 25.649C41.2575 25.8005 41.0265 25.964 40.8114 26.1235C40.7557 26.1793 40.6959 26.2272 40.6402 26.279C40.6203 26.299 40.6004 26.3149 40.5804 26.3348C40.4769 26.4226 40.3853 26.5143 40.2977 26.61V26.59ZM51.5201 24.09C51.6475 24.1737 51.7869 24.2654 51.8944 24.3651C52.1174 24.5605 52.3046 24.7877 52.4599 25.0071C52.7666 25.4576 52.9936 25.8564 53.2245 26.271C53.2524 26.3269 53.2803 26.3787 53.3082 26.4345C53.4914 25.8205 53.8617 25.1586 54.3038 24.7479C54.6343 24.4209 55.1042 24.1418 55.5781 23.9464C55.1042 23.755 54.6343 23.4719 54.3038 23.145C53.8617 22.7343 53.4914 22.0724 53.3082 21.4583C53.2803 21.5141 53.2564 21.566 53.2245 21.6218C52.9975 22.0365 52.7705 22.4392 52.4599 22.8858C52.3046 23.1091 52.1174 23.3324 51.8944 23.5277C51.7909 23.6274 51.6475 23.7151 51.5201 23.8029C51.4245 23.8507 51.3329 23.9026 51.2413 23.9464C51.3329 23.9903 51.4285 24.0421 51.5201 24.09Z" fill="currentColor"/>
<path d="M0.0755539 36.3112C0.0755539 36.3112 0.167149 36.2274 0.330425 36.0759C0.493706 35.9204 0.724686 35.6852 0.991505 35.3781C1.52515 34.7561 2.20215 33.8031 2.68402 32.5591C2.92296 31.937 3.12606 31.2512 3.24155 30.5295C3.30129 30.1667 3.33713 29.7998 3.34908 29.429C3.34908 29.2456 3.34908 29.0622 3.33315 28.8787C3.32916 28.6953 3.30129 28.5119 3.27341 28.3325C3.16589 27.6068 2.89907 26.909 2.51278 26.3149C2.31366 26.0238 2.09861 25.7447 1.84373 25.5214C1.72028 25.4058 1.58886 25.2981 1.45346 25.2104L1.27425 25.0908C1.17867 25.0469 1.11894 24.9871 0.991505 24.9552C0.760525 24.8794 0.533531 24.8076 0.306534 24.7319C0.306534 24.5923 0.302547 24.3172 0.298569 24.0461C0.298569 23.7789 0.306534 23.4998 0.306534 23.3602C0.533531 23.2885 0.760525 23.2127 0.991505 23.1369C1.11894 23.105 1.17867 23.0452 1.27425 23.0014L1.45346 22.8818C1.58886 22.79 1.7163 22.6824 1.84373 22.5707C2.09861 22.3474 2.31366 22.0683 2.51278 21.7773C2.89907 21.1831 3.16987 20.4854 3.27341 19.7597C3.30129 19.5802 3.32916 19.3968 3.33315 19.2134C3.34908 19.03 3.35306 18.8465 3.34908 18.6631C3.33713 18.2963 3.30129 17.9255 3.24155 17.5626C3.12606 16.8409 2.92296 16.1511 2.68402 15.533C2.20215 14.289 1.52515 13.332 0.991505 12.714C0.720703 12.403 0.493706 12.1677 0.330425 12.0162C0.163166 11.8647 0.0755539 11.7809 0.0755539 11.7809C-0.123566 11.5537 0.230865 11.0712 0.529545 11.2307C0.529545 11.2307 0.633087 11.3104 0.820259 11.462C0.828224 11.4699 0.840172 11.4779 0.848137 11.4859C0.895927 11.5258 0.94371 11.5656 0.999466 11.6135C1.16274 11.757 1.36186 11.9404 1.58488 12.1677C2.20613 12.8017 3.01057 13.7985 3.6159 15.1383C3.91856 15.8082 4.1814 16.5498 4.34866 17.3553C4.41636 17.6782 4.46415 18.0132 4.49999 18.3521C4.82256 18.2245 5.32832 18.0291 5.98542 17.7899C7.16022 17.3593 8.82486 16.813 10.6687 16.1272C11.1346 15.9557 11.5807 15.7723 12.0665 15.561C12.5564 15.3536 13.1059 15.1343 13.7312 15.0506C14.3524 14.9668 14.9458 15.0187 15.4914 15.0506C16.0409 15.0905 16.5945 15.1263 17.1481 15.1662C18.2552 15.246 19.3543 15.3257 20.4216 15.4055C20.6924 15.4254 20.995 15.4533 21.3176 15.533C21.6362 15.6048 21.9906 15.7723 22.2495 15.9557C22.6238 16.2308 22.8867 16.482 23.1415 16.7253C23.1575 16.7173 23.1734 16.7053 23.1933 16.7053C23.1933 16.7053 25.1367 16.5897 27.7054 16.4382C28.9917 16.3863 30.4691 16.3385 31.9586 16.5538C32.7033 16.6575 33.444 16.8329 34.1409 17.0961C34.4874 17.2197 34.8498 17.3792 35.1923 17.6025C35.5308 17.8258 35.8693 18.1408 36.0803 18.5634C36.2954 18.9781 36.3511 19.5204 36.2277 19.975C36.1162 20.4375 35.8732 20.8323 35.5626 21.1592C34.9015 21.845 34.0214 22.0683 33.2608 22.164C32.4882 22.2518 31.7953 22.2677 31.0824 22.3036C30.3775 22.3315 29.6926 22.3474 29.0474 22.3514C27.4107 22.3634 26.0328 22.3116 25.2363 22.2717C24.9934 22.3993 24.7425 22.5149 24.4876 22.6066C24.0814 22.7542 23.6672 22.8499 23.257 22.9097C23.3566 22.9575 23.4562 23.0133 23.5557 23.0811C23.9938 23.3802 24.4916 23.9105 24.623 24.692C24.7544 25.4536 24.5274 26.3348 23.8982 27.0007C23.5916 27.3277 23.1336 27.5988 22.6836 27.7104C22.3889 27.7862 22.1061 27.8261 21.8313 27.85C21.8353 27.858 21.8393 27.862 21.8473 27.8699C22.0225 28.0972 22.2415 28.4641 22.357 28.9705C22.4725 29.4729 22.4845 30.1228 22.2017 30.7967C22.0623 31.1316 21.8313 31.4665 21.5247 31.7337C21.3694 31.8693 21.1782 31.9969 20.9552 32.0846C20.7402 32.1723 20.5291 32.2122 20.3419 32.2481C19.9915 32.3079 19.6291 32.3717 19.2547 32.4275C19.3423 32.6588 19.3941 32.9618 19.3264 33.3207C19.2348 33.7872 18.9361 34.2298 18.6056 34.6086C18.4383 34.796 18.283 34.9914 18.056 35.2067C17.841 35.414 17.5184 35.6453 17.152 35.745C16.7936 35.8486 16.4631 35.8606 16.1724 35.8885C15.8697 35.9124 15.5511 35.9364 15.2166 35.9364C14.8821 35.9364 14.5316 35.9204 14.1692 35.8526C13.8108 35.7888 13.4325 35.6612 13.1139 35.5057C12.855 35.3781 12.6201 35.2466 12.3971 35.115C12.3373 35.1509 12.19 35.2346 11.963 35.3582C11.6643 35.5097 11.2302 35.737 10.6368 35.8566C10.0475 35.9762 9.35053 35.9284 8.72928 35.737C8.10405 35.5536 7.5505 35.2585 7.10447 34.9674C6.20843 34.3773 5.27655 33.4642 4.56371 32.7106C4.34069 32.4714 4.13759 32.2521 3.96635 32.0607C3.85484 32.3717 3.73537 32.6747 3.60793 32.9618C3.00261 34.3016 2.19817 35.2984 1.57692 35.9324C1.26629 36.2474 0.99947 36.4826 0.812298 36.6381C0.724686 36.7059 0.660965 36.7578 0.609192 36.7976C0.593262 36.8096 0.577332 36.8216 0.565388 36.8295C0.53751 36.8535 0.517601 36.8694 0.517601 36.8694C0.254761 37.0608 -0.159405 36.5305 0.0636063 36.3192L0.0755539 36.3112ZM29.0116 21.3067C29.6488 21.2589 30.3218 21.2031 31.0107 21.1393C31.6917 21.0675 32.4325 21.0077 33.0776 20.904C33.7188 20.8004 34.2883 20.5771 34.5829 20.2302C34.7422 20.0547 34.8577 19.8434 34.8976 19.656C34.9374 19.4646 34.9175 19.325 34.8498 19.1815C34.7223 18.8944 34.2604 18.5794 33.663 18.3561C33.0696 18.1169 32.4245 17.9374 31.7555 17.8098C30.4174 17.5546 28.9996 17.5068 27.7253 17.4789C26.0726 17.455 24.6827 17.435 23.9022 17.427C24.2725 17.7779 24.6509 18.1328 25.0372 18.4957C25.308 18.7548 25.5828 19.014 25.8575 19.2772C25.985 19.4008 26.1562 19.5563 26.3155 19.7676C26.3553 19.8195 26.3952 19.8753 26.435 19.9391C26.4748 20.0029 26.5226 20.0986 26.5584 20.1783C26.6301 20.3498 26.666 20.5332 26.662 20.7166C26.662 20.9838 26.5465 21.2429 26.3832 21.4543C27.116 21.4224 28.016 21.3745 29.0156 21.3028L29.0116 21.3067ZM23.1694 26.259C23.5836 25.8763 23.7747 25.2941 23.719 24.8276C23.6752 24.3571 23.3805 23.9743 23.0858 23.743C22.7831 23.5078 22.4805 23.4121 22.2774 23.3762C22.1141 23.3483 22.0105 23.3483 21.9747 23.3483C21.9588 23.3722 21.9389 23.4001 21.911 23.42C21.911 23.42 21.7716 23.4838 21.5088 23.5716C21.2459 23.6593 20.8517 23.759 20.3579 23.7988C19.864 23.8427 19.2746 23.8307 18.6295 23.739C17.9844 23.6553 17.2874 23.4799 16.5865 23.3244C15.8856 23.1688 15.1608 23.0452 14.4838 23.133C13.8148 23.2127 13.1975 23.5437 12.7555 24.05C12.644 24.1737 12.5444 24.3092 12.4608 24.4488C12.417 24.5166 12.3811 24.5923 12.3453 24.6641C12.3214 24.7159 12.3294 24.704 12.3254 24.708V24.7159C12.3254 24.7159 12.3333 24.7319 12.3413 24.7359C12.3413 24.7359 12.3493 24.7359 12.3533 24.7359L12.5882 24.8316C13.317 25.1386 14.0219 25.4337 14.683 25.7088C15.344 25.9919 16.021 26.2989 16.71 26.4943C17.387 26.6937 18.1237 26.7335 18.9361 26.7375C19.7486 26.7296 20.561 26.7176 21.3535 26.7096C21.7557 26.7056 22.1221 26.6937 22.4247 26.6299C22.7314 26.5661 22.9544 26.4465 23.1654 26.2551L23.1694 26.259ZM20.9074 30.9721C21.1105 30.8166 21.2658 30.6212 21.3734 30.4059C21.5884 29.9713 21.6243 29.4968 21.5645 29.126C21.5048 28.7511 21.3694 28.472 21.2539 28.3046C21.1384 28.1331 21.0588 28.0534 21.0588 28.0534C21.0269 28.0175 21.0229 27.9656 21.0309 27.9058C21.0229 27.9058 21.011 27.9058 21.003 27.9058C20.9751 27.9736 20.9234 28.0294 20.8557 28.0573C20.8557 28.0573 20.322 28.1451 19.414 28.2328C18.96 28.2727 18.4065 28.3086 17.7733 28.2846C17.1441 28.2567 16.4233 28.181 15.6865 27.9178C15.3162 27.7982 14.9458 27.6148 14.5874 27.4034C14.2489 27.1921 13.9661 27.0087 13.7471 26.9768C13.536 26.9369 13.2732 26.9927 12.9665 27.1323C12.6679 27.2679 12.3214 27.4792 11.9709 27.6746C11.6324 27.866 11.2939 28.0573 10.9554 28.2487C10.8161 28.3325 10.7165 28.4162 10.6807 28.468C10.6488 28.5119 10.6528 28.5318 10.6528 28.5478C10.6528 28.5598 10.6647 28.6076 10.7284 28.6913C10.7882 28.7711 10.8877 28.8588 10.9992 28.9425C11.1108 29.0263 11.2382 29.106 11.3696 29.1738C11.5249 29.2496 11.6763 29.3253 11.8276 29.3971C11.9709 29.4689 12.1223 29.5446 12.2696 29.6164C12.5683 29.6682 12.8391 29.7679 13.0701 29.8836C13.3767 30.0351 13.6356 30.2065 13.8705 30.362C13.9661 30.4258 14.0617 30.4896 14.1493 30.5455C14.6073 30.7688 15.0653 30.9721 15.5232 31.1157C15.8219 31.1595 16.1325 31.1755 16.4233 31.1874C16.8414 31.1994 17.2357 31.2193 17.5702 31.2672C17.8012 31.2991 18.0003 31.3469 18.1596 31.3948C18.8525 31.3629 19.5415 31.2831 20.1946 31.2113C20.541 31.1715 20.7043 31.1276 20.9074 30.9721ZM13.6953 34.3654C13.9382 34.5009 14.1692 34.5886 14.4281 34.6524C14.6869 34.7162 14.9657 34.7481 15.2524 34.7641C15.5392 34.78 15.8339 34.78 16.1325 34.776C16.4392 34.776 16.698 34.776 16.8932 34.7282C17.2476 34.6764 17.5901 34.3175 17.9366 33.9746C18.2631 33.6556 18.4702 33.3645 18.5419 33.1293C18.6096 32.894 18.5658 32.6787 18.518 32.575C18.51 32.5551 18.4981 32.5391 18.4901 32.5232C18.3547 32.5391 18.2193 32.5551 18.0759 32.5671C17.2715 32.6348 16.4033 32.6348 15.5431 32.4514C14.671 32.268 13.9024 31.9131 13.2095 31.5901C12.6798 31.335 12.1701 31.0917 11.6723 30.8565C11.4134 30.9402 11.1785 31.1316 10.9554 31.4267C10.8081 31.622 10.6767 31.8453 10.5532 32.0846C10.4935 32.2042 10.4337 32.3278 10.374 32.4514C10.3461 32.5152 10.3501 32.5112 10.3541 32.5112H10.3621C10.3621 32.5112 10.3939 32.5431 10.4178 32.5591C10.4616 32.599 10.5134 32.6348 10.5691 32.6747C10.9076 32.914 11.4453 33.0894 12.0625 33.3845C12.6957 33.6955 13.2055 34.1022 13.6913 34.3654H13.6953ZM5.27257 31.9291C6.081 32.5471 7.09252 33.3007 7.87307 33.8071C8.25936 34.0663 8.70141 34.3374 9.15938 34.5328C9.61736 34.7322 10.0913 34.8319 10.5174 34.8199C10.8957 34.8079 11.2501 34.7202 11.5369 34.6405C11.5209 34.6325 11.501 34.6205 11.4851 34.6126C10.9953 34.3853 10.378 34.2178 9.79258 33.8271C9.697 33.7633 9.60541 33.6915 9.51381 33.6117C9.46602 33.5719 9.43417 33.54 9.37443 33.4841C9.31071 33.4243 9.26292 33.3605 9.21115 33.2967C8.98814 33.0575 8.92442 32.7903 8.92044 32.6189C8.91646 32.4833 8.94035 32.3477 8.99212 32.2162L9.14743 31.8733C9.21514 31.7337 9.28682 31.5941 9.36647 31.4546C9.52178 31.1715 9.70497 30.8884 9.92798 30.6132C10.0514 30.4617 10.1948 30.3142 10.3541 30.1786C10.2904 30.1348 10.2227 30.0909 10.159 30.0431C9.97975 29.9035 9.79656 29.74 9.6293 29.5167C9.46602 29.3014 9.30673 28.9864 9.29478 28.6116C9.27487 28.2408 9.4262 27.8739 9.64125 27.6227C9.8563 27.3715 10.0833 27.232 10.2824 27.1163C10.6687 26.909 10.9953 26.7455 11.3577 26.5581C11.6245 26.4265 11.8833 26.283 12.182 26.1434C12.1382 26.1235 12.0984 26.1075 12.0546 26.0876L11.744 25.948C11.5687 25.8643 11.3975 25.7606 11.2661 25.6251C10.9953 25.3619 10.8798 24.9592 10.9754 24.5883C10.9953 24.4966 11.0271 24.4009 11.0669 24.3092C11.1028 24.2215 11.1585 24.1178 11.1785 24.078C11.2382 23.9703 11.2979 23.8626 11.3656 23.759C11.501 23.5516 11.6524 23.3602 11.8196 23.1848C12.4807 22.479 13.4365 22.0364 14.3644 21.9726C15.2923 21.9049 16.1166 22.1122 16.8374 22.3076C17.5622 22.5149 18.1954 22.7143 18.7768 22.8259C19.3583 22.9456 19.88 22.9894 20.3061 22.9814C20.7322 22.9735 21.0667 22.9137 21.2897 22.8578C20.1468 22.6345 19.2069 22.1042 18.5897 21.5739C18.1994 21.2469 17.9087 20.924 17.7096 20.6568C17.6459 20.5571 17.61 20.4814 17.5901 20.4295C17.4985 20.4854 17.4228 20.5452 17.2158 20.6608C16.9768 20.7964 16.7458 20.916 16.5228 21.0197C16.0728 21.223 15.6586 21.3705 15.2843 21.4702C14.5356 21.6776 13.9542 21.7294 13.5281 21.7573C13.1019 21.7812 12.8232 21.7653 12.6519 21.7573C12.4807 21.7493 12.421 21.7414 12.421 21.7414C11.9948 21.6576 12.0825 21.0635 12.4727 21.0276C12.4727 21.0276 12.5285 21.0316 12.6838 21.0356C12.8391 21.0356 13.09 21.0436 13.4803 21.0117C13.8666 20.9758 14.3962 20.916 15.0692 20.7126C15.4077 20.6129 15.7781 20.4774 16.1803 20.282C16.3795 20.1863 16.5865 20.0747 16.8016 19.9471C17.0445 19.7995 17.4228 19.5324 17.8012 19.2612C17.9047 19.3848 18.1078 19.6799 18.4264 20.0667C18.6136 20.274 18.8764 20.5292 19.2189 20.7804C19.8959 21.2868 20.9512 21.7773 22.1818 21.7773C22.7951 21.7773 23.4402 21.6616 24.0535 21.4224C24.3602 21.3028 24.6549 21.1473 24.9336 20.9678C25.065 20.8801 25.2283 20.7685 25.3 20.6967C25.3199 20.6728 25.3119 20.6728 25.3159 20.6608C25.3159 20.6568 25.3159 20.6528 25.3119 20.6488L25.2562 20.5771C25.1845 20.4854 25.073 20.3817 24.9257 20.2461C24.6469 19.9909 24.3721 19.7357 24.0973 19.4845C23.5517 18.9781 23.0221 18.4877 22.5123 18.0172C22.1698 17.7022 21.7756 17.2994 21.465 17.0762C21.3057 16.9605 21.1822 16.9047 20.9911 16.8489C20.8039 16.797 20.5729 16.7691 20.3141 16.7452C19.2508 16.6415 18.1516 16.5339 17.0485 16.4302C16.4989 16.3744 15.9454 16.3186 15.3958 16.2627C14.8462 16.2069 14.3365 16.1551 13.8785 16.1989C13.4285 16.2428 12.9626 16.3983 12.4847 16.5777C12.0028 16.7651 11.4931 16.9486 11.0192 17.1041C9.10761 17.7221 7.43501 18.1886 6.24428 18.5555C5.40001 18.8107 4.8146 19.01 4.53981 19.1057C4.53981 19.1536 4.53981 19.2014 4.53981 19.2493C4.53981 19.4686 4.5199 19.6919 4.49601 19.9152C4.40043 20.8043 4.10175 21.6935 3.62386 22.475C3.37696 22.8578 3.10217 23.2326 2.76765 23.5437C2.60437 23.7031 2.42915 23.8507 2.24197 23.9863L2.17825 24.0301V24.0341H2.18622C2.18622 24.0341 2.18224 24.0341 2.17825 24.0341V24.0381L2.24197 24.0819C2.42915 24.2135 2.60437 24.3651 2.76765 24.5245C3.10615 24.8356 3.37696 25.2064 3.62386 25.5932C4.10175 26.3747 4.40043 27.2639 4.49601 28.153C4.52388 28.3763 4.5438 28.5956 4.53981 28.8189C4.54778 29.0382 4.53981 29.2575 4.52786 29.4768C4.49202 29.9075 4.43229 30.3222 4.34866 30.7249C4.32078 30.8605 4.28494 30.992 4.25308 31.1236C4.50795 31.323 4.86239 31.5981 5.27257 31.9171V31.9291Z" fill="currentColor"/>
</svg>
