<svg width="20" height="17" viewBox="0 0 20 17" fill="none" xmlns="http://www.w3.org/2000/svg">
<path d="M19.9737 2.28292C20.0331 2.20013 19.9454 2.09323 19.8504 2.13006C19.1752 2.39177 18.4695 2.56835 17.7497 2.65537C18.5512 2.17656 19.1696 1.44771 19.5126 0.584797C19.5475 0.496893 19.4515 0.418392 19.3687 0.464121C18.6238 0.875493 17.8205 1.17171 16.986 1.34231C16.951 1.34945 16.915 1.33756 16.8905 1.31168C16.2643 0.650892 15.4399 0.210926 14.5413 0.058888C13.6237 -0.096343 12.6806 0.0573577 11.8598 0.495884C11.0391 0.934411 10.3871 1.63296 10.0061 2.48197C9.64384 3.28922 9.54609 4.18908 9.72476 5.05329C9.73862 5.12034 9.68613 5.18365 9.61779 5.1794C7.99414 5.07856 6.40774 4.64669 4.95633 3.90982C3.50861 3.17483 2.22661 2.15232 1.18841 0.905378C1.14234 0.850038 1.05501 0.8572 1.02144 0.920906C0.698387 1.53393 0.529246 2.21718 0.529705 2.91162C0.528394 3.60286 0.698028 4.2837 1.0235 4.89352C1.34898 5.50334 1.8202 6.02322 2.39521 6.40687C1.78541 6.39027 1.1875 6.23952 0.643735 5.96619C0.573658 5.93097 0.489601 5.98112 0.493246 6.05947C0.535649 6.97093 0.870263 7.88598 1.44945 8.58803C2.06581 9.33512 2.92129 9.8464 3.87121 10.0354C3.50554 10.1466 3.1259 10.2053 2.74371 10.2096C2.53569 10.2072 2.32808 10.1918 2.12208 10.1637C2.0457 10.1532 1.98333 10.2258 2.01007 10.2981C2.2934 11.0643 2.79393 11.7328 3.45206 12.2208C4.15567 12.7426 5.00442 13.032 5.88021 13.0489C4.40134 14.2125 2.57549 14.8476 0.693706 14.8529C0.500346 14.8535 0.307072 14.8472 0.114254 14.8341C0.00559562 14.8267 -0.0443781 14.9715 0.0492817 15.027C1.88277 16.1151 3.97841 16.6902 6.11596 16.6876C7.69414 16.704 9.25977 16.4058 10.7214 15.8103C12.183 15.2148 13.5114 14.3341 14.6288 13.2195C15.7462 12.105 16.6304 10.7789 17.2296 9.31879C17.8288 7.8587 18.1311 6.29384 18.1187 4.71561V4.22379C18.1187 4.19143 18.134 4.161 18.1598 4.1415C18.8551 3.61655 19.4665 2.98983 19.9737 2.28292Z" fill="white"/>
</svg>
