<svg
    width="24"
    height="24"
    viewBox="0 0 24 24"
  >
   <path fill="currentColor" d="M4.83 3.699v3.699h.997V.997h11.538v6.401H18.4V0H4.83v3.699M1.979 9.352l.026.957-.103.039c-.068.026-.405.031-.961.015l-.857-.025-.03.226c-.017.125-.031.546-.032.936-.002.569.01.751.064.923.086.279.31.534.574.653.183.082.256.091.749.091h.546l.009 3.489.01 3.488.219.012c.24.012.237.009.269.371.009.102.027.117.144.128.161.015.191.055.193.256.004.493.436.836 1.117.889l.301.023V23h15.19l-.026-.565a7.382 7.382 0 0 0-.047-.633c-.024-.083.096-.085.666-.014.217.027.393.039.393.027 0-.013-.026-.229-.057-.481a7.783 7.783 0 0 1-.058-.589v-.13l.561.028.561.028-.025-.627c-.014-.346-.059-1.81-.099-3.254a372.306 372.306 0 0 0-.095-3.053l-.021-.426.489-.018c.577-.021.854-.106 1.041-.32.289-.328.327-.553.295-1.72a25.474 25.474 0 0 0-.034-.925c-.005-.005-.391.01-.859.031-.467.022-.879.028-.916.014-.061-.023-.064-.097-.038-1.001l.027-.977H12.382v2.952h3.258V12.446l-2.134.025c-1.173.014-2.924.026-3.891.026H7.858v-1.15h3.144V8.395H1.953l.026.957m8.026.519v.479H6.861l.01 1.581.01 1.581 1.629-.01c.896-.005 3.091-.02 4.878-.033l3.249-.024V10.35h-3.259v-.958h6.747v.491c0 .724.112 1.046.445 1.275.216.148.576.225 1.06.226l.373.001v.417c0 .325-.012.428-.057.465-.045.037-.257.041-.942.02l-.885-.029.024.532c.013.292.056 1.712.097 3.157.041 1.444.084 2.863.097 3.153l.023.527h-.149c-.36 0-.693.188-.842.476a1.25 1.25 0 0 0-.079.372l-.018.254-.168.023c-.497.068-.781.442-.781 1.028v.223H5.213v-.651c0-.596-.005-.652-.067-.651a7.948 7.948 0 0 0-.45.057 5.509 5.509 0 0 1-.637.056l-.254.001-.018-.278c-.03-.458-.232-.738-.614-.851l-.164-.049-.01-3.749-.009-3.749-.93.025c-.565.015-.952.011-.987-.011-.043-.028-.06-.131-.07-.416l-.013-.379.379.018c.695.034 1.18-.116 1.398-.432.159-.23.223-.54.223-1.081v-.471H10.005v.479m3.047 4.425c-.579.141-.879.804-.618 1.365a.846.846 0 0 0 .799.515c.678-.003 1.1-.747.786-1.385a.867.867 0 0 0-.555-.478c-.19-.058-.238-.059-.412-.017m3.259-.002c-.699.179-.947 1.088-.44 1.611a.799.799 0 0 0 .627.271c.758-.003 1.171-.93.694-1.556-.192-.252-.592-.4-.881-.326m-9.971.173c-.543.253-.692.992-.302 1.502.129.17.448.323.673.323.539 0 .999-.595.878-1.136-.081-.362-.236-.565-.536-.701a.819.819 0 0 0-.713.012m3.25.008c-.33.164-.505.461-.505.858 0 .393.18.697.509.861.26.13.487.129.752-.003.701-.35.693-1.396-.014-1.725a.787.787 0 0 0-.742.009m-1.818 1.754c-.518.193-.757.79-.527 1.32a.871.871 0 0 0 1.36.344c.372-.307.448-.875.174-1.307-.204-.322-.664-.485-1.007-.357m3.46-.004c-.207.068-.512.395-.573.614-.169.606.204 1.198.786 1.247a.884.884 0 0 0 .915-.648c.074-.251.075-.353.004-.593-.144-.482-.675-.772-1.132-.62m3.45 0c-.207.068-.512.395-.573.614-.169.606.204 1.198.786 1.247a.884.884 0 0 0 .915-.648c.074-.251.075-.353.004-.593-.144-.482-.675-.772-1.132-.62m-1.875 1.837c-.299.183-.445.451-.444.817 0 .225.018.302.112.472.215.389.604.565.995.451a.864.864 0 0 0 .551-.438c.091-.154.105-.22.105-.488 0-.278-.012-.329-.116-.497a1.253 1.253 0 0 0-.28-.303c-.139-.098-.208-.118-.44-.128-.256-.012-.291-.004-.483.114m-2.994-.007c-.396.074-.678.404-.717.84-.079.882.892 1.39 1.498.784.382-.382.366-1.087-.032-1.423a.921.921 0 0 0-.749-.201M7.13 20.968v.499h8.97v-.997H7.13v.498"></path> 
</svg>